<?xml version="1.0" encoding="utf-8"?>
<!-- Generator: Adobe Illustrator 24.0.1, SVG Export Plug-In . SVG Version: 6.00 Build 0)  -->
<svg version="1.1" id="Ebene_1" xmlns="http://www.w3.org/2000/svg" xmlns:xlink="http://www.w3.org/1999/xlink" x="0px" y="0px"
	 viewBox="0 0 278.6 362.8" style="enable-background:new 0 0 278.6 362.8;" xml:space="preserve">
<style type="text/css">
	.st0{fill:none;}
	.st1{fill:#6CBB7F;}
	.st2{fill:#96CCA2;}
	.st3{fill:#CAE3CC;}
	.st4{fill:#A49BBF;}
	.st5{fill:#8DBE22;}
	.st6{fill:#D3BF74;}
	.st7{fill:#B9D156;}
	.st8{fill:#AFD183;}
	.st9{fill:#74992C;}
	.st10{fill:#CCC662;}
	.st11{fill:#D08058;}
	.st12{fill:#409A40;}
	.st13{fill:#553375;}
	.st14{fill:#79367F;}
	.st15{fill:#89448E;}
	.st16{fill:#923777;}
	.st17{fill:#618533;}
	.st18{fill:#759B3C;}
	.st19{fill:#5AB252;}
	.st20{fill:#A84392;}
	.st21{fill:#E49562;}
	.st22{fill:#A8C831;}
	.st23{fill:#5C3E91;}
	.st24{fill:#4C2967;}
	.st25{fill:#3EAD6C;}
	.st26{fill:#649968;}
	.st27{fill:#6B8439;}
	.st28{fill:#A2D1AE;}
	.st29{fill:#28874F;}
	.st30{fill:#466120;}
	.st31{fill:#5C7D2C;}
	.st32{fill:#222D19;}
	.st33{fill:#111A2D;}
	.st34{fill:#EBE984;}
	.st35{fill:#AEDAD9;}
	.st36{fill:#7CA5C5;}
	.st37{fill:#00451C;}
	.st38{fill:#F9E480;}
	.st39{fill:#D6BC97;}
	.st40{fill:#E5C9A0;}
	.st41{fill:#CFAC41;}
	.st42{fill:#6A932E;}
	.st43{fill:#AB9626;}
	.st44{fill:#99812F;}
	.st45{fill:#ADA12C;}
	.st46{fill:#CDA3CC;}
	.st47{fill:#F6E833;}
	.st48{fill:#E4E685;}
	.st49{fill:#E0CE84;}
	.st50{fill:#DABDDB;}
	.st51{fill:#8C92C8;}
	.st52{fill:#3F2A68;}
	.st53{fill:#3C2154;}
	.st54{fill:#D7E3A1;}
	.st55{fill:#ABCD67;}
	.st56{fill:#B6D05C;}
	.st57{fill:#D79F85;}
	.st58{fill:#95BFBA;}
	.st59{fill:#4FBDE6;}
	.st60{fill:#1F4E7B;}
	.st61{fill:#788D9C;}
	.st62{fill:#57B469;}
	.st63{fill:#01B4BF;}
	.st64{fill:#C086AF;}
	.st65{fill:#495E90;}
	.st66{fill:#6F3178;}
	.st67{fill:#725F92;}
	.st68{fill:#703A8F;}
	.st69{fill:#684783;}
	.st70{fill:#78A239;}
	.st71{fill:#708391;}
	.st72{fill:#BCD78F;}
	.st73{fill:#9588A6;}
	.st74{fill:#F4DCEC;}
	.st75{fill:#FFFFFF;}
	.st76{fill:#6255A0;}
	.st77{fill:#8F7E1E;}
</style>
<polygon class="st0" points="154.4,104.1 148,123.9 152.3,110.4 "/>
<polygon class="st0" points="63.3,123.6 60.5,123.2 73.4,125 "/>
<polygon class="st0" points="169.3,78.2 169.3,78.2 180.2,83.6 183.1,100.6 180.2,83.6 "/>
<polygon class="st0" points="67.3,106.4 67.3,106.4 59.9,89.2 65.7,80.6 59.9,89.2 "/>
<polygon class="st0" points="186.3,84.2 183.1,100.6 186.3,84.2 182.4,80.3 "/>
<polygon class="st0" points="206.2,66.6 209,26.6 207.1,53 "/>
<polygon class="st0" points="68.3,133.6 73.4,125 69.6,109.3 77.7,103.2 69.6,109.3 72.5,121 73.4,125 68.3,133.6 74.4,132.3 "/>
<polygon class="st0" points="214.2,57.3 222.2,48 206.2,66.6 "/>
<polygon class="st0" points="149.6,82 148,123.9 149.1,96.1 "/>
<polygon class="st0" points="97.6,134.4 97.5,134.4 97.6,134.4 79.5,131.2 "/>
<polygon class="st0" points="70.4,78.3 66.4,86.7 66.7,89.5 66.4,86.7 "/>
<polygon class="st0" points="82.9,80.2 78.5,80.6 92,79.4 "/>
<polygon class="st0" points="196.5,97.2 210,114.3 186.3,84.2 "/>
<polygon class="st1" points="97.6,134.4 93.8,101.6 88.1,110 "/>
<polygon class="st1" points="107.8,74.4 94.6,73.8 92,79.4 86.6,93.2 99.2,84.2 "/>
<polygon class="st2" points="79.5,131.2 79.5,131.2 79.5,131.2 97.6,134.4 97.6,134.4 88.1,110 "/>
<polygon class="st3" points="88.1,110 86.6,93.2 78.9,102.2 79.5,131.2 "/>
<polygon class="st4" points="93.8,101.6 125.5,84.2 99.2,84.2 "/>
<polygon class="st5" points="99.2,84.2 125.5,84.2 149.6,82 107.8,74.4 "/>
<polygon class="st6" points="92,79.4 78.5,80.6 86.6,93.2 "/>
<polygon class="st7" points="110.1,126.9 138.7,132.1 125.5,84.2 "/>
<polygon class="st8" points="110.1,126.9 93.8,101.6 125.5,84.2 "/>
<polygon class="st5" points="110.1,126.9 93.8,101.6 97.6,134.4 "/>
<polygon class="st9" points="97.6,134.4 97.6,134.4 97.5,134.4 83.2,143.1 77.9,146.2 96.1,147.5 110.1,126.9 "/>
<polygon class="st5" points="96.1,147.5 111,145.5 138.7,132.1 110.1,126.9 "/>
<polygon class="st10" points="125.5,84.2 138.7,132.1 149.6,82 "/>
<polygon class="st11" points="138.7,132.1 148,123.9 149.6,82 "/>
<polygon class="st12" points="152.6,94 149.1,96.1 148,123.9 154.4,104.1 "/>
<polygon class="st6" points="97.6,134.4 79.5,131.2 79.5,131.2 83.2,143.1 97.5,134.4 "/>
<polygon class="st13" points="102.2,171.9 137.7,154.6 138.7,132.1 "/>
<polygon class="st14" points="111,145.5 110.1,157.7 102.2,171.9 138.7,132.1 "/>
<polygon class="st15" points="92.7,160.9 94.6,166 102.2,171.9 110.1,157.7 "/>
<polygon class="st16" points="111,145.5 96.1,147.5 85.5,156.1 92.7,160.9 110.1,157.7 "/>
<polygon class="st17" points="84.2,149.2 70.6,149.7 85.5,156.1 96.1,147.5 "/>
<polygon class="st14" points="94.6,166 87.2,167 102.2,171.9 "/>
<polygon class="st18" points="58.8,150.1 60.9,153.2 66.9,156.9 85.5,156.1 "/>
<polygon class="st19" points="70.6,149.7 58.8,150.1 85.5,156.1 "/>
<polygon class="st20" points="92.7,160.9 85.5,156.1 66.9,156.9 87.2,167 94.6,166 "/>
<polygon class="st21" points="102.2,171.9 106.5,177.8 109.5,189.3 137.7,154.6 "/>
<polygon class="st22" points="109.5,189.3 132,175.9 153.5,164.9 137.7,154.6 "/>
<polygon class="st23" points="137.7,154.6 153.5,164.9 147.2,143.5 "/>
<polygon class="st24" points="138.7,132.1 137.7,154.6 147.2,143.5 161.5,126.9 148,123.9 "/>
<polygon class="st13" points="147.2,143.5 153.5,164.9 177.1,156.6 161.5,126.9 "/>
<polygon class="st25" points="148,123.9 160.7,106.4 152.3,110.4 "/>
<polygon class="st26" points="160.7,106.4 161.5,126.9 175.9,114.3 167.6,111.4 "/>
<polygon class="st27" points="160.7,106.4 167.6,111.4 175.9,114.3 170.4,89.2 "/>
<polygon class="st28" points="170.4,89.2 175.9,114.3 183.1,100.6 "/>
<polygon class="st26" points="170.4,89.2 183.1,100.6 180.2,83.6 "/>
<polygon class="st29" points="169.3,78.2 169.3,78.2 169.3,78.2 180.2,83.6 183.1,100.6 186.3,84.2 182.4,80.3 176.7,74.4 
	164.5,74.4 160.7,82.6 "/>
<polygon class="st30" points="169.3,78.2 169.3,78.2 160.7,82.6 149.1,96.1 152.6,94 162.3,87.7 165.3,85.7 170.4,89.2 180.2,83.6 
	"/>
<polygon class="st25" points="160.7,82.6 149.6,82 149.1,96.1 "/>
<polygon class="st28" points="160.7,82.6 164.5,74.4 149.6,82 "/>
<polygon class="st31" points="162.3,87.7 160.7,106.4 170.4,89.2 165.3,85.7 "/>
<polygon class="st32" points="152.6,94 160.7,106.4 162.3,87.7 "/>
<polygon class="st33" points="154.4,104.1 152.3,110.4 160.7,106.4 152.6,94 "/>
<polygon class="st17" points="60,145.6 57.9,146.3 58.8,150.1 70.6,149.7 "/>
<polygon class="st1" points="60,145.6 70.6,149.7 62.5,137.7 "/>
<polygon class="st2" points="62.5,137.7 61.1,131.6 61.1,135.4 58.5,142.5 57.9,146.3 60,145.6 "/>
<polygon class="st2" points="96.1,147.5 77.9,146.2 68.3,133.6 70.6,149.7 84.2,149.2 "/>
<polygon class="st19" points="83.2,143.1 79.5,131.2 74.4,132.3 68.3,133.6 77.9,146.2 "/>
<polygon class="st2" points="79.5,131.2 79.5,131.2 78.9,102.2 78.9,102.2 77.7,103.2 69.6,109.3 73.4,125 68.3,133.6 74.4,132.3 
	79.5,131.2 79.5,131.2 "/>
<polygon class="st34" points="78.9,102.2 78.9,102.2 86.6,93.2 78.5,80.6 74.7,92.9 69.6,109.3 77.7,103.2 "/>
<polygon class="st12" points="60.5,123.2 61.2,125 73.4,125 "/>
<polygon class="st1" points="62.1,121.6 73.4,125 72.5,121 "/>
<polygon class="st12" points="67.3,106.4 61.8,110 69.6,109.3 "/>
<polygon class="st35" points="72.5,121 69.6,109.3 61.8,110 62.1,121.6 "/>
<polygon class="st2" points="73.4,125 62.1,121.6 61.8,110 60.5,120.7 60.5,123.2 63.3,123.6 "/>
<polygon class="st1" points="73.4,125 61.2,125 60.5,128.2 70.3,126.9 "/>
<polygon class="st36" points="70.3,126.9 68.3,133.6 73.4,125 "/>
<polygon class="st4" points="70.3,126.9 60.5,128.2 61.1,131.6 68.3,133.6 "/>
<polygon class="st25" points="70.6,149.7 68.3,133.6 61.1,131.6 62.5,137.7 "/>
<polygon class="st2" points="93.8,101.6 99.2,84.2 86.6,93.2 88.1,110 "/>
<polygon class="st7" points="69.6,88.6 66.4,86.7 70.6,100.9 67.3,106.4 67.3,106.4 67.3,106.4 67.3,106.4 69.6,109.3 74.7,92.9 "/>
<polygon class="st37" points="55.8,104 61.8,110 67.3,106.4 "/>
<polygon class="st1" points="53.9,102.2 50.5,100.6 57.3,107.5 55.8,104 "/>
<polygon class="st2" points="53.9,102.2 55.8,104 67.3,106.4 58,99.4 "/>
<polygon class="st38" points="55.8,94.9 59.9,89.2 65.7,80.6 51,97.1 50.5,100.6 53.9,102.2 "/>
<polygon class="st39" points="59.9,89.2 55.8,94.9 53.9,102.2 58,99.4 "/>
<polygon class="st40" points="58,99.4 67.3,106.4 59.9,89.2 "/>
<polygon class="st41" points="67.3,106.4 67.3,96 66.7,89.5 66.4,86.7 70.4,78.3 73,72.5 65.7,80.6 59.9,89.2 "/>
<polygon class="st41" points="67.3,106.4 67.3,106.4 67.3,106.4 "/>
<polygon class="st42" points="78.5,80.6 69.6,88.6 74.7,92.9 "/>
<polygon class="st43" points="66.4,86.7 69.6,88.6 78.5,80.6 73,72.5 73,72.5 70.4,78.3 "/>
<polygon class="st44" points="75.8,70 74.8,69.8 73,72.5 78.5,80.6 "/>
<polygon class="st45" points="82.6,73.1 75.8,70 78.5,80.6 81.4,77.1 "/>
<polygon class="st38" points="75.8,66.5 75.8,64.3 78.3,52 84.7,33.6 75.8,51.2 74.1,64.3 74.8,69.8 75.8,70 "/>
<polygon class="st46" points="83.4,71.4 79.5,65.2 75.8,66.5 75.8,70 82.6,73.1 "/>
<polygon class="st47" points="96.6,35.8 84.7,33.6 80.7,55.9 "/>
<polygon class="st48" points="80.7,55.9 75.8,64.3 75.8,66.5 79.5,65.2 "/>
<polygon class="st49" points="75.8,64.3 80.7,55.9 84.7,33.6 78.3,52 "/>
<polygon class="st50" points="83.4,71.4 88.1,66.6 80.7,55.9 79.5,65.2 "/>
<polygon class="st4" points="94.6,73.8 83.4,71.4 82.6,73.1 85.5,76 "/>
<polygon class="st5" points="81.4,77.1 78.5,80.6 82.9,80.2 "/>
<polygon class="st51" points="83,75.3 82.6,76.6 82.9,75.7 83.2,74.7 83.1,75.1 "/>
<polygon class="st51" points="82.6,73.1 83.5,74 83.2,74.7 83.8,75.3 83.2,75.9 83.5,77.9 83.5,77.9 83.9,78.5 82.9,80.2 85.5,76 
	"/>
<polygon class="st2" points="85.5,76 82.9,80.2 92,79.4 94.6,73.8 "/>
<polygon class="st52" points="175.9,114.3 161.5,126.9 177.1,156.6 192.8,154.2 191.1,134.4 "/>
<polygon class="st13" points="192.8,154.2 202.1,149.4 210,114.3 191.1,134.4 "/>
<polygon class="st53" points="175.9,114.3 191.1,134.4 186.3,84.2 183.1,100.6 "/>
<polygon class="st52" points="186.3,84.2 191.1,134.4 210,114.3 196.5,97.2 "/>
<polygon class="st4" points="103.5,68.3 88.1,66.6 83.4,71.4 94.6,73.8 "/>
<polygon class="st51" points="94.6,73.8 107.8,74.4 149.6,82 110.1,67 103.5,68.3 "/>
<polygon class="st54" points="97.6,49.8 96.6,35.8 80.7,55.9 88.1,66.6 "/>
<polygon class="st11" points="157.3,68.3 110.1,67 149.6,82 "/>
<polygon class="st10" points="157.3,68.3 129.6,48.9 128.7,27.7 110.1,67 "/>
<polygon class="st55" points="129.6,1.8 99.9,17.6 84.7,33.6 96.6,35.8 "/>
<polygon class="st5" points="116.5,6.1 99.9,17.6 129.6,1.8 "/>
<polygon class="st56" points="128.7,27.7 96.6,35.8 97.6,49.8 "/>
<polygon class="st57" points="128.7,27.7 145,16.6 129.6,1.8 96.6,35.8 "/>
<polygon class="st58" points="157.3,68.3 163.4,34.1 128.7,27.7 129.6,48.9 "/>
<polygon class="st11" points="170.5,10.9 182.1,8.3 150.3,0 129.6,1.8 145,16.6 "/>
<polygon class="st59" points="145,16.6 128.7,27.7 163.4,34.1 "/>
<polygon class="st12" points="149.6,82 164.5,74.4 183.5,59.9 157.3,68.3 "/>
<polygon class="st60" points="164.5,74.4 176.7,74.4 182.4,80.3 186.3,84.2 183.5,59.9 "/>
<polygon class="st61" points="183.5,59.9 163.4,34.1 157.3,68.3 "/>
<polygon class="st62" points="170.5,10.9 145,16.6 163.4,34.1 "/>
<polygon class="st63" points="209,26.6 182.1,8.3 170.5,10.9 "/>
<polygon class="st64" points="163.4,34.1 209,26.6 170.5,10.9 "/>
<polygon class="st65" points="183.5,59.9 186.3,84.2 200.5,71.6 206.2,66.6 207.1,53 "/>
<polygon class="st66" points="200.5,71.6 186.3,84.2 210,114.3 207.1,84.3 "/>
<polygon class="st67" points="222.2,48 209,26.6 206.2,66.6 "/>
<polygon class="st68" points="206.2,66.6 200.5,71.6 207.1,84.3 220.9,94.4 214.2,57.3 "/>
<polygon class="st69" points="222.2,48 214.2,57.3 220.9,94.4 226.5,72.5 "/>
<polygon class="st17" points="97.2,176.3 98.3,188.1 109.5,189.3 100.7,176.9 "/>
<polygon class="st70" points="102.2,171.9 87.2,167 97.2,176.3 100.7,176.9 109.5,189.3 106.5,177.8 "/>
<polygon class="st13" points="210,114.3 220.9,94.4 207.1,84.3 "/>
<polygon class="st71" points="183.5,59.9 207.1,53 209,26.6 163.4,34.1 "/>
<polygon class="st72" points="110.1,67 128.7,27.7 97.6,49.8 "/>
<polygon class="st34" points="110.1,67 97.6,49.8 88.1,66.6 103.5,68.3 "/>
<polygon class="st28" points="148,123.9 161.5,126.9 160.7,106.4 "/>
<polygon class="st73" points="83.5,77.9 82,77.5 82.2,75.8 82.5,74.7 83.2,74.7 83.5,74 82.6,73.1 81.4,77.1 82.9,80.2 83.9,78.5 
	"/>
<polygon class="st73" points="83.1,75.1 83,75.3 82.2,75.8 83,75.3 "/>
<polygon class="st74" points="83,75.3 82.2,75.8 82,77.5 83.5,77.9 83.5,77.9 82.6,76.6 "/>
<polygon class="st75" points="83.2,75.9 83.8,75.3 83.2,74.7 82.9,75.7 "/>
<polygon class="st76" points="82.2,75.8 83,75.3 83.1,75.1 83.2,74.7 82.5,74.7 "/>
<polygon class="st76" points="82.6,76.6 83.5,77.9 83.2,75.9 82.9,75.7 "/>
<polygon class="st12" points="57.3,107.5 61.8,110 55.8,104 "/>
<polygon class="st77" points="67.3,106.4 70.6,100.9 66.4,86.7 66.7,89.5 67.3,96 67.3,106.4 67.3,106.4 67.3,106.4 "/>
<path d="M66.4,225.6h1.8l7.3-17.8H78l6.6,17.8h1.9v1.8h-6.6v-1.8H82l-2.1-6h-7.1l-2.3,6h2.4v1.8h-6.4V225.6z M79.3,217.9l-2.4-6.5
	c-0.2-0.6-0.3-1-0.4-1.3h-0.1c-0.1,0.4-0.2,0.7-0.4,1.3l-2.6,6.5H79.3z"/>
<path d="M90.3,209.5H88v-1.8h8.8c5.9,0,9.8,3,9.8,9.5c0,6.9-4.2,10.1-10.8,10.1H88v-1.8h2.1L90.3,209.5z M92.6,225.6h3
	c2.9,0,4.9-0.7,6.3-2.1c1.3-1.3,2.2-3.5,2.2-6.2c0-2.6-0.9-4.8-2.3-6c-1.6-1.4-3.5-1.8-6.1-1.8h-3.1L92.6,225.6z"/>
<path d="M106.8,225.6h1.8l7.3-17.8h2.6l6.6,17.8h1.9v1.8h-6.6v-1.8h2.1l-2.1-6h-7.1l-2.3,6h2.4v1.8h-6.4V225.6z M119.7,217.9
	l-2.4-6.5c-0.2-0.6-0.3-1-0.4-1.3h-0.1c-0.1,0.4-0.2,0.7-0.4,1.3l-2.6,6.5H119.7z"/>
<path d="M130.7,209.5h-2.2v-1.8h6.7v1.8h-2l-0.1,16.1h6.7l0.2-3.1h2.1l-0.2,4.8h-13.3v-1.8h2.1L130.7,209.5z"/>
<path d="M146.4,209.5h-2.2v-1.8h6.8c1.9,0,3,0.1,4.1,0.6c1.5,0.7,2.5,2.1,2.5,4.1c0,2.6-1.7,4.1-3.8,4.5v0.1c2.5,0,5.1,1.7,5.1,4.8
	c0,4.2-3.4,5.5-6.9,5.5h-7.7v-1.8h2.1L146.4,209.5z M148.7,225.6h1.8c2.4,0,5.7,0,5.7-3.7c0-3.2-2.8-3.7-5.2-3.7h-2.4L148.7,225.6z
	 M148.7,216.4h1.4c2.5,0,5-0.6,5-3.5c0-3.4-2.7-3.4-3.9-3.4h-2.4L148.7,216.4z"/>
<path d="M163.9,209.5h-2.2v-1.8h13.2v4.5h-2.1v-2.8h-6.5l-0.1,6.9h6.2v1.8h-6.2l-0.1,7.4h6.8l0.2-3.1h2.1l-0.2,4.8h-13.4v-1.8h2.1
	L163.9,209.5z"/>
<path d="M177.9,207.7h6.6c3.5,0,7.2,0.5,7.2,5c0,3.2-2.3,5-4.6,5.3v0.1c0.7,0,1.6,0.6,2.5,2.2l1.7,2.9c1.2,2,1.4,2.4,2.5,2.4h0.9
	v1.8h-1.1c-2,0-2.6-0.2-3.7-1.9l-1.9-3.2c-1.7-3-2.2-3.6-3.9-3.6h-1.5l-0.1,6.9h2.3v1.8h-6.8v-1.8h2.1l0.1-16.1h-2.2V207.7z
	 M182.4,216.9h2.3c2.5,0,4.4-1.1,4.4-3.9c0-2.9-2-3.5-4.6-3.5h-2.1L182.4,216.9z"/>
<path d="M201.8,209.5h-5.3l-0.2,3h-2.1l0.2-4.8h17.2l0.2,4.8h-2.1l-0.2-3h-5.3l-0.1,16.1h2.4v1.8h-7v-1.8h2.1L201.8,209.5z"/>
<rect x="0.1" y="217.3" width="58.9" height="2"/>
<rect x="221.3" y="217.3" width="57" height="2"/>
<path d="M0.1,357.5h2.3v2.7c0.9,0.5,2.7,0.7,3.9,0.7c2.9,0,4.7-1.3,4.7-3.7c0-5.3-10.9-2.2-10.9-9.3c0-2.4,1.4-5.7,7.4-5.7
	c1.5,0,4.1,0.4,5.4,0.9v4h-2.2v-2.5c-0.7-0.3-2.4-0.5-3.3-0.5c-2.1,0-4.6,0.8-4.6,3.4c0,5.1,10.9,1.9,10.9,9.3c0,4.4-3.8,6-7.6,6
	c-3.3,0-4.9-0.8-6-1V357.5z"/>
<path d="M42.8,344.3h-5.4l-0.2,3.1H35l0.2-4.9h17.6l0.2,4.9h-2.1l-0.2-3.1h-5.4l-0.1,16.4h2.5v1.8h-7.1v-1.8h2.2L42.8,344.3z"/>
<path d="M76.4,344.3h-2.3v-1.8H81v1.8h-2.2l-0.1,16.4H81v1.8h-6.9v-1.8h2.2L76.4,344.3z"/>
<path d="M105.2,344.3h-2.3v-1.8h13.3l0.1,4.7h-2.1l-0.1-2.9h-6.5l-0.1,7.3h6.9v1.8h-6.9l-0.1,7.2h2.5v1.8h-7.2v-1.8h2.2L105.2,344.3
	z"/>
<path d="M145.1,344.3h-5.4l-0.2,3.1h-2.1l0.2-4.9h17.6l0.2,4.9h-2.1l-0.2-3.1h-5.4l-0.1,16.4h2.5v1.8h-7.1v-1.8h2.2L145.1,344.3z"/>
<path d="M183,344.3h-2.1c0,2.8-0.1,5.6-0.1,10.2c0,2.5,0.2,3.9,1,4.9c0.8,1,2.3,1.4,4.3,1.4c2,0,3.5-0.5,4.4-1.7
	c0.8-1.1,0.9-2.8,0.9-5.5l0.1-9.4H189v-1.8h6.9v1.8h-2.2l-0.1,10.8c0,2.3-0.3,3.9-1.6,5.5c-1.1,1.4-3.2,2.2-6.1,2.2
	c-3.5,0-5.4-0.9-6.6-2.5c-0.9-1.3-1.1-2.7-1.1-6c0-3.2,0-7,0.1-10h-2.3v-1.8h6.9V344.3z"/>
<path d="M219.6,344.3H217v-1.8h4.8l10.9,14.6c0.3,0.5,0.7,1,0.9,1.5h0.1l0.1-14.3h-2.5v-1.8h6.7v1.8h-2.1l-0.1,18.2h-2l-11.3-15
	c-0.3-0.4-0.5-0.8-0.8-1.3h-0.1l-0.1,14.5h2.5v1.8h-6.6v-1.8h2.2L219.6,344.3z"/>
<path d="M276,362c-1.2,0.5-3.8,0.8-5.7,0.8c-6.6,0-10.7-3.3-10.7-10.2c0-5.6,3.2-10.5,10.6-10.5c2.7,0,5.2,0.7,6,1.1v4.5h-2.1v-3
	c-0.7-0.3-2.3-0.7-4.1-0.7c-4.8,0-7.8,2.9-7.8,8.2c0,5.4,2.8,8.5,8.2,8.5c0.7,0,2.3-0.1,3.3-0.4v-4.9h-2.5v-1.8h6.9v1.8H276V362z"/>
<path d="M165.1,259.2h-7.3v-10.8h30.6c17.9,0,27.1,7.4,27.1,22c0,13.9-9.9,23.6-24.6,23.6h-10.4v18.1h7.3v10.5h-30.1v-10.5h7.3
	V259.2z M188.9,283.2c7.7,0,11.8-4.7,11.8-12.2c0-7.6-4.6-11.8-12-11.8h-8.2v24H188.9z"/>
<path d="M261.4,259.7c-2.8-1-6.4-1.8-10-1.8c-10.3,0-13.6,5.3-13.6,9.4c0,5.4,3.9,7,8.8,8.2l8.9,2.2c10.9,2.8,23,6.4,23,21.7
	c0,14.1-9.5,24.4-30.6,24.4c-8.2,0-16.6-0.8-26.6-4.1v-19.6h15.5v9.8c3.9,1.6,8.2,1.9,12.5,1.9c9.1,0,13.1-4.3,13.1-10
	c0-3.8-2.1-6.6-12.1-9.1l-8.2-2.1c-15.3-3.9-20.5-9.9-20.5-21.3c0-11.8,8.3-22.2,29.3-22.2c9,0,18,1.5,24.4,3.9v17.7h-14V259.7z"/>
<path d="M7.4,259.2H0v-10.8h33.2c8.8,0,11.5,0.1,15.8,2.3c6.8,3.3,10.1,10.2,10.1,17.9c0,11.2-9.4,19.1-17.7,19.5v0.2
	c3.8,0.3,5.9,1.7,9.7,8l6.8,11.3c2.3,3.9,4.1,4.7,6.1,4.7h2.8v10.4h-12c-4,0-6.8-0.9-12.6-10.8L33,296.1c-1.5-2.5-3.4-3.8-6.2-3.8
	h-3.7v19.8h6.8v10.4H0v-10.4h7.4V259.2z M23.1,280.8h8.1c8.4,0,12.3-3.7,12.3-11c0-7.3-3.7-10.6-13.2-10.6h-7.1V280.8z"/>
<path d="M145.6,312.2l-26.1-63.8h-7.2h-7.2l-2.9,7.1l-11,26.8L79,312.2H73v10.5h27.6v-10.5h-7.1l5.3-14.5h13.5h13.5l5.3,14.5h-7.1
	v10.5h27.6v-10.5H145.6z M112.3,286.2h-9.1l0.1-0.3l8.6-20.9c-0.2-0.1-0.3-0.3-0.3-0.6c0-0.4,0.3-0.7,0.7-0.7c0.4,0,0.7,0.3,0.7,0.7
	c0,0.2-0.1,0.5-0.3,0.6l8.7,21.2H112.3z"/>
</svg>
