<?xml version="1.0" encoding="utf-8"?>
<!-- Generator: Adobe Illustrator 24.0.1, SVG Export Plug-In . SVG Version: 6.00 Build 0)  -->
<svg version="1.1" id="Ebene_1" xmlns="http://www.w3.org/2000/svg" xmlns:xlink="http://www.w3.org/1999/xlink" x="0px" y="0px"
	 viewBox="0 0 309.4 227.3" style="enable-background:new 0 0 309.4 227.3;" xml:space="preserve">
<style type="text/css">
	.st0{fill:#878787;}
	.st1{fill:#213A8F;}
	.st2{fill:#E63312;}
	.st3{fill:#E7411B;}
</style>
<g>
	<path class="st0" d="M2.6,213.8v5.8l4.8-5.8h3L5,219.9l5.9,7.1H7.7l-5.1-6.3v6.3H0v-13.2L2.6,213.8L2.6,213.8z"/>
	<path class="st0" d="M14.6,213.8V225h5.3v2H12v-13.2H14.6z"/>
	<path class="st0" d="M24.2,213.8V227h-2.6v-13.2H24.2z"/>
	<path class="st0" d="M31.1,213.8l3.2,9.2c0.2,0.5,0.3,1.2,0.4,2.2c0.1-0.9,0.2-1.7,0.4-2.2l3.3-9.2h3.9V227h-2.5v-9.7
		c0-0.8,0.1-1.6,0.2-2.4c-0.2,1-0.4,1.7-0.5,1.9L35.8,227h-2.3l-3.7-10.1c-0.2-0.6-0.4-1.2-0.5-2c0.1,1.2,0.2,2,0.2,2.4v9.7h-2.3
		v-13.2H31.1z"/>
	<path class="st0" d="M51.9,213.8L57,227h-2.8l-1.1-3.1h-5.7l-1.1,3.1h-2.6l5.1-13.2H51.9z M48,221.9h4.3l-2.1-5.9L48,221.9z"/>
	<path class="st0" d="M62.3,220.7v1.9h-4.9v-1.9H62.3z"/>
	<path class="st0" d="M72.7,213.8v7.7c0,2.5,0.8,3.7,2.7,3.7c1.8,0,2.8-1.3,2.8-3.8v-7.6h2.5v7.7c0,3.9-1.8,5.8-5.3,5.8
		c-3.4,0-5.2-1.9-5.2-5.7v-7.8L72.7,213.8L72.7,213.8z"/>
	<path class="st0" d="M86.8,213.8l4.8,9.2c0.2,0.5,0.5,1.3,0.9,2.4c-0.2-1.3-0.3-2.4-0.3-3v-8.6h2.4V227h-3.2l-5-9.4
		c-0.2-0.5-0.5-1.2-0.8-2.3c0.2,1.7,0.3,2.8,0.3,3.2v8.5h-2.4v-13.2L86.8,213.8L86.8,213.8z"/>
	<path class="st0" d="M101.3,213.8c2.2,0,3.8,0.3,4.8,0.9c1.9,1.2,2.8,3.1,2.8,5.6s-1,4.4-2.9,5.6c-1.1,0.7-2.8,1-5,1h-3.6v-13.2
		L101.3,213.8L101.3,213.8z M100.1,224.9h1.5c2.9,0,4.6-1.7,4.6-4.6c0-2.9-1.6-4.6-4.7-4.6h-1.4V224.9z"/>
	<path class="st0" d="M119.3,213.8v7.7c0,2.5,0.8,3.7,2.7,3.7c1.8,0,2.8-1.3,2.8-3.8v-7.6h2.5v7.7c0,3.9-1.8,5.8-5.3,5.8
		c-3.4,0-5.2-1.9-5.2-5.7v-7.8L119.3,213.8L119.3,213.8z"/>
	<path class="st0" d="M134.1,213.8l3.2,9.2c0.2,0.5,0.3,1.2,0.4,2.2c0.1-0.9,0.2-1.7,0.4-2.2l3.3-9.2h3.9V227h-2.5v-9.7
		c0-0.8,0.1-1.6,0.2-2.4c-0.2,1-0.4,1.7-0.5,1.9l-3.7,10.2h-2.3l-3.6-10.1c-0.2-0.6-0.4-1.2-0.5-2c0.1,1.2,0.2,2,0.2,2.4v9.7h-2.3
		v-13.2L134.1,213.8L134.1,213.8z"/>
	<path class="st0" d="M149.5,213.8l2.1,9.9c0,0.2,0.1,0.9,0.2,2c0-0.8,0.1-1.5,0.2-2l2.2-9.9h3.3l2.2,9.9c0.1,0.3,0.2,1,0.2,2
		c0-0.8,0.1-1.4,0.2-1.9l2.2-10h2.4l-3.2,13.2h-3.3l-2.2-10.1c-0.1-0.4-0.2-1.1-0.2-1.9c-0.1,0.9-0.2,1.5-0.2,1.9l-2.2,10.1h-3.3
		l-3.2-13.2H149.5z"/>
	<path class="st0" d="M174.5,213.8v1.9H169v3.5h5.2v1.9H169v3.9h5.6v2h-8.2v-13.2L174.5,213.8L174.5,213.8z"/>
	<path class="st0" d="M179.9,213.8V225h5.3v2h-7.9v-13.2H179.9z"/>
	<path class="st0" d="M193.6,213.8v2h-3.5V227h-2.6v-11.2H184v-2H193.6z"/>
	<path class="st0" d="M201.3,213.8l5.1,13.2h-2.8l-1.1-3.1h-5.7l-1.1,3.1h-2.6l5.1-13.2H201.3z M197.5,221.9h4.3l-2.1-5.9
		L197.5,221.9z"/>
	<path class="st0" d="M211.5,213.8l3.2,9.2c0.2,0.5,0.3,1.2,0.4,2.2c0.1-0.9,0.2-1.7,0.4-2.2l3.3-9.2h3.9V227h-2.5v-9.7
		c0-0.8,0.1-1.6,0.2-2.4c-0.2,1-0.4,1.7-0.5,1.9l-3.7,10.2h-2.4l-3.6-10.1c-0.2-0.6-0.4-1.2-0.5-2c0.1,1.2,0.2,2,0.2,2.4v9.7h-2.3
		v-13.2L211.5,213.8L211.5,213.8z"/>
	<path class="st0" d="M233.8,213.8v2h-3.5V227h-2.6v-11.2h-3.5v-2H233.8z"/>
</g>
<g>
	<path d="M98.3,185.6l-0.3,2.9c-0.7-0.3-1.4-0.6-2.1-0.7c-0.7-0.2-1.4-0.2-2.1-0.2c-1,0-1.8,0.2-2.3,0.5c-0.6,0.4-0.8,0.9-0.8,1.5
		c0,0.8,1,1.7,3,2.7c0.2,0.1,0.3,0.2,0.4,0.2c1.9,0.9,3.1,1.8,3.8,2.7c0.7,0.8,1,1.9,1,3.1c0,1.7-0.7,3.1-2,4.2
		c-1.3,1.1-3,1.6-5.2,1.6c-0.9,0-2.4-0.3-4.4-0.9c-0.2-0.1-0.4-0.1-0.5-0.2l0.3-3.2c1.1,0.5,1.9,0.9,2.6,1.1s1.4,0.3,2,0.3
		c1,0,1.8-0.2,2.4-0.7s0.9-1,0.9-1.7c0-0.9-1-1.9-3-3l-0.3-0.2c-0.1,0-0.2-0.1-0.4-0.2c-1.5-0.8-2.5-1.5-3.1-2.2
		c-0.4-0.5-0.8-1-1-1.6s-0.3-1.2-0.3-1.8c0-1.6,0.6-2.9,1.9-3.8c1.2-1,2.9-1.5,5-1.5c0.8,0,2,0.2,3.5,0.6
		C97.8,185.5,98.1,185.6,98.3,185.6z"/>
	<path d="M100.9,185.1h13.6v2.9h-5v15.8h-3.7V188h-4.9V185.1z"/>
	<path d="M121.3,185.1h4.5l7.2,18.7h-4l-1.6-4.4h-8.2l-1.6,4.4h-3.7L121.3,185.1z M123.4,188.3l-3.1,8.4h6.2L123.4,188.3z"/>
	<path d="M134.8,185.1h5.4c1.6,0,3,0.1,4.1,0.3s2.1,0.6,2.8,1c1.3,0.9,2.4,1.9,3,3.3c0.7,1.3,1,2.9,1,4.7s-0.3,3.4-1,4.7
		s-1.7,2.4-3.1,3.3c-0.8,0.5-1.7,0.9-2.9,1.1c-1.2,0.2-2.6,0.3-4.2,0.3h-5.1V185.1z M138.6,187.9V201h2.1c2.1,0,3.7-0.6,4.8-1.7
		c1.2-1.2,1.7-2.8,1.7-4.8c0-2.1-0.6-3.7-1.7-4.8c-1.1-1.1-2.8-1.7-5-1.7h-1.9V187.9z"/>
	<path d="M152.7,185.1h13.6v2.9h-5v15.8h-3.7V188h-4.9L152.7,185.1L152.7,185.1z"/>
	<path d="M177.2,185.1h6.2c2.2,0,3.8,0.4,4.9,1.2c1.1,0.8,1.7,2,1.7,3.6c0,1-0.3,1.9-0.9,2.6c-0.6,0.7-1.5,1.2-2.6,1.5
		c1.3,0.3,2.3,0.8,3,1.6s1,1.8,1,3c0,1.7-0.6,3-1.8,3.9s-3,1.3-5.4,1.3h-6.1L177.2,185.1L177.2,185.1z M180.8,187.8v5.2h1.8
		c1.2,0,2.1-0.2,2.8-0.7c0.6-0.4,0.9-1.1,0.9-1.9c0-0.9-0.3-1.5-0.9-1.9c-0.6-0.4-1.5-0.7-2.6-0.7L180.8,187.8L180.8,187.8z
		 M180.8,195.6v5.6h2c1.3,0,2.3-0.2,2.9-0.7c0.7-0.5,1-1.2,1-2.1c0-0.9-0.3-1.6-0.9-2c-0.6-0.5-1.5-0.7-2.7-0.7h-2.3V195.6z"/>
	<path d="M199.1,185.1h4.5l7.2,18.7h-4l-1.6-4.4H197l-1.6,4.4h-3.6L199.1,185.1z M201.3,188.3l-3.1,8.4h6.2L201.3,188.3z"/>
	<path d="M212.7,185.1h5.6l4.5,13c0.1,0.4,0.2,0.8,0.3,1.4c0.1,0.5,0.2,1.1,0.2,1.7c0-0.7,0.1-1.3,0.2-1.8c0.1-0.5,0.2-1,0.3-1.3
		l4.7-13h5.5v18.7h-3.5v-13.9c0-0.5,0-1.1,0.1-1.7c0-0.6,0.1-1.1,0.2-1.7c-0.1,0.6-0.3,1.1-0.4,1.6c-0.1,0.5-0.2,0.9-0.3,1.1
		l-5.2,14.5h-3.3l-5.1-14.3c-0.1-0.4-0.3-0.8-0.4-1.3c-0.1-0.5-0.2-1-0.3-1.5c0.1,1.1,0.1,1.9,0.2,2.3c0,0.5,0,0.8,0.1,1v13.8h-3.3
		v-18.6H212.7z"/>
	<path d="M238.5,185.1h6.2c2.2,0,3.8,0.4,4.9,1.2c1.1,0.8,1.7,2,1.7,3.6c0,1-0.3,1.9-0.9,2.6c-0.6,0.7-1.5,1.2-2.6,1.5
		c1.3,0.3,2.3,0.8,3,1.6s1,1.8,1,3c0,1.7-0.6,3-1.8,3.9s-3,1.3-5.4,1.3h-6.1L238.5,185.1L238.5,185.1z M242.1,187.8v5.2h1.8
		c1.2,0,2.1-0.2,2.8-0.7c0.6-0.4,0.9-1.1,0.9-1.9c0-0.9-0.3-1.5-0.9-1.9c-0.6-0.4-1.5-0.7-2.6-0.7L242.1,187.8L242.1,187.8z
		 M242.1,195.6v5.6h2c1.3,0,2.3-0.2,2.9-0.7c0.7-0.5,1-1.2,1-2.1c0-0.9-0.3-1.6-0.9-2c-0.6-0.5-1.5-0.7-2.7-0.7h-2.3V195.6z"/>
	<path d="M255.3,185.1h11.5v2.7H259v5h7.3v2.8H259v5.5h8v2.8h-11.7V185.1z"/>
	<path d="M271,185.1h6.1c2.3,0,4,0.4,5.1,1.2s1.7,2,1.7,3.6c0,1.2-0.3,2.2-1,3s-1.6,1.3-2.9,1.6c0.5,0.2,1,0.4,1.3,0.8
		c0.3,0.4,0.7,1,1.1,2l2.6,6.5h-3.9l-2.1-5.7c-0.3-0.8-0.7-1.4-1.2-1.7s-1.2-0.5-2.1-0.5h-1.2v7.9h-3.6v-18.7H271z M274.6,187.8v5.6
		h1.9c1.2,0,2.1-0.2,2.8-0.7s1-1.2,1-2.1c0-1-0.3-1.7-1-2.1c-0.6-0.5-1.7-0.7-3.1-0.7H274.6z"/>
	<path d="M303,185.7l-0.4,2.9c-0.1,0-0.2-0.1-0.4-0.1c-1.9-0.7-3.3-1-4.4-1c-2.1,0-3.8,0.7-5.1,2c-1.3,1.3-2,3-2,5.1
		c0,2,0.6,3.6,1.9,4.9c1.3,1.3,2.9,1.9,4.9,1.9c0.5,0,1.1-0.1,2-0.4c0.2-0.1,0.3-0.1,0.4-0.1v-4.8h-3.5v-2.7h6.9v9.7
		c-1.4,0.5-2.5,0.8-3.4,0.9c-0.9,0.2-1.8,0.3-2.6,0.3c-3.3,0-5.8-0.9-7.7-2.6c-1.9-1.7-2.8-4.1-2.8-7.1s1-5.4,2.9-7.2
		s4.5-2.6,7.9-2.6c0.8,0,2,0.2,3.7,0.6C302.1,185.5,302.6,185.7,303,185.7z"/>
</g>
<g>
	<g>
		<g id="XMLID_13_">
			<path class="st1" d="M309.4,76.2c0,5.1,0,10.2,0,15.2c-0.3,13.2-5.2,38.9-11.1,42.2c-4.3,2.4-14,0.4-15.8-3.5
				c4.8,1.4,11.3,0.1,14.7-1.8c0.5-6.7,5.2-12.6,5.9-20.5c0.9-10-4.2-21.9,1.8-30.5c-3.6-7.5-2.1-16.7-2.9-27
				c-3.4,2.5-5.3,6.4-11.1,6.4c-0.8-4.1,1.4-8.4,0-11.1c-3.1,4.9-5.6,10.4-8.8,15.2c-19.6,9-32.7,28.1-46.9,42.2
				c-1.5,1.5-3.4,6-6.4,4.1c-2.8-3.4-0.6-5.7,1.8-8.2c15.1-16.3,30.2-35.4,50.4-45.1c3.8-6.2,8.3-14.7,12.3-18.8
				c1.4,4.1,1.4,9.5,1.8,14.7c3.1-0.4,6.8-8.5,9.4-9.4C305.7,52.6,307.4,64.5,309.4,76.2z"/>
			<path class="st2" d="M270.1,130.1c3.6-0.7,7.4-3.9,10-0.6c-34.3,18.3-62.2-14-71.5-39.8c-8,1.6-15.6-2.2-16.4-10.5
				c-1.1-11.1-1.8-20.6-9.4-29.9c-3.9-4.8-7.4-5.6-11.1-11.1c4.8-1,8.7,3.3,12.9,4.7c2.9-6.6,5.3-13.8,7.6-21.1
				c2.3,0.2,1.8,3.3,4.1,3.5c1.4-5.9-2-12.1-1.8-18.8c-7.9,0.4-17.2,1.4-22.9-1.8c4.7-10.1,16.5,2.7,24-4.7
				c1.1,9.8,2.7,19.2,4.7,28.1c-1.2,5.6-11.8,9.9-12.3,16.4c-0.2,2.7,2.4,4.9,3.5,7.6c3.7,8.9,4.9,23.4,10,31.1
				c4.3,0.2,7.1-1.1,11.1-1.2C222.3,104.4,233.6,137.3,270.1,130.1z"/>
			<path class="st1" d="M267.2,103.7c2,0,3.9,0,5.9,0c-6,8.2-12,16.5-17,25.8c-2.5,0.4-3.9-0.4-5.9-0.6
				C253.9,118.5,260.6,111.2,267.2,103.7z"/>
			<path class="st1" d="M246.7,135.4c2.4-0.1,3.7,1,6.4,0.6c-5.2,12-11.1,23.2-14.6,36.9c-2.3,0-4.7,0-7,0
				C235.4,159.3,241.2,147.5,246.7,135.4z"/>
			<path d="M181,204.5c0.4,0,0.9,0,1.3,0C181.9,204.6,181.5,204.6,181,204.5z"/>
			<path class="st2" d="M178.7,12.9c6.2,4.3-0.1,14-3.5,17.6c-0.2,3.1,3.1,2.8,2.3,6.4c-2.9-2.5-4.6-6.4-7-9.4
				C172.7,22.1,177,18.8,178.7,12.9z"/>
			<path class="st3" d="M169.1,39.2c0.1-0.4,0.2-0.7,0.3-1.1C169.2,38.5,169.2,38.8,169.1,39.2z"/>
			<path class="st2" d="M169,39.3c-6,24.9-4.8,60.6-12.6,87.3c-0.9,3-1.5,8.5-5.9,8.8c-0.7-9.3,1.4-19.1,2.3-29.3
				c1-10.4,0.4-21.5,2.3-31.7C157.7,61.8,166.1,50.1,169,39.3z"/>
			<path class="st1" d="M146.5,136c-37.7-0.4-59.8,14.8-66.2,45.7c-0.6,1-2.5,0.6-3.5,1.2c0-0.2,0-0.4,0-0.6
				c2.3-8.3,2.8-20.7,8.2-28.7c8.5-12.7,28.2-22.2,43.4-23.4C138.1,129.3,143.6,131.3,146.5,136z"/>
		</g>
	</g>
</g>
</svg>
