<?xml version="1.0" encoding="utf-8"?>
<svg version="1.1" xmlns="http://www.w3.org/2000/svg" xmlns:xlink="http://www.w3.org/1999/xlink" viewBox="0 0 292.8 192.7">
<style type="text/css">
	.st0{fill:#FFFFFF;}
	.st1{fill:#F7941D;}
</style>
<g>
	<path class="st0" d="M199,187.4c-66.3,0-132.7,0-199,0C0,124.9,0,62.5,0,0c66.3,0,132.7,0,199,0C199,62.5,199,124.9,199,187.4z
		 M53.6,62.2c-0.5,3.3,0.7,7.9,2.8,11.8c2.9,5.4,7.1,9.5,12.3,12.6c5.3,3,10.7,5.7,16.1,8.7c5.6,3.1,9.5,7.9,12,13.8
		c1.6,3.8,2.2,7.9,2.6,12c1,10.5-0.4,20.8-4.3,30.7c-0.8,2.1-1.5,4.2-2.1,6.3c-0.1,0.5,0,1.4,0.3,1.6c2.8,1.8,5.6,3.7,8.6,5.2
		c4,2,8.4,3.1,12.9,4c6.3,1.2,12.6,1.8,19,2c7,0.2,13.9-0.5,20.7-1.6c3.1-0.5,6.4-0.8,9.4-1.7c4.5-1.3,8.9-2.7,13.2-4.5
		c5.3-2.2,10.3-5.1,14.2-9.5c1.1-1.2,1.9-2.8,2.7-4.3c0.4-0.9-0.1-1.4-1.1-1.1c-0.5,0.1-1.1,0.3-1.6,0.6c-4.2,1.9-8.3,4-12.5,5.6
		s-8.6,3-13,4.1c-6.8,1.7-13.7,3-20.7,3.4c-7.8,0.4-15.6,0.1-23.4-1.4c-4.5-0.9-9-2-13.5-3.1c-3-0.7-5.9-1.6-8.5-3.5
		c1-1.3,2-2.5,2.8-3.9c3.4-5.5,5.3-11.6,6.1-18c1-7.9-0.5-15.4-4.3-22.4c-2.6-4.8-5.9-9.1-10.1-12.6c-3.7-3.1-7.7-5.9-11.7-8.7
		c-4-2.8-8.2-5.5-12.3-8.3c-2.4-1.7-4.9-3.5-7.1-5.4c-2.8-2.4-4.7-5.5-6.7-8.5C55.5,64.8,54.5,63.5,53.6,62.2z M27.7,88.4
		c-0.7,0.7-1.4,1.2-2.1,1.9c-1.5,1.4-3.2,2.7-4.5,4.3c-1.9,2.5-3.7,5.1-5.3,7.8c-2,3.5-3.3,7.2-3.3,11.3c0,0.5,0.2,0.9,0.3,1.4
		c0.1,0,0.2,0,0.3,0c0.3-0.6,0.6-1.2,0.8-1.8c1.3-4,2.9-7.8,5.4-11.1c2.3-3,5-5.7,7.5-8.4c0.9-1,1.4-0.8,2.1,0.4
		c0.2,0.3,0.3,0.8,0.6,1c0.5,0.5,1.1,1,1.6,1.5c0.1-0.1,0.2-0.2,0.4-0.3c-0.1-0.6-0.1-1.2-0.2-1.7c-0.9-4-2.1-7.9-2.8-12
		c-1-5.9,0.5-11.3,4.7-15.8c1.8-1.9,3.3-3.8,3.3-6.7c0-2.8,0.2-5.7,0.5-8.5c0.3-2.7,0.5-5.5,1.4-8.1c1.7-4.8,4.8-8.6,9.1-11.5
		c2.5-1.6,2.9-2.7,0.6-5.3c-0.1-0.1-0.2-0.2-0.3-0.3c-1.7-1.9-3.6-3.8-5.1-5.8c-1-1.4-1.8-3-2.3-4.7c-0.7-2-0.4-4,0.5-6
		c0.2,0.2,0.3,0.2,0.4,0.3c1.9,1.9,3.8,3.8,5.8,5.7c0.4,0.4,0.8,0.7,1.2,1.1c2.3,2.3,3.4,5.3,4.6,8.2c0.5,1.1,1.1,2.2,1.8,3.6
		c0.2-0.5,0.3-0.6,0.2-0.8c-0.5-3.9-1-7.9-3.8-11c-0.8-0.8-1.8-1.6-2.7-2.4c-2.7-2.3-5.6-4.5-6.1-8.3c-0.2-1-0.8-1-1.5-0.4
		c-0.7,0.7-1.3,1.4-1.9,2.1c-1.8,2.1-3.2,4.3-3.4,7.1c-0.3,5.1,2.3,8.6,6.5,11.1c1.6,1,3.2,1.8,5.1,2.7c-0.6,0.3-0.8,0.5-1.1,0.7
		c-0.4,0.2-0.9,0.4-1.3,0.6c-6.8,2.8-10.8,8-12.2,15.1c-1.1,5.4-0.6,10.7,1.8,15.8c0.4,0.8,0.4,1.3-0.5,1.7
		c-0.3,0.1-0.6,0.3-0.9,0.5c-2.8,1.6-5.6,3.1-7.4,6c-3.1,5.1-3,11.9,0.5,16.7C26.4,86.9,27.1,87.6,27.7,88.4z M7.6,166.4
		c0.1,0.2,0.2,0.3,0.2,0.5c5.4-1.4,10.7-3.1,16.1-4c5.4-1,11-1.4,16.5-1.7s11.1-0.1,16.6-0.2c0-0.2,0-0.3-0.1-0.3
		c-0.7-0.3-1.4-0.6-2.1-0.9c-5.3-2.6-8.7-6.9-10.7-12.3c-1.5-4-1.8-8.2-2.1-12.5c-0.3-3.9,0.2-7.5,1.9-11c0.3-0.6,0.6-1.3,0.9-2
		c-0.1-0.1-0.2-0.2-0.3-0.3c-0.7,0.5-1.6,0.8-2.2,1.5c-0.8,0.9-1.6,1.9-2.1,3c-2.3,4.2-8.4,5.6-12.2,2.7c-0.8-0.6-1.5-1.2-2.5-2
		c0.1,0.7,0.1,1,0.2,1.3c0.7,2.8,3.2,4.9,6.1,5.2c1.1,0.1,2.2,0.1,3.2,0c1.7,0,1.8,0.2,1.4,1.9c-0.4,1.8-0.8,3.6-0.8,5.4
		c0.1,4.8,1.1,9.4,4.5,13.2c0.4,0.5,0.8,1,1.2,1.5c-0.5,0.1-0.9,0.2-1.2,0.3c-5.1,1-10.3,1.9-15.4,2.9c-5.6,1.1-10.7,3.5-15.5,6.5
		C8.6,165.5,8.1,166,7.6,166.4z M58.6,24.2c-0.1,0.1-0.1,0.2-0.2,0.3c1.3,1.5,2.5,3,3.8,4.4c3.6,4,6.8,8.3,7,14
		c0.1,2.5,1.5,3.5,3.7,4.2c4.8,1.4,7.9,4.8,9.9,9.3c0.2,0.4,0.4,0.8,0.6,1.2c0.3-0.7,0.3-1.3,0.2-2c-0.7-4.4-3.5-7.3-7.2-9.4
		c-2.4-1.4-4-2.8-3.8-5.9c0.2-3.5-1.3-6.6-3.2-9.5c-2.1-3.2-5.5-4.6-8.8-6.1C59.9,24.5,59.3,24.4,58.6,24.2z M59.3,159.7
		c0.1,0.1,0.2,0.2,0.3,0.2c1.4-0.4,2.6-1.3,3.5-2.5c1.5-2.3,2.3-4.9,2.4-7.6c0.2-3.3,0.1-6.6,0.2-9.9c0.1-2.3,0.7-4.4,2.2-6.2
		c0.5-0.5,0.8-1.1,1.2-1.7c-0.1-0.1-0.1-0.2-0.2-0.3c-0.6,0.3-1.3,0.5-1.8,0.9c-3.5,3.1-6,6.8-6.1,11.7c0,1.9,0.5,3.9,0.7,5.8
		c0.4,2.8,0.3,5.6-1.5,8C59.8,158.5,59.6,159.2,59.3,159.7z M40.4,107.9c0.6-1.2,1.2-2.4,1.8-3.6c1-2.2,2.5-3.8,4.6-4.8
		c1.2-0.6,1.9-0.1,1.9,1.1c0,1.1,0,2.3-0.3,3.4c-0.6,2.6-1.9,4.9-3.7,6.9c-0.2,0.3-0.3,0.7-0.4,1c0.4,0,0.8,0.1,1.2,0
		c0.7-0.2,1.3-0.6,1.9-1c6.9-3.3,6.3-10.6,3.3-15.1c-0.8-1.2-1.8-1.2-2.8-0.3c-0.7,0.6-1.4,1.1-2.1,1.6c-1.6,1.1-3.3,2.2-4.3,4
		C40.5,103.3,39.8,105.5,40.4,107.9z M21.7,126.9c0.1-0.6,0.1-1,0.2-1.4c0.6-3.8,2.8-6.9,7.1-6.8c1.8,0.1,2.2-0.4,2.5-2.2
		c0.5-3.5,2.1-6.4,4.9-8.6c0.5-0.4,1-0.9,1.4-1.5c0.2-0.3,0.2-0.7,0.3-1.1c-0.3-0.1-0.7-0.2-1-0.2c-2.1,0.3-4,1.1-5.7,2.6
		c-2.1,1.9-2.9,4.3-3.3,7c-0.2,0.9-0.6,1.4-1.4,1.9c-1.2,0.6-2.3,1.3-3.4,2c-2.3,1.7-3.2,5.2-2,7.8
		C21.3,126.5,21.4,126.6,21.7,126.9z M81.4,55.6c-2.8,3.1-6.2,4.6-10.1,5.2c-4.1,0.6-7.4-1.3-10.9-3.1c0.4,1.2,0.8,2.5,1.6,3.3
		c3.1,3.1,7,4.2,11.3,3.7C77.9,64.2,81.1,60.3,81.4,55.6z"/>
	<path d="M53.6,62.2c0.9,1.3,1.9,2.6,2.8,3.9c2,3,3.9,6.2,6.7,8.5c2.3,1.9,4.7,3.7,7.1,5.4c4.1,2.8,8.2,5.4,12.3,8.3
		c4,2.8,8,5.6,11.7,8.7c4.2,3.5,7.5,7.7,10.1,12.6c3.8,7,5.3,14.5,4.3,22.4c-0.8,6.4-2.7,12.5-6.1,18c-0.8,1.3-1.9,2.6-2.8,3.9
		c2.6,1.9,5.6,2.8,8.5,3.5c4.5,1.1,9,2.2,13.5,3.1c7.7,1.5,15.5,1.8,23.4,1.4c7-0.4,13.9-1.7,20.7-3.4c4.4-1.1,8.7-2.5,13-4.1
		s8.3-3.7,12.5-5.6c0.5-0.2,1-0.4,1.6-0.6c1-0.3,1.5,0.2,1.1,1.1c-0.7,1.5-1.6,3.1-2.7,4.3c-3.9,4.4-8.9,7.3-14.2,9.5
		c-4.3,1.8-8.7,3.2-13.2,4.5c-3.1,0.9-6.3,1.2-9.4,1.7c-6.9,1.1-13.8,1.8-20.7,1.6c-6.4-0.2-12.7-0.7-19-2c-4.4-0.9-8.8-2-12.9-4
		c-3-1.5-5.7-3.4-8.6-5.2c-0.3-0.2-0.4-1.1-0.3-1.6c0.6-2.1,1.3-4.3,2.1-6.3c3.8-9.9,5.3-20.1,4.3-30.7c-0.4-4.1-1-8.2-2.6-12
		c-2.5-5.9-6.4-10.6-12-13.8c-5.3-3-10.8-5.6-16.1-8.7c-5.2-3-9.4-7.2-12.3-12.6C54.3,70.1,53.1,65.6,53.6,62.2z"/>
	<path d="M27.7,88.4c-0.7-0.8-1.3-1.5-1.8-2.3c-3.5-4.8-3.6-11.6-0.5-16.7c1.8-2.9,4.6-4.4,7.4-6c0.3-0.2,0.6-0.4,0.9-0.5
		c0.9-0.4,0.9-0.9,0.5-1.7c-2.4-5-2.9-10.4-1.8-15.8c1.4-7.1,5.4-12.3,12.2-15.1c0.4-0.2,0.9-0.4,1.3-0.6c0.3-0.1,0.5-0.3,1.1-0.7
		c-1.8-1-3.5-1.8-5.1-2.7c-4.2-2.5-6.8-6-6.5-11.1c0.2-2.8,1.6-5.1,3.4-7.1C39.4,7.4,40,6.6,40.7,6c0.6-0.6,1.3-0.6,1.5,0.4
		c0.6,3.9,3.4,6.1,6.1,8.3c0.9,0.8,1.9,1.6,2.7,2.5c2.8,3.1,3.3,7.1,3.8,11c0,0.1-0.1,0.3-0.2,0.8c-0.7-1.4-1.3-2.5-1.8-3.6
		c-1.2-2.9-2.3-5.9-4.6-8.2c-0.4-0.4-0.8-0.7-1.2-1.1c-1.9-1.9-3.9-3.8-5.8-5.7c-0.1-0.1-0.2-0.1-0.4-0.3c-0.9,2-1.2,4-0.5,6
		c0.5,1.6,1.3,3.3,2.3,4.7c1.5,2.1,3.4,3.9,5.1,5.8c0.1,0.1,0.2,0.2,0.3,0.3c2.3,2.6,1.9,3.7-0.6,5.3c-4.3,2.8-7.5,6.6-9.1,11.5
		c-0.9,2.6-1.1,5.4-1.4,8.1c-0.3,2.8-0.5,5.7-0.5,8.5s-1.5,4.8-3.3,6.7c-4.3,4.5-5.7,9.8-4.7,15.8c0.7,4,1.9,8,2.8,12
		c0.1,0.6,0.2,1.2,0.2,1.7c-0.1,0.1-0.2,0.2-0.4,0.3c-0.5-0.5-1.1-1-1.6-1.5c-0.3-0.3-0.4-0.7-0.6-1c-0.7-1.2-1.2-1.4-2.1-0.4
		c-2.6,2.8-5.2,5.5-7.5,8.4c-2.5,3.3-4.1,7.2-5.4,11.1c-0.2,0.6-0.5,1.2-0.8,1.8c-0.1,0-0.2,0-0.3,0c-0.1-0.5-0.3-0.9-0.3-1.4
		c0-4.1,1.3-7.9,3.3-11.3c1.6-2.7,3.4-5.3,5.3-7.8c1.3-1.6,3-2.9,4.5-4.3C26.3,89.7,27,89.1,27.7,88.4z"/>
	<path d="M7.6,166.4c0.5-0.4,1.1-0.9,1.6-1.3c4.8-3,9.9-5.4,15.5-6.5c5.1-1,10.3-2,15.4-2.9c0.4-0.1,0.7-0.2,1.2-0.3
		c-0.5-0.6-0.8-1.1-1.2-1.5c-3.4-3.8-4.4-8.4-4.5-13.2c-0.1-1.8,0.4-3.6,0.8-5.4c0.4-1.7,0.3-1.9-1.4-1.9c-1.1,0-2.2,0.1-3.2,0
		c-2.8-0.3-5.3-2.4-6.1-5.2c-0.1-0.3-0.1-0.6-0.2-1.3c1,0.8,1.8,1.4,2.5,2c3.8,2.9,9.9,1.5,12.2-2.7c0.6-1.1,1.3-2.1,2.1-3
		c0.6-0.6,1.5-1,2.2-1.5c0.1,0.1,0.2,0.2,0.3,0.3c-0.3,0.7-0.5,1.3-0.9,2c-1.7,3.5-2.3,7.2-1.9,11c0.4,4.2,0.6,8.5,2.1,12.5
		c2.1,5.4,5.4,9.7,10.7,12.3c0.7,0.3,1.4,0.6,2.1,0.9c0,0,0,0.1,0.1,0.3c-5.6,0-11.1-0.1-16.6,0.2s-11.1,0.7-16.5,1.7
		s-10.8,2.6-16.1,4C7.7,166.7,7.6,166.5,7.6,166.4z"/>
	<path d="M58.6,24.2c0.6,0.2,1.3,0.3,1.9,0.6c3.3,1.5,6.7,2.9,8.8,6.1c1.9,2.9,3.5,6,3.2,9.5c-0.2,3.1,1.4,4.5,3.8,5.9
		c3.7,2.1,6.5,5,7.2,9.4c0.1,0.6,0,1.2-0.2,2c-0.2-0.4-0.4-0.8-0.6-1.2c-2-4.5-5-7.9-9.9-9.3c-2.2-0.7-3.6-1.7-3.7-4.2
		c-0.2-5.7-3.4-10-7-14c-1.3-1.4-2.5-2.9-3.8-4.4C58.5,24.4,58.6,24.3,58.6,24.2z"/>
	<path d="M59.3,159.7c0.3-0.6,0.5-1.2,0.9-1.7c1.9-2.4,1.9-5.2,1.5-8c-0.2-1.9-0.7-3.9-0.7-5.8c0-4.9,2.6-8.6,6.1-11.7
		c0.5-0.4,1.2-0.6,1.8-0.9c0.1,0.1,0.1,0.2,0.2,0.3c-0.4,0.6-0.8,1.2-1.2,1.7c-1.5,1.8-2.1,3.9-2.2,6.2c-0.1,3.3-0.1,6.6-0.2,9.9
		c-0.1,2.7-0.9,5.3-2.4,7.6c-0.8,1.3-2,2.1-3.5,2.5C59.5,159.9,59.4,159.8,59.3,159.7z"/>
	<path d="M40.4,107.9c-0.6-2.5,0.1-4.6,1.2-6.7c1-1.8,2.7-2.9,4.3-4c0.7-0.5,1.4-1,2.1-1.6c1.1-0.9,2-0.9,2.8,0.3
		c2.9,4.5,3.6,11.7-3.3,15.1c-0.6,0.3-1.3,0.7-1.9,1c-0.4,0.1-0.8,0-1.2,0c0.1-0.3,0.2-0.8,0.4-1c1.7-2,3-4.3,3.7-6.9
		c0.3-1.1,0.3-2.3,0.3-3.4c0-1.3-0.7-1.7-1.9-1.1c-2.1,1-3.7,2.6-4.6,4.8C41.7,105.6,41,106.8,40.4,107.9z"/>
	<path d="M21.7,126.9c-0.3-0.3-0.4-0.3-0.5-0.5c-1.1-2.6-0.3-6.1,2-7.8c1-0.8,2.2-1.4,3.4-2c0.8-0.4,1.3-0.9,1.4-1.9
		c0.4-2.6,1.2-5.1,3.3-7c1.6-1.4,3.5-2.3,5.7-2.6c0.3,0,0.7,0.1,1,0.2c-0.1,0.4-0.1,0.8-0.3,1.1c-0.4,0.5-0.9,1.1-1.4,1.5
		c-2.8,2.2-4.3,5.1-4.9,8.6c-0.3,1.8-0.7,2.2-2.5,2.2c-4.3-0.1-6.6,3-7.1,6.8C21.8,125.8,21.8,126.3,21.7,126.9z"/>
	<path d="M81.4,55.6c-0.3,4.8-3.5,8.6-8.1,9.2c-4.2,0.5-8.2-0.6-11.3-3.7c-0.8-0.8-1.2-2-1.6-3.3c3.6,1.7,6.8,3.7,10.9,3
		C75.2,60.2,78.5,58.7,81.4,55.6z"/>
</g>
<g>
	<path d="M9.1,178.7h1.8l2.2,6.6l2.2-6.6h1.8l1.6,9.5h-1.8l-1-6l-2,6h-1.6l-2-6l-1,6H7.5L9.1,178.7z"/>
	<path d="M19.9,181.2h1.8v3.4c0,0.7,0,1.1,0.1,1.4c0.1,0.3,0.2,0.5,0.4,0.6s0.4,0.2,0.7,0.2s0.5-0.1,0.7-0.2
		c0.2-0.1,0.4-0.3,0.5-0.6c0.1-0.2,0.1-0.6,0.1-1.3v-3.4H26v3c0,1.2-0.1,2.1-0.3,2.5c-0.2,0.6-0.6,1-1,1.3c-0.5,0.3-1,0.4-1.8,0.4
		s-1.4-0.2-1.9-0.5c-0.5-0.3-0.8-0.8-1-1.4c-0.1-0.4-0.2-1.2-0.2-2.3L19.9,181.2L19.9,181.2z M21.6,178.1c0.3,0,0.5,0.1,0.7,0.3
		s0.3,0.4,0.3,0.7s-0.1,0.5-0.3,0.7s-0.4,0.3-0.7,0.3s-0.5-0.1-0.7-0.3s-0.3-0.4-0.3-0.7s0.1-0.5,0.3-0.7
		C21.1,178.2,21.4,178.1,21.6,178.1z M24.5,178.1c0.3,0,0.5,0.1,0.7,0.3s0.3,0.4,0.3,0.7s-0.1,0.5-0.3,0.7s-0.4,0.3-0.7,0.3
		s-0.5-0.1-0.7-0.3s-0.3-0.4-0.3-0.7s0.1-0.5,0.3-0.7C24,178.2,24.2,178.1,24.5,178.1z"/>
	<path d="M28.1,178.6h1.8v2.6h1v1.5h-1v5.5h-1.8v-5.5h-0.9v-1.5h0.9V178.6z"/>
	<path d="M32.1,178.6h1.8v2.6h1v1.5h-1v5.5h-1.8v-5.5h-0.9v-1.5h0.9V178.6z"/>
	<path d="M42.9,185.2h-5.7c0.1,0.5,0.3,0.9,0.7,1.2s0.8,0.4,1.4,0.4c0.7,0,1.2-0.2,1.7-0.7l1.5,0.7c-0.4,0.5-0.8,0.9-1.3,1.2
		s-1.1,0.4-1.8,0.4c-1.1,0-2-0.3-2.7-1s-1-1.6-1-2.6c0-1.1,0.3-2,1-2.7s1.6-1.1,2.6-1.1c1.1,0,2,0.4,2.7,1.1c0.7,0.7,1,1.6,1,2.8
		L42.9,185.2z M41.1,183.9c-0.1-0.4-0.3-0.7-0.7-1c-0.3-0.2-0.7-0.4-1.2-0.4s-0.9,0.1-1.3,0.4c-0.2,0.2-0.4,0.5-0.6,0.9h3.8V183.9z"
		/>
	<path d="M43.9,181.2h1.5v0.9c0.2-0.3,0.4-0.6,0.7-0.8s0.6-0.3,0.9-0.3c0.2,0,0.5,0.1,0.7,0.2l-0.5,1.5c-0.2-0.1-0.4-0.2-0.5-0.2
		c-0.3,0-0.5,0.2-0.7,0.5s-0.3,1-0.3,2v0.3v2.8h-1.8C43.9,188.1,43.9,181.2,43.9,181.2z"/>
	<path d="M48.3,181.2h5.4l-3.2,5.5h3v1.5h-5.7l3.2-5.5h-2.7V181.2z"/>
	<path d="M61.7,185.2H56c0.1,0.5,0.3,0.9,0.7,1.2c0.4,0.3,0.8,0.4,1.4,0.4c0.7,0,1.2-0.2,1.7-0.7l1.5,0.7c-0.4,0.5-0.8,0.9-1.3,1.2
		s-1.1,0.4-1.8,0.4c-1.1,0-2-0.3-2.7-1s-1-1.6-1-2.6c0-1.1,0.3-2,1-2.7s1.6-1.1,2.6-1.1c1.1,0,2,0.4,2.7,1.1c0.7,0.7,1,1.6,1,2.8
		L61.7,185.2z M59.9,183.9c-0.1-0.4-0.3-0.7-0.7-1c-0.3-0.2-0.7-0.4-1.2-0.4s-0.9,0.1-1.3,0.4c-0.2,0.2-0.4,0.5-0.6,0.9h3.8V183.9z"
		/>
	<path d="M63.1,181.2h1.8v0.7c0.4-0.3,0.8-0.6,1.1-0.7s0.7-0.2,1-0.2c0.7,0,1.3,0.2,1.8,0.7c0.4,0.4,0.6,1,0.6,1.8v4.7h-1.7v-3.1
		c0-0.8,0-1.4-0.1-1.7s-0.2-0.5-0.4-0.6c-0.2-0.1-0.4-0.2-0.7-0.2c-0.4,0-0.7,0.1-0.9,0.4s-0.4,0.6-0.5,1c-0.1,0.2-0.1,0.7-0.1,1.4
		v2.8h-1.8v-7H63.1z"/>
	<path d="M71.3,178.6h1.8v2.6h1v1.5h-1v5.5h-1.8v-5.5h-0.9v-1.5h0.9V178.6z"/>
	<path d="M74.6,181.2h1.5v0.9c0.2-0.3,0.4-0.6,0.7-0.8c0.3-0.2,0.6-0.3,0.9-0.3c0.2,0,0.5,0.1,0.7,0.2l-0.5,1.5
		c-0.2-0.1-0.4-0.2-0.5-0.2c-0.3,0-0.5,0.2-0.7,0.5s-0.3,1-0.3,2v0.3v2.8h-1.8C74.6,188.1,74.6,181.2,74.6,181.2z"/>
	<path d="M79.3,181.2h1.8v3.4c0,0.7,0,1.1,0.1,1.4c0.1,0.3,0.2,0.5,0.4,0.6c0.2,0.1,0.4,0.2,0.7,0.2c0.3,0,0.5-0.1,0.7-0.2
		c0.2-0.1,0.4-0.3,0.5-0.6c0.1-0.2,0.1-0.6,0.1-1.3v-3.4h1.8v3c0,1.2-0.1,2.1-0.3,2.5c-0.2,0.6-0.6,1-1,1.3c-0.5,0.3-1,0.4-1.8,0.4
		s-1.4-0.2-1.9-0.5s-0.8-0.8-1-1.4c-0.1-0.4-0.2-1.2-0.2-2.3v-3.1H79.3z"/>
	<path d="M87.2,181.2H89v0.8c0.3-0.3,0.6-0.6,1-0.7s0.8-0.2,1.2-0.2c0.4,0,0.8,0.1,1.2,0.3s0.6,0.5,0.9,0.9c0.3-0.4,0.6-0.7,1-0.9
		s0.9-0.3,1.3-0.3c0.5,0,0.9,0.1,1.3,0.3s0.7,0.5,0.8,0.9c0.2,0.4,0.2,1,0.2,1.8v4.1h-1.8v-3.6c0-0.8-0.1-1.3-0.3-1.6
		c-0.2-0.3-0.5-0.4-0.9-0.4c-0.3,0-0.6,0.1-0.8,0.3c-0.2,0.2-0.4,0.4-0.5,0.7s-0.2,0.8-0.2,1.5v3.2h-1.8v-3.4c0-0.6,0-1.1-0.1-1.4
		c-0.1-0.3-0.2-0.5-0.4-0.6c-0.2-0.1-0.4-0.2-0.7-0.2c-0.3,0-0.6,0.1-0.8,0.3c-0.2,0.2-0.4,0.4-0.5,0.7s-0.2,0.8-0.2,1.5v3.1h-1.8
		v-7.1H87.2z"/>
</g>
<g>
	<path d="M105.3,181.2h1.8v3.4c0,0.7,0,1.1,0.1,1.4c0.1,0.3,0.2,0.5,0.4,0.6c0.2,0.1,0.4,0.2,0.7,0.2c0.3,0,0.5-0.1,0.7-0.2
		c0.2-0.1,0.4-0.3,0.5-0.6c0.1-0.2,0.1-0.6,0.1-1.3v-3.4h1.8v3c0,1.2-0.1,2.1-0.3,2.5c-0.2,0.6-0.6,1-1,1.3c-0.5,0.3-1,0.4-1.8,0.4
		s-1.4-0.2-1.9-0.5s-0.8-0.8-1-1.4c-0.1-0.4-0.2-1.2-0.2-2.3v-3.1H105.3z"/>
	<path d="M113.2,181.2h1.8v0.7c0.4-0.3,0.8-0.6,1.1-0.7s0.7-0.2,1-0.2c0.7,0,1.3,0.2,1.8,0.7c0.4,0.4,0.6,1,0.6,1.8v4.7h-1.7v-3.1
		c0-0.8,0-1.4-0.1-1.7s-0.2-0.5-0.4-0.6s-0.4-0.2-0.7-0.2c-0.4,0-0.7,0.1-0.9,0.4s-0.4,0.6-0.5,1c-0.1,0.2-0.1,0.7-0.1,1.4v2.8h-1.8
		v-7H113.2z"/>
	<path d="M126.4,178.5h1.8v9.8h-1.8v-0.8c-0.3,0.3-0.7,0.6-1,0.7c-0.3,0.1-0.7,0.2-1.1,0.2c-0.9,0-1.7-0.4-2.4-1.1s-1-1.6-1-2.6
		c0-1.1,0.3-2,1-2.7s1.4-1,2.3-1c0.4,0,0.8,0.1,1.2,0.2c0.4,0.2,0.7,0.4,1,0.7V178.5z M124.5,182.7c-0.5,0-1,0.2-1.4,0.6
		c-0.4,0.4-0.5,0.9-0.5,1.5s0.2,1.1,0.6,1.5c0.4,0.4,0.8,0.6,1.4,0.6c0.6,0,1-0.2,1.4-0.6c0.4-0.4,0.5-0.9,0.5-1.5s-0.2-1.1-0.5-1.5
		S125.1,182.7,124.5,182.7z"/>
	<path d="M136.6,178.7h1.8l2.2,6.6l2.2-6.6h1.8l1.6,9.5h-1.8l-1-6l-2,6h-1.6l-2-6l-1,6H135L136.6,178.7z"/>
	<path d="M154.5,185.2h-5.7c0.1,0.5,0.3,0.9,0.7,1.2s0.8,0.4,1.4,0.4c0.7,0,1.2-0.2,1.7-0.7l1.5,0.7c-0.4,0.5-0.8,0.9-1.3,1.2
		s-1.1,0.4-1.8,0.4c-1.1,0-2-0.3-2.7-1s-1-1.6-1-2.6c0-1.1,0.3-2,1-2.7s1.6-1.1,2.6-1.1c1.1,0,2,0.4,2.7,1.1c0.7,0.7,1,1.6,1,2.8
		L154.5,185.2z M152.7,183.9c-0.1-0.4-0.3-0.7-0.7-1c-0.3-0.2-0.7-0.4-1.2-0.4s-0.9,0.1-1.3,0.4c-0.2,0.2-0.5,0.5-0.6,0.9h3.8V183.9
		z"/>
	<path d="M155.9,178.5h1.8v3.4c0.3-0.3,0.7-0.5,1-0.7s0.7-0.2,1.1-0.2c0.7,0,1.3,0.2,1.8,0.7c0.4,0.4,0.6,1,0.6,1.8v4.7h-1.7v-3.1
		c0-0.8,0-1.4-0.1-1.7s-0.2-0.5-0.4-0.6s-0.4-0.2-0.7-0.2c-0.4,0-0.7,0.1-0.9,0.4s-0.4,0.6-0.5,1c-0.1,0.2-0.1,0.7-0.1,1.4v2.8H156
		v-9.7H155.9z"/>
	<path d="M163.5,181.2h1.5v0.9c0.2-0.3,0.4-0.6,0.7-0.8s0.6-0.3,0.9-0.3c0.2,0,0.5,0.1,0.7,0.2l-0.5,1.5c-0.2-0.1-0.4-0.2-0.5-0.2
		c-0.3,0-0.5,0.2-0.7,0.5s-0.3,1-0.3,2v0.3v2.8h-1.8L163.5,181.2L163.5,181.2z"/>
	<path d="M173.3,181.2h1.8v6c0,1.2-0.2,2.1-0.7,2.6c-0.6,0.8-1.6,1.1-2.9,1.1c-0.7,0-1.3-0.1-1.7-0.3c-0.5-0.2-0.9-0.4-1.2-0.8
		c-0.3-0.3-0.6-0.7-0.7-1.2h1.9c0.2,0.2,0.4,0.3,0.7,0.4c0.3,0.1,0.6,0.2,1,0.2c0.5,0,0.9-0.1,1.1-0.2c0.3-0.1,0.5-0.3,0.6-0.6
		c0.1-0.2,0.2-0.6,0.2-1.2c-0.3,0.3-0.6,0.5-1,0.7s-0.7,0.2-1.2,0.2c-0.9,0-1.7-0.3-2.4-1s-1-1.5-1-2.6s0.3-2,1-2.7
		c0.6-0.6,1.4-0.9,2.2-0.9c0.4,0,0.8,0.1,1.1,0.2s0.7,0.4,1.1,0.7L173.3,181.2L173.3,181.2z M171.5,182.7c-0.6,0-1,0.2-1.4,0.6
		s-0.5,0.8-0.5,1.4c0,0.6,0.2,1.1,0.6,1.4c0.4,0.4,0.8,0.6,1.4,0.6c0.5,0,1-0.2,1.4-0.6c0.4-0.4,0.5-0.8,0.5-1.4
		c0-0.6-0.2-1.1-0.5-1.4C172.5,182.9,172,182.7,171.5,182.7z"/>
	<path d="M183.9,185.2h-5.7c0.1,0.5,0.3,0.9,0.7,1.2s0.8,0.4,1.4,0.4c0.7,0,1.2-0.2,1.7-0.7l1.5,0.7c-0.4,0.5-0.8,0.9-1.3,1.2
		s-1.1,0.4-1.8,0.4c-1.1,0-2-0.3-2.7-1s-1-1.6-1-2.6c0-1.1,0.3-2,1-2.7s1.6-1.1,2.6-1.1c1.1,0,2,0.4,2.7,1.1c0.7,0.7,1,1.6,1,2.8
		L183.9,185.2z M182.1,183.9c-0.1-0.4-0.3-0.7-0.7-1c-0.3-0.2-0.7-0.4-1.2-0.4s-0.9,0.1-1.3,0.4c-0.2,0.2-0.5,0.5-0.6,0.9h3.8V183.9
		z"/>
	<path d="M185.3,181.2h1.8v0.7c0.4-0.3,0.8-0.6,1.1-0.7c0.3-0.1,0.7-0.2,1-0.2c0.7,0,1.3,0.2,1.8,0.7c0.4,0.4,0.6,1,0.6,1.8v4.7
		h-1.7v-3.1c0-0.8,0-1.4-0.1-1.7s-0.2-0.5-0.4-0.6s-0.4-0.2-0.7-0.2c-0.4,0-0.7,0.1-0.9,0.4c-0.3,0.2-0.4,0.6-0.5,1
		c-0.1,0.2-0.1,0.7-0.1,1.4v2.8h-1.9V181.2z"/>
	<path d="M200.3,185.2h-5.7c0.1,0.5,0.3,0.9,0.7,1.2s0.8,0.4,1.4,0.4c0.7,0,1.2-0.2,1.7-0.7l1.5,0.7c-0.4,0.5-0.8,0.9-1.3,1.2
		s-1.1,0.4-1.8,0.4c-1.1,0-2-0.3-2.7-1s-1-1.6-1-2.6c0-1.1,0.3-2,1-2.7s1.6-1.1,2.6-1.1c1.1,0,2,0.4,2.7,1.1c0.7,0.7,1,1.6,1,2.8
		L200.3,185.2z M198.6,183.9c-0.1-0.4-0.3-0.7-0.7-1c-0.3-0.2-0.7-0.4-1.2-0.4s-0.9,0.1-1.3,0.4c-0.2,0.2-0.5,0.5-0.6,0.9h3.8V183.9
		z"/>
	<path d="M201.4,181.2h1.5v0.9c0.2-0.3,0.4-0.6,0.7-0.8s0.6-0.3,0.9-0.3c0.2,0,0.5,0.1,0.7,0.2l-0.5,1.5c-0.2-0.1-0.4-0.2-0.5-0.2
		c-0.3,0-0.5,0.2-0.7,0.5s-0.3,1-0.3,2v0.3v2.8h-1.8L201.4,181.2L201.4,181.2z"/>
	<path d="M211.2,181.2h1.8v7h-1.8v-0.7c-0.3,0.3-0.7,0.6-1,0.7c-0.3,0.1-0.7,0.2-1.1,0.2c-0.9,0-1.7-0.4-2.4-1.1s-1-1.6-1-2.6
		c0-1.1,0.3-2,1-2.7s1.4-1,2.3-1c0.4,0,0.8,0.1,1.2,0.2c0.4,0.2,0.7,0.4,1,0.7V181.2z M209.3,182.7c-0.5,0-1,0.2-1.4,0.6
		c-0.4,0.4-0.5,0.9-0.5,1.5s0.2,1.1,0.6,1.5c0.4,0.4,0.8,0.6,1.4,0.6c0.6,0,1-0.2,1.4-0.6c0.4-0.4,0.5-0.9,0.5-1.5s-0.2-1.1-0.5-1.5
		S209.9,182.7,209.3,182.7z"/>
	<path d="M215,178.6h1.8v2.6h1v1.5h-1v5.5H215v-5.5h-0.9v-1.5h0.9V178.6z"/>
	<path d="M219.4,178.3c0.3,0,0.6,0.1,0.8,0.3s0.3,0.5,0.3,0.8s-0.1,0.6-0.3,0.8s-0.5,0.3-0.8,0.3s-0.6-0.1-0.8-0.3s-0.3-0.5-0.3-0.8
		s0.1-0.6,0.3-0.8C218.8,178.4,219.1,178.3,219.4,178.3z M218.5,181.2h1.8v7h-1.8V181.2z"/>
	<path d="M225.2,181c0.7,0,1.3,0.2,1.9,0.5c0.6,0.3,1,0.8,1.4,1.4c0.3,0.6,0.5,1.2,0.5,1.8c0,0.7-0.2,1.3-0.5,1.9
		c-0.3,0.6-0.8,1-1.3,1.4c-0.6,0.3-1.2,0.5-1.9,0.5c-1,0-1.9-0.4-2.6-1.1c-0.7-0.7-1.1-1.6-1.1-2.6c0-1.1,0.4-2,1.2-2.8
		C223.5,181.4,224.3,181,225.2,181z M225.2,182.7c-0.5,0-1,0.2-1.4,0.6c-0.4,0.4-0.5,0.9-0.5,1.5s0.2,1.1,0.5,1.5
		c0.4,0.4,0.8,0.6,1.4,0.6c0.6,0,1-0.2,1.4-0.6s0.6-0.9,0.6-1.5s-0.2-1.1-0.5-1.5C226.3,182.9,225.8,182.7,225.2,182.7z"/>
	<path d="M230.4,181.2h1.8v0.7c0.4-0.3,0.8-0.6,1.1-0.7c0.3-0.1,0.7-0.2,1-0.2c0.7,0,1.3,0.2,1.8,0.7c0.4,0.4,0.6,1,0.6,1.8v4.7H235
		v-3.1c0-0.8,0-1.4-0.1-1.7s-0.2-0.5-0.4-0.6s-0.4-0.2-0.7-0.2c-0.4,0-0.7,0.1-0.9,0.4c-0.3,0.2-0.4,0.6-0.5,1
		c-0.1,0.2-0.1,0.7-0.1,1.4v2.8h-1.8v-7H230.4z"/>
	<path d="M245.4,185.2h-5.7c0.1,0.5,0.3,0.9,0.7,1.2s0.8,0.4,1.4,0.4c0.7,0,1.2-0.2,1.7-0.7l1.5,0.7c-0.4,0.5-0.8,0.9-1.3,1.2
		s-1.1,0.4-1.8,0.4c-1.1,0-2-0.3-2.7-1s-1-1.6-1-2.6c0-1.1,0.3-2,1-2.7s1.6-1.1,2.6-1.1c1.1,0,2,0.4,2.7,1.1c0.7,0.7,1,1.6,1,2.8
		L245.4,185.2z M243.6,183.9c-0.1-0.4-0.3-0.7-0.7-1c-0.3-0.2-0.7-0.4-1.2-0.4s-0.9,0.1-1.3,0.4c-0.2,0.2-0.5,0.5-0.6,0.9h3.8V183.9
		z"/>
	<path d="M246.8,181.2h1.8v0.7c0.4-0.3,0.8-0.6,1.1-0.7c0.3-0.1,0.7-0.2,1-0.2c0.7,0,1.3,0.2,1.8,0.7c0.4,0.4,0.6,1,0.6,1.8v4.7
		h-1.8v-3.1c0-0.8,0-1.4-0.1-1.7s-0.2-0.5-0.4-0.6c-0.2-0.1-0.4-0.2-0.7-0.2c-0.4,0-0.7,0.1-0.9,0.4c-0.3,0.2-0.4,0.6-0.5,1
		c-0.1,0.2-0.1,0.7-0.1,1.4v2.8h-1.8V181.2z"/>
	<path d="M254.8,178.5h1.8v3.4c0.3-0.3,0.7-0.5,1-0.7s0.7-0.2,1.1-0.2c0.7,0,1.3,0.2,1.8,0.7c0.4,0.4,0.6,1,0.6,1.8v4.7h-1.8v-3.1
		c0-0.8,0-1.4-0.1-1.7c-0.1-0.3-0.2-0.5-0.4-0.6s-0.4-0.2-0.7-0.2c-0.4,0-0.7,0.1-0.9,0.4c-0.2,0.3-0.4,0.6-0.5,1
		c-0.1,0.2-0.1,0.7-0.1,1.4v2.8h-1.8V178.5z"/>
	<path d="M267.9,181.2h1.8v7h-1.8v-0.7c-0.3,0.3-0.7,0.6-1,0.7c-0.3,0.1-0.7,0.2-1.1,0.2c-0.9,0-1.7-0.4-2.4-1.1
		c-0.7-0.7-1-1.6-1-2.6c0-1.1,0.3-2,1-2.7s1.4-1,2.3-1c0.4,0,0.8,0.1,1.2,0.2c0.4,0.2,0.7,0.4,1,0.7V181.2z M266.1,182.7
		c-0.5,0-1,0.2-1.4,0.6c-0.4,0.4-0.5,0.9-0.5,1.5s0.2,1.1,0.6,1.5c0.4,0.4,0.8,0.6,1.4,0.6c0.6,0,1-0.2,1.4-0.6
		c0.4-0.4,0.5-0.9,0.5-1.5s-0.2-1.1-0.5-1.5S266.6,182.7,266.1,182.7z"/>
	<path d="M271.5,181.2h1.8v3.4c0,0.7,0,1.1,0.1,1.4c0.1,0.3,0.2,0.5,0.4,0.6c0.2,0.1,0.4,0.2,0.7,0.2c0.3,0,0.5-0.1,0.7-0.2
		c0.2-0.1,0.4-0.3,0.5-0.6c0.1-0.2,0.1-0.6,0.1-1.3v-3.4h1.8v3c0,1.2-0.1,2.1-0.3,2.5c-0.2,0.6-0.6,1-1,1.3c-0.5,0.3-1,0.4-1.8,0.4
		s-1.4-0.2-1.9-0.5s-0.8-0.8-1-1.4c-0.1-0.4-0.2-1.2-0.2-2.3L271.5,181.2L271.5,181.2z"/>
	<path d="M283.7,182.2l-1.1,1.1c-0.4-0.4-0.8-0.7-1.2-0.7c-0.2,0-0.4,0-0.5,0.1c-0.1,0.1-0.2,0.2-0.2,0.3s0,0.2,0.1,0.3
		c0.1,0.1,0.2,0.2,0.5,0.3l0.6,0.3c0.7,0.3,1.1,0.7,1.4,1s0.4,0.8,0.4,1.2c0,0.6-0.2,1.1-0.7,1.6c-0.5,0.4-1.1,0.6-1.8,0.6
		c-1,0-1.8-0.4-2.5-1.2l1.1-1.2c0.2,0.2,0.4,0.4,0.7,0.6c0.3,0.1,0.5,0.2,0.7,0.2s0.4-0.1,0.6-0.2s0.2-0.2,0.2-0.4
		c0-0.3-0.3-0.5-0.8-0.8l-0.6-0.3c-1.1-0.6-1.7-1.3-1.7-2.2c0-0.6,0.2-1,0.6-1.4c0.4-0.4,1-0.6,1.6-0.6c0.5,0,0.9,0.1,1.3,0.3
		C283.1,181.5,283.4,181.8,283.7,182.2z"/>
</g>
<g>
	<path class="st1" d="M97.5,52.7c0.8-0.4,2.3-1.3,4.6-2.7c0.7-0.4,2.5-1.5,5.5-3.1c1.2-0.7,2.8-1.4,4.6-2.3c1.1-0.5,1.9-0.8,2.3-0.8
		c0.2,0,0.5,0.1,0.7,0.3c0.3,0.3,0.4,0.6,0.4,1c0,0.5-0.2,0.9-0.7,1.2c-0.2,0.2-0.8,0.4-1.6,0.7c-5.6,2.2-10.3,4.9-14.1,8
		c-0.5,1.9-0.9,3.8-1.2,5.6c-0.6,3.9-0.9,7.1-0.9,9.8c0,0.9,0.1,1.7,0.4,2.1c0.2,0.5,0.6,0.7,1.1,0.7c0.9,0,2.8-2,5.6-5.9
		c0.5-0.7,0.9-1.1,1.3-1.1s0.6,0.2,0.6,0.7c0,0.7-0.8,2.2-2.3,4.4c-2.2,3.2-4.2,4.9-6,4.9c-1.5,0-2.5-0.8-3-2.4
		c-0.3-1-0.5-2.3-0.5-3.8c0-3.1,0.4-6.3,1.2-9.8c0.8-3.5,1.2-5.6,1.4-6.5c-1,1.8-2.8,4.9-5.5,9.3c-3.2,5.6-5.1,10-5.8,13.3
		c-0.2,1.1-0.7,1.6-1.5,1.6c-0.5,0-0.9-0.2-1.1-0.7c-0.1-0.3-0.2-0.6-0.2-1c0-1.4,0.7-3.6,2.1-6.8c0.8-1.8,1.9-4,3.3-6.6
		c0.5-1,1.7-2.9,3.5-5.7c4-6.3,6.5-11,7.6-13.9c0.4-1,0.7-1.7,0.8-1.9c0.3-0.4,0.7-0.6,1.2-0.6c0.2,0,0.5,0.1,0.7,0.2
		c0.3,0.2,0.4,0.5,0.4,0.9C102.3,43.2,100.7,46.8,97.5,52.7z"/>
	<path class="st1" d="M114.9,71.1c-0.6,1-1.2,1.9-1.7,2.6c-1.1,1.4-2.2,2.1-3.3,2.1c-0.9,0-1.7-0.4-2.2-1.3
		c-0.3-0.6-0.5-1.3-0.5-2.1c0-2,0.6-4.1,1.8-6.5c1.4-2.6,3-4.6,5-6c1.3-0.9,2.5-1.4,3.7-1.4c0.7,0,1.4,0.2,1.8,0.7
		c0.4,0.4,0.6,0.9,0.6,1.4c0,0.4-0.1,0.9-0.4,1.6c0.3,0.4,0.4,0.7,0.4,1c0,0.4-0.2,1-0.7,1.8c-0.5,0.9-1,2-1.5,3.4
		c-0.5,1.5-0.8,2.7-0.8,3.6c0,0.7,0.2,1.3,0.7,1.8c0.1,0.1,0.5,0.3,1.1,0.6c0.4,0.2,0.7,0.6,0.7,1.1c0,0.3-0.1,0.6-0.4,0.8
		c-0.3,0.2-0.6,0.3-0.9,0.3c-0.9,0-1.8-0.4-2.5-1.3c-0.6-0.7-0.8-1.5-0.8-2.6C114.8,72.4,114.8,71.9,114.9,71.1z M118.2,62.4
		c-0.2-0.4-0.4-0.7-0.7-0.9c-0.2-0.2-0.5-0.3-0.8-0.3c-1.3,0-2.8,1.2-4.4,3.5c-1.7,2.6-2.6,4.8-2.6,6.6c0,0.4,0.1,0.8,0.3,1
		c0.2,0.2,0.4,0.3,0.8,0.3c0.8,0,1.8-0.9,3-2.7c0.6-1,1.4-2.4,2.3-4.4c0.6-1.2,1.1-2.1,1.3-2.5C117.5,62.9,117.8,62.7,118.2,62.4z
		 M120.2,49.3c0.4,0,0.7,0.1,0.9,0.4c0.2,0.2,0.3,0.5,0.3,0.8c0,0.7-0.4,1.6-1.2,2.5c-0.7,0.9-1.5,1.3-2.1,1.3
		c-0.3,0-0.6-0.1-0.8-0.4c-0.2-0.2-0.3-0.5-0.3-0.9c0-0.8,0.5-1.7,1.4-2.7C119,49.7,119.6,49.3,120.2,49.3z M125.7,49.3
		c0.4,0,0.7,0.1,0.9,0.4c0.2,0.2,0.3,0.5,0.3,0.8c0,0.7-0.4,1.6-1.2,2.5c-0.7,0.9-1.5,1.3-2.1,1.3c-0.3,0-0.6-0.1-0.8-0.4
		c-0.2-0.2-0.3-0.5-0.3-0.9c0-0.8,0.5-1.7,1.4-2.7C124.5,49.7,125.1,49.3,125.7,49.3z"/>
	<path class="st1" d="M126,66.4c0.2-0.2,0.4-0.4,0.7-0.6c3.7-3.6,6.1-5.4,7.4-5.4c0.7,0,1,0.4,1,1.1c0,0.5-0.3,1.2-0.9,1.9
		c-3.4,3.9-5,7.4-5,10.4c0,1,0.3,1.9,0.8,2.8c0.2,0.4,0.4,0.7,0.4,0.9c0,0.2-0.1,0.4-0.3,0.6s-0.5,0.4-0.8,0.4
		c-0.7,0-1.3-0.5-1.8-1.4s-0.7-1.9-0.7-3.1c0-2.4,0.9-5,2.7-7.9c-2.4,1.5-4.6,4.2-6.7,8.1c-0.5,0.9-1.1,1.4-1.7,1.4
		c-0.3,0-0.5-0.1-0.7-0.3c-0.2-0.2-0.4-0.6-0.4-0.9c0-0.9,1.1-3.4,3.2-7.5c1.2-2.2,2.1-3.8,2.7-4.7c0.7-1,1.2-1.5,1.7-1.5
		c0.2,0,0.4,0.1,0.7,0.3c0.2,0.2,0.4,0.5,0.4,0.8c0,0.4-0.3,0.9-0.8,1.7C127,64.5,126.4,65.5,126,66.4z"/>
	<path class="st1" d="M142.9,73.1c1.9-1.4,3.3-2.6,4.2-3.7c1.4-1.6,2.3-3,2.9-4c0.3-0.5,0.6-0.7,0.9-0.7c0.4,0,0.6,0.2,0.6,0.6
		c0,0.5-0.3,1.3-1,2.4c-2.1,3.4-5.2,6.3-9.3,8.8c-1.9,4-3.4,6.8-4.3,8.2c-2.4,3.8-4.7,5.7-6.9,5.7c-1.1,0-1.9-0.4-2.4-1.3
		c-0.3-0.5-0.4-1.1-0.4-1.7c0-2.8,1.8-5.4,5.3-7.9c0.6-0.4,2.8-1.7,6.8-4c0.8-1.6,1.4-2.9,1.8-3.8c-1.8,1.9-3.4,2.9-4.6,2.9
		c-0.8,0-1.3-0.4-1.8-1.2c-0.3-0.5-0.4-1-0.4-1.6c0-1.3,0.5-2.9,1.6-4.9c1.5-2.9,3.3-5.1,5.3-6.8c1.7-1.4,3.3-2.1,4.6-2.1
		c0.7,0,1.3,0.3,1.8,0.8c0.3,0.3,0.5,0.8,0.5,1.5c0,0.8-0.3,1.8-0.8,3c0.4,0.4,0.6,0.7,0.6,0.9c0,0.1-0.1,0.3-0.3,0.5
		c-0.5,0.7-1.2,1.9-2.3,3.7C144.4,69.9,143.6,71.5,142.9,73.1z M137.7,78.6c-2.3,1-4.4,2.5-6.1,4.5c-0.8,0.9-1.4,1.9-1.8,3
		c-0.1,0.3-0.2,0.6-0.2,0.8c0,0.2,0.1,0.4,0.2,0.6c0.2,0.3,0.5,0.5,0.8,0.5c1.1,0,2.4-1.2,3.8-3.5C135.7,82.3,136.8,80.4,137.7,78.6
		z M142.7,67c-0.2-0.3-0.4-0.4-0.4-0.6s0.1-0.4,0.4-0.6c0.9-0.8,1.6-1.7,2.1-2.6c0.4-0.7,0.7-1.3,0.7-1.7c0-0.5-0.2-0.7-0.7-0.7
		c-0.8,0-1.8,0.7-3.2,2.2c-1.7,1.7-3,3.6-3.9,5.7c-0.5,1.1-0.7,1.9-0.7,2.4c0,0.3,0.1,0.6,0.2,0.7c0.1,0.2,0.3,0.2,0.6,0.2
		c0.6,0,1.5-0.6,2.6-1.9c0.7-0.8,1.3-1.6,1.8-2.4C142.5,67.3,142.7,67.1,142.7,67z"/>
	<path class="st1" d="M158.8,71.4c-0.8,1.1-1.4,1.9-2,2.5c-1,1.1-2,1.7-3,1.7c-0.9,0-1.5-0.4-2-1.2c-0.3-0.5-0.5-1.2-0.5-2
		c0-2.3,1-4.9,2.9-7.8c0.9-1.4,1.8-2.4,2.7-3.1c0.7-0.6,1.2-0.9,1.7-0.9c0.2,0,0.5,0.1,0.7,0.3c0.2,0.2,0.3,0.4,0.3,0.6
		c0,0.3-0.3,0.9-1,1.6c-1.5,1.7-2.6,3.3-3.3,4.8c-0.9,1.7-1.3,3-1.3,4c0,0.2,0.1,0.4,0.2,0.6s0.3,0.2,0.5,0.2c0.9,0,2.1-1.3,3.7-3.8
		c0.8-1.3,1.5-2.8,2.1-4.4c0.3-0.9,0.7-1.7,1.2-2.3c0.5-0.6,1-0.9,1.5-0.9c0.3,0,0.5,0.1,0.7,0.3c0.2,0.2,0.3,0.5,0.3,0.8
		c0,0.6-0.6,2.1-1.8,4.3c-0.8,1.5-1.2,2.8-1.2,3.8c0,1.1,0.3,2,0.9,2.8c0.2,0.2,0.6,0.5,1.5,1c0.4,0.2,0.6,0.6,0.6,1.1
		c0,0.3-0.1,0.6-0.4,0.8c-0.3,0.2-0.6,0.3-1,0.3c-0.9,0-1.7-0.4-2.4-1.1c-0.7-0.6-1.1-1.5-1.2-2.7C158.9,72.6,158.9,72.1,158.8,71.4
		z"/>
	<path class="st1" d="M170.3,66.7c1.7-1.8,3.7-3.6,6-5.4c0.8-0.6,1.7-1.2,2.6-1.8c0.5-0.3,0.7-0.4,0.9-0.4c0.3,0,0.5,0.2,0.8,0.6
		c0.2,0.2,0.2,0.4,0.2,0.6c0,0.3-0.3,0.7-1,1.3c-1.8,1.4-2.7,2.5-2.7,3.2c0,0.4,0.2,0.6,0.7,0.6c0.8,0,2.1-0.6,3.9-1.9
		c0.3-0.2,0.6-0.3,0.8-0.3c0.1,0,0.3,0.1,0.4,0.2c0.2,0.2,0.2,0.3,0.2,0.5c0,0.5-0.7,1.3-2.2,2.4c-1.5,1.2-3,1.7-4.4,1.7
		c-0.6,0-1.1-0.1-1.6-0.4c-0.4-0.2-0.6-0.7-0.6-1.3c0-0.4,0.2-0.9,0.6-1.5c-1.4,1-3,2.7-4.9,5.1c-1.1,1.5-2.2,3.3-3.2,5.5
		c-0.4,0.8-0.9,1.2-1.5,1.2c-0.7,0-1-0.3-1-0.9s0.5-2.2,1.5-4.8c1.5-3.9,3.1-6.9,4.7-9c1-1.3,1.9-2,2.6-2c0.2,0,0.4,0.1,0.6,0.2
		c0.2,0.2,0.3,0.4,0.3,0.7s-0.2,0.6-0.5,1.1c-0.1,0.1-0.5,0.7-1.4,1.8C171.3,64.7,170.7,65.7,170.3,66.7z"/>
	<path class="st1" d="M189.3,71.4c-0.8,1.1-1.4,1.9-2,2.5c-1,1.1-2,1.7-3,1.7c-0.9,0-1.5-0.4-2-1.2c-0.3-0.5-0.5-1.2-0.5-2
		c0-2.3,1-4.9,2.9-7.8c0.9-1.4,1.8-2.4,2.7-3.1c0.7-0.6,1.2-0.9,1.7-0.9c0.2,0,0.5,0.1,0.7,0.3c0.2,0.2,0.3,0.4,0.3,0.6
		c0,0.3-0.3,0.9-1,1.6c-1.5,1.7-2.6,3.3-3.3,4.8c-0.9,1.7-1.3,3-1.3,4c0,0.2,0.1,0.4,0.2,0.6s0.3,0.2,0.5,0.2c0.9,0,2.1-1.3,3.7-3.8
		c0.8-1.3,1.5-2.8,2.1-4.4c0.3-0.9,0.7-1.7,1.2-2.3c0.5-0.6,1-0.9,1.5-0.9c0.3,0,0.5,0.1,0.7,0.3c0.2,0.2,0.3,0.5,0.3,0.8
		c0,0.6-0.6,2.1-1.8,4.3c-0.8,1.5-1.2,2.8-1.2,3.8c0,1.1,0.3,2,0.9,2.8c0.2,0.2,0.6,0.5,1.5,1c0.4,0.2,0.6,0.6,0.6,1.1
		c0,0.3-0.1,0.6-0.4,0.8c-0.3,0.2-0.6,0.3-1,0.3c-0.9,0-1.7-0.4-2.4-1.1c-0.7-0.6-1.1-1.5-1.2-2.7C189.4,72.6,189.4,72.1,189.3,71.4
		z"/>
	<path class="st1" d="M202.4,64.6c1.3-1.4,2.6-2.5,3.9-3.4c1.7-1.2,2.9-1.7,3.6-1.7c0.3,0,0.6,0.1,0.9,0.4c0.3,0.3,0.5,0.6,0.5,1
		c0,0.5-0.4,1.2-1.1,2.2c-1.5,1.9-2.6,3.7-3.3,5.3c-0.7,1.4-1,2.3-1,2.8s0.2,0.7,0.7,0.7c0.9,0,2.5-1.7,4.8-5.1c0.5-0.7,0.9-1,1.2-1
		s0.6,0.2,0.6,0.6c0,0.7-0.7,2-2,3.9c-1.2,1.7-2.4,3-3.6,3.9c-0.9,0.6-1.7,0.9-2.4,0.9c-0.8,0-1.3-0.3-1.6-1
		c-0.2-0.4-0.3-0.9-0.3-1.3c0-1.6,0.6-3.3,1.7-5.4c0.3-0.5,1.1-1.8,2.4-4.1c-3.6,1.8-6.6,5.7-9.1,11.7c-0.2,0.7-0.6,1-1.1,1
		c-0.3,0-0.6-0.1-0.8-0.3c-0.2-0.2-0.3-0.5-0.3-0.9c0-0.6,0.6-2.2,1.7-4.9c2.1-5,4-9.3,5.9-12.8c1.8-3.5,3.8-7.2,6-10.9
		c0.5-0.9,0.9-1.5,1.2-1.8s0.6-0.5,0.9-0.5c0.3,0,0.6,0.2,0.8,0.5c0.2,0.2,0.3,0.5,0.3,0.8c0,0.5-0.3,1.2-0.8,2
		c-1.9,2.9-3.8,6.2-5.7,9.7C204.1,60.7,202.9,63.3,202.4,64.6z"/>
	<path class="st1" d="M228.5,70.3v0.5c0,0.4,0.1,0.7,0.3,1c0.4,0.7,1.2,1,2.2,1c2.2,0,4.7-1.7,7.6-5.1c0.5-0.6,0.9-0.9,1.3-0.9
		c0.2,0,0.4,0.1,0.5,0.3c0.1,0.1,0.2,0.3,0.2,0.4c0,0.7-0.8,1.8-2.5,3.5c-1.3,1.3-2.7,2.3-4.2,3.1c-1.5,0.8-2.9,1.2-4.2,1.2
		s-2.4-0.5-3.1-1.4c-0.5-0.6-0.8-1.5-0.8-2.6c0-3,1.4-5.9,4.2-8.7c2.3-2.3,4.2-3.5,5.9-3.5c0.5,0,0.9,0.1,1.2,0.4
		c0.5,0.4,0.7,0.9,0.7,1.5c0,0.9-0.4,2.1-1.3,3.4C234.7,67.3,232,69.3,228.5,70.3z M229,68.3c1.2-0.4,2.2-0.9,2.9-1.4
		c1.2-0.9,2.2-2,2.9-3.2c0.3-0.4,0.4-0.8,0.4-1.1c0-0.4-0.2-0.5-0.5-0.5c-0.5,0-1.1,0.3-2,1C231.3,64.2,230,66,229,68.3z"/>
	<path class="st1" d="M243.7,73.5c0.4,0,0.7,0.2,1,0.5c0.2,0.2,0.3,0.5,0.3,0.9c0,0.8-0.2,1.7-0.7,2.6c-0.5,1-1.1,1.5-1.9,1.5
		c-0.8,0-1.2-0.5-1.2-1.4s0.3-1.8,0.8-2.8C242.5,73.9,243.1,73.5,243.7,73.5z"/>
	<path class="st1" d="M260,75.7c4.6-8.5,9.1-15.8,13.3-22c2-2.9,4.2-6,6.8-9.2c1-1.3,1.9-1.9,2.6-1.9c0.3,0,0.6,0.1,0.8,0.4
		c0.1,0.2,0.2,0.4,0.2,0.6c0,0.5-0.4,1.2-1.3,2.3c-5.8,7.3-12.4,17.5-19.7,30.7c-0.7,1.2-1.2,2-1.5,2.4c-0.4,0.4-0.8,0.7-1.3,0.7
		c-1.8,0-2.7-1.6-2.7-4.9c0-3.1,0.8-8,2.4-14.6c1.3-5.4,2.9-10.3,4.8-14.6c0.7-1.6,1.2-2.6,1.4-2.9c0.4-0.5,0.9-0.8,1.5-0.8
		c0.4,0,0.7,0.1,0.9,0.4c0.2,0.2,0.3,0.4,0.3,0.7c0,0.4-0.1,0.9-0.3,1.4l-1,2.4c-1.9,4.5-3.4,9-4.7,13.5c-1.6,5.9-2.4,10.5-2.4,14.1
		L260,75.7z"/>
	<path class="st1" d="M277.3,73.5c0.4,0,0.7,0.2,1,0.5c0.2,0.2,0.3,0.5,0.3,0.9c0,0.8-0.2,1.7-0.7,2.6c-0.5,1-1.1,1.5-1.9,1.5
		s-1.2-0.5-1.2-1.4s0.3-1.8,0.8-2.8C276.1,73.9,276.6,73.5,277.3,73.5z"/>
</g>
</svg>
