<?xml version="1.0" encoding="utf-8"?>
<!-- Generator: Adobe Illustrator 24.0.1, SVG Export Plug-In . SVG Version: 6.00 Build 0)  -->
<svg version="1.1" id="Layer_1" xmlns="http://www.w3.org/2000/svg" xmlns:xlink="http://www.w3.org/1999/xlink" x="0px" y="0px"
	 viewBox="0 0 920.7 266.9" style="enable-background:new 0 0 920.7 266.9;" xml:space="preserve">
<style type="text/css">
	.st0{fill:#84BD4D;}
	.st1{fill:#C84A49;}
	.st2{fill:#FEFEFD;}
</style>
<g>
	<path class="st0" d="M632.8,266.8c-2.4,0.6-3.8-0.9-4.3-3.9c-2.1-11.9-5.5-23.7-6.2-35.9c-0.4-6-1.1-12-2.9-17.7
		c-1.1-3.6-0.4-5.4,3.5-6.4c14.5-3.5,29.1-6.7,43.9-9.3c33.2-5.8,66.3-12.5,99.7-17.6c17.4-2.7,34.9-5.1,52.3-7.7
		c12.6-1.9,25.4-3.4,37.8-6.7c4.6-1.2,9.3-0.9,13.9-1.3c2.2-0.2,2.9,1.1,3.5,2.8c2.9,8.5,5.9,17,8.7,25.5c1.2,3.7,2.7,7.2,5.2,10.2
		c3.6,4.1,4.3,9.3,5.7,14.2c0.8,2.9-1.1,4.1-3.4,5.2c-9.2,4.1-18.8,6.5-28.8,7.8c-16.9,2.2-33.1,7.4-49.7,10.8
		c-17.8,3.6-36,4.4-53.8,7.5c-12.5,2.2-24.7,5.6-37.1,7.8c-19.8,3.5-39.7,6.8-59.5,10.4C651.9,264.3,642.7,265.6,632.8,266.8z
		 M748.2,209.1c0.9-1.1,1.3-1.8,1.8-2.4c1.8-2.1,4.5-4.2,2.8-7.3c-1.8-3.4-5.3-3.8-8.7-3.4c-8.1,0.9-9.9,3.8-7.7,11.6
		c0.6,2.2,0.9,4.6,1.5,6.8c1.2,4.8,2.5,9.6,3.9,14.4c0.5,1.6,1.8,3.7,3.4,1.8c2.6-3,6.3-3.5,9.4-5.3c3.5-2,4.4-5.2,4.2-8.9
		c-0.2-3.4-2.3-5.3-5.6-6.1C751.8,210,750.4,209.7,748.2,209.1z M721.8,210.9c1.7,1.8,2.2,4.3,2.8,6.6c0.9,3.6,2.4,6.9,3.9,10.2
		c0.6,1.3,1.1,3.1,3.1,2.1c1.5-0.7,1.2-2.2,0.7-3.5c-2.3-6.3-4.5-12.5-6.8-18.7c-0.6-1.7-1.4-3.7-3.4-3.9c-2.6-0.3-3.1,2.1-4.1,3.7
		c-0.8,1.2-1.6,2.5-2.2,3.9c-1.2,2.7-2.8,3.3-5.5,1.9c-3.1-1.7-6.3-2.9-9.5-4.4c-1.1-0.5-2.2-1.1-3.2,0c-0.8,0.8-0.7,1.8-0.3,2.8
		c3,8.3,6,16.6,9,24.8c0.5,1.4,1.1,3.2,3,2.6c2.2-0.8,1.4-2.6,0.8-4.2c-1.8-5-3.6-10-5.2-15.1c-0.4-1.2-1.7-2.6-0.7-3.7
		c1.4-1.5,2.7,0.3,3.9,0.8c7.5,3.4,7.5,3.4,11.5-3.8C720.1,212.3,720.4,211.2,721.8,210.9z M648.5,215.2c-5.1-1.3-4.8,1.6-4.3,4.1
		c2.1,8.7,4.4,17.4,6.6,26.1c0.6,2.4,2.5,2.6,4.3,2.2c3.1-0.6,6.1-1.5,8.7-3.6c4.2-3.4,4.4-7.3,0.4-10.8c-1.6-1.4-1.7-2.2-0.7-4
		c3.1-5.8,1.3-10.4-4.7-13.3C655.1,214.1,651.4,214.3,648.5,215.2z M800.2,184.6c-2.4-0.1-5.4,1.2-8.3,2.3c-2,0.7-2.1,2.2-1.5,4.1
		c2.4,8.4,6.5,16.4,6.8,25.4c0,1.2,0.8,2.3,2.2,2.3c1.8,0,2.2-1.3,2.1-2.8c-0.2-2.5-0.6-4.9-1-7.4c-0.2-1.2-1.3-2.6,0-3.7
		c1.3-1.1,2.9-0.5,4.2,0.2c3.3,1.6,6.4,3.5,9.7,5.2c1.4,0.7,3.1,2.3,4.4,0.3c1.4-2.1-0.7-2.9-2-3.7c-2.1-1.3-4.3-2.6-6.5-3.7
		c-1.9-0.9-3.1-1.7-1.2-3.9c2.6-3,2.4-6.5,0.7-9.8C807.9,186,804.7,184.7,800.2,184.6z M820.5,193c0.1,1.3,0.1,2.7,0.3,4
		c1.4,9.5,14.6,16.6,23.3,12.5c4.8-2.2,6.7-7.4,4.5-13.2c-2-5.3-5.6-1-8.4-1c-1.4,0-3.4,0.1-3.2,2.2c0.2,2.3,2.2,2,3.9,1.9
		c1.4-0.1,3.1-0.9,3.8,1.1c0.6,2-0.1,3.6-1.8,4.7c-0.8,0.5-1.8,1.1-2.7,1.1c-5.5,0.3-10.1-2-13.5-6.2c-2.6-3.2-2.8-11.1-0.7-14.3
		c1.2-1.8,2.8-2.8,5-2.6c1.7,0.2,3.3,0.4,4.9,0.7c1.4,0.2,2.9,0.1,3.3-1.5c0.5-1.8-1.2-2.1-2.4-2.5
		C826.8,176.5,819.6,182.2,820.5,193z M673.9,237.2c0,1.1,0,2.5,0,3.8c0,1.5-0.2,3.3,1.8,3.5c2.4,0.2,2.4-1.9,2.6-3.5
		c0.2-1.8,0.2-3.6,0.2-5.5c0.2-5.9,5.1-4.1,8.2-4.9c3.1-0.8,3.8,2.1,3.9,4.5c0.1,2.2,0.4,4.5,3.1,3.9c3-0.7,2.2-3.2,1.4-5.3
		c-3.2-8.7-9.4-15.6-14.4-23.2c-0.7-1.1-1.8-2.2-3.3-1.7c-1.5,0.5-1.5,1.9-1.6,3.3C675.2,220.5,674.5,228.7,673.9,237.2z M775,223.2
		c1.7-0.3,3.9-0.5,5.9-1.2c2.1-0.7,6.4-0.1,5.6-3.3c-0.9-3.8-4.5-0.9-6.8-0.6c-2.6,0.4-4.6,1.4-5.7-2.4c-1.1-3.7,1-4,3.4-5.1
		c2.2-1,7.1-0.4,5.8-4.2c-1.1-3.1-4.6,0-7,0.4c-1.8,0.3-4.1,2.3-5.1-0.6c-1.1-3.1-3.5-6.3-2.6-9.4c0.8-2.8,4.4-2.2,7-2.5
		c1.2-0.2,2.3-0.8,2.2-2.2c-0.1-1.8-1.5-2-2.9-1.9c-3,0.3-5.9,0.9-8.7,2.2c-2.8,1.3-3.5,3-2.5,6c2.6,7.2,5.4,14.3,7,21.8
		C771.2,222.4,772.4,223.3,775,223.2z"/>
	<path class="st1" d="M440.4,40.5c6.8,0.6,17.5-0.2,28,2c16.9,3.6,21.6,9.4,22.3,26.7c0.1,3-0.1,6,0.1,9c0.5,9.1-3.5,15.4-11.9,18.7
		c-4.3,1.7-4.7,3.2-1.9,7.2c7,10.2,15.9,19.2,21.1,30.6c2.8,6.1,1.4,9.1-5.1,9.8c-11.4,1.3-22.8,0.6-34.2-0.3
		c-3.9-0.3-6.9-1.8-8.8-5.5c-1.4-2.8-3.6-5.1-6-7.3c-2.4-2.1-3.4-1-4.1,1.4c0,0.2-0.1,0.3-0.1,0.5c-0.9,2.7,0.6,6.5-2.6,7.9
		c-2.5,1.1-5.5,0.8-8.4,0.9c-8.2,0.5-16.5,0.9-24.7,1.4c-3.2,0.2-4.5-0.8-4.3-4.1c0.7-18.3-2-36.5-2.5-54.7
		c-0.3-12.3,2-24.5,1.4-36.9c-0.2-3.4,1.8-5,5.2-5.4C414.7,41.3,425.6,39.9,440.4,40.5z"/>
	<path class="st0" d="M84.1,43c1,0.2,1.9,0.4,2.9,0.6c8,1.2,8.4,2.5,8.7,10.4c0.9,22.2-2.8,43.7-7.5,65.2c-3,13.3-10.5,22-23.7,24.5
		c-11.9,2.2-24,3-35-4.7c-8.8-6.1-12.8-15-16.6-24.3c-5-12.4-8.5-25.2-10.1-38.4C1.5,66.3,0.8,56.4,0,46.5c-0.3-4.3,1.4-6.7,6.1-6.2
		c1.8,0.2,3.7,0.1,5.5,0.2c18.7,1.2,37.3,2.7,56,2.1C73.1,42.4,78.6,42.8,84.1,43z"/>
	<path class="st0" d="M171.7,67.5c1.4-6,1.4-11.6,0.8-17.2c-0.4-3.4,1-4.8,4.1-4.4c6.7,0.9,13.3,0.7,19.9-0.1c4.4-0.5,6,1.5,6.1,5.6
		c0.1,6.3-0.5,12.6-0.8,18.9c-0.6,15.1-0.2,30.3-0.4,45.4c-0.1,9.3-1.2,18.5-1.2,27.8c0,2.6-0.6,3.2-2.9,3.1
		c-11.4-0.8-22.9-1.5-34.3-2.5c-3.4-0.3-6.1-2.1-7.4-5.8c-1.3-3.5-3.2-6.8-5.7-10.1c-0.4,4-1,8-1.1,12c-0.1,3.2-1.2,4.6-4.4,4.5
		c-8.3-0.5-16.6-0.5-24.8,0.3c-1.2,0.1-1.9-0.1-1.7-1.5c0.9-9.3-0.1-18.5-0.7-27.7c-1.3-18.3,0.7-36.6-0.4-54.8
		c-0.2-3.5-0.4-7-0.7-10.4c-0.2-2.1,0.4-3,2.7-3c11.8-0.3,23.6-0.6,35.4-1.1c2.6-0.1,4,1.2,5.1,3.2
		C162.6,55.9,167.5,61.2,171.7,67.5z"/>
	<path class="st1" d="M797.4,56.6c1-2.2,2-3.5,2.1-4.9c0.3-6,3.8-7.2,9-7c9,0.3,18-0.4,26.9,1c2.9,0.5,3.7,1.3,2.8,4.2
		C834,64.4,830,79,825.7,93.5c-0.7,2.3-0.6,4.2,0.5,6.2c5.3,10.1,8,21.1,12.2,31.6c3.1,7.6,1.1,10-7,10.2c-7,0.1-14,0-21,0.4
		c-2.9,0.2-3.5-2.9-6.3-3.4c1.5,4.4-1.2,4.8-4.4,5.3c-7.9,1.3-15.8,0-23.8,0.8c-4.4,0.4-9-0.1-13.5,0.1c-3,0.1-4-0.9-3.8-4.1
		c0.5-7.8,0.7-15.6,0.8-23.4c0.2-13.7-3.3-27-3.6-40.7c-0.2-8.8,0.5-17.6,0.8-26.4c0-1.7,0.7-2.2,2.4-2.5c11.6-1.8,23.2,0,34.8,0.7
		C797.6,48.5,796.2,53.1,797.4,56.6z"/>
	<path class="st1" d="M505,115.5c-1.1-7.5-0.2-16.8-0.7-26.1c-0.7-12.7,0.4-25.6,0.8-38.4c0.1-1.9,1.1-3.5,3-4.3
		c4.8-2,9.9-4.3,14.9-3.6c8.6,1.1,17.2-0.3,25.8,0.7c7.5,0.9,15,1.7,21.7,5.1c14.5,7.3,16.3,15,15.9,28.8
		c-0.2,7.2-0.7,14.6-1.6,21.8c-2.1,17.2-12.7,28.4-29.9,30.3c-5.7,0.7-6.9,2-5.8,8.7c0.8,4.9-0.8,6.1-5.5,6
		c-11.3-0.2-22.6-0.1-34,0.1c-3.5,0.1-4.8-1.1-4.7-4.5C505,132.6,505,124.9,505,115.5z"/>
	<path class="st1" d="M376.2,121.4c4.2,0.3,3.9,3,3.3,6.3c-0.8,4.2-1.5,8.5-1.8,12.8c-0.2,3-1.4,4-4.3,4.1c-21,0.7-41.8-0.4-62.7-2
		c-2.8-0.2-4.2-1.2-4-4.3c0.7-15.8,1.8-31.5,1.8-47.3c0-13.1,2.8-26.2,0.7-39.3c-0.5-3.4,0.4-5.2,4.3-4c5.9,1.8,11.9-0.1,17.8-0.2
		c15.3-0.3,30.5,1.4,45.7,3c1.7,0.2,3.3,0.3,5,0.3c7.3,0.2,7.4,0.2,6.6,7.4c-0.8,6.8-1.9,13.5-2.6,20.3c-0.4,3.7-2.8,3.9-5.7,4
		c-1.7,0.1-4.5-1.2-4.6,2.1c-0.2,3.5,2.7,2.7,4.7,2.7c3.1,0,4.4,0.9,4.1,4.4c-0.7,8.6-2.4,17.1-4.2,25.5
		C379.8,120.2,376.6,118.8,376.2,121.4z"/>
	<path class="st1" d="M676.7,101.4c0.4-22,9.7-38.9,29.9-48.3c10.2-4.7,21.6-6,33.1-4.8c3.2,0.3,5,2.3,6,5.2
		c1.2,3.5,1.3,7.3,0.9,10.9c-1.1,9.9-1.6,19.8-2,29.8c-0.1,2.2-0.2,4.3-3.3,4.7c-3.5,0.5-5.3,2.9-5.2,6.3c0.1,3.2,1.4,5.8,5.3,5.9
		c2.1,0.1,2.6,1.4,2.5,3.4c-0.4,6.6-0.7,13.3-0.9,19.9c-0.1,2.7-1.5,4.3-3.7,5.4c-3.7,1.8-7.5,4.1-11.6,4.3
		c-12.1,0.4-24.2,0.8-33.9-9c-6.2-6.3-13.2-11.7-15.6-20.9C677,110.1,676.6,105.9,676.7,101.4z"/>
	<path class="st1" d="M845.2,69.8c0-3.5,0-7,0-10.5c0-5.9,3.4-9.8,9.4-9.5c9.4,0.4,18.6-1.3,27.9-2c11.7-0.9,23.2,1.8,34.8,2.7
		c2.8,0.2,3.6,1.9,3.4,4.5c-0.7,9.4-1.3,18.9-1.9,28.3c-0.2,3.3-2.8,4-5.4,4.1c-5.1,0.2-7.1,2.7-6.4,7.7c1.8,14-0.7,27.8-2.4,41.7
		c-0.8,7-3.1,8.6-9.5,7.6c-6.7-1-13.2-1-19.9-0.7c-4.3,0.2-6.4-0.8-6.1-5.8c0.7-15.2-2.4-30.2-2.3-45.4c0-3.9-1.6-5.6-5.6-5.8
		c-4-0.2-7.9-1.2-11.9-0.4c-2.8,0.6-3.6-0.6-3.5-3.1c0.1-4.5,0-9,0-13.5C845.6,69.8,845.4,69.8,845.2,69.8z"/>
	<path class="st1" d="M250.8,145.2c-2.5-5.8-4.8-10.6-6.5-15.5c-4.8-13.5-10.7-26.5-16.4-39.6c-6.1-14.1-8.5-29.3-13.7-43.7
		c-1.8-5,3-3,4.5-2.7c15.3,3.2,30.8,2.1,46.3,2.2c11.6,0,23.3-0.2,34.9-0.4c5.4-0.1,5.2,0.2,3.5,5.5c-3.3,10.5-9,19.9-13.2,30.1
		c-5,12.2-12.6,23.3-20.3,34.2c-2.1,3-4.1,6-5.2,9.6c-0.8,2.9-2.3,5.4-5,7.2C255.3,134.9,254,140.1,250.8,145.2z"/>
	<path class="st1" d="M583.5,144c2.8-1.3,3.5-3.8,4.3-6.1c11-30.8,22.9-61.3,31.3-93c0.5-2,0.6-5,3.1-5.1c2.3-0.2,3.3,2.5,4.3,4.4
		c5.5,10.4,10.7,21,16.5,31.2c4.3,7.7,9.4,14.9,14.2,22.3c8,12.3,13.6,25.9,18.9,39.5c1.1,2.7-0.3,3.6-2.4,3.4
		c-11-1.1-21.9,1.2-32.9,1.4c-10.1,0.2-20.2-0.3-30.4,0.1C601.6,142.4,592.6,142.6,583.5,144z"/>
	<path class="st1" d="M84.1,43c-5.5-0.1-10.9-0.6-16.4-0.4c-18.7,0.6-37.4-1-56-2.1c2.9-11.3,11.8-15.7,21.7-18.8
		c2.2-0.7,4.5-1.1,6.7-1.6c2.9,1.1,3.4,4.4,5.7,6.1c1.5,1.1,3.9,2.5,4-0.4c0.1-4.9,2.9-4.1,5.9-4.2c1.8-0.1,3.6-0.5,5.4-0.8
		c0.8,1.4,2.3,1.1,3.5,1.4C75.1,25.3,81,32.7,84.1,43z"/>
	<path class="st0" d="M61,20.8c-1.8,0.3-3.6,0.8-5.4,0.8c-3,0.1-5.8-0.7-5.9,4.2c0,2.9-2.5,1.4-4,0.4c-2.3-1.7-2.8-5-5.7-6.1
		c-0.1-3-2.7-4.5-4.1-6.6c-1.2-1.8-2.1-3.8-0.1-5.3c2-1.5,4-0.5,5.1,1.4c2.6,4.4,4.9,3.7,7.7,0.1c1.8-2.3,4.5-3.4,7.3-4
		c5.1-1.1,9.9-2.7,14.6-4.9c3.8-1.8,6.2,0.4,5.4,4.6c-1.3,6.5-4.4,11.9-11.3,14C63.4,19.6,62.2,20.3,61,20.8z"/>
	<path class="st2" d="M748.2,209.1c2.2,0.5,3.6,0.9,5,1.2c3.3,0.7,5.4,2.6,5.6,6.1c0.2,3.7-0.7,6.9-4.2,8.9
		c-3.1,1.8-6.8,2.3-9.4,5.3c-1.7,1.9-3-0.2-3.4-1.8c-1.4-4.8-2.6-9.6-3.9-14.4c-0.6-2.2-0.9-4.6-1.5-6.8c-2.2-7.8-0.4-10.7,7.7-11.6
		c3.4-0.4,6.9,0.1,8.7,3.4c1.6,3.1-1,5.2-2.8,7.3C749.6,207.3,749.1,208,748.2,209.1z M746.8,213.3c-1.7,0.4-4.5-0.6-3.9,2.4
		c0.5,3.1,0.1,7.1,3.7,8.5c2.3,0.9,8.3-3.8,8.1-6.2C754.4,212.5,749.5,214.7,746.8,213.3z M745.4,200.2c-1.9,0.8-5.3-0.4-5.5,3.2
		c-0.1,1.6,0.2,5,2.2,4.5c2.6-0.7,5.1-3.2,6.1-6C749,200.1,746.7,200.5,745.4,200.2z"/>
	<path class="st2" d="M721.8,210.9c-1.4,0.4-1.7,1.4-2.1,2.2c-4,7.2-4,7.2-11.5,3.8c-1.2-0.6-2.6-2.3-3.9-0.8
		c-1,1.1,0.3,2.5,0.7,3.7c1.6,5.1,3.4,10.1,5.2,15.1c0.6,1.6,1.4,3.4-0.8,4.2c-1.9,0.7-2.5-1.2-3-2.6c-3-8.3-6-16.6-9-24.8
		c-0.4-1-0.5-2,0.3-2.8c1-1.1,2.1-0.5,3.2,0c3.2,1.4,6.4,2.7,9.5,4.4c2.7,1.5,4.3,0.8,5.5-1.9c0.6-1.4,1.4-2.7,2.2-3.9
		c1.1-1.6,1.5-4.1,4.1-3.7c2.1,0.3,2.8,2.2,3.4,3.9c2.3,6.2,4.6,12.5,6.8,18.7c0.5,1.3,0.8,2.8-0.7,3.5c-2.1,1-2.5-0.8-3.1-2.1
		c-1.6-3.3-3-6.7-3.9-10.2C724,215.2,723.5,212.7,721.8,210.9z"/>
	<path class="st2" d="M648.5,215.2c2.9-0.8,6.6-1.1,10.2,0.6c6.1,2.9,7.9,7.4,4.7,13.3c-1,1.9-0.9,2.6,0.7,4c4,3.5,3.7,7.4-0.4,10.8
		c-2.5,2.1-5.6,3-8.7,3.6c-1.8,0.4-3.7,0.2-4.3-2.2c-2.2-8.7-4.5-17.3-6.6-26.1C643.7,216.8,643.4,213.8,648.5,215.2z M652.3,218.6
		c-1.3,0.4-4.5-0.7-3.3,2.4c1.2,3.4-0.3,8.8,4.8,9.5c3.2,0.4,6.4-2,7-5.8C661.2,221.5,657,218.6,652.3,218.6z M657.1,234.8
		c-1.7,0.2-4.1-0.1-3.8,2.1c0.3,2.1-0.1,5.6,3.2,5.7c2.7,0.1,5.7-1.3,5.9-4.2C662.8,234.8,658.9,236,657.1,234.8z"/>
	<path class="st2" d="M800.2,184.6c4.6,0.1,7.8,1.4,9.6,4.7c1.7,3.3,1.9,6.8-0.7,9.8c-2,2.3-0.7,3,1.2,3.9c2.2,1.1,4.4,2.4,6.5,3.7
		c1.3,0.8,3.5,1.6,2,3.7c-1.3,1.9-3,0.4-4.4-0.3c-3.2-1.7-6.4-3.5-9.7-5.2c-1.3-0.7-2.9-1.3-4.2-0.2c-1.3,1.1-0.2,2.4,0,3.7
		c0.4,2.5,0.7,4.9,1,7.4c0.1,1.4-0.3,2.7-2.1,2.8c-1.4,0-2.2-1.1-2.2-2.3c-0.3-9-4.4-17-6.8-25.4c-0.5-1.8-0.5-3.3,1.5-4.1
		C794.8,185.9,797.7,184.5,800.2,184.6z M806.6,193.8c-0.3-4-2.9-5.2-6.2-5.1c-2.2,0-5.7,0-5.1,3c0.5,2.7-0.2,7.6,4.3,7.6
		C802.8,199.4,806.3,198,806.6,193.8z"/>
	<path class="st2" d="M820.5,193c-0.9-10.7,6.3-16.5,16.2-13c1.2,0.4,2.9,0.7,2.4,2.5c-0.4,1.6-1.9,1.7-3.3,1.5
		c-1.6-0.2-3.3-0.5-4.9-0.7c-2.2-0.2-3.8,0.8-5,2.6c-2.1,3.3-1.9,11.1,0.7,14.3c3.4,4.2,8,6.4,13.5,6.2c0.9,0,1.9-0.6,2.7-1.1
		c1.7-1.1,2.5-2.7,1.8-4.7c-0.7-2.1-2.3-1.3-3.8-1.1c-1.7,0.2-3.7,0.4-3.9-1.9c-0.2-2.1,1.9-2.2,3.2-2.2c2.8-0.1,6.4-4.4,8.4,1
		c2.2,5.8,0.3,11-4.5,13.2c-8.7,4-21.9-3-23.3-12.5C820.7,195.6,820.6,194.3,820.5,193z"/>
	<path class="st2" d="M673.9,237.2c0.6-8.5,1.2-16.7,1.8-25c0.1-1.4,0.1-2.8,1.6-3.3c1.5-0.5,2.6,0.6,3.3,1.7
		c5,7.6,11.1,14.5,14.4,23.2c0.8,2.1,1.6,4.6-1.4,5.3c-2.7,0.6-3-1.6-3.1-3.9c-0.1-2.4-0.8-5.2-3.9-4.5c-3.1,0.7-8-1-8.2,4.9
		c0,1.8,0,3.7-0.2,5.5c-0.2,1.6-0.2,3.7-2.6,3.5c-2-0.2-1.8-2-1.8-3.5C673.9,239.7,673.9,238.3,673.9,237.2z M680,218
		c-1,1.9-1.3,3.8-1.2,5.8c0.1,1.3-0.7,3.4,1.5,3.6c1.6,0.1,3.6-0.1,4.6-1.1c1.4-1.3-0.5-2.6-1.2-3.7
		C682.7,220.9,682.1,218.9,680,218z"/>
	<path class="st2" d="M775,223.2c-2.6,0.1-3.8-0.8-4.3-3c-1.6-7.5-4.4-14.7-7-21.8c-1.1-3-0.3-4.7,2.5-6c2.8-1.3,5.7-1.9,8.7-2.2
		c1.4-0.1,2.8,0.1,2.9,1.9c0.1,1.4-1,2.1-2.2,2.2c-2.6,0.4-6.2-0.3-7,2.5c-0.9,3.2,1.4,6.4,2.6,9.4c1,2.8,3.3,0.9,5.1,0.6
		c2.4-0.4,5.9-3.5,7-0.4c1.3,3.8-3.6,3.2-5.8,4.2c-2.4,1.1-4.6,1.4-3.4,5.1c1.1,3.7,3.2,2.7,5.7,2.4c2.3-0.3,5.9-3.2,6.8,0.6
		c0.8,3.2-3.5,2.5-5.6,3.3C778.9,222.7,776.7,222.8,775,223.2z"/>
	<path class="st0" d="M746.8,213.3c2.7,1.4,7.6-0.8,7.9,4.7c0.1,2.3-5.8,7.1-8.1,6.2c-3.6-1.4-3.1-5.5-3.7-8.5
		C742.3,212.7,745,213.7,746.8,213.3z"/>
	<path class="st0" d="M745.4,200.2c1.3,0.3,3.6-0.1,2.9,1.7c-1.1,2.7-3.5,5.3-6.1,6c-2,0.5-2.3-2.9-2.2-4.5
		C740.1,199.8,743.4,200.9,745.4,200.2z"/>
	<path class="st0" d="M652.3,218.6c4.6,0,8.9,2.9,8.4,6.1c-0.6,3.8-3.8,6.3-7,5.8c-5.1-0.7-3.6-6.2-4.8-9.5
		C647.9,217.8,651,219,652.3,218.6z"/>
	<path class="st0" d="M657.1,234.8c1.8,1.2,5.7,0,5.4,3.6c-0.3,2.9-3.3,4.3-5.9,4.2c-3.4-0.1-3-3.6-3.2-5.7
		C653,234.7,655.4,235,657.1,234.8z"/>
	<path class="st0" d="M806.6,193.8c-0.3,4.2-3.8,5.6-6.9,5.5c-4.5-0.1-3.8-4.9-4.3-7.6c-0.6-3,2.9-2.9,5.1-3
		C803.7,188.7,806.3,189.9,806.6,193.8z"/>
	<path class="st0" d="M680,218c2,1,2.7,3,3.7,4.6c0.7,1.1,2.6,2.4,1.2,3.7c-1,0.9-3.1,1.2-4.6,1.1c-2.2-0.2-1.4-2.2-1.5-3.6
		C678.7,221.8,679,219.8,680,218z"/>
</g>
</svg>
