<?xml version="1.0" encoding="utf-8"?>
<svg version="1.1" xmlns="http://www.w3.org/2000/svg" xmlns:xlink="http://www.w3.org/1999/xlink" viewBox="0 0 1026.2 416">
<style type="text/css">
	.st0{fill:#005D9B;}
	.st1{fill:#E1642C;}
</style>
<path class="st0" d="M93.1,368.5c-0.5-0.7-1.5-1.6-2.1-2c-1.2-0.7-1.5-1.2-0.8-1.2c0.2,0,1.4-0.5,2.7-1.2c2.9-1.4,5.3-3.8,6.1-6
	c0.7-2,0.9-4.9,0.5-7c-0.9-5-4.3-8.4-9.6-9.6c-1.7-0.4-4.3-0.5-11.7-0.6l-9.5-0.1v24.8v24.8h3.3h3.3l0.1-11l0.1-11l3.3-0.1
	c4.7-0.1,6.6,0.6,8.2,3c0.4,0.6,2.4,5,4.5,9.7c2,4.7,3.8,8.8,3.9,9c0.2,0.3,1.2,0.3,4.2,0.3l4-0.1L98.7,380
	C96.1,374.4,93.6,369.2,93.1,368.5z M80.6,362.1l-5.3,0.1v-7.6c0-5.8,0.1-7.6,0.4-7.7c0.2-0.1,2.6-0.1,5.3-0.1
	c4.1,0.1,5.2,0.2,6.5,0.7c3.5,1.3,4.9,3.2,4.9,6.8c0,3.4-1.3,5.3-4.7,6.9C85.9,361.9,85.6,362,80.6,362.1z"/>
<path class="st0" d="M55.4,341l-3.5,9.5c-1.9,5.2-5.5,15-7.9,21.7l-4.5,12.2l-0.6-2.2c-1-3.6-4.1-12.5-9.4-27.2l-5-14l-3.8-0.1
	c-2.1,0-3.8,0-3.8,0.1c0,0.1,4.2,11.2,9.3,24.7l9.2,24.4h4.3h4.3l9.3-24c5.1-13.2,9.4-24.3,9.6-24.7l0.3-0.7l-3.8,0.1L55.4,341z"/>
<polygon class="st0" points="1011.1,307.7 1011.1,306 1011.1,304.2 513.1,304.2 15,304.2 15,306 15,307.7 513.1,307.7 	"/>
<path class="st1" d="M160.8,261.7c0-0.4-9.1-40.9-9.5-42.3c-0.1-0.5-3.6-0.5-68.2-0.5H15v21.5V262h72.9
	C140.4,262,160.8,261.9,160.8,261.7z"/>
<path class="st1" d="M240.4,219.4c-0.1,0.3-1.1,5.7-2.3,12s-3,15.7-4,20.7c-1,5.1-1.7,9.4-1.7,9.5c0,0.2,26,0.3,73.3,0.3h73.3
	v-21.5v-21.5h-69.2C244.1,218.9,240.6,219,240.4,219.4z"/>
<path class="st0" d="M185.3,353.8c-3.3-0.6-7-0.4-10.3,0.4c-1.3,0.3-4.7,1.9-4.9,2.3c-0.1,0.1-0.1,1.4-0.1,2.8l0.1,2.6l1.8-1
	c4.2-2.2,8.8-2.9,12.1-1.7c3.1,1.1,5.1,4,5.3,7.6l0.1,1.5l-5.3,0.1c-6.3,0.1-9.2,0.5-12.1,1.9c-2.6,1.2-4.4,2.8-5.5,4.9
	c-0.8,1.4-0.8,1.8-0.8,4.6c0,2.7,0.1,3.2,0.8,4.8c2.1,4.5,7.2,6.8,13.4,6c3.3-0.4,5.8-1.7,8.3-4c1-1,1.9-1.9,2-1.9
	c0.1,0,0.1,1.3,0.1,2.8v2.8h2.8h2.8v-12.9c0-12,0-13.1-0.6-15.2C193.9,357.4,190.8,354.8,185.3,353.8z M189.4,375.7
	c0,2.2-0.1,2.9-0.8,4.3c-0.9,2-3.2,4.4-5.1,5.2c-1.9,0.8-4.9,1-6.8,0.4c-3.4-1.1-5-3.8-4.2-6.9c0.6-2.5,3.1-4.4,6.8-5.3
	c1.1-0.3,3.1-0.4,5.9-0.3l4.2,0.1L189.4,375.7z"/>
<path class="st0" d="M319.8,365.4c-1.3-0.2-2.1-0.7-1.1-0.7c0.8,0,4.5-1.9,5.7-2.9c3.1-2.7,4.5-7.6,3.3-11.8
	c-1.3-4.7-4.8-7.7-10.2-8.7c-1.6-0.3-5-0.4-10.8-0.4l-8.5-0.1l-0.1,0.7c-0.1,0.4-0.1,11.5,0,24.7l0.1,24.1h8.8
	c6.3,0,9.5-0.1,11.1-0.4c4-0.7,7.7-3,9.6-6c3-4.7,2.4-11.4-1.3-15C324.9,367.4,321.7,365.7,319.8,365.4z M309.6,346.5l5.1,0.1l2,1
	c2.4,1.2,3.7,2.8,4.2,4.9c0.8,3.9-2.2,8.3-6.4,9.1c-0.8,0.1-3.3,0.3-5.6,0.4l-4.1,0.1l-0.1-7.8l-0.1-7.8L309.6,346.5z M317.9,383.4
	c-2.3,1.1-4.9,1.5-9.4,1.4l-3.8-0.1l-0.1-8.5l-0.1-8.5h3.7c9,0,13.6,2.8,14,8.4C322.5,379.3,320.9,381.9,317.9,383.4z"/>
<path class="st0" d="M355.3,354.1c-5-1.3-11.8-0.5-15.8,1.8l-1.3,0.7v2.7v2.7l2.4-1.1c2.6-1.3,6.3-2.3,8-2.3c1.6,0,4.2,0.8,5.5,1.6
	c2.2,1.4,3.4,3.7,3.6,6.6l0.1,1.5l-6.4,0.2c-7,0.2-8.4,0.4-11.5,2c-2.3,1.2-4.2,2.9-5.2,4.8c-0.7,1.3-0.8,1.8-0.8,4.5
	c0,2.8,0.1,3.2,0.9,4.9c0.5,1,1.4,2.3,1.9,2.9c2.4,2.4,7.1,3.6,11.5,3c3.3-0.4,5.7-1.6,8.2-4c1.1-1,2-1.9,2-1.9
	c0.1,0,0.1,1.3,0.1,2.8v2.8h2.8h2.8v-12.7c0-13.5-0.1-15.2-1.5-18C361.5,357.1,358.7,355,355.3,354.1z M356.3,381.4
	c-2.6,3.9-7.2,5.6-11.3,4c-2.5-1-4-2.9-4-5.2c0-3.3,2.4-5.8,7-6.9c1.1-0.3,3.1-0.4,5.9-0.3l4.2,0.1l0.1,1.3
	C358.2,376.8,357.6,379.4,356.3,381.4z"/>
<path class="st0" d="M260.8,374.6l-4.3-4.6l0.9-0.9c0.5-0.5,4.3-4,8.4-7.8l7.5-6.9l-4.4-0.1l-4.4-0.1l-7.3,7.4l-7.4,7.4v-15.8
	v-15.8h-3.3h-3.3v26.5v26.5h3.3h3.3v-9.3v-9.2l1,1c0.5,0.6,4.2,4.7,8.1,9.3l7.2,8.2h4.7h4.7l-1.4-1.5
	C272.6,387.2,267.6,381.8,260.8,374.6z"/>
<path class="st0" d="M147.2,200.6l-0.1-0.7c-0.2-0.7-5.7-25.2-10.7-47.3c-1.6-7.1-3.7-16.4-4.6-20.5c-0.9-4.2-2.1-9.2-2.5-11.3
	l-0.8-3.7h-20.8H86.7l-0.3-1.7c-0.3-1.2-8.1-34.2-10.1-42.5l-0.1-0.6h45.4c25,0,45.4,0.1,45.4,0.1c0,0.2,1.5,6.6,19.7,86.2
	c1.3,5.9,3.5,15.4,4.8,21.1c5.1,22.4,4.7,20.8,5.4,20.9c0.7,0.1,0.1,2.7,6.1-23.9c14-62.6,15.1-67,18.1-76
	c2.7-8.2,5.4-13.2,9.5-17.3c6.8-6.8,16.7-9.7,36.5-10.7c6-0.3,52.2-0.4,52.2-0.1c0,0.9-10.1,43.7-14.3,60.5
	c-2.9,11.7-3.4,13.3-4.8,15.2c-1.9,2.5-6.5,4.8-11,5.6c-3,0.5-9,0.2-11.8-0.6c-5.6-1.6-8.8-4.8-8.8-8.9c0-1,0.6-5.7,1.4-10.5
	c1.6-9.8,1.7-12.5,0.8-14.2c-2.2-4.4-8.1-3.9-10.7,0.9c-1,1.8-1.2,2.9-13.6,67.5c-1.3,6.8-2.4,12.3-2.4,12.5
	c0,0.1,30.4,0.2,67.5,0.2h67.5v-91.7V17.3H197H15v91.7v91.7h66.1H147.2z"/>
<path class="st0" d="M151.9,365.6c-0.8-0.2-1.6-0.4-1.9-0.5c-0.2-0.1,0.5-0.5,1.5-0.8c5.4-1.9,8.4-6.3,8-12
	c-0.1-2.1-0.3-2.8-1.2-4.6c-1.6-3.2-4.1-5.1-8.1-6.1c-1.4-0.4-3.9-0.5-11.2-0.6l-9.4-0.1v24.8v24.8l9.8-0.1c10.8-0.1,11.6-0.3,15-2
	c6-3.2,8.4-10.6,5.4-16.6C158.4,368.7,155.4,366.4,151.9,365.6z M141.1,346.5c5.6,0.1,7,0.5,9,2.2c4.7,4,2.2,11.4-4.2,12.8
	c-0.8,0.2-3.3,0.4-5.5,0.4l-4.1,0.1l-0.1-7.8l-0.1-7.8L141.1,346.5z M149.2,383.5c-2.4,1.1-4.3,1.4-8.9,1.3l-4-0.1l-0.1-8.5
	l-0.1-8.5h3.6c6.3,0,9.6,1,12.1,3.7c1.5,1.6,2,2.9,2,5.1C153.8,379.7,152.2,382.1,149.2,383.5z"/>
<path class="st0" d="M233.1,359.6c-0.9-1.9-3.2-4-5.3-5c-1.4-0.6-2.1-0.8-5-0.8c-5.2-0.1-8,0.8-11.1,3.7c-0.9,0.8-1.7,1.5-1.8,1.5
	s-0.2-1-0.2-2.3v-2.3h-3.1h-3.1v18v18h3.3h3.3v-9.8c0-5.4,0.1-10.7,0.3-11.7c0.6-3.9,2.9-7.3,6-8.7c1.8-0.8,4.6-1.1,6.4-0.6
	c1.9,0.5,3.8,2.5,4.8,4.8c0.7,1.7,0.7,1.8,0.8,13.9l0.1,12.2h3.2h3.2l-0.1-13C234.8,363.3,234.8,363,233.1,359.6z"/>
<path class="st0" d="M516.5,205.7c0.1,0.1,1.2-0.6,2.4-1.4c10.1-6.8,25.5-8.3,32.3-3.3c3.4,2.5,4.8,5.7,5.4,12.3l0.1,1.5l-6.9-0.1
	c-23.1-0.6-35.9,4.1-41.1,14.9c-1.9,4.1-2.6,8.7-2,13.5c1.8,14.1,13.3,21.4,30.8,19.5c8.1-0.9,15.2-4.8,19-10.4l1-1.6l0.1,5.4
	c0.1,4.7,0.1,5.4,0.6,5.5c0.3,0.1,4.2,0.1,8.8,0l8.3-0.1l-0.2-2.1c-0.1-1.2-0.3-13.1-0.4-26.5c-0.2-19.7-0.3-25-0.7-27.1
	c-1-6.1-2.6-9.3-6.6-13.3c-4.7-4.8-10.2-7.2-18-8.1c-5.7-0.6-15.3-0.2-21.2,1c-4,0.8-11.5,3.1-12.1,3.8
	C515.7,189.3,516.3,205.5,516.5,205.7z M557.1,229.9c-0.3,3.8-0.9,6.6-2.4,9.7c-3,6.3-9.1,10.1-16.1,10.1c-3.8,0-6.1-0.8-8.3-2.8
	c-2.7-2.5-3.9-5.8-3.3-9.3c0.2-1,0.6-2.3,0.9-2.9c2.2-4.3,7.7-6.9,15.8-7.6c2.6-0.2,9.3-0.2,11.4,0l2.2,0.2L557.1,229.9z"/>
<path class="st0" d="M804.2,216.5c-0.6,3.5-0.5,13,0.1,16.4c2.3,12.5,8.7,21.3,18.9,26.3c6.5,3.2,12.9,4.3,22.4,4
	c8.1-0.3,13.6-1.4,20.8-4.2l3.4-1.3l-0.1-8.3c-0.1-4.6-0.2-8.4-0.2-8.4c-0.1-0.1-1.2,0.6-2.6,1.4c-3.2,1.9-7.4,3.7-11.6,4.8
	c-3.2,0.8-3.6,0.9-9.2,0.9c-5.6,0-5.9,0-8.4-0.8c-4-1.3-6.3-2.6-9.1-5.3c-3.1-3-4.9-6.4-5.8-10.6l-0.2-0.9h25.9h25.9l0.2-1.5
	c0.3-2.3,0.2-7.2-0.1-11.1c-0.8-8.9-3.2-16.2-7.4-21.8c-4.7-6.3-11.7-10.3-19.9-11.4c-10.5-1.5-19.9,0.4-27.2,5.3
	C811.4,195.5,806.1,204.3,804.2,216.5z M823,215c0.6-4.7,2.6-9.5,5.3-12.1c2.6-2.6,4.5-3.6,8-4.6c4.2-1.1,9.4-0.3,12.9,2.1
	c2.4,1.6,4.7,4.6,5.9,7.4c0.7,1.7,1.5,5.2,1.6,7.3l0.1,1.5l-17,0.1l-17,0.1L823,215z"/>
<path class="st0" d="M767.5,184.3c-10.6-1-20.4,3.1-25.7,10.8l-1.5,2.2l-0.1-23.4l-0.1-23.3h-9.6H721V206v55.4h9c5,0,9.1,0,9.3,0.1
	c0.1,0.1,0.2-2.5,0.3-5.7l0.1-5.8l1.7,2.6c4.2,6.4,10.7,9.7,20,10.2c5.9,0.3,11.3-0.8,16-3.1c9.2-4.5,15.6-14.9,17.5-28.5
	c0.5-3.8,0.6-12.1,0.1-15.8C792.7,197.1,782.8,185.8,767.5,184.3z M774.4,229.7c-2.2,11-8.2,17.4-16.7,17.5
	c-6.1,0.1-11.2-3.4-14.3-9.7c-2-4.1-2.6-6.7-2.8-11.8c-0.3-6.7,0.7-11.6,3-16.1c2.4-4.6,7.2-8.2,12.2-9.3c4.7-0.9,9.4,0.6,12.9,4.1
	c4.1,4,6.2,10.5,6.2,18.8C774.9,225.8,774.7,228.1,774.4,229.7z"/>
<path class="st0" d="M760.4,114.9c2.6,2.6,5,4.1,8.7,5.4c7.9,2.8,19.8,2.5,27.6-0.8c4.4-1.9,9.4-5.8,10.9-8.7
	c0.5-0.9,0.5-0.8,0.6,4.5l0.1,5.5h9.3h9.3l-0.2-3c-0.1-1.6-0.2-9.7-0.3-18c-0.3-29.1-0.3-32-0.8-34.8c-1.1-5.9-3.1-9.8-7-13.6
	c-3.9-3.7-8.4-5.8-15-7.3c-2.2-0.5-4-0.6-10.3-0.7c-11.3-0.1-17.2,0.7-26.2,3.7l-2.9,1v3.5c0,5.1,0.2,11.8,0.4,12.7l0.2,0.8
	l1.3-0.9c3.6-2.4,9.1-4.7,14.6-6c4.2-1,11.1-1.3,14.6-0.6c3.6,0.7,6.3,2.1,8.4,4.4c2.4,2.5,3.2,4.8,3.7,9.9l0.2,2l-9.5-0.1
	c-10.1-0.1-13.8,0.2-19.9,1.4c-10.9,2.1-17.9,6.5-21.5,13.6c-1.5,3-2.1,5.8-2.2,9.9c-0.1,4.5,0.5,6.9,2.4,10.8
	C757.8,112.1,758.5,113,760.4,114.9z M778.5,91.6c2.6-2.6,6.3-4.1,12.3-4.9c2.7-0.4,16.6-0.5,17-0.1c0.3,0.3-0.4,6.3-1,8.4
	c-2,7.4-7.8,12.5-15.8,13.9c-3.2,0.6-5.8,0.3-8.8-0.8c-2.4-0.9-5.1-3.6-5.9-5.9C774.9,98.3,775.7,94.5,778.5,91.6z"/>
<path class="st0" d="M845.7,84.7l0.2,36.2h10.4h10.4l0.1-20.9c0.1-22.6,0.2-23.5,1.8-28.2c1.3-3.9,3.8-7.1,7.3-9.4
	c7.7-5,18.1-3.1,21.9,4c1.2,2.2,2,5.3,2.3,8.3c0.1,1.3,0.2,2.7,0.3,3.1c0,0.4,0.1,10.2,0.1,21.9l0,21.2h10.3h10.3V98.1
	c0-12.7-0.1-24.8-0.3-27.4c-0.7-10.1-2.5-14.9-7.4-19.8c-3.5-3.5-8-5.7-13.5-6.6c-3.3-0.6-10.9-0.6-13.9,0
	c-3.3,0.6-6.1,1.5-9.1,3.1c-4,2-6.1,3.5-9,6.5l-2.6,2.6v-5.7v-5.7h-10.1h-10.1l0.2,1.8C845.5,47.7,845.6,64.8,845.7,84.7z"/>
<path class="st0" d="M905.3,201.2l-0.7,2.2v-9l0-8.9h-9.3h-9.3l0.2,2.2c0.1,1.3,0.3,18.3,0.3,38l0.1,35.7h9.7h9.7l0.1-20
	c0.1-21.7,0.2-21.9,1.9-26.7c1.2-3.3,2.5-5.4,4.8-7.5c3.2-3,7.9-4.8,12.5-4.8c1.7,0,2.4,0.1,5.1,0.7l0.9,0.2v-9.2V185l-1.4-0.2
	c-7.6-1-13.4,0.8-18.5,5.8C908.6,193.5,906.6,196.9,905.3,201.2z"/>
<path class="st0" d="M609.1,196.9l-0.1-5.7l-0.1-5.7h-9.4h-9.3l0.2,5.6c0.1,3.1,0.2,20.2,0.2,38v32.4h9.9h9.9v-20.4
	c0-12.5,0.1-21.5,0.3-23.2c0.7-6.3,2.2-9.9,5.4-13.1c3.9-3.9,8.8-5.3,13.2-4c2.8,0.9,4.9,2.6,6.3,5.4c2.1,3.9,2.2,5.4,2.2,32.1
	v23.1h9.7h9.7v-17.3c0-22.5,0.3-26.6,1.8-31.7c2.3-7.7,7.8-12.2,14.4-11.7c5.2,0.4,8.7,3.3,10.2,8.4c0.9,3,1,8.2,1,30.3v22.1h9.7
	h9.7v-24.7c0-14.6-0.1-26-0.3-28.1c-0.9-10.6-5.5-18.4-12.9-22c-3.2-1.6-5.2-2.1-9.5-2.2c-8.7-0.4-15.4,2-21.3,7.5
	c-1,0.9-2.4,2.5-3.1,3.5c-2.4,3.4-2.2,3.2-2.9,1.7c-2.7-6.3-8.9-11.3-15.6-12.4c-10.7-1.8-21.2,2-27.5,9.9L609.1,196.9z"/>
<path class="st0" d="M423.2,362c-0.7-2.5-1.7-4.3-3.3-5.7c-2.1-1.9-3.6-2.4-7-2.6c-3.3-0.1-5.4,0.3-7.7,1.6
	c-1.4,0.8-3.5,2.9-4.3,4.2c-0.3,0.5-0.6,0.9-0.7,0.9s-0.5-0.6-0.8-1.3c-0.9-1.7-2.9-3.5-4.9-4.5c-2.4-1.1-6.7-1.2-9.4-0.3
	c-2.4,0.8-4.8,2.4-5.8,3.9l-0.7,1.1l-0.3-2.5l-0.2-2.5h-3h-3v18v18h3.3h3.3l0.1-10.6c0.1-9.4,0.2-10.8,0.7-12.8
	c0.8-2.9,1.2-3.6,2.9-5.3c4-3.9,9.8-3.2,11.7,1.5c0.5,1.2,0.5,2.7,0.6,14.2l0.1,12.9h3.3h3.3l0.1-11.1c0.1-10.6,0.1-11.2,0.8-13.1
	c0.8-2.3,2.5-4.6,4.5-5.8c1.9-1.2,5-1.4,6.9-0.4c1.7,0.9,3,2.8,3.4,5c0.2,1.1,0.3,5.7,0.3,13.6v11.9h3.2h3.2l-0.1-13.3
	C423.7,365.7,423.6,363.5,423.2,362z"/>
<path class="st0" d="M452.5,110.8c1.8,4.9,3.4,9.3,3.5,9.5c0.2,0.5,1.1,0.5,13.6,0.5h13.4l18-49.8c9.9-27.4,18.2-50.4,18.5-51.2
	l0.5-1.4l-10.8,0.1l-10.8,0.1l-7.2,21.2c-7.9,23.1-15.2,45-18.6,55.6c-1.2,3.7-2.2,6.8-2.3,6.8s-0.5-1.1-0.8-2.4
	c-1.6-5.6-8.8-26.9-17.9-53.2L442,18.6l-11.7-0.1l-11.7-0.1l0.3,0.8C419.7,21.2,443.9,87.2,452.5,110.8z"/>
<path class="st0" d="M714,120.6c10.7-0.9,18.1-3.9,23.7-9.5c3.5-3.5,6-8.1,7.1-13.1c0.7-3.1,0.6-9-0.2-11.9
	c-1.6-6-4.7-10.4-9.7-13.7c-4.2-2.8-8.6-4.3-13.1-4.7c-2.3-0.2-3.4-0.7-1.6-0.7c1.4,0,5.8-1.3,8.3-2.5c4.2-1.9,7.7-4.9,9.8-8.4
	c2.8-4.6,3.8-10.6,2.7-16.7c-0.9-5.1-2.9-8.7-6.7-12.5c-4.1-4.1-9-6.4-16-7.8c-3.1-0.6-4.3-0.6-26-0.7l-22.8-0.1v51.2v51.2h20.6
	C701.4,120.9,712.2,120.7,714,120.6z M691,46.8V33.8l7.7,0.1c8.6,0.1,10.5,0.4,14.1,2.2c2.6,1.2,5,3.7,6,6.1c1,2.5,1,6.5,0,9.1
	c-0.8,2-2.9,4.6-4.7,5.7c-3.6,2.3-11.2,3.4-19.5,2.9l-3.5-0.2V46.8z M691,90V74.9h6.4c9.7,0,13.6,0.6,17.7,2.5
	c5,2.4,7.9,7.1,7.9,12.8c0,6.4-3.6,11.1-10.1,13.4c-4.2,1.5-11.2,2.1-18.1,1.7l-3.8-0.2V90z"/>
<path class="st0" d="M476.4,207.8c9.4-2.2,14.7-5.7,17.8-11.9c1.7-3.4,2.2-5.8,2.3-10.7c0-5.3-0.5-7.7-2.5-11.9
	c-1.3-2.7-1.8-3.4-4.2-5.8c-1.6-1.6-3.6-3.2-4.7-3.9c-3.8-2.2-8.7-3.7-14.1-4.2c-1.5-0.1-11.5-0.3-22.3-0.3l-19.7,0v51.2v51.2
	l21.9-0.1c19-0.1,22.2-0.2,24.4-0.6c11.2-2.2,18.2-6.9,22.3-15.1c2-4,2.8-7.3,2.9-12.3c0-4.4-0.4-7.1-1.7-10.2
	c-3.3-8.1-10.6-13.5-20.1-14.8C476.2,208.1,475.7,207.9,476.4,207.8z M448.9,187.5c0-7,0.1-12.8,0.2-12.9c0.4-0.4,14,0,16.2,0.5
	c7.2,1.6,11,6.3,10.6,12.9c-0.2,3.5-1,5.4-3.1,7.7c-2.6,2.8-5.5,3.9-11.1,4.5c-3.1,0.3-10,0.4-11.7,0.1l-1.1-0.2L448.9,187.5
	L448.9,187.5z M479.1,227.8c1,4.9-0.8,10.7-4.2,13.6c-1.8,1.5-5.5,3.1-8.5,3.8c-3.1,0.7-11.6,1-15.2,0.7l-2.2-0.2v-14.9
	c0-8.2,0.1-15,0.2-15.1c0.3-0.3,9.3-0.2,13.5,0.1C472.1,216.4,477.5,220.4,479.1,227.8z"/>
<path class="st0" d="M552.8,120.9V99.5V78l5.5,0.2c7.7,0.2,10.2,1,13.2,4.5c2.6,2.9,3.8,5.5,11.7,25l5.3,13l12.1,0.1
	c6.7,0,12.1,0,12.1-0.1s-2.6-6.2-5.8-13.6s-6.9-15.9-8.2-18.9c-5.2-12-7.4-15.4-11.4-17.4c-1-0.5-1.8-0.7-4.8-1.3
	c-0.1,0,1.2-0.3,2.8-0.6c1.6-0.3,3.7-0.7,4.5-1c7.6-2.4,13.2-8.6,15.1-16.3c0.5-2.3,0.6-3.2,0.5-7.4c-0.1-4.4-0.2-5-1-7.6
	c-3.7-11.1-12.8-16.7-29.3-18c-2.1-0.1-12.7-0.3-23.9-0.3H531v51.2v51.2h10.9L552.8,120.9L552.8,120.9z M552.5,48.3
	c0-7.6,0.1-13.9,0.2-13.9c0.3-0.3,10.1-0.2,14.5,0.1c4.3,0.3,6.5,0.8,9.1,2c2.3,1.1,4.8,3.8,5.6,6c2.1,5.6,0.9,11.2-3.3,15.2
	c-2.2,2.1-4.4,3.2-7.7,4c-2.6,0.6-10.6,0.9-15.2,0.6l-3.1-0.2V48.3L552.5,48.3z"/>
<path class="st0" d="M841.7,338.5c0,0.1-0.1,1.8,0,3.6l0.1,3.3h3.5h3.5v-3.6v-3.6h-3.5C843.3,338.3,841.8,338.4,841.7,338.5z"/>
<path class="st0" d="M745.7,353.7c-4.6-0.2-8.4,1.2-11.3,4.1l-1.5,1.5v-11v-11h-3.2h-3.2v26.5v26.5h3.3h3.3v-10.4
	c0-11.3,0.2-12.8,1.7-15.5c2.3-4.2,7.5-6.3,11.4-4.7c1.7,0.7,3.6,2.9,4.2,4.9c0.7,2.2,1.1,9.2,1,18.2l-0.1,7.6h3.3h3.3v-10.7
	c0-15.1-0.3-17.5-2.6-21C753.3,355.5,750.2,354,745.7,353.7z"/>
<path class="st0" d="M792.2,355.9c-5.2-3.6-13.7-2.7-18.2,1.9l-1.4,1.4v-10.9v-10.9h-3.2h-3.2v26.5v26.5h3.2h3.2v-8.8
	c0-13.5,0.4-15.9,3.4-19.1c4.5-4.9,11.4-4.3,13.8,1.1c1,2.4,1.2,4.7,1.2,15.9v10.9h3.2h3.2v-12.5c0-10.5-0.1-12.9-0.5-14.6
	C795.9,359.6,794.7,357.6,792.2,355.9z"/>
<path class="st0" d="M720.3,384.4l-0.1-0.9l-2.6,0.8c-3.6,1.2-7,1.3-9.5,0.1c-2.2-1-3.4-1.9-4.8-3.7c-3.8-4.8-3.7-13.2,0.3-17.5
	c1.9-2.1,4.1-3.3,6.7-3.9c2.5-0.5,4.4-0.4,7,0.5c1,0.3,1.8,0.6,1.8,0.5c0.1-0.1,0.2-1.3,0.3-2.9l0.2-2.8l-2.3-0.5
	c-4.3-1-8.4-0.8-11.9,0.3c-4,1.3-8,4.8-9.8,8.6c-3.4,6.9-2.4,16.2,2.2,21.9c1.7,2,5.1,4.3,7.7,5.1c3.9,1.2,9.8,1.1,13.6-0.3
	l1.6-0.6l-0.2-1.9C720.5,386.1,720.3,384.8,720.3,384.4z"/>
<path class="st0" d="M679.7,358.5c-0.6,0.9-1.1,1.5-1.2,1.2s-0.1-1.5-0.2-3l-0.2-2.5h-3.1H672l0.2,3.7c0.1,2.1,0.2,10.2,0.2,18
	v14.3h3.3h3.3v-9.8c0-5.4,0.1-10.7,0.3-11.7c0.6-3.8,2.7-7,5.6-8.5c1.6-0.8,5.1-1.1,7-0.5l1.4,0.4v-3.1v-3.1l-1.5-0.2
	C686.3,353.2,682.2,354.8,679.7,358.5z"/>
<path class="st0" d="M831.1,357.5c-1.8-1.6-4.4-3-6.7-3.5c-3.8-0.8-9.1-0.1-12.4,1.6c-3.6,1.9-6.9,6.4-8.1,11
	c-0.7,2.7-0.8,7.5-0.1,10.4c1,4.8,4.3,9.4,8.2,11.4c3.6,1.9,9.2,2.8,13.8,2.1c3.2-0.5,6.9-1.7,7.2-2.4c0.1-0.3,0.2-1.7,0.1-3.2
	l-0.1-2.6l-1.9,1c-7.6,3.8-15.5,2.4-19.2-3.5c-0.9-1.4-1.8-4-1.8-5.2v-0.7H823h12.9l0.1-0.7c0.2-1.3-0.3-6.2-0.9-8.5
	C834.2,361.6,832.9,359.2,831.1,357.5z M819.7,369.1c-10.9,0-10,0.2-9.2-2.4c1-3.5,3.5-6.4,6.3-7.5c2.1-0.8,5.7-0.7,7.4,0.2
	c2.6,1.3,4.6,4.7,5,8.1l0.2,1.5H819.7z"/>
<path class="st0" d="M653.2,354.1c-2.7-0.6-8-0.6-10.7,0.1c-4.2,1.1-7.9,3.7-10,6.9c-2.3,3.5-3.1,6.7-3.1,11.8
	c0,8.9,4.9,15.8,12.7,17.6c2.6,0.6,8.7,0.6,11.1,0c5.7-1.5,10-5.6,12-11.6c0.7-2,0.8-2.9,0.8-6.3c0-4.6-0.3-6.1-1.9-9.6
	C661.8,358.6,657.6,355.2,653.2,354.1z M648.4,385.6c-4,0.3-7.1-1.1-9.4-4.2c-3.1-4.2-3.6-11.3-1-16.4c1.4-2.9,4.1-5,7.5-5.9
	c3.3-1,7.3,0.1,9.8,2.5c2.6,2.6,3.8,6,3.8,10.5C659,379.7,654.7,385.2,648.4,385.6z"/>
<path class="st0" d="M1015,120.5c-0.8-1-23.7-29.8-28.1-35.3c-2.8-3.6-5.2-6.6-5.2-6.8c0-0.3,5-5.9,25-28.2l4.8-5.3L999.3,45
	l-12.2,0.1l-10.2,12c-5.6,6.6-11.3,13.5-12.7,15.2l-2.4,3.2l-0.1-32.8L961.6,10h-10.3H941v55.4v55.4h10.3h10.3l0.1-18.8l0.1-18.8
	l3.1,4.8c3.1,4.7,6.8,9.8,18.6,25.1l6,7.8h12.9C1012.6,120.9,1015.2,120.8,1015,120.5z"/>
<polygon class="st0" points="601.4,340.9 601.4,365.6 601.4,390.3 604.7,390.3 608.1,390.3 608.1,379 608.1,367.6 617.2,367.6 
	626.4,367.6 626.4,364.6 626.4,361.5 617.2,361.5 608.1,361.5 608.1,354.2 608.2,346.8 617.8,346.8 627.3,346.7 627.3,343.8 
	627.3,340.9 614.3,340.9 	"/>
<path class="st0" d="M993.7,185.5l-0.1,5.3l-0.1,5.3l-1.6-2c-0.9-1.1-2.4-2.7-3.5-3.6c-2.6-2.1-7.6-4.6-11.2-5.5
	c-3.3-0.8-9.1-1.2-12.2-0.7c-2.7,0.4-6.4,1.7-9,3c-10.7,5.5-17.1,16.6-18.5,31.9c-0.8,8.3,1.2,19.4,4.5,26.1
	c4.2,8.6,11.5,14.6,19.9,16.8c3.7,0.9,11.1,0.9,14.5,0c6.7-1.8,13.1-6.6,16.4-12.4l1.3-2.2l0.1,1.4c0.1,1.6-0.7,11.3-1.1,13.9
	c-1.4,8.3-6.7,13.7-15.5,15.9c-3.5,0.9-11.5,1-15.3,0.1c-3.6-0.8-8.1-2.4-11.8-4.1l-3.3-1.6l-0.2,1.5c-0.5,4.3-1.6,15.4-1.5,15.5
	c0.3,0.4,8.6,3,10.9,3.5c5.9,1.3,9.5,1.6,16.6,1.6c6,0,7.3-0.1,10.1-0.6c15.4-3.1,24.7-11.5,27.5-25c0.4-2,1.2-7.7,1.5-11.1
	c0.1-1,0.2-17.9,0.3-37.5l0.2-35.6h-9.5L993.7,185.5L993.7,185.5z M993,226.5c-0.6,6.8-2.3,11-5.9,14.8c-5.3,5.6-12.9,7.2-19.2,4
	c-1.9-1-5-4.1-6.4-6.4c-4.5-7.5-4.8-22.7-0.7-30.6c2.4-4.6,7.3-8,12.4-8.6c4.5-0.6,9.6,1.2,12.9,4.3
	C991.4,209,993.9,217.3,993,226.5z"/>
<polygon class="st0" points="842,354.3 842,372.3 842,390.3 845.2,390.3 848.4,390.3 848.4,372.3 848.4,354.3 845.2,354.3 	"/>
<path class="st0" d="M966.4,374.1l-0.2-3.3c-0.6-9.6-4-14.8-11.1-16.6c-1.6-0.4-5.9-0.6-7.7-0.2c-6.4,1-11.7,6.3-13.2,12.9
	c-0.6,2.7-0.6,8.1,0,10.6c1.2,4.9,4.4,9.2,8.3,11.1c3.2,1.6,5.7,2.2,10.4,2.2c4.1,0,6.6-0.4,9.5-1.7l1.1-0.4v-3.1v-3.1l-2.4,1.1
	c-6.7,3.2-13.2,2.5-17.4-1.9c-1.7-1.8-2.8-4.1-3.1-6.2l-0.2-1.5h13L966.4,374.1L966.4,374.1z M940.3,369.1l0.2-1.3
	c0.5-3.5,3.6-7.4,6.7-8.6c2-0.8,5.6-0.7,7.4,0.2c2.2,1.1,4.1,3.9,4.7,7c0.6,3,1.7,2.7-9.3,2.7H940.3z"/>
<path class="st0" d="M907.8,362.6c-0.8-3.6-3-6.5-5.8-7.9c-1.5-0.8-1.9-0.8-5.3-0.8c-3.1,0-3.9,0.1-5.2,0.7
	c-2.2,0.9-4.3,2.6-5.5,4.4c-0.6,0.8-1.1,1.5-1.2,1.5c-0.1,0-0.6-0.6-0.9-1.4c-0.9-1.8-2.7-3.4-4.8-4.4c-1.4-0.6-2.1-0.8-4.5-0.8
	c-3.1-0.1-4.7,0.2-6.7,1.3c-1.7,0.8-2.9,1.9-3.9,3.1l-0.8,1l-0.2-1.5c-0.1-0.8-0.2-1.9-0.2-2.5v-0.9h-3.1h-3.1v18v18h3.3h3.3l0-8.5
	c0-12,0.2-14.2,1.6-17.3c1.8-4.2,7-6.5,10.6-4.7c0.7,0.4,1.6,1.1,2.1,1.7c1.6,2,1.7,3.3,1.7,16.6v12.2h3.3h3.3v-10
	c0-10.5,0.1-11.3,0.8-13.9c1.2-4.3,4.5-7.2,8.4-7.3c2.1,0,3.3,0.5,4.7,1.9c2,2.1,2.1,2.3,2.2,16.5l0.1,12.7h3.2h3.2l-0.1-13.2
	C908.2,369,908,363.5,907.8,362.6z"/>
<path class="st0" d="M994.5,363.9v2.9v2.9h5.2h5.2v7.2v7.2l-1.4,0.4c-0.9,0.3-2.9,0.4-5.6,0.4c-3.8,0-4.5-0.1-6.7-0.8
	c-3.6-1.2-5-2-7.3-4.2c-1.7-1.5-2.3-2.4-3.3-4.6c-1.8-3.6-2.5-6.6-2.5-10.4c-0.1-7.4,3.6-13.5,10.1-16.7c6.1-3,14.5-2.9,20.9,0.3
	l1.4,0.7l0.1-1c0.1-0.5,0.2-2,0.2-3.4l0.1-2.5l-1.7-0.5c-1-0.3-2.8-0.7-4.1-1c-2.9-0.6-9.4-0.8-12.3-0.4
	c-9.8,1.3-17.3,6.6-20.3,14.5c-1.5,3.8-1.7,5.7-1.7,10.8c0,4,0.1,5.2,0.6,7.1c2.3,8.4,8.7,14.8,17.2,17.1c2.2,0.6,3.1,0.7,9,0.7
	c6.7,0,7.7-0.1,13.1-1.6l1.2-0.3v-12.5v-12.5h-8.7H994.5z"/>
<polygon class="st0" points="574.9,369.4 574.9,372 574.9,374.6 583.9,374.6 592.9,374.6 592.9,372 592.9,369.4 583.9,369.4 	"/>
<path class="st0" d="M567,354.3h-3h-3v2.6v2.6l-1.7-1.8c-1.9-2.1-4.2-3.3-7-4c-7.2-1.5-14.1,1.9-17.5,8.7c-1.5,3.1-2,5.6-2,10.1
	c0,4.5,0.5,7,2.1,10.2c3,6.1,8.7,9.1,15.5,8.2c3.6-0.5,6-1.6,8.3-3.7l1.9-1.8l-0.1,3.9c-0.1,2.2-0.3,4.4-0.5,5
	c-0.8,2.7-3.5,5.3-6.2,6.1c-0.8,0.2-2.7,0.4-5.3,0.3c-4.5-0.1-7.2-0.6-10.5-2.1L536,398l-0.3,3.1c-0.2,1.7-0.3,3.1-0.3,3.1
	c0.3,0.3,3.9,1.3,6.1,1.8c3.4,0.7,11.3,0.7,14,0c3.1-0.8,5.5-2.2,7.4-4.1c4.2-4.3,4.7-7.8,4.3-33.3L567,354.3z M556.5,382.6
	c-3.6,3.3-8.4,3.6-12.3,0.9c-2.6-1.8-4-4.6-4.5-9c-0.8-7.2,2.2-13.3,7.3-15.1c3.2-1.1,6.8-0.3,9.5,2.2c2.8,2.5,4.1,6.1,4.1,10.6
	C560.6,376.7,559.3,380.1,556.5,382.6z"/>
<path class="st0" d="M517,358.8l-0.8,1.3L516,359c-0.1-0.6-0.2-1.9-0.2-2.9v-1.8h-3.2h-3.2l0.2,0.9c0.1,0.5,0.2,8.6,0.2,18
	l-0.1,17.1h3.3h3.3l0.1-10.6c0.1-11.1,0.3-12.3,1.7-15.1c2.1-4.1,6.5-6.1,11.1-4.8l1.7,0.4v-3.1v-3.1l-1.8-0.2
	C523.5,353.3,519.5,354.9,517,358.8z"/>
<path class="st0" d="M490.8,374.1h13.1l-0.1-2.4c-0.4-5.7-1.2-8.8-2.9-11.7c-1.6-2.8-4.8-5-8.4-5.8c-2-0.5-6.4-0.5-8.3-0.1
	c-7.7,1.7-12.7,8-13.2,16.6c-0.5,8.4,3,15.2,9.3,18.2c3.1,1.5,5.2,1.9,9.6,1.9c4.2,0,6.9-0.5,9.8-1.7l1.1-0.4v-3.1
	c0-1.7-0.1-3.1-0.1-3.1s-0.8,0.4-1.7,0.8c-4,2.2-9.5,2.9-13.3,1.5c-3.6-1.2-6.4-4.1-7.6-7.9C477.3,373.7,475.8,374.1,490.8,374.1z
	 M477.9,368.2c0.4-3.8,3.7-8.1,7.1-9.2c1.7-0.5,4.5-0.5,6.1,0.1c1.7,0.6,3.4,2.2,4.4,4.2c0.8,1.7,1.7,5.2,1.3,5.6
	c-0.1,0.1-4.5,0.2-9.7,0.1l-9.4-0.1L477.9,368.2z"/>
<path class="st0" d="M455,353.9c-2.3-0.5-7.4-0.2-9.4,0.5c-2.3,0.8-4.6,2.4-5.8,4l-1,1.4l-0.1-11.2l-0.1-11.2h-3.3H432v26.5v26.5
	h3.1h3.1v-2.8v-2.8l0.9,1.1c2.6,3.3,6.5,5.1,11.2,5.1c8.2,0,14.2-4.8,16-12.9c0.6-2.8,0.5-9.5-0.3-12.3
	C464.2,359.3,460.2,355.1,455,353.9z M452.2,385c-4.2,1.2-9.3-1-11.6-5.1c-1.7-2.9-2.3-7.5-1.4-11.4c1.1-4.8,4.2-8.1,8.4-9.2
	c0.8-0.2,2.1-0.3,2.9-0.2c2,0.2,4.9,1.6,6.1,3.1C462.7,369.2,460.1,382.7,452.2,385z"/>
</svg>
