<svg id="Ebene_1" data-name="Ebene 1" xmlns="http://www.w3.org/2000/svg" xmlns:xlink="http://www.w3.org/1999/xlink" viewBox="0 0 305.48 71.68"><defs><style>.cls-1{fill:#a6d854;}.cls-2{fill:url(#Unbenannter_Verlauf);}</style><linearGradient id="Unbenannter_Verlauf" x1="44.52" y1="10.26" x2="350" y2="10.26" gradientTransform="matrix(1, 0, 0, -1, -44.52, 46.15)" gradientUnits="userSpaceOnUse"><stop offset="0" stop-color="#00467e"/><stop offset="0.17" stop-color="#004e87"/><stop offset="0.4" stop-color="#00639f"/><stop offset="0.65" stop-color="#0085c5"/><stop offset="0.92" stop-color="#009fe3"/></linearGradient></defs><path class="cls-1" d="M165.58,26.58l3.42-.3-2.2-5.44Zm65.21-1.15a1,1,0,0,1-.89,1.1h-.26a1.22,1.22,0,0,1-1.21-.77L223.61,17l.78,8.94a1,1,0,0,1-.89,1.1h0a1,1,0,0,1-1.12-.87v-.05l-1.12-12.76a1,1,0,0,1,.84-1.14h.39a1,1,0,0,1,1.14.64l4.82,8.74-.77-8.81a1,1,0,0,1,.89-1.1h0a1,1,0,0,1,1.12.87v0Zm-12.49,1a1,1,0,0,1-.91,1.08h0l-6.41.56a1.05,1.05,0,0,1-1.1-.92l-1.1-12.55a1.05,1.05,0,0,1,.92-1.1l6.41-.56a1,1,0,0,1,.18,2h0l-5.4.47.36,4.07,3.67-.32a1,1,0,0,1,1.1.89h0a1,1,0,0,1-.89,1.1h0l-3.67.32L211.8,26l5.4-.47a1,1,0,0,1,1.1.89v0m-13.74,1.31a1,1,0,0,1-2,.18L201.78,19,200,24.45a1.14,1.14,0,0,1-1,.73,1.12,1.12,0,0,1-1.09-.54l-2.82-5.06.78,8.94a1,1,0,0,1-2,.18l-1.12-12.8a1.05,1.05,0,0,1,.92-1.1h.25a1,1,0,0,1,1.08.5L198.69,22l2.47-7.23c.15-.46.43-.63,1-.68h.25a1.05,1.05,0,0,1,1.1.92Zm-16.42,1.41a1,1,0,1,1-2,.18l-.78-8.94-1.88,5.48a1.14,1.14,0,0,1-1,.73,1.12,1.12,0,0,1-1.09-.54L178.57,21l.78,8.94a1,1,0,1,1-2,.18l-1.12-12.8a1.05,1.05,0,0,1,.92-1.1h.25a1,1,0,0,1,1.09.5l3.73,6.69,2.47-7.26c.15-.46.43-.63,1-.68h.25a1.05,1.05,0,0,1,1.1.92ZM172.9,30.52a1,1,0,0,1-.94,1.06h0a1,1,0,0,1-1-.65l-1.11-2.71-4.68.41-.6,2.86a1,1,0,0,1-2.05,0,1.93,1.93,0,0,1,0-.34L165.4,18a1.2,1.2,0,0,1,1.08-.87,1.16,1.16,0,0,1,1.23.7l5.12,12.38a1.67,1.67,0,0,1,.08.32m-21.51-8.4v.42c.18,2,6.58,1.93,7,6.3a3.94,3.94,0,0,1-3.56,4.27h-.49a4,4,0,0,1-4.45-3.5,2,2,0,0,1,0-.25,1,1,0,0,1,2-.18,2,2,0,0,0,2.05,2l.24,0h.21a2,2,0,0,0,2-2V29c-.26-3-6.63-2.4-7-6.23v-.38a3.9,3.9,0,0,1,3.68-4.08h.19c2-.18,3.93.74,4.27,2.88v.13a.93.93,0,0,1-.84,1h-.05a1,1,0,0,1-1.14-.84h0c-.31-1.12-1-1.3-2.08-1.2h-.19c-.91.07-1.93.76-1.84,1.79m-6.14,7.68a4.13,4.13,0,0,1-3.76,4.47h-.21a4.15,4.15,0,0,1-4.47-3.75l-.85-9.7a1,1,0,0,1,2-.18l.85,9.7a2.13,2.13,0,0,0,2.29,1.9h.19a2.11,2.11,0,0,0,1.9-2.27l-.85-9.7a1,1,0,1,1,2-.18Zm-12.65,4.1a1,1,0,0,1-.89,1.1h0l-6.09.53a1.12,1.12,0,0,1-1.22-1v0a1.11,1.11,0,0,1,.08-.54l4.4-11.35-4.24.37a1,1,0,0,1-.17-2l5.71-.5a1,1,0,0,1,1.22.72.76.76,0,0,1,0,.21,1.72,1.72,0,0,1-.13.71l-4.39,11.3,4.62-.4a1,1,0,0,1,1.1.89v0m112.89-2.8-2.35-26.8L109.41,16l2.35,26.8Z" transform="translate(0 -0.06)"/><path class="cls-2" d="M183.23,54.33l-4.3.67V71.15h4.3Zm-79.18,0-4.3.67V71.15h4.3Zm-28.57,0-3.85,1a15,15,0,0,1,.61,4.81v11h4.3V59.53a3.42,3.42,0,0,1,2.63-1.38,2.38,2.38,0,0,1,1.25.32l1.19-3.79a3.31,3.31,0,0,0-1.6-.35,5,5,0,0,0-3.85,2.34,5.24,5.24,0,0,0-.68-2.34M11,49.33a6.45,6.45,0,1,0-9.12,0h0a6.45,6.45,0,0,0,9.12,0M32.66,20.81a3.22,3.22,0,1,0-4.56,0,3.21,3.21,0,0,0,4.56,0h0m5.68,48.56a8.06,8.06,0,1,0-11.4,0,8.06,8.06,0,0,0,11.4,0h0M57.26,39.93a4.84,4.84,0,1,0-6.84,0h0a4.83,4.83,0,0,0,6.83,0h0M69.48,52.47,70,48.85H57.9v22.3h4.49V61.23h5.68V57.57H62.39v-5.1ZM81.85,23.09a6.45,6.45,0,1,0-9.12,0h0a6.45,6.45,0,0,0,9.12,0m5.11,38c0-2.28.93-3.56,2.57-3.56a2.07,2.07,0,0,1,1.89,1A4.16,4.16,0,0,1,91.93,61v.15h-5ZM86.9,64.3h9.49v-1c0-3.43-.67-5.64-2.18-7.18a6.72,6.72,0,0,0-4.73-1.75,6.43,6.43,0,0,0-5.16,2.21c-1.44,1.6-2,3.56-2,6.51,0,5.16,3,8.5,7.76,8.5a9.43,9.43,0,0,0,6.19-2.28L94.6,66.74a6.44,6.44,0,0,1-4.17,1.64c-2.21,0-3.46-1.44-3.46-4Zm17.69-43.53a2.57,2.57,0,0,0-2.52-2.6h0a2.62,2.62,0,0,0-2.63,2.6,2.58,2.58,0,1,0,5.16,0m15.5,35.06a12.44,12.44,0,0,0-5.87-1.54c-3.82,0-6.35,2.15-6.35,5.36a5,5,0,0,0,.93,3,5.76,5.76,0,0,0,3,1.67l1.92.35c1.73.32,2.53.9,2.53,2a2,2,0,0,1-2.13,1.86h-.05a12.06,12.06,0,0,1-5.45-1.86l-1.54,3.14a14.63,14.63,0,0,0,6.64,1.89c4.2,0,7-2.31,7-5.71a4.38,4.38,0,0,0-.9-2.79,5.1,5.1,0,0,0-3.27-1.86l-2-.51c-1.51-.39-2-.83-2-1.67s.83-1.6,2.08-1.6a8.58,8.58,0,0,1,4,1.19Zm4.26-29a4.84,4.84,0,1,0-6.84,0h0a4.83,4.83,0,0,0,6.83,0h0m14-21.28a3.22,3.22,0,1,0-4.56,0,3.21,3.21,0,0,0,4.56,0h0m-9.55,61.81c-.55-.71-.83-2-.83-4.14,0-3.85.87-5.52,2.79-5.52a4.19,4.19,0,0,1,2.6,1.28l2.08-2.83a7.55,7.55,0,0,0-1.6-1.15,7,7,0,0,0-3.17-.74,7.75,7.75,0,0,0-4.07,1.22c-1.92,1.32-3.37,3.82-3.37,7.6,0,5.32,2.63,8.47,7.15,8.47a7.68,7.68,0,0,0,4-1,6.58,6.58,0,0,0,1.51-1.22l-2-2.6-.26.23a4.42,4.42,0,0,1-3,1.35,2.5,2.5,0,0,1-1.93-.93m19,3.77h4.2V59.65a7.64,7.64,0,0,0-.42-3c-.51-1.44-2.18-2.34-4.27-2.34a7.17,7.17,0,0,0-4.65,1.76c0-.19.06-.87.06-1.38V51.37a22.31,22.31,0,0,0-.29-4l-4.39,1a17.44,17.44,0,0,1,.32,3.75v19h4.36V59.36a5.7,5.7,0,0,1,3.4-1.51c1.22,0,1.67.61,1.67,2.24V71.15Zm24.34,0,4.68-16.42h-4.42L171,60.6c-.45,2.09-.8,4.65-.9,5.36,0,0-.48-2.76-1.22-5.8l-1.31-5.42h-4l-1.54,5.51A53.09,53.09,0,0,0,160.86,66s-.51-3.21-.93-5.1l-1.35-6.32-4.26.48,4.45,16.13h4l.83-3.37c.39-1.54,1.09-4.36,1.41-5.77a17.13,17.13,0,0,0,.38-2.12c.1.64.13.86.26,1.64.19,1.09.58,2.66.93,4l1.49,5.62Zm11.74-22.36a2.61,2.61,0,0,0-2.56-2.66h0a2.68,2.68,0,0,0-2.67,2.64,2.65,2.65,0,0,0,5.29.33,1.82,1.82,0,0,0,0-.33m21,22.38H209V59.46c0-2.24-.29-3.21-1.22-4a5.09,5.09,0,0,0-3.24-1,6,6,0,0,0-4.65,2.15,5.48,5.48,0,0,0-.64-.8,4.43,4.43,0,0,0-3.33-1.35,5.63,5.63,0,0,0-4,1.67,4.17,4.17,0,0,0-.58-1.67l-3.85,1c.45.8.61,1.83.61,4.2V71.15h4.2v-12a4.59,4.59,0,0,1,2.82-1.25c1.19,0,1.48.48,1.48,2.53V71.15h4.07V59.33A4.87,4.87,0,0,1,203.48,58c1.12,0,1.35.38,1.35,2.34V71.15Zm25.75,0h4.17V59.46c0-2.24-.29-3.21-1.22-4a5.09,5.09,0,0,0-3.24-1,6,6,0,0,0-4.65,2.15,5.48,5.48,0,0,0-.64-.8,4.46,4.46,0,0,0-3.34-1.35,5.63,5.63,0,0,0-4,1.67,4.17,4.17,0,0,0-.58-1.67l-3.88,1.06c.45.8.61,1.83.61,4.2V71.15H218v-12a4.59,4.59,0,0,1,2.82-1.25c1.19,0,1.48.48,1.48,2.53V71.15h4.07V59.33A4.89,4.89,0,0,1,229.22,58c1.12,0,1.35.38,1.35,2.34V71.15ZM243.3,61.08c0-2.28.93-3.56,2.57-3.56a2.07,2.07,0,0,1,1.89,1,4.16,4.16,0,0,1,.51,2.47v.16h-5v-.06Zm-.07,3.21h9.49v-1c0-3.43-.67-5.64-2.18-7.18a6.75,6.75,0,0,0-4.75-1.73,6.43,6.43,0,0,0-5.16,2.21c-1.44,1.6-2,3.56-2,6.51,0,5.16,3,8.5,7.76,8.5a9.43,9.43,0,0,0,6.19-2.28l-1.67-2.57a6.44,6.44,0,0,1-4.17,1.64c-2.21,0-3.46-1.44-3.46-4Zm21.59,6.86h4.23v-12a6.86,6.86,0,0,0-.32-2.34,4.06,4.06,0,0,0-3.94-2.37,6.88,6.88,0,0,0-3,.7A21,21,0,0,0,260,56.36a4.15,4.15,0,0,0-.61-2l-3.86,1a12,12,0,0,1,.58,3.85V71.15h4.3V59.53a5,5,0,0,1,3-1.48c1.12,0,1.44.55,1.44,2.4v10.7Zm18.88-3.59a31.55,31.55,0,0,0-3.37.16,12.36,12.36,0,0,0,1.22-1.06c1.41-1.32,2.85-2.76,3.82-3.82,2.28-2.5,3.75-5,3.75-7.28a5.85,5.85,0,0,0-5.54-6.13,5.63,5.63,0,0,0-.71,0,11.52,11.52,0,0,0-8.08,3.17l2.31,2.73c1.8-1.47,3.14-2.12,4.52-2.12s2.66.67,2.66,2.89c0,1.48-.64,3.43-3.5,6.58-1.48,1.6-4.1,4.23-5.35,5.45v3h13.76l.93-3.59H283.7Zm21.78,3.59v-3.5h-2.79V49.74h-2.92l-6.64,4.65,1.09,2.31a21.77,21.77,0,0,0,4.26-2v13h-3.75v3.45Z" transform="translate(0 -0.06)"/></svg>