<?xml version="1.0" encoding="utf-8"?>
<svg version="1.1" xmlns="http://www.w3.org/2000/svg" xmlns:xlink="http://www.w3.org/1999/xlink" viewBox="0 0 360.4 203.9" xml:space="preserve">
<style type="text/css">
	.st0{fill:#1A1A18;}
	.st1{fill:#E84D18;}
	.st2{fill:#BA071D;}
</style>
<path class="st0" d="M36.9,189.6c1.3-2,2-5.3,3-7.3c0.9-2.5,1.7-4,2.8-6.8c1.6-3.6,2.6-8.2,0.5-7.9c-1.5,0.2-5,3.8-6,5.2c-1.8,2.3-2.3,1.7-8.6,12l-1.9,3.8c-0.4,0.7-1,0.8-5.2,8.2c-1.5,1.4-3.1,6.9-6.4,6.9c-2.6,0-4.1-2.1-4.6-4.7c0.5-3.3,2.6-6.4,4-9.5c1.5-2.3,2.2-6.3,3.5-8c2.3-4.8,7.7-16.7,3.9-17.3c-1.9,0.4-8,9.4-8.3,9.4C11,177,6,186.2,2.5,186.2c-1.2,0-2.3-1.4-2.5-3.9c0-0.4,2.1-4.8,4.3-7.6l4.9-8.4c3.2-5.6,10-11.5,16.3-11.5c4.4,0,5.7,3.9,5.7,7.7c-0.1,0.2-1.5,7.6-1.4,7.7l2.3-3l6-6.4c2.6-1.7,5.7-5.2,9.3-5.2c4.1,0,7.9,3.5,7.6,8l-0.4,2.7L54,168l0.6-0.8l6-6.4c2.6-1.7,5.7-5.2,9.3-5.2c4.1,0,7.9,3.5,7.6,8l-0.4,2.7c-2.1,6-4.7,12.7-7.6,20.7c-0.6,1.7-0.6,6,1.4,6.2c2.5-0.2,8.4-6.9,9.9-10c0.2-0.4,5-8.4,7.7-8.5c2.5,0,3.9,0.6,3.9,1.8c0,0.5-0.3,1-0.4,1.5l-0.7,2.4c-1.6,4.9-6.6,11.5-10,15.3c-2.6,2.2-8,7.4-12.9,7.4c-4.3,0-7-4.5-7.7-6.3c-0.6-1.4-1.2-2.7-1.2-4.4s1.3-4.9,1.9-6.6l1-3c0.9-2.8,1.7-4.3,2.9-7.3c1.6-3.6,2.6-8.2,0.5-7.9c-1.5,0.2-5,3.8-6,5.2c-1.8,2.3-2.3,1.7-8.6,12l-2.7,4c-0.5,0.7-0.2,0.6-4.5,8c-1.5,1.4-3.1,6.9-6.4,6.9c-2.6,0-4.1-2.1-4.6-4.7C33.4,195.8,35.6,192.7,36.9,189.6z"/>
<path class="st0" d="M111.8,193.1c0-0.5,0-1.7,0-1.8c0-0.6,0.4-2,0.4-2.1c-1.8,0.5-4.6,3.8-4.6,4c-4.9,4.2-8,8.7-16.2,8.7c-6,0-9.1-6.7-8.9-13.8c0.2-7.9,5.9-17,12.1-23.5c5.1-5.3,13.2-9.3,21.4-9.3c2.3,0,5.2,0.8,6.4,2c1.2,0.9,1.8,2.3,1.9,3.1c1.7-3.2,4.3-3.1,5-3.2c2,0.1,2.5,4.9,2.6,5.1c0.2,0.1-7.5,13.4-8,13.9c-2.4,3.4-4.6,7.4-4.6,11.4c0,1.5,0.7,5.1,1.7,5.5c3.8,0.9,9.8-4.8,11.1-6.4c1.5-1.9,6.5-7.7,8.1-9.2c0.6,0,1.4,1.1,2.3,1h0.1c0.2,0.4,0.2,0.9,0.3,1.3c0.4,5.4-4.8,11.1-8.1,14.9c-2.7,2.3-9.7,7.8-15.6,7.8C115.6,202.3,111.8,195.9,111.8,193.1z M100.8,169.8c-5.1,5.8-10,13.1-10,18.6c0,2.5,1.2,4.1,3.3,4.7c4.2-0.6,8.9-6.3,11.9-8.9c2.2-1.9,8.3-9.6,11.9-14.9c0.3-1.1,0.5-2.2,0.5-3.5c0-1.1-1.4-3.2-2.6-3.2C110.9,162.6,104.5,165.5,100.8,169.8z"/>
<path class="st0" d="M135.5,189.5c0-12,7.7-30.7,20.3-35.4c1.5-0.2,3.2-1.5,4.8-1.5c5.1,0,7.6,5,7.6,9.3c0,0.7-0.4,1.7-0.5,2.3c-0.4,4.3-0.5,12.1-6.5,13.2c-0.1,0-0.6-0.1-0.7-0.1c-2.3,0-4.2-3.2-4.2-5.2c0-3.2,2.3-5.8,2.3-8.4c0-0.3-0.4-0.5-0.7-0.5c-0.4,0-0.5,0-0.8,0.3c-7,4.4-11.2,13.7-12.4,20.7c-0.6,3.3-1.4,9.8,4.3,9.8c7.3,0,16.6-5.5,21.7-11.5l3.8-4.5c0.9-1.3,1.2-1.7,2.5-1.8c2.2,0,2,1.4,2,3.3c0,0.6-0.1,1.3-0.3,2c-2.9,7.6-19.4,21.7-31.3,21.7H146C138.4,201.5,135.5,196.5,135.5,189.5z"/>
<path class="st0" d="M169.7,189.6c0.2-0.3,0.5-0.7,0.7-1.2c3.4-9.9,14.6-38.7,21.2-51.7c4.3-9.6,13.1-25.5,21.6-25.5c2.5,0,5.4,3.4,6.5,5c1.5,3.5,1.4,5.4,1.3,9.8c-0.3,7.9-4.9,17.1-8.4,22.7c-2.4,3.9-6.4,7.3-10.4,9.8h0.6c4.1,0,7.9,3.5,7.6,8l-0.4,2.7c-2.1,6-5,10.5-7.9,18.5c-0.6,1.7-1.2,6.2,1.4,6.2c3.6,0,8.8-7.5,10.3-10.6c0.2-0.4,6.1-8,7.7-8.5c2.5,0,3.3,0.6,3.3,1.8c0,0.5-0.3,1-0.4,1.5l-0.7,2.4c-1.6,4.9-6,11.5-9.4,15.3c-2.6,2.2-8,7.4-12.9,7.4c-4.3,0-7.7-5.3-7.7-7.3c0-0.6-0.3-1.5-0.3-1.9s-0.1-1.8-0.1-2.6c-0.1-1.7,0.5-3.8,1.1-5.5l1-3c0.9-2.8,0.8-2.7,2-5.7c1.6-3.6,2.3-8.2,0.2-7.9c-1.5,0.2-4.6,1.3-5.6,2.7c-1.8,2.3-0.9,0.2-7.2,10.5l-1.9,3.8c-0.4,0.7-1.7,3.3-5.9,10.7c-1.5,1.4-3.1,6.9-6.4,6.9c-2.6,0-4.1-2.1-4.6-4.7C166.2,195.8,168.3,192.7,169.7,189.6z M206.5,142.4c3.1-4.6,6.9-12.1,7.2-17.3c0.1-2.5-0.4-3-1.6-3.7h-0.6c-3.8-0.4-12.9,20-12.9,20c-2.3,4.8-3.5,6.9-5.1,11.7c0,0.1-0.5,1.7-1.6,4.5C196.4,155.5,201.4,150.1,206.5,142.4z"/>
<path class="st0" d="M217.3,193.5c-2.5-2.8-0.4-21.1,4.7-32.6c4-9.2,8.4-19.7,11.4-25.5c4.3-9.6,12.8-24.1,21.3-24.1c5.6,0,7.9,8.9,7.9,14.9c-0.3,7.9-5.2,18.5-10.4,25.8c-4.8,6.9-15.6,15-23.3,18.2c-0.6,0.3-1.7,4.6-2.6,8.6c-0.6,2.9-0.8,5.9-0.5,8.4c0.3,1.8,3.7,4.7,6.9,4.8c5.1-0.6,11.8-4.7,11.9-10.7c-1.9-1-4.4-4.2-4.4-7.7c0-4.5,1.2-7.6,3.7-10.4c1.7-1.8,6.8-4,9.7-3.2c1.1,0,4,1.5,4.3,3.8c0.8,2.6,0,7.8-0.1,10.1c0.5,0,2.1,1.9,4.5,1.7c2.2-0.2,8.4-1.1,12.6-6.2c0.8,0,1.7,0.9,1.7,1.7c0,2.5-1.5,6.7-2.8,8.4c-5,5.9-14.9,6.7-19.3,4.2c-3.1,8.8-11.8,17.4-21.9,18.3C226.4,202.5,219.9,198.7,217.3,193.5z M245.9,146.6c3.1-4.6,8.9-16.3,9.2-21.5c0.1-2.5-0.4-3-1.6-3.7h-0.6c-4.9-0.3-12,19.2-12.9,20c-1.9,3.6-5.8,13.4-7.2,17.4C237.4,156.7,240.8,154.3,245.9,146.6z"/>
<path class="st0" d="M294.3,193.1c0-0.5,0-1.7,0-1.8c0-0.6,0.4-2,0.4-2.1c-1.8,0.5-4,3.7-4.6,4c-4.9,4.2-8,8.7-16.2,8.7c-6,0-9.1-6.7-8.9-13.8c0.2-7.9,5.9-17,12.1-23.5c5.1-5.3,13.2-9.3,21.4-9.3c2.3,0,5.2,0.8,6.4,2c0.9,0.8,1.8,2.3,1.9,3.1c1.7-3.2,4.3-3.1,5.1-3.2c2,0.1,2.5,4.9,2.6,5.1c0.2,0.1-5.1,9.4-5.2,9.8c-0.4,1.1-2.2,3.6-2.7,4.1c-2.4,3.4-4.6,7.4-4.6,11.4c0,1.5,0.7,5.1,1.7,5.5c3.8,0.9,9.2-4.3,11.1-6.2c1.8-1.7,7.1-8.3,8.7-9.9c0.6,0,0.7,1.5,1.7,1.4h0.1c0.2,0.4,0.2,0.9,0.3,1.3c0.4,5.4-2.2,9-8.1,14.9c-2.7,2.3-9.7,7.8-15.6,7.8C298,202.3,294.3,195.9,294.3,193.1z M283.3,169.8c-5,5.8-10,13.1-10,18.6c0,2.5,1.2,4.1,3.3,4.7c4.2-0.6,8.9-6.3,11.9-8.9c2.2-1.9,8.3-9.6,11.9-14.9c0.3-1.1,0.5-2.2,0.5-3.5c0-1.1-1.4-3.2-2.6-3.2C293.4,162.6,287,165.5,283.3,169.8z"/>
<path class="st0" d="M360.2,181.6c-0.6-1.4-3.9-1-4.4-0.8c-0.8,0.2-1.4,1.2-2.8,3.3s-3,4.7-5,6.2c-3.5,2.7-7.8,6-8.7,4.9c-0.4-0.5-0.3-1.4,0.3-2.7l1.6-3.3c1.5-3.1,5.6-9.4,6-10c0.5-0.5,1.3-1.6,1.5-1.9l6.8-8.8l0.4-0.8c0.4-0.6,0.8-1.6,0.8-2c-0.1-1.4-1.3-3.5-4.2-3.5l0,0c-2,0.1-3.3,0.5-4.6,2.4l-0.1,0.3c-1.6,1.6-4.3,2.7-6.8,2.8c-0.3,0-1.2-0.6-1.6-0.9l-0.1-0.1l0.9-1.3c1.4-1.9,3.7-5.9,3.5-8.6c0-2.2-3.1-3.3-5.4-3.3l0,0c-2.5,0.1-5.6,1.5-6.9,3.1c-1.6,2-4.4,5.7-4.2,9.8c0.1,0.8,0.4,1.4,0.7,1.8c0.2,0.3,0.3,0.5,0.4,0.7c0,0.7-2.3,4.3-3.3,5.9c-0.6,0.9-1,1.5-1.2,1.9c-1.7,2-3.1,4.1-4.4,6.2c-1.5,2.3-2.9,4.4-4.3,5.8l-0.2,0.2v0.2c0,0.9,0.5,1.7,1.4,2.2c1.2,0.7,3,0.7,3.9,0c2.5-1.7,5.3-5.5,7-7.7l0.4-0.5c1.3-1.9,6-8,7.1-9c0.2,0.1,0.5,0.2,0.8,0.4c1,0.5,2.3,1.1,3.4,1c0.7,0,1.5-0.1,2.2-0.3c0.2,0,0.5-0.1,0.7-0.1c-2.7,3.3-8.5,10.5-10.2,15.9l0,0c-0.2,0.7-0.4,1.3-0.6,1.8c-0.7,2.1-1,3.1-0.5,5.9c0.1,1.2,2.7,4.3,5.1,4.8c0.5,0,0.9,0,1.3,0c4,0,7.9-1.2,11.2-3.6c6.3-4.5,9.8-9.2,12.2-16.2C360.3,183.3,360.5,182,360.2,181.6z"/>
<path class="st1" d="M260,6.1C247.8-4.3,203.7,1,183.8,4.3c9.4,9.6,12.3,28.6,8.5,56.5c-2.3,17.2-6.5,32.6-8,37.9h75.6C260,98.7,282.4,25.2,260,6.1z"/>
<path class="st2" d="M173.5,6.1c-14.8-12.7-68.1-2-77.4-0.2c7.9,10.2,6.2,28.4,2.7,54.4c-2.3,17.4-5.6,33-7,38.1v0.3h81.7C173.5,98.7,195.9,25.2,173.5,6.1z"/>
</svg>
