<?xml version="1.0" encoding="UTF-8" standalone="no"?>
<svg xmlns:dc="http://purl.org/dc/elements/1.1/" xmlns:cc="http://creativecommons.org/ns#" xmlns:rdf="http://www.w3.org/1999/02/22-rdf-syntax-ns#" xmlns:svg="http://www.w3.org/2000/svg" xmlns="http://www.w3.org/2000/svg" id="svg443" version="1.1" viewBox="0 0 41.556087 35.718407" height="35.718407mm" width="41.556087mm">
  <defs id="defs437"/>
  <metadata id="metadata440">
    <rdf:RDF>
      <cc:Work rdf:about="">
        <dc:format>image/svg+xml</dc:format>
        <dc:type rdf:resource="http://purl.org/dc/dcmitype/StillImage"/>
        <dc:title/>
      </cc:Work>
    </rdf:RDF>
  </metadata>
  <g transform="translate(61.599472,-87.128895)" id="layer1">
    <path id="path387" d="m -37.641778,122.78835 c -1.59e-4,-0.0323 0.05634,-0.93735 0.125458,-2.01114 0.4036,-6.27096 0.535923,-8.3032 0.540952,-8.30823 0.0064,-0.006 0.666736,0.18015 0.678114,0.19152 0.0062,0.006 0.374697,2.73602 0.851287,6.30553 0.108722,0.81423 0.297339,2.0464 0.313269,2.0464 0.0044,0 0.05608,-0.28756 0.114773,-0.639 0.06828,-0.40884 0.197012,-1.06831 0.357378,-1.8308 0.970513,-4.61441 1.239951,-5.88032 1.25335,-5.8886 0.01995,-0.0123 0.720534,-0.0837 0.729882,-0.0744 0.004,0.004 0.0021,2.31574 -0.0037,5.13733 l -0.01069,5.13017 h -0.366596 -0.366665 l 0.0093,-0.19209 c 0.0051,-0.10565 0.04764,-1.5011 0.0945,-3.10098 0.04686,-1.59989 0.09641,-3.28887 0.110117,-3.75331 0.01368,-0.46445 0.02257,-0.84676 0.01974,-0.84962 -0.0055,-0.005 -0.04622,0.19059 -1.029616,4.94791 l -0.60778,2.94026 -0.3384,0.004 -0.338405,0.004 -0.008,-0.0356 c -0.0044,-0.0196 -0.264506,-1.82916 -0.578042,-4.02128 -0.313536,-2.19212 -0.571911,-3.98384 -0.574167,-3.98158 -0.0044,0.004 -0.07512,2.31626 -0.177153,5.79539 -0.03554,1.2118 -0.0673,2.21206 -0.07057,2.22285 -0.0045,0.0149 -0.09183,0.0196 -0.367123,0.0196 h -0.361161 l -1.85e-4,-0.0588 z m -10.075981,-0.29108 c -0.207511,-0.18274 -0.661907,-0.57924 -1.009775,-0.88109 -2.975142,-2.58175 -9.862272,-8.57846 -9.884825,-8.60686 -0.0205,-0.0258 -0.220857,-0.95918 -0.717754,-3.34342 -0.379139,-1.81919 -1.045899,-5.01791 -1.481696,-7.10825 -0.435795,-2.09034 -0.790236,-3.802045 -0.787649,-3.803765 0.0026,-0.002 0.0275,-0.0137 0.05533,-0.0267 0.02784,-0.0129 1.808375,-1.60374 3.956734,-3.53509 2.148354,-1.93136 3.915189,-3.51664 3.926294,-3.52286 0.01622,-0.009 6.722878,-1.42548 20.614125,-4.35359 l 0.886,-0.18675 0.03318,0.0373 c 0.01826,0.0205 0.03754,0.0373 0.04288,0.0373 0.0065,0 11.267664,10.33686 12.033755,11.04608 0.0264,0.0244 -0.02066,0.0968 -0.0484,0.0745 -0.01593,-0.0128 -2.389669,-1.06765 -12.052845,-5.35579 -1.254493,-0.55669 -2.282251,-1.01066 -2.283915,-1.00882 -0.0019,0.002 0.812643,2.09034 1.809578,4.6411 l 1.812602,4.637755 h 0.09104 c 0.08158,0 0.09104,0.003 0.09104,0.0324 0,0.0251 0.007,0.0302 0.03072,0.0227 0.131706,-0.0418 10.358535,-2.940465 10.374315,-2.940465 0.0113,0 0.02334,0.009 0.02693,0.0196 0.0051,0.0153 0.02101,0.0157 0.07187,0.002 0.03595,-0.01 0.06534,-0.0133 0.06534,-0.008 0,0.025 -2.245799,11.756005 -2.251712,11.761925 -0.01267,0.0127 -0.531493,0.15559 -0.538711,0.14838 -0.004,-0.004 -0.140403,-2.46082 -0.303289,-5.45978 -0.162888,-2.99895 -0.29787,-5.454385 -0.299963,-5.456505 -0.0058,-0.006 -7.150669,2.022355 -7.161599,2.033045 -0.0054,0.005 0.0065,0.3481 0.02625,0.76209 0.01966,0.41399 0.04767,1.00321 0.06209,1.30939 l 0.02625,0.55669 0.312505,1.2937 c 0.171876,0.71154 0.31633,1.30606 0.320995,1.32115 0.0078,0.0254 -0.0113,0.0275 -0.25355,0.0275 h -0.262033 l 0.0099,0.16857 c 0.0055,0.0927 0.01458,0.28678 0.02029,0.43124 l 0.01035,0.26266 h 0.349544 c 0.192249,0 0.352808,0.005 0.356801,0.0118 0.004,0.006 -0.130485,0.48808 -0.298844,1.07025 l -0.306107,1.05849 0.0415,0.94087 c 0.02286,0.51749 0.04129,0.95676 0.04103,0.97617 l -5.29e-4,0.0353 h -0.369567 c -0.344782,0 -0.368994,-0.002 -0.360998,-0.0275 0.0047,-0.0151 0.131257,-0.45437 0.281221,-0.97616 l 0.27265,-0.94872 -0.04419,-0.94087 c -0.02442,-0.5175 -0.04465,-0.97794 -0.04506,-1.02321 l -5.29e-4,-0.0823 h -0.7112 -0.711203 l -1.613548,2.00199 -1.613549,2.002 -0.0941,0.0427 c -0.227613,0.10326 -0.500181,0.15596 -0.80572,0.15581 -0.307635,-1.6e-4 -0.533999,-0.0594 -0.748001,-0.19584 -0.384363,-0.24493 -0.61621,-0.64387 -0.735259,-1.26495 -0.09613,-0.50152 -0.09198,-0.36804 -0.09813,-3.15333 l -0.0056,-2.55213 h -0.454139 -0.454139 v -0.56452 c 0,-0.33016 0.0059,-0.56453 0.0143,-0.56453 0.0079,0 0.255941,0.0495 0.551249,0.10999 0.295303,0.0605 0.539115,0.10779 0.541796,0.10511 0.0026,-0.003 -0.04064,-0.42088 -0.09627,-0.92933 -0.05564,-0.50845 -0.101252,-0.93328 -0.101369,-0.94406 -1.59e-4,-0.015 -0.07012,-0.0196 -0.296951,-0.0196 -0.274277,0 -0.362439,-0.008 -1.164338,-0.10973 -0.477174,-0.0603 -0.877215,-0.10975 -0.88898,-0.10977 -0.01176,-2e-5 0.02256,0.0293 0.07633,0.0652 0.220632,0.14733 0.483497,0.46391 0.649222,0.78188 l 0.08599,0.16499 -0.212076,0.33289 c -0.11664,0.18308 -0.217435,0.33288 -0.223988,0.33288 -0.0065,0 -0.02065,-0.0194 -0.03134,-0.0431 -0.0107,-0.0237 -0.06459,-0.11113 -0.119792,-0.19424 -0.240028,-0.36145 -0.543037,-0.53166 -0.94781,-0.53242 -0.264583,-5.6e-4 -0.409179,0.0649 -0.609291,0.27557 -0.180099,0.1896 -0.267875,0.41396 -0.300937,0.76921 -0.03444,0.3699 0.05462,0.69338 0.286909,1.04223 0.09823,0.14753 0.132301,0.18943 0.428619,0.52707 0.443474,0.50533 1.164969,1.43452 1.234532,1.5899 0.06123,0.13679 0.03491,0.29413 -0.07815,0.46698 -0.08323,0.12726 -0.629069,0.6689 -0.781345,0.77533 -0.147279,0.10294 -0.39041,0.34046 -0.487719,0.47647 -0.03768,0.0527 -0.09122,0.1443 -0.118995,0.20364 -0.04922,0.10519 -0.05077,0.1151 -0.06187,0.3982 -0.02094,0.53319 -0.08344,0.8822 -0.22679,1.26605 -0.119381,0.31965 -0.277408,0.57179 -0.507529,0.80979 -0.31852,0.3294 -0.656367,0.48043 -1.074741,0.48043 -0.478755,0 -0.874084,-0.20653 -1.182393,-0.6177 -0.141768,-0.18906 -0.319442,-0.4746 -0.445313,-0.71565 -0.11888,-0.22767 -0.250502,-0.55052 -0.252592,-0.6196 -0.0015,-0.0431 0.02621,-0.0723 0.270831,-0.28717 0.149754,-0.13155 0.275768,-0.2357 0.280031,-0.23144 0.0043,0.004 0.02861,0.0699 0.05413,0.14578 0.108175,0.32193 0.34338,0.69742 0.592592,0.94605 0.219105,0.2186 0.3995,0.30233 0.651353,0.30233 0.246318,0 0.453507,-0.0939 0.675541,-0.30617 0.222229,-0.21246 0.257762,-0.29598 0.366014,-0.86044 0.06374,-0.33239 0.127124,-0.52514 0.205114,-0.62381 0.110933,-0.14035 0.305922,-0.28172 0.831101,-0.6026 0.20347,-0.12431 0.331181,-0.21649 0.49396,-0.35653 0.268465,-0.23097 0.307704,-0.29585 0.248985,-0.4117 -0.06182,-0.12197 -0.76292,-1.017 -1.144827,-1.4615 -0.374127,-0.43545 -0.492171,-0.59813 -0.633887,-0.8736 -0.23385,-0.45456 -0.323734,-0.86568 -0.307832,-1.40803 0.02138,-0.72825 0.214563,-1.26016 0.613374,-1.68863 0.189261,-0.20333 0.370054,-0.33402 0.580326,-0.41948 l 0.0821,-0.0334 -2.564961,-0.3239 c -1.410724,-0.17815 -2.566898,-0.32197 -2.569264,-0.3196 -0.0022,0.002 0.03053,0.51882 0.07307,1.14766 l 0.07739,1.14336 0.424481,1.74778 c 0.233467,0.96128 0.424482,1.75338 0.424482,1.76023 0,0.007 -0.138664,0.0125 -0.308134,0.0125 h -0.308133 l 0.0094,0.13721 c 0.0051,0.0755 0.01795,0.26952 0.02839,0.43123 l 0.01902,0.29403 h 0.397334 c 0.289613,0 0.397333,0.005 0.397333,0.0181 0,0.01 -0.144717,0.52008 -0.321602,1.13363 l -0.321595,1.11555 0.06109,0.90885 c 0.03359,0.49988 0.05942,0.91076 0.05734,0.91307 -0.0022,0.002 -0.169312,0.002 -0.371649,0 l -0.367889,-0.004 0.262898,-0.90951 0.262905,-0.90952 -0.06983,-1.05552 c -0.0384,-0.58053 -0.06983,-1.0692 -0.06983,-1.08592 0,-0.0296 -0.0171,-0.0304 -0.670376,-0.0295 l -0.670374,10e-4 -1.607332,1.99771 -1.607334,1.99771 -0.347579,7.1e-4 -0.347577,6.9e-4 0.21389,0.6421 0.213892,0.6421 0.737418,0.005 c 0.640428,0.005 0.749491,0.009 0.829217,0.0324 0.464617,0.13643 0.832707,0.44852 1.221681,1.03579 0.307202,0.46381 0.477977,0.84535 0.604588,1.35075 0.13719,0.5476 0.188731,1.04573 0.144646,1.39789 -0.0247,0.19727 -0.09311,0.4691 -0.15534,0.61721 -0.02669,0.0636 -0.04691,0.11625 -0.04492,0.11712 0.0022,0.001 0.04438,0.028 0.09419,0.0602 0.168335,0.10903 0.432078,0.38721 0.642059,0.67722 0.09167,0.12661 0.151018,0.17194 0.286658,0.21893 0.152446,0.0528 0.294354,0.12276 0.369911,0.18229 0.03097,0.0244 0.102789,0.10994 0.159623,0.19012 0.07327,0.10338 0.1307,0.16508 0.19742,0.21213 0.46768,0.32981 0.79607,0.68053 0.902858,0.96424 0.04927,0.13089 0.141658,0.5843 0.175016,0.8589 0.03517,0.28954 0.02341,0.83514 -0.02252,1.04717 -0.109606,0.50546 -0.310252,0.7867 -0.649841,0.91084 l -0.113156,0.0414 -1.08201,0.003 -1.082008,0.003 -0.377297,-0.33224 z m -0.299105,-1.67935 -0.605206,-1.81554 -0.241271,-0.42168 c -0.132694,-0.23191 -0.241266,-0.42885 -0.241266,-0.43765 0,-0.009 0.04117,-0.016 0.09576,-0.016 0.07,0 0.09383,-0.005 0.08856,-0.0196 -0.004,-0.0108 -0.06868,-0.20443 -0.143818,-0.43035 l -0.13661,-0.41074 -0.0578,-0.005 -0.0578,-0.005 -0.173698,-0.68997 -0.173703,-0.68998 -0.702493,-2.10914 c -0.386367,-1.16003 -0.707768,-2.11494 -0.714228,-2.12205 -0.01012,-0.0112 -7.27235,1.32019 -7.365674,1.35033 -0.02987,0.01 0.608786,0.57113 4.618136,4.06032 5.214812,4.53824 5.838755,5.08156 6.17388,5.37607 0.12937,0.1137 0.236842,0.20546 0.238825,0.20392 0.0022,-10e-4 -0.268736,-0.81979 -0.601602,-1.81834 z m 2.475796,0.93163 c 0.176454,-0.0545 0.336611,-0.23393 0.40499,-0.45373 0.136098,-0.43742 -0.05416,-1.42648 -0.408956,-2.12593 l -0.08749,-0.1725 -0.290947,-0.20386 c -0.160021,-0.11211 -0.322023,-0.22922 -0.360003,-0.26023 -0.03799,-0.031 -0.08317,-0.0636 -0.100427,-0.0725 -0.04463,-0.023 -0.343365,-0.0916 -0.564524,-0.12958 -0.481536,-0.0828 -0.667633,-0.0984 -1.258423,-0.10598 -0.312648,-0.004 -0.568452,-0.001 -0.568452,0.006 0,0.007 0.05385,0.17567 0.119666,0.37404 l 0.119666,0.36068 0.799399,1.40739 0.799399,1.40741 h 0.647416 c 0.602561,0 0.654427,-0.002 0.748689,-0.0313 z m -2.602813,-4.63266 c 0.181951,-0.0922 0.309421,-0.27692 0.384068,-0.55672 0.05593,-0.20964 0.05918,-0.58268 0.0073,-0.84133 -0.113655,-0.56707 -0.380926,-1.09142 -0.739511,-1.45079 -0.141377,-0.14167 -0.18626,-0.17622 -0.305613,-0.23522 l -0.139899,-0.0691 -0.552475,-0.005 -0.552477,-0.005 0.02198,0.0911 c 0.01209,0.0501 0.117475,0.47566 0.234225,0.94572 0.192292,0.77416 0.233042,0.91707 0.43288,1.51803 l 0.220603,0.6634 0.449243,-0.005 0.449239,-0.005 z m -6.692236,-4.88727 c 2.018179,-0.37242 3.674206,-0.68149 3.680057,-0.68683 0.0058,-0.005 -1.472498,-1.82019 -3.285226,-4.03301 -1.812728,-2.21282 -4.121489,-5.03168 -5.130581,-6.26412 -1.00909,-1.23245 -1.850013,-2.258705 -1.868719,-2.280575 l -0.034,-0.0398 0.02909,0.14113 c 0.02684,0.13023 0.485463,2.328825 2.20478,10.569205 0.358101,1.71631 0.658671,3.15778 0.667936,3.20325 0.01312,0.0643 0.02242,0.081 0.04206,0.0753 0.01386,-0.004 1.676446,-0.31213 3.694628,-0.68455 z m 3.830523,-0.86787 0.05007,-0.11647 -2.465621,-3.879 -2.465629,-3.879 -0.525323,-0.43312 c -0.77756,-0.64108 -4.739944,-3.902635 -4.766049,-3.923075 -0.02047,-0.016 0.895118,1.104845 2.739649,3.353905 0.381966,0.46573 2.195546,2.67947 4.03018,4.91941 1.834632,2.23994 3.339514,4.07289 3.344165,4.07321 0.0047,3.4e-4 0.03101,-0.0518 0.05855,-0.11586 z m 2.338472,-5.39405 c 1.225753,-2.8281 2.22681,-5.14362 2.224568,-5.14559 -0.007,-0.006 -9.30766,2.65014 -9.318979,2.66147 -0.0058,0.006 1.081881,1.72923 2.417198,3.82971 1.335324,2.10047 2.432519,3.81395 2.43821,3.80773 0.0057,-0.006 1.013245,-2.32522 2.239003,-5.15332 z m 13.297954,4.60019 c 0.04669,-0.008 0.08713,-0.017 0.08987,-0.0198 0.0024,-0.003 0.916288,-1.94157 2.030084,-4.3085 1.1138,-2.36692 2.087737,-4.43645 2.164307,-4.59894 0.07658,-0.1625 0.139224,-0.2989 0.139224,-0.30311 0,-0.004 -0.01939,-0.004 -0.04313,10e-4 -0.02373,0.005 -0.752308,0.10743 -1.619091,0.22774 l -1.575967,0.21874 -0.925198,0.0167 c -0.508854,0.009 -1.024962,0.0166 -1.146897,0.0166 l -0.221707,-1.2e-4 -0.0092,0.36459 c -0.0051,0.20052 -0.01324,0.5851 -0.01813,0.85463 l -0.009,0.49004 h 0.761243 0.761243 v 0.56327 0.56328 l -0.09801,0.009 c -0.0539,0.005 -0.479062,0.0201 -0.944794,0.0342 -0.465733,0.014 -0.847635,0.0266 -0.848663,0.0279 -0.0011,0.001 0.0817,0.97972 0.183823,2.17424 0.102126,1.19452 0.193128,2.3024 0.202225,2.46196 0.02385,0.4186 0.07417,0.65422 0.185548,0.86891 0.107536,0.20728 0.277928,0.33116 0.483455,0.35147 0.129538,0.0128 0.342795,0.006 0.458696,-0.0137 z m 12.719479,-3.10409 0.0195,-0.4626 1.000318,-4.21804 c 0.550172,-2.31993 0.998252,-4.220135 0.99572,-4.222665 -0.0043,-0.004 -2.223545,0.62192 -2.231096,0.62947 -0.0019,0.002 -0.02106,1.781345 -0.0427,3.954455 l -0.03937,3.95113 0.05477,0.29781 c 0.04163,0.22635 0.179816,1.01555 0.197668,1.12893 0.0016,0.009 0.0077,-0.12192 0.01407,-0.29011 0.0064,-0.16818 0.02037,-0.51395 0.03112,-0.76838 z m -23.161848,-0.93125 c 0,-0.0595 -0.203551,-3.08809 -0.207835,-3.09232 -0.0044,-0.004 -0.797284,3.09996 -0.796366,3.11797 3.44e-4,0.006 0.22641,0.0118 0.502399,0.0118 h 0.501802 z m 15.325231,-0.0763 c -0.0034,-0.0625 -0.03056,-0.6394 -0.06016,-1.28194 l -0.05382,-1.16826 -0.0841,-0.33715 c -0.04625,-0.18543 -0.08868,-0.32656 -0.09426,-0.31362 -0.0056,0.0129 -0.190318,0.72918 -0.410512,1.59165 -0.220197,0.86247 -0.404154,1.58048 -0.408794,1.59557 -0.0079,0.0258 0.02561,0.0275 0.554786,0.0275 h 0.563229 z m -20.774481,-4.36169 c 2.518418,-0.71911 4.568354,-1.31129 4.555416,-1.31596 -0.01294,-0.005 -0.609216,-0.0834 -1.325068,-0.17489 -0.715853,-0.0915 -3.9897,-0.51203 -7.275219,-0.934465 -3.28552,-0.42242 -5.978948,-0.76614 -5.985392,-0.76382 -0.0093,0.003 5.441159,4.499865 5.450837,4.496765 1.85e-4,-1.6e-4 2.061014,-0.58852 4.579426,-1.30763 z m 15.171646,-0.37015 c 0.918531,-0.017 1.693775,-0.031 1.722758,-0.0311 0.04539,-1.8e-4 -0.374928,-0.30145 -3.026485,-2.169215 -1.693557,-1.19293 -3.606602,-2.54074 -4.251207,-2.99512 -0.644614,-0.45439 -1.17905,-0.82616 -1.187641,-0.82616 -0.02451,0 -3.315757,4.945255 -3.295684,4.951945 0.0099,0.003 0.01792,0.0232 0.01792,0.0444 0,0.0211 0.0114,0.0428 0.02536,0.0481 0.01397,0.005 1.793974,0.23379 3.955605,0.50764 3.411791,0.43224 3.959199,0.49808 4.149776,0.49915 0.120746,7.4e-4 0.971063,-0.0126 1.889595,-0.0296 z m 3.582255,-0.26682 c 0.87059,-0.12102 1.584732,-0.22188 1.586984,-0.22413 0.0021,-0.002 -0.809961,-2.087155 -1.804919,-4.633085 -0.99496,-2.54595 -1.811427,-4.63591 -1.814364,-4.64437 -0.003,-0.008 -1.833002,0.80689 -4.066798,1.81188 -2.233801,1.00499 -4.081723,1.83575 -4.106491,1.84614 -0.04442,0.0186 -0.02975,0.0296 1.057247,0.79479 0.606254,0.42674 2.542305,1.78998 4.302335,3.02943 2.311679,1.627945 3.208804,2.251595 3.231587,2.246475 0.01733,-0.004 0.743831,-0.10611 1.614419,-0.22713 z m -13.861394,-0.77726 c 0.0086,-0.0112 0.0368,-0.0225 0.06251,-0.0252 0.04338,-0.004 0.16647,-0.18418 1.698984,-2.479755 0.908713,-1.361179 1.648901,-2.47817 1.644868,-2.4822 -0.0064,-0.007 -17.198044,1.9923 -17.262689,2.00704 -0.03849,0.009 -1.226428,1.08334 -1.202619,1.08784 0.0114,0.002 2.688037,0.34655 5.948178,0.76534 3.260139,0.41878 6.626131,0.851915 7.479977,0.962485 0.853844,0.11057 1.566534,0.19736 1.583748,0.19286 0.01722,-0.005 0.03838,-0.0173 0.04705,-0.0284 z m 25.850107,-2.662665 c -0.01265,-0.0119 -2.478657,-1.78422 -5.480056,-3.93844 -3.001399,-2.15422 -5.739355,-4.11965 -6.084345,-4.36761 -0.471035,-0.33856 -0.631658,-0.44633 -0.644953,-0.43273 -0.02736,0.028 -1.715114,2.5508 -1.714792,2.56322 1.57e-4,0.006 0.993371,0.45174 2.207141,0.99048 1.213769,0.53873 4.345001,1.92989 6.958291,3.09146 2.613289,1.16157 4.758232,2.1127 4.76655,2.11362 0.0084,9.26e-4 0.0048,-0.008 -0.0078,-0.02 z m -0.31328,-0.36062 c -0.148794,-0.14521 -11.293055,-10.37752 -11.296971,-10.37253 -0.0021,0.003 -0.04461,0.14994 -0.09406,0.32675 -0.318942,1.14001 -0.432445,1.55041 -0.432445,1.56356 0,0.008 0.24453,0.19079 0.543406,0.40571 3.277653,2.35697 11.336922,8.14364 11.342809,8.14431 0.0042,5.56e-4 -0.02405,-0.03 -0.06273,-0.0678 z m -30.745696,-1.06027 c 4.658848,-0.54329 8.484224,-0.98962 8.500837,-0.99184 0.03587,-0.005 -10.489358,-3.8295 -10.539726,-3.82996 -0.03233,-3.7e-4 -0.840463,0.72164 -5.630005,5.02945 -0.584699,0.5259 -0.856689,0.78015 -0.834565,0.78015 0.01807,0 3.844607,-0.44451 8.503459,-0.9878 z m 12.867401,-2.88344 4.144758,-1.86404 0.882393,-1.31535 c 0.48531,-0.72344 0.877224,-1.31738 0.870924,-1.31986 -0.0063,-0.002 -4.63628,0.56029 -10.288828,1.25059 -5.652546,0.6903 -10.290862,1.25509 -10.30736,1.25509 -0.01649,0 -0.02621,0.004 -0.02161,0.008 0.0047,0.005 2.385636,0.8722 5.291129,1.92793 2.905493,1.05574 5.282963,1.919911 5.283269,1.92039 3.44e-4,5.56e-4 1.865693,-0.83795 4.145312,-1.86316 z m -3.828713,-3.41101 c 5.383753,-0.65742 9.793164,-1.19984 9.798686,-1.20536 0.0195,-0.0195 0.530923,-1.84459 0.519964,-1.85554 -0.0043,-0.004 -0.380976,0.0711 -0.83699,0.16764 -0.456015,0.0965 -5.0172,1.05993 -10.135959,2.14087 -5.118763,1.08094 -9.268036,1.96138 -9.220601,1.95653 0.04743,-0.005 4.491141,-0.54671 9.8749,-1.20414 z m -0.826862,32.486025 c 0,-0.0237 0.03524,-0.43476 0.07841,-0.91343 0.04316,-0.47867 0.138498,-1.53717 0.211854,-2.35221 0.07335,-0.81503 0.137665,-1.51893 0.142926,-1.56422 l 0.0095,-0.0823 h -0.504659 c -0.487868,0 -0.504348,-10e-4 -0.49525,-0.0297 0.01548,-0.0487 1.058989,-3.95557 1.059509,-3.96668 0.0022,-0.055 0.04178,0.11483 0.118807,0.51435 l 0.09206,0.47753 0.112771,-1.23023 c 0.06202,-0.67663 0.113271,-1.232 0.113864,-1.23416 7.41e-4,-0.002 0.0593,-0.004 0.130457,-0.004 h 0.12937 l 1.461443,3.45379 c 2.7216,6.43188 2.937159,6.94256 2.937159,6.95843 0,0.0102 -0.127442,0.0159 -0.358036,0.0159 h -0.357977 l -0.671689,-1.32126 c -0.369434,-0.72664 -0.826927,-1.62635 -1.016668,-1.99937 l -0.344973,-0.67822 h -1.053412 -1.053415 l -0.01024,0.67038 c -0.0057,0.3687 -0.01401,1.10435 -0.01855,1.63477 -0.0045,0.53043 -0.01243,1.12848 -0.01751,1.329 l -0.0092,0.36459 h -0.343237 -0.343233 v -0.0431 z m 1.176163,-5.01916 c 0,-0.007 -0.09526,-0.50596 -0.211699,-1.1086 -0.116432,-0.60264 -0.212522,-1.10315 -0.213525,-1.11224 -0.0026,-0.026 -0.200516,2.10921 -0.201313,2.17494 l -7.41e-4,0.0588 h 0.313626 c 0.172493,0 0.313623,-0.006 0.313623,-0.0129 z m 10.302605,0.0286 v -5.03369 l 0.999683,-1.8e-4 c 1.127483,-1.8e-4 1.031669,0.008 1.464017,-0.13337 0.511003,-0.16763 0.629899,-0.17154 0.786918,-0.0258 0.326554,0.30304 0.602359,0.96031 0.692005,1.64915 0.134003,1.02961 -0.09048,2.07015 -0.567902,2.6323 -0.06272,0.0738 -0.06818,0.0859 -0.0448,0.099 0.124661,0.0698 0.336748,0.3009 0.455559,0.49648 0.137692,0.22668 0.274045,0.5861 0.331129,0.87287 0.01545,0.0776 0.03248,0.14625 0.03784,0.15251 0.0054,0.006 0.110363,-1.33802 0.233336,-2.98728 0.122971,-1.64927 0.226872,-3.01988 0.230886,-3.0458 l 0.0073,-0.0471 0.831114,-0.27693 c 0.478983,-0.1596 0.830887,-0.26918 0.830578,-0.25865 -0.0016,0.0471 -0.135308,0.98251 -0.141447,0.98791 -0.0038,0.003 -0.297397,0.10275 -0.652341,0.2208 -0.564059,0.18761 -0.646358,0.219 -0.653325,0.24913 -0.02193,0.0949 -0.500406,3.63498 -0.492397,3.64299 0.0051,0.005 0.296016,-0.0863 0.646406,-0.20311 l 0.637088,-0.21243 0.259619,0.39183 c 0.142788,0.2155 0.256993,0.39406 0.253791,0.39681 -0.003,0.003 -0.307496,0.10533 -0.676206,0.22797 -0.368705,0.12265 -0.6702,0.2277 -0.66998,0.23345 1.85e-4,0.006 -0.0859,0.64 -0.191355,1.40945 -0.105463,0.76944 -0.188095,1.40264 -0.183631,1.4071 0.0044,0.004 0.295645,-0.0878 0.647075,-0.20495 0.351425,-0.11718 0.641199,-0.21055 0.643954,-0.20748 0.0063,0.007 -0.129284,0.98779 -0.137732,0.99624 -0.01175,0.0118 -1.646973,0.55338 -1.652897,0.54746 -0.0034,-0.003 0.0051,-0.14282 0.0186,-0.31013 0.01349,-0.16732 0.02421,-0.32153 0.02392,-0.34271 -2.65e-4,-0.0212 -0.03583,0.0532 -0.07897,0.16536 -0.211034,0.54859 -0.416631,0.8612 -0.740579,1.12605 -0.323683,0.26463 -0.465627,0.33316 -0.816713,0.39431 -0.116708,0.0203 -0.316751,0.0242 -1.234898,0.0242 h -1.095637 v -5.0337 z m 1.976917,3.97383 c 0.146507,-0.0428 0.464605,-0.21935 0.797478,-0.44251 0.284863,-0.19099 0.329541,-0.22687 0.404093,-0.32449 0.09768,-0.12794 0.282135,-0.49324 0.340889,-0.67513 0.172246,-0.53322 0.168949,-1.39415 -0.0072,-1.87677 -0.09119,-0.24987 -0.357558,-0.70877 -0.502954,-0.86651 -0.05204,-0.0565 -0.07561,-0.0707 -0.11711,-0.0707 -0.06338,0 -0.218319,0.0548 -0.449003,0.15892 -0.09545,0.0431 -0.237869,0.1007 -0.316492,0.12807 l -0.142957,0.0498 -0.61549,0.005 -0.615487,0.005 v 1.85711 c 0,1.0214 0.0019,1.85765 0.004,1.85832 0.0021,8e-4 0.257953,0.0492 0.568444,0.10781 0.310491,0.0586 0.56501,0.10749 0.565603,0.10857 5.29e-4,10e-4 0.03941,-0.009 0.08624,-0.0229 z m -0.08437,-4.83407 c 0.125222,-0.0433 0.304351,-0.15893 0.553734,-0.35755 0.125055,-0.0996 0.262659,-0.20389 0.305787,-0.23177 0.188346,-0.12173 0.333708,-0.34444 0.407513,-0.62434 0.05439,-0.20629 0.07349,-0.38741 0.07401,-0.70168 5.29e-4,-0.41257 -0.0222,-0.5618 -0.156118,-1.0193 -0.02654,-0.0906 -0.07362,-0.25638 -0.104658,-0.3685 -0.03104,-0.11213 -0.08187,-0.25585 -0.112924,-0.3194 l -0.05646,-0.11553 -0.06499,0.007 c -0.03609,0.004 -0.200964,0.0705 -0.370665,0.14926 -0.484468,0.22495 -0.429487,0.21365 -1.070136,0.21995 l -0.544928,0.005 v 1.69266 1.69264 l 0.529243,-7.9e-4 c 0.467291,-2.6e-4 0.538769,-0.004 0.610606,-0.0286 z m 4.259281,4.00003 c 0.005,-0.058 0.140571,-2.06718 0.301141,-4.46486 0.160576,-2.39766 0.294751,-4.37361 0.298175,-4.39098 0.0052,-0.0263 0.08663,-0.0582 0.490765,-0.19209 0.266494,-0.0883 0.508471,-0.16037 0.537718,-0.16018 0.28819,0.002 0.493353,0.47322 0.52995,1.21753 0.01974,0.40129 -0.02148,1.02265 -0.08573,1.29231 -0.04525,0.18994 -0.163465,0.33973 -0.290037,0.36753 -0.02983,0.007 -0.04887,0.0221 -0.05387,0.0442 -0.0043,0.0187 -0.0226,0.1046 -0.04078,0.19085 -0.04505,0.21374 -0.127164,0.48018 -0.200181,0.64955 l -0.06068,0.14077 0.09302,0.37322 c 0.10921,0.43819 0.131728,0.64905 0.08365,0.78327 l -0.02725,0.0761 0.228957,1.72533 c 0.125929,0.94893 0.228963,1.73588 0.228963,1.74878 0,0.0309 -0.484841,0.19461 -0.494081,0.16681 -0.0034,-0.0101 -0.105987,-0.77006 -0.227999,-1.68859 -0.12201,-0.91854 -0.223438,-1.67176 -0.225396,-1.67383 -0.0021,-0.002 -0.05751,0.0144 -0.123455,0.0365 -0.111013,0.0373 -0.120544,0.044 -0.1286,0.09 -0.0048,0.0273 -0.114435,0.85063 -0.243663,1.82953 -0.129225,0.97891 -0.236662,1.78979 -0.238752,1.80197 -0.0021,0.0131 -0.07668,0.0465 -0.182422,0.0819 l -0.178631,0.0598 z m 0.568386,-4.55689 c 0.0953,-0.0316 0.217858,-0.0838 0.272349,-0.116 0.132334,-0.0782 0.348983,-0.30767 0.446021,-0.4724 l 0.07622,-0.12937 -0.02916,-0.14395 c -0.01995,-0.0983 -0.02916,-0.21129 -0.02916,-0.35644 v -0.21251 l 0.05924,-0.11987 c 0.06796,-0.13749 0.150415,-0.21772 0.2618,-0.25472 l 0.07356,-0.0244 0.02635,-0.20739 c 0.08057,-0.6343 0.06729,-1.10178 -0.03937,-1.38686 -0.05039,-0.13468 -0.159538,-0.23969 -0.249137,-0.23969 -0.0186,0 -0.162221,0.0423 -0.319233,0.094 l -0.285461,0.0941 -0.17712,1.33687 c -0.09741,0.73528 -0.203301,1.53295 -0.235308,1.77259 -0.03612,0.27041 -0.05187,0.4334 -0.04151,0.42962 0.0092,-0.003 0.09464,-0.0319 0.189947,-0.0635 z m 2.674768,3.39748 c -0.122615,-0.0604 -0.187444,-0.21037 -0.316216,-0.73152 -0.112969,-0.45721 -0.13385,-0.52205 -0.328981,-1.02148 -0.236955,-0.60648 -0.316253,-0.86687 -0.370588,-1.2168 -0.03749,-0.24145 -0.03752,-0.70475 0,-0.96289 0.168447,-1.16129 0.416822,-2.13726 0.773948,-3.04124 0.432785,-1.09547 0.886635,-1.77402 1.326002,-1.98252 0.456502,-0.21663 0.779449,0.0371 0.999879,0.78547 l 0.04953,0.16817 -0.172672,0.4042 c -0.09497,0.22231 -0.176171,0.39361 -0.180444,0.38067 -0.0043,-0.0129 -0.02641,-0.0906 -0.04912,-0.17249 -0.122497,-0.44128 -0.329952,-0.67646 -0.576961,-0.65406 -0.300652,0.0272 -0.601967,0.34432 -0.919629,0.96768 -0.35202,0.69078 -0.630758,1.54964 -0.801587,2.46981 -0.187174,1.00827 -0.151672,1.29193 0.26788,2.14031 0.201684,0.40783 0.256014,0.53784 0.344157,0.82345 0.147881,0.47924 0.373042,0.72168 0.619017,0.66657 0.101692,-0.0228 0.151447,-0.051 0.212346,-0.12037 0.07345,-0.0837 0.121452,-0.19877 0.250659,-0.60108 0.167759,-0.52234 0.270645,-0.77584 0.556903,-1.37211 l 0.105396,-0.21955 0.02109,-0.2901 c 0.01161,-0.15955 0.0214,-0.31956 0.02167,-0.35557 l 5.29e-4,-0.0655 -0.324297,0.10838 c -0.178363,0.0596 -0.325477,0.1067 -0.326911,0.10466 -0.0016,-0.002 -0.120105,-0.16918 -0.263729,-0.37143 -0.143629,-0.20225 -0.255847,-0.37248 -0.249386,-0.37829 0.01675,-0.015 1.294361,-0.43855 1.301491,-0.43142 0.0049,0.005 -0.02217,0.31822 -0.06667,0.77365 -0.0044,0.0453 -0.0021,0.0823 0.0047,0.0823 0.0071,0 0.05688,-0.0149 0.110784,-0.0331 0.0539,-0.0182 0.100645,-0.0305 0.10387,-0.0273 0.01093,0.0109 -0.03842,0.23841 -0.07931,0.36514 -0.02244,0.0695 -0.0779,0.21818 -0.123253,0.33029 -0.07962,0.19683 -0.08311,0.21186 -0.10137,0.43572 -0.03035,0.37209 -0.07209,0.61294 -0.172326,0.99431 -0.103452,0.39357 -0.188425,0.61733 -0.370721,0.97626 -0.191383,0.37681 -0.392694,0.66259 -0.5887,0.83569 -0.242837,0.21446 -0.530275,0.31319 -0.687012,0.23597 z m -4.863087,-8.12642 c -0.15743,-0.0481 -0.360349,-0.235 -0.499362,-0.46004 -0.365926,-0.59236 -0.606832,-1.62174 -0.732985,-3.13199 -0.08286,-0.99189 0.05881,-1.50178 0.749615,-2.69789 0.223869,-0.38762 0.382016,-0.69058 0.434467,-0.83229 0.01717,-0.0464 0.05306,-0.16552 0.07975,-0.2647 0.06275,-0.23324 0.140116,-0.38885 0.253646,-0.51021 0.109386,-0.11694 0.227465,-0.18261 0.405,-0.22525 0.636558,-0.1529 0.721916,-0.16622 0.907524,-0.14169 0.370951,0.049 0.676415,0.39386 0.675991,0.76307 -1.82e-4,0.1556 -0.06822,0.36098 -0.193778,0.58486 -0.04858,0.0866 -0.08835,0.17004 -0.08835,0.1853 0,0.0355 -0.08131,0.16427 -0.121574,0.1926 -0.03952,0.0278 -0.264028,0.40986 -0.372089,0.6332 -0.0973,0.20111 -0.185983,0.44657 -0.229452,0.6351 -0.0381,0.16526 -0.05252,0.49936 -0.03347,0.77622 0.0077,0.11212 0.01254,0.20599 0.01082,0.20861 -0.0019,0.003 -0.404545,0.11738 -0.894982,0.25506 -0.490434,0.13767 -0.929534,0.26122 -0.975781,0.27454 l -0.08408,0.0242 0.01069,0.12059 c 0.0059,0.0663 0.02755,0.25465 0.04815,0.41852 0.11817,0.94083 0.31338,1.56561 0.571563,1.8294 0.123711,0.1264 0.193453,0.15446 0.305739,0.12303 0.297188,-0.0832 0.486723,-0.67119 0.550376,-1.70739 l 0.01093,-0.17836 0.103706,0.0101 c 0.05704,0.006 0.177097,0.0181 0.266796,0.0279 l 0.163094,0.0178 -0.01048,0.28375 c -0.05924,1.59747 -0.396492,2.57303 -0.957676,2.77027 -0.08908,0.0313 -0.2755,0.0396 -0.353748,0.0157 z m -0.05613,-5.17739 c 0.37155,-0.10435 0.677522,-0.19159 0.67994,-0.19388 0.0021,-0.002 0.01116,-0.0457 0.01934,-0.0965 0.04152,-0.25647 0.270558,-0.51181 0.736809,-0.82147 0.33406,-0.22185 0.408289,-0.28239 0.477975,-0.3898 l 0.06671,-0.10282 -0.04686,-0.11013 c -0.06749,-0.15859 -0.130339,-0.26444 -0.208902,-0.35183 -0.07916,-0.088 -0.151442,-0.12745 -0.233791,-0.12745 -0.102508,0 -0.309586,0.0617 -0.392277,0.11693 -0.106674,0.0712 -1.100547,1.06022 -1.261369,1.25519 -0.266692,0.32333 -0.429361,0.5837 -0.499631,0.79974 -0.04048,0.12443 -0.05319,0.2117 -0.03085,0.2117 0.0095,0 0.321363,-0.0854 0.692915,-0.18971 z m 2.182527,4.48425 c -0.01717,-0.0553 -0.09242,-1.39501 -0.07903,-1.40693 0.01842,-0.0164 0.540205,-0.16413 0.548894,-0.15543 0.01299,0.013 0.100952,1.41388 0.0894,1.42387 -0.0099,0.009 -0.130246,0.0435 -0.52537,0.15236 -0.01503,0.004 -0.03023,-0.002 -0.03393,-0.0139 z m 4.318617,-1.20491 c 0,-0.01 -0.02127,-0.3322 -0.04725,-0.71696 -0.02598,-0.38477 -0.0454,-0.70085 -0.04313,-0.70241 0.0131,-0.009 0.526436,-0.14917 0.546221,-0.14917 0.02037,0 0.0306,0.10379 0.06943,0.70512 0.02506,0.38782 0.04146,0.7092 0.0365,0.71418 -0.005,0.005 -0.117539,0.0394 -0.250132,0.0765 -0.132585,0.0371 -0.25695,0.0726 -0.27636,0.0788 -0.0222,0.007 -0.03529,0.005 -0.03529,-0.006 z" style="fill:#000000;stroke-width:0.0156813"/>
  </g>
</svg>