<?xml version="1.0" encoding="utf-8"?>
<!-- Generator: Adobe Illustrator 24.0.1, SVG Export Plug-In . SVG Version: 6.00 Build 0)  -->
<svg version="1.1" id="Ebene_1" xmlns="http://www.w3.org/2000/svg" xmlns:xlink="http://www.w3.org/1999/xlink" x="0px" y="0px"
	 viewBox="0 0 253.9 108" style="enable-background:new 0 0 253.9 108;" xml:space="preserve">
<style type="text/css">
	.st0{fill:#53585A;}
	.st1{fill:#F2820C;}
</style>
<g>
	<g>
		<polygon class="st0" points="81.2,99.5 79.2,108 80,108 80.9,104.2 84.6,104.2 84.8,103.5 81.1,103.5 81.9,100.3 86.1,100.3 
			86.3,99.5 		"/>
		<g>
			<path class="st0" d="M91.1,100.3h-2.2l-0.8,3.1h2.2c1.3,0,2.1-1,2.1-1.9C92.5,100.8,92.1,100.3,91.1,100.3 M91,104.1l1.1,3.9h-1
				l-1.1-3.9h-2l-0.9,3.9h-0.9l2-8.5h3c1.7,0,2.1,1,2.1,1.9C93.3,102.7,92.5,103.8,91,104.1"/>
		</g>
		<polygon class="st0" points="96.3,99.5 94.3,108 99.5,108 99.7,107.2 95.3,107.2 96.1,104.1 99.7,104.1 99.9,103.3 96.3,103.3 
			97,100.3 101.3,100.3 101.4,99.5 		"/>
		<g>
			<path class="st0" d="M108,105.2c-0.4,1.8-1.8,2.8-3.5,2.8c-1.2,0-2.4-0.7-2.4-2.3c0-0.2,0.1-0.5,0.1-0.7l1.3-5.5h0.9l-1.3,5.6
				c0,0.1-0.1,0.4-0.1,0.6c0,0.8,0.4,1.6,1.6,1.6c1.1,0,2.2-0.7,2.5-2.2l1.3-5.5h0.9L108,105.2z"/>
			<path class="st0" d="M114.5,100.3h-1.8l-1.7,6.9h1.8c0.6,0,1.2-0.2,1.8-0.6c0.5-0.5,0.9-1.3,1.3-3c0.2-1,0.3-1.4,0.3-1.8
				C116.2,100.9,115.7,100.3,114.5,100.3 M116.8,103.7c-0.5,2-0.8,2.8-1.6,3.5c-0.6,0.5-1.4,0.8-2.3,0.8H110l2-8.4h2.7
				c1.2,0,2.4,0.5,2.4,2.3C117.1,102.3,117,102.7,116.8,103.7"/>
		</g>
		<polygon class="st0" points="120.2,99.5 118.2,108 123.4,108 123.5,107.2 119.2,107.2 120,104.1 123.6,104.1 123.8,103.3 
			120.2,103.3 120.9,100.3 125.1,100.3 125.3,99.6 		"/>
		<path class="st0" d="M132.9,100.8l0.5,4.5h-3.1L132.9,100.8z M132.8,99.6l-5,8.4h1l1.1-1.9h3.6l0.2,1.9h0.9l-1-8.4H132.8z"/>
		<g>
			<path class="st0" d="M142.6,105.2c-0.4,1.8-1.8,2.8-3.5,2.8c-1.2,0-2.4-0.7-2.3-2.3c0-0.2,0.1-0.5,0.1-0.7l1.3-5.5h0.9l-1.3,5.6
				c0,0.1-0.1,0.4-0.1,0.6c0,0.8,0.4,1.6,1.6,1.6c1.1,0,2.2-0.7,2.5-2.2l1.3-5.5h0.9L142.6,105.2z"/>
		</g>
		<polygon class="st0" points="146.6,99.6 144.6,108 145.5,108 146.4,104.2 150,104.2 150.2,103.5 146.6,103.5 147.3,100.3 
			151.6,100.3 151.7,99.6 		"/>
		<polygon class="st0" points="156.5,99.6 156.3,100.3 160.3,100.3 154.6,107.2 154.4,108 159.6,108 159.8,107.2 155.6,107.2 
			161.4,100.3 161.5,99.6 		"/>
		<polygon class="st0" points="171.4,99.6 168.2,106.4 168,99.6 167.2,99.6 163.8,106.4 163.7,99.6 162.8,99.6 162.9,108 163.8,108 
			167.3,101.2 167.5,108 168.3,108 172.4,99.6 		"/>
		<polygon class="st0" points="174.2,99.6 172.2,108 177.4,108 177.5,107.2 173.2,107.2 174,104.1 177.6,104.1 177.8,103.4 
			174.2,103.4 174.9,100.3 179.1,100.3 179.3,99.6 		"/>
		<polygon class="st0" points="181.6,99.6 179.5,108 180.4,108 182.4,99.6 		"/>
		<g>
			<path class="st0" d="M191.3,100.3h-2.2l-0.8,3.1h2.2c1.3,0,2.1-1,2.1-1.9C192.7,100.8,192.3,100.3,191.3,100.3 M191.2,104.1
				l1.1,3.9h-1l-1.1-3.9h-2l-0.9,3.9h-0.9l2-8.5h3c1.7,0,2.1,1,2.1,1.9C193.5,102.7,192.7,103.9,191.2,104.1"/>
		</g>
		<path class="st0" d="M198.6,100.8l0.5,4.5H196L198.6,100.8z M198.5,99.6l-5,8.4h1l1.1-1.9h3.6l0.2,1.9h0.9l-1-8.4H198.5z
			 M197.5,97.7l-0.2,1h0.8l0.3-1H197.5z M200,97.7l-0.3,1h0.9l0.2-1H200z"/>
		<g>
			<path class="st0" d="M206.5,100.3h-1.8l-1.7,6.9h1.8c0.6,0,1.2-0.2,1.8-0.6c0.5-0.5,0.9-1.3,1.3-3c0.2-1,0.3-1.4,0.3-1.8
				C208.2,101,207.7,100.3,206.5,100.3 M208.7,103.7c-0.5,2-0.8,2.8-1.6,3.5c-0.6,0.5-1.4,0.8-2.3,0.8h-2.9l2-8.4h2.7
				c1.2,0,2.4,0.5,2.4,2.3C209,102.3,209,102.7,208.7,103.7"/>
		</g>
		<polygon class="st0" points="212.2,99.6 210.1,108 215.3,108 215.5,107.2 211.2,107.2 212,104.1 215.6,104.1 215.8,103.4 
			212.1,103.4 212.9,100.3 217.1,100.3 217.3,99.6 		"/>
		<g>
			<path class="st0" d="M222.4,100.3h-2.2l-0.8,3.1h2.2c1.3,0,2.1-1,2.1-1.9C223.8,100.8,223.3,100.3,222.4,100.3 M222.2,104.2
				l1.1,3.8h-1l-1.1-3.8h-2l-0.9,3.8h-0.9l2-8.4h3c1.7,0,2.1,1,2.1,1.9C224.6,102.7,223.7,103.9,222.2,104.2"/>
		</g>
		<polygon class="st0" points="232.8,99.6 231.2,106.4 228.4,99.6 227.6,99.6 225.5,108 226.4,108 228.1,101.2 230.8,108 231.7,108 
			233.7,99.6 		"/>
		<polygon class="st0" points="234.5,106.9 234.2,108 235.4,108 235.6,106.9 		"/>
	</g>
	<g>
		<path class="st0" d="M6.7,84.2h2.9c4.2,0,6.2-3.6,6.5-6.5c0.2-2.3-0.7-4.1-3.5-4.1H9.7L6.7,84.2z M13.9,69c6,0,8.3,3.4,7.8,8.1
			C21,83.3,16.4,89.2,8.3,89.2H0L5.6,69H13.9z"/>
	</g>
	<g>
		<path class="st0" d="M120,84.2h2.9c4.2,0,6.2-3.6,6.5-6.5c0.2-2.3-0.7-4.1-3.5-4.1H123L120,84.2z M127.1,69c6,0,8.3,3.4,7.8,8.1
			c-0.7,6.2-5.3,12.1-13.4,12.1h-8.3l5.6-20.2H127.1z"/>
	</g>
	<g>
		<path class="st0" d="M183.8,84.2h2.9c4.2,0,6.2-3.6,6.5-6.5c0.2-2.3-0.7-4.1-3.5-4.1h-2.9L183.8,84.2z M191,69
			c6,0,8.3,3.4,7.8,8.1c-0.7,6.2-5.3,12.1-13.4,12.1h-8.3l5.6-20.2H191z"/>
	</g>
	<polygon class="st0" points="21.7,89.2 37.2,89.2 38.5,84.4 28.4,84.4 29.3,81.3 38.1,81.3 39.4,76.6 30.6,76.6 31.4,73.6 
		40.7,73.6 42.1,69 27.3,69 	"/>
	<polygon class="st0" points="198.8,89.2 214.3,89.2 215.7,84.4 205.5,84.4 206.4,81.3 215.2,81.3 216.5,76.6 207.7,76.6 
		208.5,73.6 217.9,73.6 219.2,69 204.4,69 	"/>
	<path class="st0" d="M99.2,81.1l4.2-6.3l0.7,6.3H99.2z M87.8,89.2h6l2.2-3.3h8.7l0.4,3.3h5.7L107.7,69h-5.5L87.8,89.2z"/>
	<path class="st0" d="M162.8,81.1l4.3-6.3l0.7,6.3H162.8z M151.4,89.2h6l2.2-3.3h8.7l0.4,3.3h5.7L171.3,69h-5.5L151.4,89.2z"/>
	<polygon class="st0" points="134.7,89.2 149.6,89.2 151,84.4 141.5,84.4 145.9,69 140.4,69 	"/>
	<g>
		<polygon class="st0" points="233.5,80.4 236.5,69 242,69 236.4,89.2 231.7,89.2 226.6,78.3 223.7,89.2 218.2,89.2 223.8,69 
			228.4,69 		"/>
	</g>
	<path class="st0" d="M56.4,69h-9.5l-1.3,4.6h9.5c3.1,0,1.5,4.7-1.3,4.8h-9.6l-3,10.8h5.5l1.8-6.5h2.1l2.7,6.5h6.1l-3.3-7.1
		c3.7-1.1,5.6-3.6,6-7.1C62.6,71.8,60.8,69,56.4,69z"/>
	<path class="st0" d="M82.8,69h-9.5L72,73.6h9.5c3.1,0,1.5,4.7-1.3,4.8h-9.6l-3,10.8h5.5l1.8-6.5H77l2.7,6.5h6.1l-3.3-7.1
		c3.7-1.1,5.6-3.6,6-7.1C88.9,71.8,87.2,69,82.8,69z"/>
</g>
<g>
	<g>
		<path class="st1" d="M211.7,27.6l-29.5,17c2.5,1.5,5.2,2.8,8.2,3.9l21.3-12.3L233,48.5c3-1.1,5.8-2.4,8.2-3.9L211.7,27.6z"/>
		<path class="st1" d="M211.7,39.1l-18.1,10.5c3.5,1,7.2,1.8,11.1,2.2l7-4l7,4c3.9-0.4,7.7-1.1,11.1-2.2L211.7,39.1z"/>
		<path class="st1" d="M211.6,49.9l-4.3,2.5c0,0,6.3,0,8.1,0C215.7,52.4,211.6,49.9,211.6,49.9z"/>
	</g>
	<path class="st1" d="M211.7,0c-23.3,0-42.2,11.7-42.2,26.1c0,3.4,1,6.6,2.9,9.6l8.1-4.6c-1.8-2.9-2.3-6.9-2.2-8.7
		c0.5-11.4,14.9-20.6,33.3-20.6s33.3,9.2,33.3,20.6c0,2-0.3,4.8-1.1,6.6c-1.4,2.9-2.3,3.9-2.7,3.9l-29.5-16.7l-9.1,5.2l0,0
		l-28.7,16.3c0.9,1.1,1.9,2.1,3,3.1c0.9,0.8,1.9,1.6,3,2.3l31.9-18.3l31.8,18.4c1.1-0.8,2.1-1.5,3-2.3c4.7-4.2,7.4-9.3,7.4-14.7
		C253.8,11.7,234.9,0,211.7,0z"/>
</g>
</svg>
