<?xml version="1.0" encoding="utf-8"?>
<!-- Generator: Adobe Illustrator 24.0.1, SVG Export Plug-In . SVG Version: 6.00 Build 0)  -->
<svg version="1.1" id="Layer_1" xmlns="http://www.w3.org/2000/svg" xmlns:xlink="http://www.w3.org/1999/xlink" x="0px" y="0px"
	 viewBox="0 0 1127.6 1460.3" style="enable-background:new 0 0 1127.6 1460.3;" xml:space="preserve">
<style type="text/css">
	.st0{fill:#D08059;}
	.st1{fill:#3F2A68;}
	.st2{fill:#708390;}
	.st3{fill:#553376;}
	.st4{fill:#D79F84;}
	.st5{fill:#BF86AE;}
	.st6{fill:#A7C82F;}
	.st7{fill:#AACC67;}
	.st8{fill:#684883;}
	.st9{fill:#715F91;}
	.st10{fill:#A84492;}
	.st11{fill:#0CB3BE;}
	.st12{fill:#F2E731;}
	.st13{fill:#CEAB42;}
	.st14{fill:#ACD9D7;}
	.st15{fill:#77A139;}
	.st16{fill:#AA9524;}
	.st17{fill:#608533;}
	.st18{fill:#3CAC6B;}
	.st19{fill:#6DA142;}
	.st20{fill:#F5E380;}
	.st21{fill:#DECC84;}
	.st22{fill:#A49ABF;}
	.st23{fill:#8CBD22;}
	.st24{fill:#6BBA7D;}
	.st25{fill:#94CAA1;}
	.st26{fill:#99812F;}
	.st27{fill:#3F9A41;}
	.st28{fill:#6DBA7E;}
	.st29{fill:#3E9841;}
	.st30{fill:#A8CA5A;}
	.st31{fill:#54B369;}
	.st32{fill:#6F3179;}
	.st33{fill:#3C2154;}
	.st34{fill:#218750;}
	.st35{fill:#A0D0AD;}
	.st36{fill:#649868;}
	.st37{fill:#788D9B;}
	.st38{fill:#495E8F;}
	.st39{fill:#4C2967;}
	.st40{fill:#5C3E90;}
	.st41{fill:#94BEB8;}
	.st42{fill:#BBD78E;}
	.st43{fill:#4CBCE5;}
	.st44{fill:#B5CE5C;}
	.st45{fill:#E39462;}
	.st46{fill:#6F3A8E;}
	.st47{fill:#913777;}
	.st48{fill:#87448D;}
	.st49{fill:#79357E;}
	.st50{fill:#D5E2A1;}
	.st51{fill:#B9D056;}
	.st52{fill:#E5C89F;}
	.st53{fill:#8F7E1E;}
	.st54{fill:#00451C;}
	.st55{fill:#6CBA7E;}
	.st56{fill:#3E9A41;}
	.st57{fill:#EAE883;}
	.st58{fill:#6A932E;}
	.st59{fill:#ACA02B;}
	.st60{fill:#8DBD24;}
	.st61{fill:#58B152;}
	.st62{fill:#6CBA7D;}
	.st63{fill:#5BA14A;}
	.st64{fill:#CCA2CB;}
	.st65{fill:#E2E584;}
	.st66{fill:#DABBDA;}
	.st67{fill:#D5BB95;}
	.st68{fill:#7BA4C3;}
	.st69{fill:#5BA147;}
	.st70{fill:#1C4F7B;}
	.st71{fill:#3E9940;}
	.st72{fill:#476120;}
	.st73{fill:#D08159;}
	.st74{fill:#6B8339;}
	.st75{fill:#222D19;}
	.st76{fill:#101A2C;}
	.st77{fill:#CCC561;}
	.st78{fill:#8BBD22;}
	.st79{fill:#74982C;}
	.st80{fill:#C9E3CB;}
	.st81{fill:#D2BF74;}
	.st82{fill:#9689A1;}
	.st83{fill:#9589A4;}
	.st84{fill:#5D7C2B;}
	.st85{fill:#8B91C7;}
	.st86{fill:#ADD081;}
	.st87{fill:#9EBD3C;}
	.st88{fill:#8C92C7;}
	.st89{fill:#EDD6E8;}
	.st90{fill:#6B5EA3;}
	.st91{fill:#6A5DA4;}
	.st92{fill:#8D92C2;}
	.st93{fill:#9A978F;}
	.st94{fill:#EFEEF5;}
</style>
<g>
	<g>
		<path class="st0" d="M606.1,4.6c13.1,4.5,26.7,7.3,40.1,10.9c28.2,7.5,56.4,14.9,84.6,22.3c-0.3,2.2-2.2,2.3-3.7,2.6
			c-13.1,2.8-26.1,6-39.2,8.6c-1.1,0.2-2.1,0.6-3.2,0.8c-32,7.4-64.1,14.3-96.1,21.5c-1.1,0.3-2.3,0.4-3.4,0.4
			c-2.7,0-4.7-1.5-6.4-3.4c-11-11.7-23.3-22.1-34.7-33.5c-6.1-6.1-12.7-11.7-18.6-17.9c-1.1-1.2-2.9-2.4-2.3-4.1
			c0.6-1.7,2.8-0.2,4-1.1c22.9-2.1,45.9-4.1,68.8-6.1c0.8-0.1,1.7,0,2-1C600.8,4.6,603.5,4.6,606.1,4.6z"/>
		<path class="st1" d="M770.9,621.5c-18.5,2.8-37.1,5.5-55.6,8.3c-3.3,1.1-5.2-0.2-6.8-3.1c-10.2-19.4-20.3-38.8-30.5-58.2
			c-9.1-17.3-18.2-34.7-27.3-52c-0.7-1.3-1.5-2.6-1.5-4.2c0-0.5,0.1-1,0.3-1.5c5.2-6.1,11.6-10.8,17.6-16
			c12.1-10.6,24-21.4,36.4-31.7c1.3-1.1,2.3-2.4,4.1-2.6c0.5,0.1,1,0.3,1.3,0.7c18.3,24.9,37.2,49.4,56.2,74
			c0.3-5.5-0.5-10.9-1-16.3c-1.9-20-3.7-40-5.7-60c-1.9-18.8-3.7-37.7-5.4-56.5c-1.5-16.2-3.3-32.3-4.5-48.6
			c-0.2-3.5-1.2-6.9-1.1-10.4c0-0.8,0.3-1.5,1.1-1.9c2.7-0.1,3.6,2.2,4.9,3.8c29,36.9,58.1,73.7,87.1,110.6c0.8,1,1.7,2,2.2,3.3
			c0.1,1.2,1,2.3,0.1,3.5l0,0c-2.5,4.8-6.5,8.5-10.1,12.2c-13.3,13.7-26,28-39.3,41.6c-6.5,6.7-12.5,13.7-19.2,20.2
			c-4.1,4-5.2,8.5-4.5,14.4c1.5,13,2.6,26,3.5,39.1c0.5,6.8,0.9,13.6,1.7,20.3c0.2,2,0.2,4,0.3,6
			C775.3,619.8,773.9,621.3,770.9,621.5z"/>
		<path class="st2" d="M839.6,111.4c0.4,0.7,0.7,1.3,1.1,2c-0.8,18.2-2.4,36.4-3.5,54.6c-1,14.7-2.2,29.4-3,44.2
			c-0.1,1.7-0.5,3.3-1.5,4.7c-1.5,1.8-3.6,2.3-5.7,2.8c-28.2,8-56.3,16.5-84.4,24.6c-1.6,0.5-3.2,1-4.9,0.8
			c-4.8-2.5-7-7.4-10.1-11.4c-21.9-28.3-43.9-56.6-66-84.8c-0.8-1-1.6-2.1-2.4-3.2c-2.2-3-1.8-5.2,1.9-6.4
			c17.7-3.8,35.7-6.1,53.6-9.1c38-6.4,76-12.8,114.1-18.9C832.5,110.6,836,110,839.6,111.4z"/>
		<path class="st3" d="M650,511.6c4.1,8.1,8,16.3,12.2,24.4c4.2,8.1,8.7,16,12.9,24c11.6,22.1,23.2,44.3,34.7,66.5
			c1.3,2.5,3,3.3,5.5,3.2c-31.8,11-63.6,22-95.3,33.1c-0.9,0.3-1.9,0.5-2.9,0.8c-0.5-0.3-0.8-0.7-1.1-1.2c-5.4-16.9-9.9-34-15.1-51
			c-3.2-10.6-6.3-21.3-9.3-32c-0.2-1.6,0.7-2.8,1.6-4c17.7-21,35.9-41.7,53.7-62.6c0.4-0.5,1-0.9,1.6-1.2
			C649.1,511.4,649.5,511.4,650,511.6z"/>
		<path class="st4" d="M527.3,11.7c-1.1,0.5-2.2,1-4,1.7c13,12.3,25.7,24.3,38.4,36.4c6,5.7,11.8,11.6,17.8,17.4
			c1.4,1.4,2.5,3.2,4.7,3.3c0.3,0.4,0.3,0.9,0,1.3c-8.1,6.3-16.9,11.6-25.3,17.5c-12.9,9-26,17.8-39,26.7c-0.6,0.5-1.2,0.9-1.9,1.2
			c-0.7,0.3-1.5,0.5-2.3,0.7c-39.6,10.2-79.2,19.8-118.8,29.8c-1.4,0.4-2.9,0.8-4.4,0.4c-2.7-1.4-0.8-2.9,0.1-3.9
			c3.1-3.2,5.7-6.9,8.9-10.1c16.3-15.9,31.7-32.6,47.8-48.8C467.5,67,485,48.1,503.3,30c4.8-4.8,9.3-9.9,13.9-15
			c1.2-1.1,2.8-1.5,4.1-2.6C523.2,11.4,525.2,11.5,527.3,11.7z"/>
		<path class="st5" d="M839.6,111.4c-11.9,1.7-23.9,3.3-35.8,5.3c-23,3.8-45.9,7.8-68.9,11.7c-24.1,4-48.3,8-72.4,12
			c-0.8,0.1-1.7,0.1-2.5,0.2c-1.3,0.6-2.1,0.2-2.6-1c-0.5-2.7,0.6-5.2,1.3-7.7c7.5-24.9,15.2-49.7,22.6-74.7c0.9-3,1.4-6.2,3.8-8.5
			c0.6-0.3,1.3-0.6,1.9-0.8c30.4,11.7,60.4,24.4,90.6,36.6c18.5,7.5,37.1,14.7,55.2,23C835.1,108.6,837.3,110,839.6,111.4z"/>
		<path class="st6" d="M617,662.9c0,0.2,0,0.4,0.1,0.7c-12.5,6.5-24.8,13.4-37.5,19.5c-46,22-89.1,49.4-132.9,75.3
			c-1.9,1.1-3.6,3-6.2,2.8c-0.3-0.7-0.1-1.4,0.4-2c0.3-0.4,0.7-0.7,1-1c7.3-7.5,13.5-15.9,20.1-24c29.4-36.2,58.9-72.3,88.1-108.6
			c0.9-1.2,1.8-2.4,3-3.3c0.7-0.3,1.4-0.4,2.1-0.3c7.4,3.8,14,8.8,21,13.3c12.1,7.7,23.9,15.7,36,23.3
			C614.1,659.7,616,660.9,617,662.9z"/>
		<path class="st7" d="M518.3,15.6c-12.4,14.3-26.2,27.2-39.2,40.9c-13.6,14.3-27.8,28-41.3,42.4c-11.4,12.3-23.6,23.8-35.1,35.9
			c-3.9,4.1-7.5,8.4-11.2,12.6c-0.6,0.7-1.4,1-2.3,1.1c-12.5-1.2-24.7-4.2-37-6.3c-3.2-0.5-6.7-0.3-9.3-2.8
			c8.1-8.7,16.2-17.4,24.3-26.1c11.4-12,22.8-23.9,34.2-36c3-3.2,6.5-5.6,10.2-7.7c10.6-4.7,20.5-10.8,30.7-16.1
			c14.7-7.7,29.4-15.5,44-23.3c7.8-4.1,15.5-8.3,23.3-12.3c2.4-1.2,4.7-2.4,7.3-3C517.5,15,517.9,15.2,518.3,15.6z"/>
		<path class="st3" d="M770.9,621.5c5.2-2.5,2.9-7.2,2.7-10.9c-0.6-10-2-20-2.6-30c-0.6-10.4-1.6-20.7-3-31
			c-0.8-5.6,1.4-9.6,4.9-13.3c14.2-14.8,28.4-29.7,42.6-44.6c8-8.4,15.7-17,23.6-25.5c1.1-1.2,2.5-2.2,3.7-3.2
			c-3.1,14.4-6,28.9-9.2,43.2c-6.8,30.6-13.8,61.1-20.5,91.7c-0.6,2.7-1.7,4.4-4.2,5.6c-10.8,5.5-21.5,11-32.3,16.6
			C774.8,621,773,621.8,770.9,621.5z"/>
		<path class="st8" d="M892.5,198.3c5.6,31.5,11.2,63,16.9,94.5c0.3,1.9-0.2,3.6-0.6,5.3c-7,27.6-14.1,55.2-21.2,82.8
			c-0.1,0.4-0.5,0.8-0.8,1.2c-0.5-0.4-0.8-0.8-1.1-1.3c-5.4-25.5-9.5-51.2-14.3-76.9c-3.8-20.4-7.5-40.8-11.2-61.2
			c-0.4-2.5-1-4.9-1-7.4c-0.4-2.2,1.1-3.7,2.3-5.2c8.6-10.5,17.6-20.5,26.3-30.9C888.9,197.9,890.3,195.5,892.5,198.3z"/>
		<path class="st9" d="M892.5,198.3c-1.9-1.2-2.7,0.4-3.6,1.4c-9.7,11.5-19.4,23-29.1,34.5c-0.2,1.7-1.2,3.1-2.3,4.3
			c-8.4,9.7-16.8,19.3-25.1,28.9c-1.1,1.3-2.7,5-5.3,1.1c0.3-15.5,1.5-30.9,3.1-46.2c0.2-1.8,0.3-3.7,1.6-5.1
			c2-6.2,1.1-12.8,1.8-19.2c1.4-12.1,1.3-24.4,2.3-36.6c1.2-14.8,2.5-29.6,2.9-44.4c0-1.6,0.4-2.9,2-3.7
			c16,25.8,32.1,51.6,48.1,77.4C890.2,193.2,892.4,195.2,892.5,198.3z"/>
		<path class="st3" d="M886.6,381.1c0.1,0.3,0.1,0.7,0.2,1c-11.1,20.4-22.1,40.8-33.2,61.2c-3.6,6.5-7.2,13.1-10.7,19.6
			c-0.3-1-0.7-2-1-3c-2.9-26.4-5.3-52.8-7.6-79.2c-1-11.1-2.1-22.1-3.2-33.2c-0.2-1.7-0.5-3.3,0.3-4.9c2-2.1,3.7-0.5,5.2,0.6
			c15.9,11.6,31.8,23.3,47.8,34.8C885.4,378.8,886,379.9,886.6,381.1z"/>
		<path class="st10" d="M354.2,672.7c-25.5-12.7-50.9-25.4-76.4-38.2c-1.8-0.9-3.4-1.9-5.2-2.9c1.4-2.3,3.8-2.5,6.2-2.5
			c21.7,0.1,43.4-2.4,65.1-1.9c0.6,0,1.1,0,1.7,0.1c3.3,0.6,6,2.7,8.6,4.6c7.3,5.3,15.5,9.2,22.1,15.6c2.5,5.4,4.3,11.1,6.4,16.6
			c0.5,1.2,0.8,2.5,0,3.8c-0.6,0.8-1.5,1.4-2.5,1.5c-8.1,1.1-16.2,2.8-24.4,3.2C355.3,672.7,354.8,672.7,354.2,672.7z"/>
		<path class="st11" d="M832.8,107.3c-8.1-1.3-15.3-5.4-22.7-8.4c-39.7-16-79.4-32.3-119.1-48.5c-1.5-0.6-3.3-0.8-4-2.7
			c14.7-3.1,29.4-6.1,43.9-10c10.1,5.4,19.1,12.5,28.6,18.8c23.5,15.8,46.9,31.8,70.3,47.7C830.9,105.1,832.5,105.6,832.8,107.3z"/>
		<path class="st12" d="M342.8,139.4c14.2,2.5,28.5,5,42.7,7.5c1.3,0.2,2.6,0.3,3.9,0.5c0.4,0.3,0.6,0.8,0.6,1.3
			c-2.8,6.5-7.9,11.4-12.2,16.9c-15.1,19.2-30.2,38.4-45.6,57.5c-1.2,1.5-2,4.1-4.9,3c-1.3-1.9-0.7-3.8-0.3-5.8
			c4.2-23.2,8.2-46.3,12.4-69.5c0.6-3.6,2.1-7,3-10.5C342.5,139.9,342.6,139.6,342.8,139.4z"/>
		<path class="st13" d="M262.8,332.1c10-12.2,20.8-23.8,31.8-35.1c1.4,1.9,0.2,3.5-0.5,5.1c-6.6,14.6-13.2,29.1-20.2,43.4
			c-1.8,3.8-3.7,7.5-2,11.9c2.4,20.9,4.1,41.8,3.3,62.9c-0.1,2.5,0.1,5-0.5,7.4c-0.2,0.5-0.5,1-1,1.4c-3-0.4-3.3-3-4.1-5
			c-8.7-20.3-17.4-40.6-26.5-60.7c-0.8-2.5,0.6-4.4,1.9-6.4C250.7,348.5,256.5,340.2,262.8,332.1z"/>
		<path class="st14" d="M250.8,450c-0.6-2,1-4-0.1-6c0.4-0.5,0.8-0.8,1.4-1c0.6-0.2,1.1-0.3,1.7-0.3c8.9-0.7,17.7-2.3,26.7-2
			c2.9,0.4,4.1,2.5,4.8,5.1c3.1,12.2,6.2,24.5,9.1,36.8c0.6,2.4,1.1,5-1.2,7c-10.8,1.5-21.5,2.2-32.4,1.8c-9.7-0.1-9.7-0.1-9.7-10.1
			C251.1,470.8,250.6,460.4,250.8,450z"/>
		<path class="st15" d="M393.2,709.6c-13-12.3-26-24.6-39-36.8c0.2,0,0.4-0.1,0.5-0.3c2.7-0.8,5.3,0.1,7.7,0.9
			c16.3,5.6,32.8,10.5,49.1,16c1,0.4,1.9,1,2.7,1.7c5.6,7,10.7,14.3,15.9,21.6c1.1,1.5,1.8,3.2,2.2,5c3,12.4,6.6,24.6,9.5,37.1
			c0.4,1.6,0.9,3.2-0.2,4.8h-0.3c-2.3,0.4-3.2-1.4-4.2-2.8c-8.5-12.3-17.4-24.3-25.8-36.8c-3.2-4.8-6.5-8.7-13-8.5
			C396.6,711.5,394.7,710.8,393.2,709.6z"/>
		<path class="st16" d="M270.7,356.1c-2.4-3.9,0.3-7,1.7-10.2c7.1-15.5,14.4-31,21.7-46.5c0.3-0.7,0.4-1.6,0.6-2.4
			c0.6-0.7,1.3-1.4,1.9-2.2c2.4,0.6,3.1,2.8,4.4,4.5c5.9,8,11,16.5,17.1,24.4c0.3,0.3,0.6,0.7,0.9,1.1c0.4,1,0.1,1.9-0.3,2.8
			c-0.2,0.4-0.4,0.8-0.7,1.2c-7.9,7.7-16.3,14.9-24.6,22.1c-3.3,2.8-5.6,7.1-10.4,8c-2.6-0.1-4.6-1.5-6.8-2.6
			c-1.2-0.6-2.2-2.2-3.9-1.2C271.7,355.6,271.3,356,270.7,356.1z"/>
		<path class="st17" d="M393.2,709.6c8.5,0,15,2.3,19.9,10.5c7.7,12.8,17,24.7,25.7,37c0.6,0.9,1.7,1.6,2.5,2.4
			c-0.3,0.6-0.5,1.1-0.8,1.7c-13.3-1.5-26.5-3.2-39.8-4.4c-3-0.3-3.9-1.3-4.1-4.1C395.6,738.3,394.4,723.9,393.2,709.6z"/>
		<path class="st18" d="M248.9,532.7c0-0.6,0-1.3,0-1.9c1.3-1.2,2.8-0.9,4.2-0.5c7.8,2.3,15.8,3.9,23.5,6.7c0.8,0.4,1.3,1,1.8,1.8
			c0.3,0.5,0.5,1.1,0.6,1.6c3.5,18.9,5.7,38.1,8.7,57.1c0.2,1.5,0.4,3-0.2,4.4c-0.4,0.8-1,1.2-1.9,0.7
			c-10.9-15.5-21.7-31.1-31.8-47.1C250.8,548.2,249.9,540.4,248.9,532.7z"/>
		<path class="st19" d="M345.5,628.3c-12.6,0.5-25.2,0.5-37.7,1.5c-11.7,1-23.5-0.1-35.1,1.8c-8.3-4.1-16.2-9-23.8-14.2
			c-4.3-2.9-6.5-8.2-9.1-12.8c0.7-0.6,1.5-0.8,2.3-0.7c21.7,4.5,43.3,9.7,65,14.3c12.3,2.7,24.5,5.5,36.8,8.3
			C344.7,626.9,345.5,627.3,345.5,628.3z"/>
		<path class="st20" d="M303.5,284c-2.9-14.3-3.1-28.5-0.4-42.9c1.7-8.9,2.4-18.1,3.6-27.1c0.3-2,0.4-4.1,1.2-5.8
			c10.2-20.9,20.6-41.6,31.6-62.1c1.8,3,0,5.8-0.8,8.5c-5.5,17-11.5,33.9-17.4,50.8c-2.4,6.9-3.8,14.1-5.3,21.2
			c-2.3,11.4-5.3,22.6-6.9,34.1c-0.1,3.1,0,6.2-0.1,9.3c-0.1,4.5,0.3,9.1-0.3,13.6c-0.2,0.5-0.4,1-0.8,1.5
			C306.2,285.9,304.7,285.5,303.5,284z"/>
		<path class="st21" d="M307.6,260.2c3.7-17.1,6.4-34.5,11.2-51.3c5.5-19.1,12.8-37.7,19.2-56.5c0.7-2,1.8-4,1.5-6.2
			c0.5-2.2,1.5-4.2,2.9-5.9c-2.1,12.3-4.1,24.7-6.3,37c-2.7,15.4-5.6,30.8-8.4,46.3c-0.2,1-0.2,2,0.8,2.7c0.7,1.5-0.5,2.5-1,3.8
			c-0.2,0.4-0.5,0.8-0.7,1.2c-5,8.5-10.1,17-15.1,25.5C310.8,258.3,310.3,260.6,307.6,260.2z"/>
		<path class="st20" d="M262.8,332.1c-4.5,8.8-10.9,16.4-16.2,24.7c-1.2,1.9-3.2,3.5-2.8,6.1c-0.2,0.5-0.4,0.9-0.7,1.3
			c-4.4,6-8.6,12.1-12.8,18.3c-1.7,2.5-2.4,5.4-3.1,8.3c-1.5,5.9-2.8,11.9-4.7,17.7c-0.5,1.7-0.7,3.6-2.6,4.6
			c-4.5,0.7-7.5-2.5-11.2-4.1c-1.9-1.1-2.2-2.5-2.3-4.8c-0.3-9.3,4.9-15.5,10.7-21.8c14.8-16.3,29.4-32.8,44.1-49.1
			C261.6,332.8,262.2,332.5,262.8,332.1z"/>
		<path class="st22" d="M276.7,537.9c-9.3-2.4-18.6-4.7-27.8-7.1c-1-4.6-2.2-9.2-2.1-14c1.4-1.3,3.1-1.9,5-2.1
			c9.7-1.5,19.4-2.6,29.1-4c1.5-0.2,3-0.2,4.4,0.5c2.1,1.9,0.8,4,0.2,5.9c-1.9,6.3-4,12.6-5.6,19
			C279.3,537.5,278.5,538.7,276.7,537.9z"/>
		<path class="st23" d="M517.2,15.5c-7.2,3.7-14.5,7.2-21.7,11c-20.7,10.9-41.3,22-62,32.9c-6,3.2-12,6.4-18.1,9.5
			c-1.1,0.6-2.3,2.3-3.9,0.7c18.8-13,37.4-26.4,56.5-39c7.5-5,16.7-6.1,25.2-9c8-2.8,16-5.3,24-7.9
			C517.9,14.3,517.9,14.9,517.2,15.5z"/>
		<path class="st17" d="M241.8,604.7c-0.7,0-1.3,0-2,0c-2-5.1-3-10.4-3.8-15.8c2.4-2.6,5.6-2.8,8.8-3.1c12.7,3.9,24.8,9.4,37.3,13.9
			c1.2,0.5,2.9,1,2.6,3c-4.4,2.3-9.3,2-14,2.4c-4.4,0.3-8.9,0.1-13.4,0.1c-2.6-0.2-5.2-0.3-7.8,0.4
			C246.9,605.3,244.3,605.4,241.8,604.7z"/>
		<path class="st24" d="M285.7,511.8c-11.6,1.5-23.3,3-34.9,4.5c-1.3,0.2-2.6,0.3-3.9,0.5c0.7-4.3,1.4-8.7,2.1-13
			c2.1-1.9,4.6-1.4,7.1-1.5c10.9-0.3,21.7,0.5,32.6-0.1c0.8-0.3,1.7-0.3,2.6-0.2c1.8,0.5,3.8,0.5,4.9,2.4
			C294.3,509.2,289.8,510.3,285.7,511.8z"/>
		<path class="st25" d="M244.7,586.6c-2.9,0.8-5.8,1.5-8.7,2.3c0.6-10.6,3.7-20.5,8-30.1c3.7-8.4,5.5-16.9,4.9-26.1
			c1.9,7.7,3.9,15.4,5.8,23c0.4,1.7,0.1,3.3-0.4,4.9c-2.4,7.1-4.7,14.2-6.8,21.4C247,583.8,246.4,585.5,244.7,586.6z"/>
		<path class="st25" d="M291.7,502.8c-0.7,0-1.5,0.1-2.2,0.1c-5.3,0.9-10.5-0.2-15.8-0.7c-7.6-0.7-15.1-1.9-22.7-3
			c-1.7-0.2-3.3-0.6-4.2-2.3c-1.2-11.4,1.1-22.5,2.3-33.7c0.5-4.5,1.1-8.9,1.6-13.3c0.9,0.7,0.9,1.7,0.9,2.7
			c-0.3,10.5,1.8,20.9,0.9,31.3c-0.4,4.9,0.9,7.1,6.1,5.9c0.6-0.1,1.3,0,2,0.1c1,0.6-2,1.3-0.1,1.7c9.3,2.1,18.3,5.4,27.6,8
			c1.7,0.5,3.6,0.7,4.5,2.7c0,0.1-0.1,0.3-0.2,0.4C292.3,503,292.1,503,291.7,502.8z"/>
		<path class="st26" d="M303.5,284c1.3,0.4,2.7,0.8,4,1.2c1.5,1,1.9,2.7,2.3,4.3c2.5,10.2,5.5,20.2,7.9,30.4
			c0.4,1.7,1.2,3.5-0.1,5.3c-6.9-8.2-12-17.6-18.4-26.1c-1-1.3-1.8-2.8-2.7-4.1C298.8,291.2,301.2,287.6,303.5,284z"/>
		<path class="st27" d="M246.9,497c14.2,2,28.4,4,42.6,6c-1,1.3-2.4,0.9-3.7,0.9c-12.3,0-24.6-0.1-36.9-0.1
			C248.2,501.5,246.6,499.5,246.9,497z"/>
		<path class="st28" d="M208.7,409c4.2-0.2,7.2,3.1,11.1,3.9c0.2,0,0.5,0,0.7,0c3.7,1.4,5.9,4.5,8.3,7.3c1.2,3.8,5,7.1,2.9,11.7
			C223.7,424.7,216,417,208.7,409z"/>
		<path class="st29" d="M231.7,432c0-4.4-3.1-7.7-3.8-11.9c1-0.6,1.8,0,2.6,0.5c6.4,6.1,12.5,12.4,18.7,18.6c1.2,1.2,3,2.3,2.5,4.5
			c-0.3,0.1-0.7,0.1-1,0.2c-4.9-2.7-9.7-5.5-14.6-8.2C234.4,434.8,232.7,433.9,231.7,432z"/>
		<path class="st30" d="M517.2,15.5c0-0.6,0-1.2,0-1.9c1.4-0.4,2.7-0.7,4.1-1.1c-0.4,1.6-2.3,1.8-3.1,3
			C517.9,15.5,517.6,15.5,517.2,15.5z"/>
		<path class="st31" d="M685.1,48.5c-4.6,15.5-9.2,31.1-13.9,46.6c-4.4,14.7-8.9,29.5-13.3,44.2c-0.2,0.7-0.5,1.3-1.3,1.4
			c-0.5,0-0.9-0.2-1.3-0.4c-12.4-10.3-23.4-22-35.1-33c-10.9-10.4-22.3-20.3-32.6-31.4c-1.3-1.4-3.1-2.5-3.5-4.7
			c0-0.3,0.1-0.5,0.2-0.8c14.6-3.1,29.1-6.3,43.7-9.4C646.9,56.9,666,52.7,685.1,48.5z"/>
		<path class="st32" d="M832.8,342c-1.5,4.3,0.1,8.7,0.3,13c0.5,9.8,1.7,19.7,2.7,29.5c1.2,11.8,2.8,23.5,3.7,35.3
			c0.6,8.1,1.5,16.1,2.3,24.1c0.4,3.6-0.1,7.2,0.9,10.8c0.4,1.6,0.8,3.6-0.8,5.1c-28-35.5-56-71-84-106.6c-3-3.8-5.9-7.5-8.9-11.3
			c-0.3-0.4-0.5-0.8-0.4-1.3c4.7-6.3,11.2-10.7,16.9-15.9c10.9-9.8,22-19.5,33-29.3c2.3-2,4.1-4.9,7.8-4.4c2.4,3,4.2,6.4,5.9,9.8
			c6.6,13.2,13.6,26.2,20.4,39.3C832.8,340.8,833,341.4,832.8,342z"/>
		<path class="st33" d="M748.2,343.1c1.8,7.4,1.8,15,2.6,22.5c1.5,12.8,2.6,25.6,3.9,38.4c0.8,8.1,1.4,16.1,2.2,24.2
			c1.2,13,2.6,25.9,3.8,38.9c1.1,12,2,24,3.2,36c0.8,8.9,1.9,17.7,2.7,26.6c0.3,3,0,6.1,0,10.6c-5.4-7-10-13-14.5-19
			c-13.9-18.5-27.8-37-41.8-55.5c-1.2-1.6-2.3-3.3-2.6-5.3c-1.1-2.6,0.7-4.5,1.7-6.4c8.2-15.5,16.4-31,24.4-46.6
			c0.8-1.3,0.9-2.9,1.3-4.4c3.4-18,6.8-35.9,10.6-53.8C746.2,347.1,746,344.6,748.2,343.1z"/>
		<path class="st34" d="M748.2,343.1c-3.9,20.1-7.8,40.1-11.7,60.2c-0.1,0.3-0.4,0.5-0.6,0.8c-3.2-1-2.5-4-2.9-6.2
			c-3.2-19.1-6.6-38.2-9.9-57.3c-0.8-1.6-2.4-2.2-3.9-3c-11.3-5.6-22.6-11.3-33.9-17c-3.2-1.6-5.8-1.4-8.9,0.1
			c-7.9,3.9-15.5,8.4-23.4,12.3c-1.9,0.9-3.7,2.5-6,1.3c-0.9-3.1,1.3-5.3,2.4-7.8c3.5-8,6.7-16.1,11.1-23.7c0.5-0.6,1.1-1.1,1.9-1.4
			c7.8-1.2,15.6-0.4,23.4-0.5c6.8-0.1,13.6,0,20.5,0c2.8,0,5.3,0.5,7.2,2.7c10.7,12.5,23.3,23.3,34.4,35.4c0.5,0.7,0.6,1.5,0.9,2.3
			c0,0.3,0,0.6,0.1,0.9C748.7,342.4,748.4,342.7,748.2,343.1z"/>
		<path class="st35" d="M650,511.6c-0.3,0-0.6,0.1-0.9,0.2c-2.1,1.2-4.2,0.5-6.3,0c-14.1-3.4-28.4-6.3-42.5-9.7
			c-1.5-0.4-2.9-0.7-4.1-1.7c-0.8-0.8-1-1.9-0.8-3c0.1-0.5,0.4-0.9,0.7-1.3c6.8-8.1,12.6-17,19-25.5c9.9-13.3,19.3-26.9,29.4-40.1
			c0.6-0.6,1.3-0.9,2.2-0.9c0.6,0.2,1,0.6,1.2,1.1c0.2,0.6,0.4,1.1,0.5,1.7c0.8,19.9,2.1,39.8,2.2,59.8c0,2.7,0.4,5.3,0.7,7.9
			c0.4,3.6,0.8,7.3-1.2,10.7C650.1,511.1,650,511.4,650,511.6z"/>
		<path class="st36" d="M650.2,510.9c-0.7-19.7-1.3-39.4-2.3-59.1c-0.4-7-0.9-13.9-0.7-20.9c2.1-1.3,3.4,0.4,4.8,1.4
			c3,2.1,6,4.1,8.7,6.5c10.3,9.1,22.9,13.6,35.6,17.7c3.4,1.1,7,2,10.3,3.6c0.2,0.2,0.3,0.4,0.5,0.5c-4.8,6-11.1,10.3-16.8,15.3
			C677,487.8,663.5,499.3,650.2,510.9z"/>
		<path class="st35" d="M735.1,407.9c-9.1,17.5-18.2,35.1-27.3,52.6c-0.2,0-0.5,0.1-0.7,0.1v0.1c-1.4-1.1-2.1-2.5-2.4-4.2
			c-6.6-29.8-13.2-59.7-19.6-89.6c-0.1-0.7-0.1-1.3-0.1-2c1.5-3.9,2-4.1,5.3-1.1c5.7,5.3,11.6,10.4,17.4,15.7
			c8.1,7.4,16.4,14.6,24.4,22.1C733.6,403.3,735.9,404.9,735.1,407.9z"/>
		<path class="st37" d="M657.1,140.4c0.3-0.4,0.6-0.7,0.9-1.1c0.5,0.8,1.3,1,2.1,1.1c-2.1,1.6-1,3,0.1,4.5
			c21.2,27.2,42.5,54.5,63.7,81.7c4.5,5.7,8.7,11.6,13.1,17.5c-0.1,0.8-0.6,1.3-1.2,1.8c-0.8,0.6-1.7,1-2.7,1.3
			c-18.5,5.7-36.9,11.8-55.4,17.7c-13.3,4.3-26.6,8.3-39.7,12.8c-1.8,0.6-3.7,1.6-5.7,0.5c-0.4-0.4-0.6-1-0.6-1.5
			c4-24.2,8.6-48.3,12.9-72.5c3.4-18.9,6.8-37.9,10.2-56.8C655.2,145,655.3,142.4,657.1,140.4z"/>
		<path class="st38" d="M735.9,245.1c0.3-0.3,0.7-0.6,1-1c11.8-3.3,23.5-6.6,35.3-9.9c19.9-5.7,39.7-11.3,59.6-17
			c-1.3,17.6-2.6,35.3-3.9,52.9c0.4,1.1-0.1,2-0.8,2.7c-6.9,6.3-13.3,13.1-21.3,18.2c-8.8,6.3-16.2,14.1-24.4,21.1
			c-11,9.5-21.8,19.3-32.6,29c-0.3-0.3-0.6-0.7-0.9-1c-2.4-5.3-2.2-11-2.9-16.5C742,297.5,738.9,271.3,735.9,245.1z"/>
		<path class="st39" d="M596,499.6c17.7,4.1,35.4,8.2,53.1,12.3c-10.6,12.4-21.3,24.9-31.9,37.3c-8.4,9.8-16.7,19.7-25,29.5
			c0.4,2.5-1.6,3.9-2.9,5.4C579,596,568.9,608,558.5,619.8c-1.3,1.4-2.6,3.4-4.8,1.2c-0.7-7.8-0.3-15.6,0.4-23.3
			c0.9-10,0.9-19.9,1.4-29.9c0.6-10.8,1.6-21.6,1.4-32.4c0-0.6,0.1-1.2,0.1-1.7c0.1-0.6,0.2-1.1,0.5-1.6c0.3-0.7,0.8-1.3,1.4-1.9
			c10.3-8.8,20.4-17.9,30.5-26.9C591.3,501.7,592.8,499.3,596,499.6z"/>
		<path class="st40" d="M555.2,621.6c12.3-14.3,24.6-28.6,37-42.9c4.3,9.2,6,19.2,9,28.8c5.4,17.7,10.4,35.6,15.6,53.4
			c0.2,0.6,0.2,1.3,0.3,2c-20.8-13-41.5-26.4-61.8-40.2C554.7,622.4,554.7,622,555.2,621.6z"/>
		<path class="st41" d="M657.1,140.4c-1.3,12.7-4.2,25.1-6.4,37.6c-4.1,23.6-8.2,47.2-12.7,70.7c-1.8,9.5-2.6,19.3-5.8,28.5
			c-2.9,0.7-4.6-1.5-6.6-2.8c-25.1-17.4-50.1-35-75.1-52.5c-8.3-5.8-16.5-11.7-24.9-17.4c-3.2-2.2-4.4-4.8-4.6-8.7
			c-1.2-26-2.4-52-3.4-78c0.2-0.5,0.4-1,0.7-1.4c0.3-0.3,0.7-0.6,1-0.9c1.8-0.6,3.6-0.4,5.4-0.1c41.8,7.7,83.6,15.3,125.4,23.1
			c2.1,0.4,4.3,0.8,6.1,2C656.5,140.4,656.8,140.4,657.1,140.4z"/>
		<path class="st42" d="M518.2,116.3c0,0.4,0,0.8,0,1.2c-2,9.4-7.2,17.5-11.2,25.9c-18.8,39.6-37.2,79.5-56.3,118.9
			c-1.7,3.5-2.1,7.8-5.8,10.1c-2.3-0.3-3.3-2.1-4.5-3.6c-14.7-20.4-29.6-40.6-44.3-60.9c-0.8-1.1-1.6-2.1-2.1-3.4
			c-0.1-0.5-0.1-1,0-1.4c5.4-5.7,12.3-9.5,18.7-14c31.5-22.4,63-44.9,94.6-67.3c2.9-2,5.9-3.7,8.9-5.4
			C516.9,116.4,517.6,116.3,518.2,116.3z"/>
		<path class="st43" d="M656.2,140.4c-12.7-1.1-25.1-4.2-37.6-6.4c-28.8-5.1-57.6-10.4-86.3-15.7c-4.4-0.8-8.7-1.9-13-2.9
			c13.3-9.2,26.6-18.5,40-27.6c8.2-5.6,16.1-11.6,24.8-16.5c13.2,12.6,26.3,25.2,39.5,37.9C634.4,119.6,645.3,130,656.2,140.4z"/>
		<path class="st44" d="M516.3,116.4c-6.7,6.3-14.5,10.9-21.9,16.2c-33.2,23.7-66.6,47.1-99.9,70.6c-1.5-1-2.1-2.6-2.2-4.3
			c-0.8-16.9-2.8-33.7-2.7-50.6c-0.1-0.3-0.1-0.7-0.2-1c0.7,0,1.3,0,2,0c19.5-4.8,38.9-9.5,58.4-14.3
			C472,127.6,494.1,122,516.3,116.4z"/>
		<path class="st3" d="M555.2,621.6c0,0.4,0,0.7-0.1,1.1c-0.6,0.1-1.2,0.2-1.8,0.2c-2.1,2-4.6,3.3-7.1,4.6
			C511.3,645,475.9,661.6,441,679c-6.1,3-12.3,5.8-18.4,8.8c-1.5,0.7-2.9,1.6-4.7,1.4c-3-1.3-1.1-2.9-0.1-4.2
			c5.2-6.9,11.5-12.9,17.3-19.3c13.4-14.9,27.1-29.6,40.6-44.5c8.4-9.2,16.8-18.3,25.3-27.5c13.3-14.4,26.5-28.8,39.6-43.4
			c4.3-4.8,8.9-9.4,13.2-14.3c1.1-1.3,2.2-3,4.5-2.4c-0.7,19.9-0.7,39.8-2.3,59.5c-0.7,8.6,0.7,17.3-1.6,25.7
			C554,619.9,554.3,621,555.2,621.6z"/>
		<path class="st45" d="M417.7,688.7c17.8-8.6,35.5-17.2,53.3-25.8c27.5-13.3,54.9-26.6,82.4-40c-7.1,10.2-15.4,19.4-23.1,29.1
			c-15,18.7-30.2,37.4-45.3,56c-13.2,16.3-26.5,32.7-39.8,49c-0.9,1.1-1.8,2.4-3.6,2.4c-3.6-14.1-7-28.2-10.9-42.2
			c-1.9-6.6-7.4-11.2-11.1-16.9c-2-3.1-4.2-6-6.3-8.9c-0.3-0.4-0.3-0.8,0-1.2C414.5,688.9,416.1,689,417.7,688.7z"/>
		<path class="st46" d="M805.8,291.1c4.8-5.7,10.8-10,16.3-14.9c2.1-1.8,3.8-4,5.8-6c6.7-6,11.8-13.4,17.9-20
			c4.8-5.2,9.4-10.7,14-16c2.5,7.8,3.3,16.1,4.9,24.1c3.4,17.3,6.2,34.8,9.4,52.1c4.2,22.9,8.4,45.8,12.6,68.6c0.1,0.6,0,1.3,0,2
			c-17.9-13-35.9-26-53.8-39c-0.7-0.9-1.7-1.6-2.2-2.6c-8.2-15.6-16.3-31.3-24.5-46.9C805.9,292.1,805.9,291.6,805.8,291.1z"/>
		<path class="st47" d="M375.5,647.6c-9.7-6.4-19.3-12.7-29-19.1c0.8-3.3,3.8-4.8,6.2-6.7c11.8-9.6,23.6-19.2,35.3-28.9
			c0.5-0.2,1-0.4,1.6-0.5c17.8-2.9,35.7-5,53.6-7.3c1.9-0.2,3.9-0.9,5.7,0.6c1.3,5.6,0.1,11.1-0.2,16.7c-0.5,8.2-1.3,16.4-1.6,24.7
			c-0.1,2.6-0.1,5.3-1.8,7.6c-1.8,2-4.3,2.3-6.7,2.8c-19.2,3.5-38.4,7.1-57.6,10.5C379,648.2,377.2,648.9,375.5,647.6z"/>
		<path class="st48" d="M375.5,647.6c17.8-3.3,35.6-6.7,53.4-10c5.2-1,10.3-2,15.5-3c1.1,1.3,0.3,2.5-0.3,3.7
			c-9.3,16.5-17.8,33.4-27.9,49.5c-0.7,1.2-1.7,2-2.7,2.9c0,0.3,0,0.5-0.1,0.8c-0.6-0.3-1.3-0.6-1.9-0.9c-9.7-5.3-17.5-13-26.4-19.4
			c-1.2-0.9-2.3-1.9-2.5-3.5C380.2,660.9,377.9,654.3,375.5,647.6z"/>
		<path class="st17" d="M387.5,593.7c-2.5,4.9-7.5,7.2-11.5,10.6c-9.6,8.3-19.7,16.2-29.5,24.2c-0.3-0.1-0.7-0.2-1-0.2
			c-0.3-0.2-0.6-0.5-1-0.7c-11.5-3.1-22.1-8.5-33-13.2c-6.7-2.9-13.4-5.6-20-8.8c-1.2-0.6-4.8-0.9-1.9-3.9
			c8.6-1.4,17.3-1.4,25.8-1.4c19.8,0.2,39.1-3,58.5-5.7c3.1-0.4,6.3-0.4,9.3-1.4C384.7,593.2,386.2,592.6,387.5,593.7z"/>
		<path class="st49" d="M382.5,667.6c9.7,7.6,19.3,15.3,29,22.9c-17-5.5-34-11-51-16.5c-1.9-0.6-3.8-1.1-5.7-1.6
			c7.5-2.3,15.4-2.4,23-3.8C379.4,668.3,381,668.4,382.5,667.6z"/>
		<path class="st50" d="M389.6,148.4c1.5,3.3,1.8,6.9,1.9,10.5c0.5,14.8,1.6,29.6,3,44.4c0,0.3,0,0.6,0,1c-1.6,6.6-5.8,11.8-9,17.6
			c-8.2,14.8-16.5,29.5-24.9,44.2c-1,1.7-1.8,3.6-3.8,4.5c-1.6,0.2-2.5-0.8-3.3-1.8c-8.7-12.5-17.4-25-26-37.6
			c-0.4-0.5-0.4-1.3-0.8-1.8c0.6-1,1.3-2,1.9-3.1c16.6-21.1,33.2-42.2,49.8-63.3C382.2,158.1,385.9,153.2,389.6,148.4z"/>
		<path class="st51" d="M271.5,355.2c0-1-1.9-3.6,1.5-2c3.3,1.5,6,4.2,9.7,4.9c7.7,5.4,15.4,10.7,21,18.5c0,6.1-3,11.5-4.7,17.1
			c-4.7,15.7-9.3,31.4-14.6,46.8c-0.5,0.6-1.2,0.9-2,0.8c-4.8-2.2-6.2-7.3-9.7-10.6c-0.1-0.2-0.2-0.4-0.3-0.6c0-0.2,0-0.5,0-0.7
			c0.1-0.2,0.2-0.4,0.4-0.6c0.3,0.1,0.6,0.1,1,0.1c2.4-6.1,6.1-11.4,9.4-16.9c1.7-2.9,2.2-5.7,1.2-9c-3.7-11.9-7-23.9-10.6-35.8
			C272.4,363.3,271,359.4,271.5,355.2z"/>
		<path class="st52" d="M242.7,363.1c0.3,0,0.7-0.1,1-0.1c5.4,8.4,8.3,18,12.4,27c5.7,12.9,11,25.9,16.5,38.8h-0.1
			c-2.1,0.8-3.4-0.6-4.9-1.7c-9.8-7.3-19.6-14.7-29.3-22c-1.4-1.1-3-2.1-3.2-4.2C237,388.2,238.8,375.4,242.7,363.1z"/>
		<path class="st53" d="M271.5,355.2c4.8,16.2,9.5,32.3,14.3,48.5c0.5,1.7,1.6,3.5,0.5,5.3c-4.1,6.8-7.4,14-12.6,20
			c0-8.6-0.3-17.3,0.1-25.9c0.6-15.8-2.8-31.3-3.1-47C270.9,355.8,271.2,355.5,271.5,355.2z"/>
		<path class="st25" d="M281.8,440.9c0.6,0,1.2,0,1.8-0.1c1.1-1.5,2-3,3.5-4.1c9.4-6.8,18.4-14.1,27.7-20.9c1.7-1.3,3.8-4,6.2-0.6
			c1.1,2.2,1.2,4.5,1.1,6.8c-0.6,31.2,1.6,62.3,1.1,93.4c-0.1,3.2-0.8,6.6,0.8,9.8c0.6,1.1,1,2.2,0.8,3.4c-0.5,0.8-1.2,1.2-2.1,1.5
			c-13.8,3.4-27.8,6.1-41.7,9.1c-1.1,0.2-2.3,0.3-3.3-0.5c-0.3-0.3-0.7-0.6-1-0.9c1.2-0.2,2-0.8,2-2.1c4.5-9.8,10.6-18.6,16-27.8
			c0.7-1.3,2-2.3,1.8-3.9c-0.4-5.2-3-10-2.9-15.3c0.3-7.2-2.7-13.8-4.1-20.7c-1.6-7.6-3.9-15-5.6-22.5c-0.5-2-1-3.4-3.2-3.7
			C280.6,441,280.8,440.4,281.8,440.9z"/>
		<path class="st54" d="M251.7,443.8c-7.3-7.6-14.6-15.2-22-22.8c0.9-1,2-1.1,3.2-0.9c11.7,2.1,23.3,4.6,34.8,7.4
			c1.7,0.4,3.3,1.4,5,2.2v0.3c0.4,1.1-0.2,2-1,2.5c-6.2,4-11.6,9.2-19,11.3C252.4,443.8,252.1,443.8,251.7,443.8z"/>
		<path class="st55" d="M293.6,488.7c2.6,5,3.8,10.4,4.1,16c-0.6,0.7-1.3,0.7-2,0.2c-0.8-1.7-3.1-0.5-4-2c-0.7-1.7-2.4-1.6-3.7-2
			c-10.1-3-20.2-6-30.8-9.2c1.5-0.7,2.5-1.2,3.6-1.7C271.7,489.5,282.6,489.1,293.6,488.7z"/>
		<path class="st56" d="M252.8,443.8c6.5-4.8,13.9-8.4,20-13.9c4,2.9,6.2,7.2,9,11c-0.4,0.3-0.8,0.6-1.2,0.9
			C271.3,442.5,262,443.1,252.8,443.8z"/>
		<path class="st57" d="M319.7,413.9c-12,9-24,18-36,27c2.9-13.4,8.1-26.1,11.7-39.3c2.3-8.6,6-16.7,7.4-25.6c0.1-4.7,2-9,3.3-13.4
			c3-9.8,6.2-19.5,9.1-29.3c0.6-1.9,1.7-3.6,2.7-5.3c0.1-0.2,0.1-0.4,0.1-0.7c0.2-0.5,0.6-0.7,1.1-0.6c3.3,2.2,4.9,5.8,6.9,8.9
			c8,12.2,15.7,24.5,23.8,36.6c0.7,1.1,1.5,2.2,1.8,3.5c0.1,0.7,0.1,1.5-0.2,2.2c-8.8,11.8-18.9,22.5-28.3,33.8
			C322.1,412.8,321.1,413.7,319.7,413.9z"/>
		<path class="st58" d="M317.7,328c-4.3,16.2-9.2,32.3-15,48c-6.3-6.4-14-11.1-20-17.9c5.4-2.7,9-7.6,13.5-11.3
			C303.6,340.9,310.5,334.3,317.7,328z"/>
		<path class="st59" d="M317.6,325.1c-3.3-13.3-6.7-26.6-10-39.9l-0.1-0.3c6.8,0.2,11.9,4.6,17.9,6.9c3.3,1.3,7,2.2,9.4,5.3
			c0,5.7-2.3,10.8-4.1,16c-2.2,3.6-5.4,6.5-7.9,9.9c-0.9,1.2-2.1,2.6-4.1,2.1C318.3,325.1,318,325.1,317.6,325.1z"/>
		<path class="st60" d="M318.7,325.1c4.6-3.1,7-8.2,10.9-12c1.7,0.4,2.2,1.9,3,3.1c1,3.3,4.6,5.8,2.7,9.9c-5.4,1.9-11,2.5-16.6,1.2
			c-0.3,0-0.6,0-0.9,0.1C318,326.6,318.4,325.8,318.7,325.1z"/>
		<path class="st61" d="M277.7,538.8c14.9-3.3,29.8-6.6,44.8-9.9c3,2.8,3.4,6.8,4.5,10.3c3.7,12,7.8,23.9,11.1,36.1
			c0,2-1.5,2.9-2.9,3.7c-5.8,3.4-11.4,7.2-17.4,10.2c-2.8,0.5-4.2-1.5-5.6-3.3c-10.5-13.6-20.8-27.4-31.5-40.9
			c-1.3-1.6-1.9-3.5-2.9-5.2C277.7,539.5,277.7,539.2,277.7,538.8z"/>
		<path class="st25" d="M277.8,539.9c9.9,11.4,18.5,23.7,27.7,35.5c2.8,3.5,5.4,7.1,8.1,10.6c1,1.3,2,2.8,4,2.5
			c6.5-2.4,13.1-0.4,19.6-0.1c13.2,0.6,26.4,1.8,39.5,2.7c2.9,0.2,6.5-0.8,7.7,3.5c-23.7,3.3-47.3,7.7-71.4,7.4
			c-8-0.1-16.2,0.2-24.3,0.9c-0.8,0.5-1.5,0.3-2.1-0.2c-1.8-12.9-3.6-25.8-5.4-38.7C280.1,555.9,278.9,547.9,277.8,539.9z"/>
		<path class="st62" d="M244.7,586.6c3.3-10.3,6.7-20.6,10-30.8c10.5,15.2,21.1,30.3,31,46c-0.4,0.4-0.8,0.4-1.2,0.1
			C271.3,596.7,258,591.7,244.7,586.6z"/>
		<path class="st63" d="M284.5,601.8c0.4,0,0.8,0,1.2-0.1c0.3,0.3,0.7,0.6,1,0.9c0.7,0.1,1.4,0.2,2.1,0.2
			c13.5,5.9,27,11.8,40.4,17.8c5.1,2.3,10.2,4.6,15.3,6.9c-10.1-0.9-19.7-4.1-29.6-6.1c-24.1-5.1-48.1-10.6-72.1-16
			c-0.4-0.1-0.8-0.6-1.2-0.8c2.6,0,5.3,0,7.9,0c2.2-1.2,4.8,0.3,7-0.9C266,603.6,275.4,604.2,284.5,601.8z"/>
		<path class="st64" d="M334.4,297.3c-9-4.1-18-8.3-26.9-12.4c0-4.9,0.1-9.8,0.1-14.7c3.9-3.5,9-4.1,13.8-5.5
			c2.2,0.2,2.7,2.1,3.7,3.6c4.8,6.7,8.5,14.1,13.6,20.5c0,3.3-1.7,5.8-3.6,8.3C334.9,297.2,334.7,297.2,334.4,297.3z"/>
		<path class="st65" d="M321.8,265.2c-4.5,2.2-9.3,3.5-14.1,4.9c0-3.3,0-6.7,0-10c5.3-6,8-13.6,12.6-20c2.3-3.2,3.2-7.3,6.3-9.9
			c1.5,1.5,0.9,3.4,0.7,5.2c-0.9,8.6-2.3,17.1-3.3,25.6C323.8,262.7,323.4,264.3,321.8,265.2z"/>
		<path class="st66" d="M321.8,265.2c1.3-9.2,2.6-18.5,3.8-27.7c0.3-2.4,0.6-4.9,0.9-7.3c0.1-0.3,0.1-0.6,0.1-1
			c6.4,5.8,10,13.8,15.2,20.6c5.1,6.7,9.2,14,14.7,20.4c0.3,0.4,0.4,0.8,0.2,1.3c-5.7,6.2-11,12.9-18.2,17.6
			c-4.5-1.7-5.2-6.5-7.7-9.8C327.5,274.9,324.8,270,321.8,265.2z"/>
		<path class="st67" d="M242.7,363.1c-0.8,10.7-3.6,21.1-5.5,31.7c-0.4,2.4,0.1,5-1.5,7.2c-1.5,4.9-6.7,5.8-9.9,8.8
			c-1.6,1.5-3.4,3.2-6.1,2.3v-0.2c1.7-6,3.8-12,4.9-18.1C226.9,382,235.4,372.9,242.7,363.1z"/>
		<path class="st68" d="M295.7,504.9c0.7-0.1,1.3-0.1,2-0.2c-5.9,10.6-11.8,21.2-18.9,31.1c1.6-8.2,4.8-16,7-24
			C289,509.5,292.3,507.2,295.7,504.9z"/>
		<path class="st69" d="M256.7,603.7c-2.1,1.9-4.7,0.6-7,0.9C251.8,602.8,254.4,604,256.7,603.7z"/>
		<path class="st25" d="M219.8,413.1c5.9-3,10.9-7.1,16-11.2c10.9,8.1,21.8,16.1,32.7,24.2c1.3,1,2.7,1.8,4.1,2.7
			c0.1,0.3,0.2,0.5,0.2,0.8c-14.3-2.9-28.7-5.8-43-8.6c-0.6-0.3-1.3-0.6-1.9-0.9C225.2,417.8,222.5,415.5,219.8,413.1z"/>
		<path class="st36" d="M735.1,407.9c-0.1-2.3-1.9-3.4-3.4-4.7c-14.4-13.1-28.8-26.1-43.3-39.2c-0.7-0.7-1.8-2.8-2.6,0
			c-0.9,0-1.2-0.6-1.4-1.4c-0.1-0.8,0.1-1.5,0.5-2.1c12.1-7.8,24.6-14.7,37.4-21.4c0.6-0.3,1.2-0.5,1.9,0c2.4,8.9,3.1,18.1,5,27.1
			c2.6,12.6,3.7,25.4,6.9,37.8C735.8,405.4,736.4,406.9,735.1,407.9z"/>
		<path class="st70" d="M735.9,245.1c2.4,0.4,1.8,2.3,2,3.9c1.6,13.3,3.2,26.5,4.7,39.8c1.2,10,2.2,20,3.2,30.1
			c0.7,7.1,2.4,14,2,21.2c-11.9-11.4-23.8-22.7-34.6-35.1c-1.9-2.2-4-3-6.9-3c-14.8,0.1-29.6,0-44.3,0c-0.6-2.4,1.3-3.2,2.7-4.2
			c21.7-16.3,43.3-32.9,64.8-49.4c1.3-1,3.1-1.1,4.3-2.4C734.6,245.8,735.3,245.5,735.9,245.1z"/>
		<path class="st71" d="M733.9,246.1c-6.7,6.9-14.9,11.9-22.5,17.8c-15.7,12.1-31.6,24-47.4,36c-0.8,0.6-1.3,1.5-1.9,2.2
			c-0.3,0.3-0.6,0.6-0.9,1c-1,0.9-1.9,1.8-3.2,2.4c-17.3,8.5-34.3,17.5-51.4,26.2c-1,0.5-2.1,1-3.3,1c-0.2-0.1-0.5-0.1-0.7-0.2
			c-0.2-0.1-0.4-0.3-0.6-0.4c-0.4-3.2,1.9-5.2,3.2-7.6c7.8-14.1,15.6-28.1,23.5-42.1c0.8-1.4,1.6-2.9,3-3.9c0.2-0.1,0.5-0.2,0.7-0.3
			c32.1-10.3,64.2-20.7,96.2-30.9C730.3,246.7,732.1,246.5,733.9,246.1z"/>
		<path class="st72" d="M724,339.1c-13,7.3-26,14.6-39,21.9c-4.7-0.9-8-4.3-11.8-6.9c-9.1-6.3-7-6.6-16.5-0.5
			c-1.1,0.7-2.2,1.5-3.3,2.2c-12.9,8.8-26.1,17-39.1,25.8c-4.1,1.8-7,6.1-12.1,5.6c-0.6-3.7,2.3-5.6,4.3-7.8
			c13-14.8,25.9-29.7,38.8-44.6c0.6-0.5,1.2-0.8,2-0.8c10.3-4.2,19.6-10.3,29.6-15.1c2.8-1.3,4.9-1.7,7.8-0.1
			c11.9,6.2,24,12.1,36,18.1C721.9,337.5,722.9,338.4,724,339.1z"/>
		<path class="st35" d="M647.4,334.1c-0.4,0.4-0.8,0.8-1.2,1.1c-1.8,0.9-3.7,1.5-5.7,1.3c-11.2-1-22.3-1.5-33.5-2.1
			c-1.5-0.1-3.5,0-3.7-2.3c18.5-9.5,37-19,55.6-28.4c0.7-0.4,1.6-0.4,2.3-0.6C656.6,313.4,652,323.8,647.4,334.1z"/>
		<path class="st73" d="M596,499.6c-10.5,9.2-21,18.3-31.6,27.5c-1.6,1.4-2.9,3.2-5.1,4c-1.8-1.7-1.1-3.7-0.7-5.6
			c10.7-49.3,21.3-98.5,32.1-147.8c2.4-10.9,4.9-21.8,7.1-32.7c0.5-2.6,1-5.3,2-7.7c0.5-1.1,0.7-3.4,2.9-1.7c1.2,2.3,1,4.8,0.8,7.3
			c-1.2,15-1.1,30.1-2,45.1c-0.2,11.6-0.4,23.2-1.1,34.8c-0.8,11.4-0.8,22.9-1.3,34.3c-0.6,11.6-1.3,23.2-1.5,34.8
			c0,1.9-0.2,3.7-1.4,5.2C596.1,497.9,596,498.8,596,499.6z"/>
		<path class="st74" d="M684.9,363c0.3,0.3,0.6,0.7,0.9,1c7.1,32.3,14.2,64.5,21.3,96.8c-17.6-4.6-34.9-10-49-22.3
			c-3.3-2.9-6.6-6-10.9-7.6c-0.1-0.3-0.1-0.6-0.1-1c-0.5-0.6-0.7-1.3-0.5-2.1c11.3-20.4,22.8-40.8,34.2-61.1
			C681.7,365.1,682.2,362.8,684.9,363z"/>
		<path class="st71" d="M596.1,497.1c0.9-26.1,1.9-52.2,2.9-78.4c0.4-10.3,0.8-20.5,1.2-30.8c0.5-0.5,0.7-1.5,1.8-1
			c4.6-0.8,7.6-4.8,12-6c0.2,0.2,0.4,0.3,0.7,0.5c3,7.1,2.8,14.9,4.9,22.2c3.6,12.2,2,23.8-2.8,35.2c-1,2.3-1.7,4.7-2.4,7
			c-4.9,14.4-9.3,29-14.2,43.5c-0.9,2.5-1.7,5-3.1,7.3C596.8,496.8,596.5,497,596.1,497.1z"/>
		<path class="st75" d="M647.2,427.9c0,0.7-0.1,1.3-0.1,2c-0.3,0-0.7,0-1,0c-6.7-8.4-12.1-17.7-18.2-26.6
			c-4.9-7.2-10-14.4-13.7-22.3H614c8.5-7.3,18.7-12.3,27.8-18.8c3.6-2.6,7.5-4.8,11.3-7.2c1.4,1.3,1.4,2.9,1.3,4.6
			c-2,20.6-3.3,41.4-5.5,62C648.5,423.8,648.2,426,647.2,427.9z"/>
		<path class="st76" d="M614.2,381c7.7,9.9,14,20.8,21,31.2c3.9,5.7,8.5,11,10.9,17.7c-0.3,0.4-0.6,0.7-0.9,1.1
			c-8.9,5.8-18.5,10.2-28.2,14.5c-1.2,0.5-2.4,1.1-3.8,0.3c1.3-4.3,2.1-8.8,4.1-12.8c5.4-10.7,2.3-21.3,0.3-32
			C616.5,394.4,615.3,387.7,614.2,381z"/>
		<path class="st18" d="M613.2,445.8c10.7-4.9,21.3-9.9,32-14.8c-11.5,16-23,32-34.6,48c-4.4,6-8.2,12.4-13.4,17.7
			c0.9-5.9,3.1-11.4,5-17.1C605.8,468.4,609.5,457.1,613.2,445.8z"/>
		<path class="st77" d="M444.3,272.1c4.9-7.7,8.2-16.2,12.2-24.4c6.7-13.7,12.9-27.6,19.4-41.5c13.7-29.1,27.4-58.2,41.2-87.3
			c0.3-0.6,0.8-1,1.2-1.5c0.3,1.6,0.8,3.2,0.9,4.9c0.4,11.6,0.7,23.2,1.2,34.8c0.6,13.6,1.4,27.1,1.9,40.7c0.1,2.4,1.4,3.5,3,4.7
			c24.1,16.8,48.1,33.6,72.2,50.4c11.6,8.1,23.2,16.1,34.7,24.1c0,0.3,0.1,0.7,0.1,1h-0.2c-3,2.3-6.4,1.7-9.6,1.3
			c-4.1-0.5-8.3-0.8-12.4-0.7c-19.6,0.5-39.2-0.9-58.8-1.2c-24.4-0.5-48.8-1.3-73.3-1.9c-10.1-0.3-20.3-0.8-30.4-1
			c-1.2,0-2.5-0.1-3.6-0.7C443.1,273.1,442.9,272.5,444.3,272.1z"/>
		<path class="st78" d="M448.4,585.7c-18.9,2.6-37.9,5.2-56.8,7.7c-1,0.1-2,0-3,0.1c-0.6-1.7,0.5-2.9,1.3-4.1
			c16.6-24.6,33.4-49.1,50.2-73.8c-13.2,8-26.3,15.8-39.5,23.6c-2,1.2-3.8,3.4-6.7,2.1c-1.2-1.3-1.7-2.8-1.8-4.5
			c-1.7-16.2-3.7-32.3-5.6-48.5c-2.7-23.9-5.5-47.8-8.3-71.7c-0.1-1.2-0.1-2.3,0.2-3.5c1.5-3.1,3-1.1,4,0.2c2.6,3.2,4.8,6.8,7,10.3
			c17.3,27.2,35,54.2,52.3,81.4c1.2,1.8,2.2,3.8,4.1,5c18.2,4,36.6,6.8,54.9,10.3c18.7,3.6,37.7,6.3,56.3,10.4
			c0.5,0.3,0.9,0.7,1.1,1.2c0,0.2,0,0.4,0,0.6c-7.5,5.6-16.1,9.2-24.5,13.1c-13.1,6-26,12.6-39,18.8c-13.8,6.6-27.7,12.9-41.2,19.9
			C451.9,585.3,450.4,586.5,448.4,585.7z"/>
		<path class="st77" d="M601.8,335.1c-5.2,23.2-10.5,46.4-15.6,69.6c-5.5,25.2-10.8,50.4-16.3,75.6c-3.5,16-7.1,31.9-10.6,47.9
			c-0.2,0.9,0,2,0,3c-0.4,0.3-0.7,0.7-1.1,1l-0.1-0.4c-2-1.6-2.3-4-3-6.2c-10.3-37-20.4-74.1-30.7-111.1
			c-5.9-21.3-11.8-42.6-17.6-64c-0.8-2.9-2.1-5.7-1.3-8.8c0.2-0.6,0.6-1,1-1.4c1.7-1.2,3.7-1.5,5.7-1.7c25.3-2.1,50.6-4.4,75.8-6.9
			c2-0.2,4,0,6-0.1c1.9,0,3.8,0.1,5.7-0.3c0.8-0.1,1.6,0.1,2.2,0.7l0.4-0.1C602.7,333.2,603.2,334.3,601.8,335.1z"/>
		<path class="st49" d="M448.4,585.7c36.6-17.7,73.2-35.4,109.8-53c0,0.4,0,0.7,0,1.1c-6.5,5-11.1,11.8-16.8,17.6
			c-9.7,9.9-18.8,20.5-28.1,30.8c-16.7,18.4-33.4,36.8-50.2,55.1c-8.2,8.9-16.4,17.8-24.6,26.7c-6.8,7.4-13.6,14.9-20.4,22.4
			c-0.6,0.7-1.7,1.3-0.5,2.4c-1.2,1-2.6,1.7-4.2,1.9c10.5-18.5,21.1-37.1,30.9-56c2.2-6.3,1-13,1.7-19.5
			C447.2,605.4,447.4,595.5,448.4,585.7z"/>
		<path class="st57" d="M444.3,272.1c-0.3,0.3-0.6,0.5-0.9,0.8c-0.4,0.8-1,1.4-1.8,1.6c-8.4,1.9-16.7,4.5-25.4,4.6
			c-16.3-1.6-32.5-3.7-48.7-5.5c-3.7-0.4-7.6-0.1-10.9-2.5c0-0.3-0.1-0.6-0.1-0.8c8.2-14.3,16.3-28.7,24.5-43
			c4.4-7.7,9-15.3,13.5-23c7.7,8.7,13.8,18.5,20.7,27.8C425.2,245.2,434.6,258.7,444.3,272.1z"/>
		<path class="st79" d="M394.4,541.7c16-9.6,31.9-19.2,47.9-28.8c0.2,0.2,0.4,0.4,0.6,0.6c-18.1,26.6-36.2,53.3-54.4,79.9
			c-0.4,0.1-0.7,0.1-1.1,0.2c-1,0.3-2,0.6-3,1c-1-1.7-2.7-1.7-4.4-1.8c-17-1.1-34.1-2.1-51.1-3.2c-3.8-0.2-7.6-0.7-11.4-1
			c6.6-4.2,13.3-8.4,19.9-12.6c0.4-1.4,1.6-2.1,2.7-2.8c17-10.2,34.1-20.5,51.1-30.7c0.7-0.4,1.5-0.7,2.3-0.9
			C394,541.7,394.2,541.7,394.4,541.7z"/>
		<path class="st25" d="M393.5,537.8c0.3,1.3,0.6,2.6,0.9,3.9l-0.2-0.1c-2,1.2-4.2,0.7-6.2,0.3c-19.7-3.4-39.5-7-59.2-10.6
			c-1.6-0.3-3.9,0-4.2-2.6c-0.3-0.7-0.7-1.4-1-2c-1.1-2.2-0.1-4.2,0.7-6.2c9.9-23.8,19.3-47.8,29.2-71.5c0.7-1.7,1.1-3.5,3-4.4
			c2.1,0.1,2.6,1.8,3.2,3.3c10.7,27.7,21.6,55.4,32.2,83.1C392.7,533.3,392.4,535.7,393.5,537.8z"/>
		<path class="st80" d="M356.7,444.9c-10.6,25.9-21.2,51.7-31.8,77.6c-0.6,1.4-0.8,2.8-1.3,4.3c-2.1-1.7-1.9-4.1-1.9-6.4
			c0-14.5,0.5-28.9-0.2-43.4c-1-19.3-0.5-38.5-0.9-57.7c0-1.8-0.6-3.6-0.9-5.4c10.3-12,20.6-24,30.9-36c1.8,1.3,2.2,3.3,2.4,5.3
			c1.5,19,3.2,38.1,5,57.1c0.1,1,0,2-0.2,3C357.5,443.9,357.1,444.4,356.7,444.9z"/>
		<path class="st81" d="M324.6,528.8c10.3,2,20.7,4,31,5.9c12.8,2.4,25.7,4.6,38.6,6.9c-8.1,6.2-17.3,10.8-26,16.1
			c-10.1,6.2-20.4,12.2-30.7,18.2c-5.9-15.4-10.1-31.4-15.1-47.1C323.2,528.9,323.9,528.8,324.6,528.8z"/>
		<path class="st25" d="M356.7,444c-2.1-22-4.1-44-6.2-66c0-0.6,0.1-1.2,0.1-1.9c0.3-0.7,0.5-1.4,1.1-1.9
			c14.4-9.5,28.2-20,42.4-29.9c1.9-1.3,3.7-4.3,6.8-1.9c0.4,5.8-2.5,10.9-4.1,16.2c-5.1,17.1-10.2,34.2-15.9,51.1
			c-0.2,0.5-0.5,0.9-0.8,1.2c-5.2,9.8-12.1,18.4-18,27.7C360.8,440.8,359.7,443.4,356.7,444z"/>
		<path class="st81" d="M351.7,375c-0.3,0.4-0.7,0.8-1,1.1c-10.7-16.3-21.4-32.6-32-48.9c5.5-1.4,11.4-0.5,16.9-2.2
			c0.4-0.4,0.9-0.7,1.5-1c10.5-1.6,21.2-2,31.8-3.2c1-0.1,2,0,2.9,0.4c2.3,1.4,1,3.3,0.4,4.8c-5.7,15.1-11.7,30-17.4,45
			C354.1,372.7,353.1,374,351.7,375z"/>
		<path class="st82" d="M331.6,316.2c-0.7-1-1.4-2-2-3.1c1.6-5.3,3.3-10.6,4.9-15.8l0.2-0.3c2.7-0.1,3.9,1.6,4.4,4
			c-0.2,1.3-0.9,2.2-2,2.8c-1.9,0.6-2.8,2-2.8,4c-0.3,2.3-0.5,4.6-1.3,6.8C332.6,315.2,332.2,315.8,331.6,316.2z"/>
		<path class="st83" d="M331.6,316.2c0.1-0.8,0.1-1.5,0.2-2.3c1.7-0.4,3.3,0,5,0.1c0.7,0.1,1.4,0.3,2.1,0.8c0.9,0.9,1.4,2.1,1.6,3.3
			c0,3-1.7,5.1-3.9,6.9c-0.4,0-0.7,0-1.1,0C334.2,322.1,332.9,319.1,331.6,316.2z"/>
		<path class="st22" d="M338.6,301.1c-0.9-1.7-2.4-3-4-4.1c1.1-2.7,2-5.5,4-7.8c5.7-6.3,11.6-12.5,18-18.1c17.2,2,34.5,3.9,51.7,5.9
			c2.7,0.3,5.7-0.6,8.2,1.2c0.5,2.5-1.6,3-3,3.9c-10.2,6.2-20.3,12.5-30.4,18.7c-0.5,0.2-0.9,0.4-1.4,0.5
			c-11.8,2.4-23.4,5.9-35.3,8.3C343,307.4,340.4,304.6,338.6,301.1z"/>
		<path class="st84" d="M647.2,427.9c0.2-10.9,1.7-21.7,2.6-32.5c0.8-9,1.6-18,2.3-27.1c0.4-4.4,0.6-8.9,0.9-13.3
			c0.1-0.1,0.2-0.3,0.3-0.4c10.8-8.1,10.8-8.1,22-0.5c3.3,2.2,6.5,4.6,9.7,6.8c0,0.7-0.1,1.3-0.2,2c-4.9,6.1-7.9,13.3-11.8,20
			c-8.2,14.3-16.1,28.8-24.2,43.2C648.5,426.9,647.8,427.4,647.2,427.9z"/>
		<path class="st0" d="M602,332.1c-0.6,0-1.3,0-1.9,0c-0.2,0-0.5,0-0.7-0.1c-1.4,0-2.7-0.5-4-0.9c-1.2-0.4-2.3-0.8-3.4-1.2
			c-42.1-15.5-83.9-31.8-125.9-47.5c-5.3-2-10.6-4-15.8-6.1c-1.5-0.6-3.8-0.6-3.9-3.1c20.1-0.5,40.1,1,60.1,1.3
			c9.2,0.1,18.5,0.2,27.8,0.7c15.2,0.9,30.5,0.3,45.7,1.2c12.1,0.7,24.2,0.3,36.3,0.8c5.3,0.2,10.5,1.2,15.8,0.9
			c-7.9,14.4-15.9,28.8-23.8,43.2C606.2,324.9,604.1,328.5,602,332.1z"/>
		<path class="st18" d="M601.8,335.1c0.2-1,0.4-2,0.6-3c0.3,0,0.6,0,0.8,0.1c6.6,1.8,13.4,0.8,20.1,1.7c7.5,1,15.2,1,22.8,1.4
			c-5.5,6.6-11,13.2-16.6,19.8c-9.2,10.7-18.4,21.4-27.6,32c-0.6,0.3-1.2,0.6-1.8,1c0.6-16,1.2-32,1.7-48
			C602,338.3,601.9,336.7,601.8,335.1z"/>
		<path class="st85" d="M446.4,273.2c15.4,6,30.8,12,46.3,17.9c32.9,12.5,65.8,24.8,98.6,37.3c0.6,0.2,1.2,0.6,1.8,0.9
			c0,1.6-1.3,1.7-2.4,2c-9.9-0.2-19.3-2.9-29-4.6c-42.7-7.6-85.3-15.6-128-23.1c-15.7-0.6-31.4-1.5-47.2-2c-1.5,0-3-0.3-4-1.6
			c10.3-6.5,20.7-12.9,31-19.3c1.1-0.7,2.4-1.1,2.9-2.5c9-1.7,18-3.4,27-5.2C444.4,273,445.4,273.1,446.4,273.2z"/>
		<path class="st51" d="M506.3,342c4.2,15.8,8.4,31.7,12.7,47.5c7.7,27.9,15.5,55.8,23.1,83.8c5.4,19.5,10.6,39,16,58.4
			c-10.7-0.8-21.2-3.3-31.7-5.2c-25.2-4.4-50.3-9.1-75.5-13.8c-2.2-0.4-4.6-0.4-6.5-1.9c1.5-8.8,5.3-16.8,8.2-25.1
			c11.8-33.1,23.8-66,35.6-99.1c4.7-13.2,9.4-26.3,14.2-39.4C503.2,345.3,503.3,342.5,506.3,342z"/>
		<path class="st86" d="M506.3,342c-5,10.1-8.1,21-11.9,31.6c-16.1,44.6-32,89.2-48,133.9c-0.4,1.2-0.8,2.5-2,3.4
			c-12.3-18.9-24.6-37.8-36.9-56.8c-8.5-13.1-17-26.2-25.5-39.3c-0.7-1.1-1.2-2.4-2.6-2.9c-0.3-0.2-0.4-0.4-0.3-0.6s0.2-0.3,0.2-0.3
			c0-0.4,0.1-0.7,0.1-1.1c8-6.5,17.6-10.6,26.5-15.5c24.9-13.8,49.9-27.6,74.9-41.3c7.7-4.2,15.4-8.5,23.2-12.5
			c0.8-0.2,1.5-0.1,2.1,0.6C506.3,341.4,506.3,341.7,506.3,342z"/>
		<path class="st62" d="M379.5,411c0,0.3,0.1,0.6,0.1,0.9c1.4,13.3,2.7,26.6,4.2,39.9c1.5,12.9,3.2,25.9,4.7,38.8
			c1.7,13.9,3.3,27.8,4.9,41.8c0.2,1.8,0.1,3.6,0.1,5.5c-5-12.6-10.1-25.1-15-37.7c-6.9-17.7-13.7-35.5-20.5-53.2
			c-0.3-0.7-0.9-1.4-1.3-2.1c0-0.3,0-0.6,0-0.9C364.3,433,371.9,422,379.5,411z"/>
		<path class="st78" d="M506.3,341.2c-0.7,0.1-1.4,0.1-2.1,0.2c-2.3,0.9-4.8,1.4-7.3,1.4c-27.2-0.1-54.4,0.1-81.5-0.1
			c-3.1-0.3-6.3-0.2-9.5-0.3c-1.6-0.1-3.6,0.3-4.3-1.6c-0.7-1.7,0.6-3.2,1.7-4.4c5.3-6,10.6-11.9,15.8-17.9
			c3.7-4.2,7.4-8.5,11.2-12.7c1.2-1.4,2.5-2.6,4.3-3.3c24.6,4.4,49.2,8.8,73.8,13.3c26.2,4.8,52.5,9.6,78.7,14.4
			c1.3,0.2,2.6,0.2,4,0.2c1,0.8,2.2,0.1,3.2,0.6c0.8,0.6,1.4,1.2,0.9,2.3C565.5,335.4,535.8,337.9,506.3,341.2z"/>
		<path class="st87" d="M595.1,333c-0.3-0.6-0.6-1.2-0.9-1.8c0.5-0.8,1.2-0.6,1.9-0.5c1.1,1.1,2.8,0.4,4,1.3v0.1
			C598.6,333.7,596.8,332.9,595.1,333z"/>
		<path class="st22" d="M413.4,341.3c30.3,0,60.5,0,90.8,0c-4.7,4-10.5,6.2-15.8,9.2c-32.1,17.8-64.2,35.5-96.4,53.2
			c-4.1,2.2-8.3,4.2-12.4,6.3c7-22.6,14-45.2,21-67.9C404.8,340.9,409.1,342.1,413.4,341.3z"/>
		<path class="st55" d="M413.4,341.3c-4.2,1.5-8.6,0.3-12.9,0.7c-7.3,3.4-13.3,9-19.9,13.5c-8.3,5.7-16.4,11.6-24.5,17.4
			c-1.3,1-2.7,1.9-4.4,2c6.9-17.6,13.8-35.2,20.7-52.8c-0.6-1.3-0.2-2.6,0.4-3.9c2.3-5.2,4.9-10.2,7.1-15.4c0.5-1.3,1.6-2.1,2.7-2.8
			v-0.1c17.3,0.8,34.7,1.5,52,2.3c-10.9,12.6-21.8,25.2-33.8,39.1C405.9,341.3,409.7,341.3,413.4,341.3z"/>
		<path class="st25" d="M382.5,300.1c-3.4,7.4-6.8,14.7-10.1,22.1c-9.2,0.8-18.3,1.4-27.5,2.4c-2.8,0.3-5.6,0.4-8.4,0.5
			c0.4-2.6,3-4.2,3.1-6.9c1-3.7,2.7-6.9,5.9-9C357.7,305.2,370,302.2,382.5,300.1z"/>
		<path class="st88" d="M345.6,309.1c-2,3-4,6-5.9,9c-0.4-1-0.8-2-1.1-3.1c-1.9-1.6-2.3-3.7-2-6.1c0.2-1.6,1.4-3.2-0.2-4.7
			c-0.2-0.4-0.1-0.8,0.3-1.1c0.7-0.7,1.3-1.4,2-2C341.3,303.4,344.5,305.3,345.6,309.1z"/>
		<path class="st89" d="M336.5,315.1c-1.7,0.2-3.4,0.1-4.8-1.2c1.3-2,0.1-4.8,2-6.6c0.6-0.7,1.2-0.6,1.9-0.2
			C336,309.7,337.2,312.3,336.5,315.1z"/>
		<path class="st90" d="M335.6,307.1c-0.6,0.1-1.3,0.1-1.9,0.2c-0.9-2.7-0.2-4.2,2.9-4.1c0.1,0.4,0.1,0.8,0.2,1.2
			c0.6,1,0.2,1.8-0.5,2.5C336.1,306.9,335.8,307,335.6,307.1z"/>
		<path class="st91" d="M336.5,315.1c-0.8-2.6-2.8-5.1-0.9-8l-0.1,0.1c1.1-0.6,1.6,0.1,2,0.9c0.3,2.3,0.6,4.7,0.9,7
			C337.8,315.1,337.2,315.1,336.5,315.1z"/>
		<path class="st92" d="M596.2,331.1c-0.7,0-1.3,0.1-2,0.1c-1-0.4-2.1-0.7-3.1-1.1c0.7-0.3,1.4-0.6,2.1-0.9c1,0.3,2,0.6,3,0.9
			c0.3,0.2,0.4,0.4,0.3,0.6C596.4,331,596.3,331.1,596.2,331.1z"/>
		<path class="st93" d="M596.2,331.1c0-0.3,0-0.6,0-0.9c1.3,0.7,3,0.5,4,1.9C598.8,332,597.2,332.5,596.2,331.1z"/>
		<path class="st94" d="M337.6,308.1c-0.7-0.3-1.4-0.6-2-0.9c0.4-0.9,0.8-1.9,1.3-2.8C341.6,304.7,338.1,306.7,337.6,308.1z"/>
	</g>
</g>
<g>
	<g>
		<path d="M1080.3,1454.4c-2.1-0.4-4.2-0.8-6.3-1.2c-17.9-3.4-29-15-30.3-33.3c-0.5-6.7,0-13.7,1.6-20.2
			c3.3-13.9,12.6-22.7,26.5-26.3c12.8-3.4,25.4-1.7,38,2.2c0,6,0,11.7,0,17.9c-2.7,0-5.2,0-8.3,0c0-3.8,0-7.5,0-11
			c-11.6-5.1-31.9-4.4-40.9,7.4c-8.8,11.4-9,33.2-0.3,45.2c7.4,10.2,25.4,14.5,39.4,9.1c0-6,0-12,0-18.7c-3,0-5.9,0-9.1,0
			c0-2.6,0-4.7,0-7.4c4.6,0,9,0,13.5,0c4.3,0,8.6,0,13.3,0c0,2.5,0,4.6,0,7.1c-2.5,0.1-5.1,0.3-8.1,0.4c0,8.5,0,16.8,0,25.6
			c-5.9,1.1-11.3,2.2-16.8,3.2C1088.3,1454.4,1084.3,1454.4,1080.3,1454.4z"/>
		<path d="M743.3,1454.4c-2.9-0.7-5.9-1.2-8.7-2.1c-8.7-2.7-14.3-8.3-15.4-17.6c-0.5-4.6-0.8-9.3-0.8-13.9c-0.1-13.3,0-26.5,0-40.3
			c-2.9-0.1-5.6-0.3-8.7-0.4c0-2.1,0-4.1,0-6.5c8.9,0,17.9,0,27.1,0c0,2.2,0,4.1,0,6.3c-2.7,0.2-5.3,0.5-8.4,0.7c0,4,0,7.8,0,11.6
			c0,11.1-0.1,22.3-0.1,33.4c0,2,0.2,4,0.5,6c1.5,9,5.1,12.9,14.2,14.1c4.2,0.6,8.7,0.6,12.9-0.1c9.3-1.5,14-6.4,14.3-15.7
			c0.6-15.8,0.5-31.6,0.7-47.4c0-0.6-0.3-1.2-0.6-2.2c-2.8,0-5.6,0-9,0c-0.1-2.4-0.2-4.4-0.3-6.8c9.3,0,18.2,0,27.4,0
			c0,2.2,0,4.1,0,6.5c-2.6,0.2-5,0.4-8,0.6c-0.2,4.2-0.6,8.4-0.6,12.6c-0.2,11.8,0.1,23.6-0.4,35.4c-0.6,14.8-7.7,22.4-22.2,24.9
			c-1,0.2-1.9,0.6-2.8,0.9C750.6,1454.4,747,1454.4,743.3,1454.4z"/>
		<path d="M23.3,1454.4c-5.8-1.3-11.6-2.6-17.7-4c0-6,0-11.7,0-17.7c3.1,0,6,0,9.4,0c0,3.7,0,7.1,0,10.8c8.7,3.1,17.1,4.2,25.6,0.9
			c5.4-2.1,8.4-6.4,8.7-12.2c0.3-5.9-3-9.8-8.2-11.9c-4.4-1.8-9.1-3-13.7-4.6c-3.3-1.1-6.7-2-9.9-3.4c-7.3-3.2-11.7-8.6-12-16.8
			c-0.3-8.7,3-15.7,10.9-19.8c3.8-1.9,8.1-3,12.3-3.7c9.4-1.4,18.5,0.2,27.6,3.2c0,5.4,0,10.5,0,16c-2.8,0-5.5,0-8.6,0
			c-0.2-3.1-0.3-6.2-0.5-9.5c-7.4-2.3-14.7-3.3-22.1-0.6c-5.6,2-8.7,6.1-9,11.4c-0.3,5.9,2.9,9.4,7.9,11.4c4.6,1.8,9.5,3,14.2,4.6
			c3.5,1.2,7,2.2,10.3,3.7c16.3,7.4,13.5,29.9,2.3,36.2c-5,2.7-10.9,4-16.5,6C30.6,1454.4,27,1454.4,23.3,1454.4z"/>
		<path d="M5.2,1293.3c0-13.8,0-27.4,0-41.4c9.7,0,19.1,0,29,0c0-70.7,0-140.9,0-211.7c-9.6,0-19,0-28.8,0c0-14.5,0-28.5,0-43
			c1.7-0.1,3.3-0.2,4.9-0.2c50.5,0,101,0.1,151.5,0.1c16.8,0,32.7,3.6,46.9,13c17.2,11.4,27.1,27.7,30.9,47.6
			c6.6,34.6-3.5,63.1-32.2,84.2c-10.3,7.6-22.1,11.9-34.9,13.6c0.6,0.2,1.2,0.5,1.8,0.6c11.6,1.6,19.9,8.4,25.9,17.8
			c10.5,16.2,20.4,32.7,30.5,49.2c3,4.8,5.8,9.7,8.9,14.5c6.2,9.7,14.5,15.5,26.6,14.2c1.8-0.2,3.6,0,5.8,0c0,13.9,0,27.4,0,41.5
			c-1.2,0.1-2.7,0.3-4.1,0.3c-14.5,0-29-0.1-43.5,0.1c-11.7,0.2-21.8-3.6-29.1-12.7c-6.7-8.3-13.2-16.7-18.7-25.8
			c-13.1-21.6-25.8-43.5-38.3-65.4c-6.7-11.6-15.9-18-29.7-17c-3.5,0.3-6.9,0-10.7,0c0,26.4,0,52.4,0,79c9,0,17.7,0,26.7,0
			c0,14.1,0,27.7,0,41.5C84.6,1293.3,45,1293.3,5.2,1293.3z M97.6,1126.1c5.8,0,11.1,0.1,16.3,0c10.5-0.3,21,0,31.4-1.4
			c14.4-1.9,25.5-9.2,30.7-23.6c2.9-8,2.9-16.3,2.5-24.6c-1-18.1-10.3-29.3-27.8-33.6c-17.2-4.2-34.7-2.7-52.2-2.5
			c-0.2,0-0.5,0.4-0.8,0.8C97.6,1069.1,97.6,1097.2,97.6,1126.1z"/>
		<path d="M1050.5,1042.4c-22.5-7.4-44.7-10.6-67.4-3c-11.7,3.9-20.8,11.1-25,23.3c-5.5,16.2,0.8,30.9,16.6,37.2
			c8.8,3.5,18.1,5.6,27.2,8.1c19.5,5.4,39.3,10.3,58.6,16.3c8.6,2.7,16.9,7,24.7,11.7c19.8,12,30.7,29.8,33.2,52.9
			c2.6,24.1-1.1,46.8-15.2,67.1c-12.9,18.6-31.4,29.3-52.7,35.6c-23,6.9-46.6,7.8-70.3,6.8c-28.9-1.2-57.3-5.8-84.9-14.6
			c-1.6-0.5-3.1-1-4.9-1.6c0-26,0-51.9,0-78.1c20.5,0,40.9,0,61.7,0c0,12.9,0,25.7,0,38.4c9.5,4.1,19.1,6,28.9,6.8
			c14.3,1.2,28.6,2.1,42.7-1.6c15.2-4.1,26.4-12.5,30-28.7c3.2-14.4-1.1-24.6-13.7-32.2c-12-7.2-25.5-10.3-38.8-14
			c-18.4-5.1-37-9.9-55.1-16.1c-9.2-3.1-17.9-8.2-26-13.5c-15.5-10.3-24.2-25.3-26.9-43.7c-2.5-16.5-2.3-32.9,3.4-48.7
			c8.7-24.2,26.4-39.4,49.8-48.6c16.6-6.6,34-9.4,51.7-10c33.5-1,66.5,2.2,98.7,12c3,0.9,6,2,9.2,3.1c0,23.5,0,46.8,0,70.7
			c-18.4,0-36.8,0-55.6,0C1050.5,1066.1,1050.5,1054.3,1050.5,1042.4z"/>
		<path d="M727.4,1179.2c0,24.5,0,48.1,0,72.3c9.6,0,19,0,28.6,0c0,14.2,0,27.7,0,41.7c-39.6,0-79.4,0-119.5,0c0-13.6,0-27.2,0-41.5
			c9.4,0,18.8,0,28.5,0c0-70.7,0-140.8,0-211.4c-9.5,0-18.8,0-28.5,0c0-14.5,0-28.5,0-42.8c1-0.1,2.1-0.4,3.2-0.4
			c43.3,0,86.6-0.1,130,0.2c17.1,0.2,33.8,3.2,49.7,9.8c23.9,9.9,39.5,27.2,45.1,52.7c5,22.7,3.9,45.1-5.8,66.4
			c-12.9,28.3-35.7,44.6-65.8,50.5c-9.7,1.9-19.8,2.2-29.8,2.5C751.4,1179.5,739.6,1179.2,727.4,1179.2z M727.5,1135.7
			c13.2,0,25.9,0.6,38.5-0.1c21.4-1.3,35.4-12.6,39.8-32.3c1.7-7.6,1.9-15.8,1.4-23.7c-1.1-19.3-13.4-33.4-32.2-37.6
			c-15.4-3.5-31.2-1.5-46.8-1.6c-0.2,0-0.5,0.4-0.7,0.7C727.5,1072.4,727.5,1103.8,727.5,1135.7z"/>
		<path d="M891.4,1390.2c0,18.2,0,36.4,0,55.1c3,0,6,0,9.3,0c0,2.5,0,4.5,0,7.1c-8.5,0-17,0-25.9,0c0-2,0-4.1,0-6.7
			c2.5-0.1,5.1-0.2,8.2-0.4c0-21.5,0-43,0-64.8c-3-0.1-6.1-0.3-9.6-0.5c0-2.2,0-4.1,0-6.4c6.2,0,12.4,0,19.2,0
			c15.2,20.4,30.7,41.1,46.9,62.9c0-19.3,0-37.5,0-55.9c-2.9-0.2-5.9-0.3-9.1-0.5c0-2.2,0-4.1,0-6.5c8.8,0,17.5,0,26.5,0
			c0,2.1,0,4,0,6.4c-2.6,0.2-5.2,0.5-8.4,0.7c0,23.8,0,47.5,0,71.8c-3.2,0.2-5.8,0.3-8.6,0.4c-15.9-21-31.7-42-47.5-62.9
			C892,1390,891.7,1390.1,891.4,1390.2z"/>
		<path d="M622.8,871.8c8.4,1.8,14.5,5.7,16.7,14.1c2.9,11.2-2.4,21.4-13.3,25c-3,1-6.2,1.8-9.3,1.9c-11.6,0.2-23.3,0.1-35.3,0.1
			c0-2.3,0-4.3,0-6.7c2.6-0.2,5.2-0.5,8.2-0.8c0-21.2,0-42,0-63.4c-2.5-0.2-5.2-0.4-8.2-0.6c0-2.1,0-4.1,0-6.1
			c0.2-0.2,0.4-0.6,0.7-0.6c12,0.1,24-0.3,35.9,0.5c9.7,0.7,15.3,6.3,16.7,15c1.2,7.7-1.8,17-10.8,20.3
			C623.9,870.7,623.7,871,622.8,871.8z M600,906.3c7.1-0.6,13.6-0.7,19.8-1.9c6.6-1.3,9.6-5.8,10-12.5s-2.8-11.7-9-13.9
			c-6.7-2.4-13.6-1.8-20.9-1.7C600,886.3,600,895.7,600,906.3z M600.3,868.9c6.3,0.6,12.1,0.5,17.6-1.8c5.3-2.2,7.7-6.6,7.5-12.8
			c-0.2-5.2-2-9.5-7.3-11.3c-5.8-1.9-11.6-1.4-17.7-0.9C600.3,851.2,600.3,859.8,600.3,868.9z"/>
		<path d="M365.4,842c-2.5-0.2-5-0.4-7.8-0.6c0-2.1,0-4.2,0-6.2c0.4-0.2,0.7-0.5,0.9-0.5c14,0.1,28-0.5,41.9,0.7
			c18.7,1.6,29.6,13.5,30.9,32.4c0.3,4.9,0.3,10-0.5,14.9c-2.9,16.7-14.3,27.2-31.4,29.4c-2.6,0.4-5.3,0.7-7.9,0.8
			c-11.1,0.1-22.3,0-33.9,0c0-2.3,0-4.4,0-6.8c2.4-0.2,4.8-0.5,7.7-0.7C365.4,884.5,365.4,863.6,365.4,842z M375.8,841.4
			c0,22,0,43,0,64.8c7.5-0.4,14.8-0.3,22-1.4c10.3-1.6,18-7.4,20.9-17.6c1.8-6.1,2.7-12.8,2.2-19.1c-1.1-14.4-9.4-23.7-22.4-25.5
			C391.3,841.6,384,841.8,375.8,841.4z"/>
		<path d="M735,905.5c2.5,0.2,5.3,0.4,8.3,0.6c0,2.2,0,4.1,0,6.4c-8.8,0-17.5,0-26.6,0c0-1.9,0-4,0-6.4c2.4-0.2,4.8-0.4,7.9-0.6
			c0-21,0-42,0-63.5c-2.3-0.2-5.1-0.4-8-0.6c0-2.2,0-4.1,0-6.3c0.7-0.2,1.5-0.5,2.2-0.5c10.8,0.1,21.7-0.2,32.4,0.6
			c12.8,1,18.9,6.4,20,16.2c1.3,12.2-3.8,20.1-16.2,24.5c8,5.8,11.1,14.9,16,22.6c2.8,4.4,5.4,8.6,12,7.2c0,2.5,0,4.6,0,6.6
			c-10.1,2.2-14.8,0.2-20-8.5c-3.4-5.7-6.9-11.4-10.1-17.2c-3.9-7.1-9.6-9.7-18-8C735,887.4,735,896.2,735,905.5z M735.1,841.4
			c0,10.6,0,19.9,0,30.5c6.4-0.8,12.4-0.9,18-2.6c6.5-1.9,9.1-7.8,8.4-15.8c-0.5-5.8-3.7-9.8-9.9-10.9
			C746.4,841.8,741,841.8,735.1,841.4z"/>
		<path d="M351.1,912.7c-9,0-17.4,0-26.1,0c0-2.1,0-4,0-6.4c2.3-0.2,4.7-0.5,7.7-0.8c-2.8-7.9-5.4-15.5-8.1-23.1
			c-9.5,0-18.6,0-28.3,0c-2.9,7.4-5.9,14.9-9.1,23.1c3.1,0.2,5.8,0.4,8.8,0.6c0,2.2,0,4.3,0,6.6c-8.5,0-16.7,0-25.3,0
			c0-2.3,0-4.3,0-6.6c2.3-0.2,4.4-0.4,7-0.6c9.6-23.5,19.3-47.1,29-70.8c3.6,0,6.9,0,10.5,0c8.8,23.6,17.6,47.2,26.3,70.8
			c2.3,0.2,4.3,0.3,7,0.5C350.7,908.1,350.9,910.2,351.1,912.7z M311,844.6c-4.1,10.5-7.9,20.3-11.8,30.2c7.8,0,14.9,0,22.6,0
			C318.2,864.7,314.8,855.1,311,844.6z"/>
		<path d="M468.5,834.8c3.9,0,7,0,10.5,0c8.8,23.7,17.6,47.3,26.3,70.8c2.7,0.2,5,0.4,7.4,0.6c0,2.3,0,4.2,0,6.5
			c-8.8,0-17.4,0-26.2,0c0-2.1,0-4,0-6.4c2.4-0.2,4.8-0.4,7.8-0.7c-2.8-7.9-5.4-15.5-8.1-23.1c-9.4,0-18.6,0-28.3,0
			c-2.9,7.4-5.9,14.9-9.1,23.1c3.2,0.2,5.9,0.4,8.9,0.6c0,2.1,0,4.2,0,6.6c-8.3,0-16.5,0-25.1,0c0-2.1,0-4.1,0-6.5
			c2.1-0.2,4.2-0.4,6.8-0.7C449.2,882,458.8,858.4,468.5,834.8z M472.8,844.6c-4.1,10.5-7.9,20.1-11.8,30.1c7.7,0,14.9,0,22.6,0
			C480,864.6,476.5,855,472.8,844.6z"/>
		<path d="M241.1,873.3c0,2.6,0,4.7,0,7.3c-78.5,0-156.8,0-235.5,0c0-2.3,0-4.6,0-7.3C84,873.3,162.3,873.3,241.1,873.3z"/>
		<path d="M890.4,880.7c0-2.6,0-4.7,0-7.3c75.8,0,151.4,0,227.4,0c0.1,1.2,0.3,2.1,0.3,3.1c0,1.3-0.1,2.6-0.2,4.2
			C1042,880.7,966.5,880.7,890.4,880.7z"/>
		<path d="M660.2,842.1c-2.6-0.2-5.2-0.4-8.2-0.7c0-2.1,0-4.2,0-6.5c17.4,0,34.6,0,52.3,0c0,5.8,0,11.5,0,17.5c-2.6,0-4.9,0-7.8,0
			c0-3.5,0-6.7,0-10.3c-8.9,0-17.2,0-25.9,0c0,9.1,0,17.8,0,27.1c8,0,15.8,0,23.8,0c0,2.4,0,4.4,0,6.9c-7.9,0-15.7,0-23.9,0
			c0,10,0,19.4,0,29.3c8.7,0,17.4,0,26.5,0c0.3-3.8,0.6-7.5,0.9-11.6c2.6,0,5,0,7.7,0c0,6.1,0,12.2,0,18.8c-18.1,0-35.6,0-53.6,0
			c0-2.1,0-4.1,0-6.4c2.7-0.3,5.3-0.5,8.2-0.8C660.2,884.2,660.2,863.3,660.2,842.1z"/>
		<path d="M595.5,1445.6c3.1,0,5.9,0,8.9,0c0,2.5,0,4.5,0,6.9c-9.4,0-18.4,0-27.7,0c0-2.3,0-4.4,0-6.8c2.6-0.1,5.1-0.2,8.1-0.4
			c0-21.5,0-42.8,0-64.6c-6.5,0-13.4,0-20.9,0c-0.3,3.7-0.6,7.4-0.9,11.5c-2.6,0-5.2,0-7.9,0c0-6.1,0-12.1,0-18.6
			c23.5,0,46.6,0,70.4,0c0.3,6.1,0.6,12.3,0.9,18.8c-3,0-5.4,0-8.4,0c-0.3-3.8-0.7-7.7-1-11.8c-7.2,0-14.1,0-21.4,0
			C595.5,1402.1,595.5,1423.4,595.5,1445.6z"/>
		<path d="M186,1445.4c2.9,0,5.7,0,8.9,0c0,2.3,0,4.4,0,6.9c-8.9,0-18,0-27.5,0c0-2,0-4,0-6.7c2.4-0.1,4.9-0.2,8-0.4
			c0-21.5,0-42.9,0-64.6c-6.8,0-13.7,0-20.9,0c-0.3,3.8-0.7,7.5-1,11.6c-2.6,0-5,0-7.8,0c0-6.1,0-12.3,0-18.8c23.7,0,46.8,0,70.5,0
			c0,6.4,0,12.4,0,18.8c-2.4,0-4.9,0-7.7,0c-0.4-3.7-0.8-7.5-1.2-11.6c-6.9,0-13.8,0-21.3,0C186,1402.1,186,1423.4,186,1445.4z"/>
		<path d="M461.7,1391.5c-0.2-3.9-0.4-7.3-0.6-10.9c-8.5,0-16.8,0-25.4,0c0,9.6,0,19,0,28.8c8.7,0,17.4,0,26.6,0c0,2.5,0,4.5,0,7.1
			c-8.8,0-17.5,0-26.7,0c0,9.9,0,19.2,0,28.9c3,0,6,0,9.3,0c0,2.5,0,4.7,0,7.2c-9.4,0-18.6,0-28.2,0c0-2.3,0-4.3,0-6.8
			c2.6-0.1,5.2-0.3,8.3-0.4c0-21.5,0-43,0-64.8c-2.7-0.1-5.3-0.3-8.2-0.4c0-2.2,0-4.2,0-6.6c17.6,0,35.1,0,53,0c0,6.1,0,11.8,0,18
			C467.4,1391.5,464.8,1391.5,461.7,1391.5z"/>
		<path d="M790,853.5c-2.7,0-5,0-7.6,0c0-6.2,0-12.3,0-18.6c23.2,0,45.9,0,69.2,0c0,6.2,0,12.1,0,18.4c-2.2,0-4.6,0-7.6,0
			c-0.3-3.6-0.7-7.1-1-11.1c-6.7,0-13.4,0-20.9,0c0,21,0,41.9,0,63.4c2.6,0.2,5.5,0.4,8.8,0.6c0,2.2,0,4.3,0,6.6c-9.1,0-18,0-27.3,0
			c0-2.2,0-4.2,0-6.5c2.5-0.2,5-0.4,8-0.6c0-21.1,0-42.1,0-63.5c-6.6,0-13.3,0-20.5,0C790.7,845.8,790.4,849.3,790,853.5z"/>
		<path d="M519.2,912.6c0-2.1,0-4,0-6.4c2.5-0.2,5-0.4,8-0.6c0-21.1,0-42.1,0-63.5c-2.4-0.2-4.9-0.4-7.9-0.6c0-2.2,0-4.2,0-6.6
			c8.6,0,17,0,25.9,0c0,2.1,0,4.1,0,6.5c-2.5,0.3-4.9,0.5-7.6,0.8c0,21.1,0,42,0,63.3c8.4,0,17,0,26,0c0.3-3.8,0.7-7.5,1-11.6
			c2.4,0,4.8,0,7.6,0c0,6.2,0,12.2,0,18.7C554.5,912.6,537,912.6,519.2,912.6z"/>
		<path d="M301.5,1452.3c0-2.4,0-4.3,0-6.6c2.7-0.2,5.3-0.3,8.5-0.5c0-21.6,0-43,0-64.8c-2.7-0.1-5.3-0.3-8.3-0.4c0-2.1,0-4.2,0-6.6
			c8.9,0,17.8,0,27.1,0c0,2,0,4.1,0,6.5c-2.5,0.2-5.1,0.4-8.3,0.6c0,21.4,0,42.8,0,64.6c2.4,0,5.2,0,8.3,0c0,2.6,0,4.6,0,7.1
			C320,1452.3,311,1452.3,301.5,1452.3z"/>
	</g>
</g>
<path d="M587.5,1251.8c-34.9-85.1-69.6-169.8-104.4-254.6h-58c-34.8,84.8-69.5,169.6-104.3,254.9h-23.1v41.4h109.5v-41.7h-28
	c7.2-19.8,14.2-38.9,21.1-57.7H508c7,19.2,13.9,38.1,21.1,57.8h-28.2v41.5H611v-41.6L587.5,1251.8L587.5,1251.8z M418.1,1147.6
	c0.6-1.7,1.2-3.3,1.8-4.9c10.3-25.1,20.6-50.1,30.8-75.2c0.5-1.4,1.8-2.9,2.1-4.5c0,0,0-0.1,0.1-0.2c-0.3-0.3-0.5-0.7-0.5-1.2
	c0-1,0.8-1.7,1.7-1.7c1,0,1.7,0.8,1.7,1.7c0,0.4-0.2,0.9-0.5,1.2c0.1,0.1,0.1,0.2,0.1,0.2c0.4,2.1,1.9,4.2,2.7,6.2
	c9.8,24.2,19.7,48.3,29.6,72.4c0.8,1.8,1.5,3.7,2.4,6H418.1z"/>
</svg>
