<?xml version="1.0" encoding="utf-8"?>
<svg version="1.1" xmlns="http://www.w3.org/2000/svg" xmlns:xlink="http://www.w3.org/1999/xlink" viewBox="0 0 297.6 209.8" xml:space="preserve">
<style type="text/css">
	.st0{fill:#D71E2D;}
	.st1{fill:#FFFFFF;}
</style>
<rect class="st0" width="297.6" height="209.8"/>
<g>
	<path class="st1" d="M41.4,94.6c-1.9,0-3.6-0.7-5-2.1s-2.1-3-2.1-5v-2.8h32.4v-4.2H34.4V65c0-1.9,0.7-3.6,2.1-5
		c1.4-1.4,3-2.1,5-2.1h28.3c1.9,0,3.6,0.7,5,2.1c1.4,1.4,2.1,3,2.1,5v2.8H44.3V72h32.5v15.5c0,1.9-0.7,3.6-2.1,5s-3,2.1-5,2.1H41.4z
		 M50.6,51.6c-1.4-1.4-2.1-3-2.1-5c0-1.9,0.7-3.6,2.1-5s3-2.1,5-2.1s3.6,0.7,5,2.1c1.4,1.4,2.1,3,2.1,5c0,1.9-0.7,3.6-2.1,5
		c-1.4,1.4-3,2.1-5,2.1S51.9,53,50.6,51.6z"/>
</g>
<g>
	<path class="st1" d="M107.9,47.4c0,1.3-0.5,2.4-1.4,3.1c-0.9,0.7-2.2,1.1-3.8,1.1c-1.8,0-3.4-0.3-4.6-0.9l0.6-1.7
		c0.3,0.2,0.9,0.4,1.6,0.5c0.7,0.2,1.5,0.3,2.2,0.3c2.1,0,3.2-0.8,3.2-2.4c0-0.3-0.1-0.6-0.2-0.8c-0.1-0.3-0.3-0.5-0.4-0.6
		c-0.1-0.2-0.4-0.3-0.7-0.5c-0.3-0.2-0.6-0.3-0.8-0.4c-0.2-0.1-0.5-0.2-1-0.4c-0.2-0.1-0.3-0.1-0.3-0.1c-0.4-0.1-0.6-0.2-0.7-0.3
		c-0.1,0-0.3-0.1-0.7-0.3c-0.4-0.2-0.6-0.3-0.8-0.4c-0.1-0.1-0.4-0.3-0.6-0.5c-0.3-0.2-0.5-0.4-0.6-0.7c-0.1-0.2-0.2-0.5-0.3-0.8
		s-0.1-0.7-0.1-1.1c0-1.2,0.4-2.2,1.3-3c0.9-0.7,2.1-1.1,3.7-1.1c1.1,0,2.3,0.2,3.6,0.5v1.8c-1.2-0.4-2.4-0.7-3.6-0.7
		c-0.9,0-1.6,0.2-2.1,0.6c-0.5,0.4-0.8,0.9-0.8,1.6c0,0.2,0,0.4,0.1,0.6c0.1,0.2,0.2,0.4,0.4,0.5s0.3,0.3,0.5,0.4s0.4,0.2,0.7,0.4
		c0.4,0.1,0.6,0.2,0.8,0.3s0.5,0.2,0.9,0.3c0.5,0.2,0.9,0.4,1.3,0.5c0.3,0.1,0.7,0.3,1.1,0.6s0.7,0.5,0.9,0.8
		c0.2,0.3,0.4,0.6,0.6,1.1S107.9,46.9,107.9,47.4z"/>
	<path class="st1" d="M115.8,51.3c-0.7,0.2-1.5,0.3-2.3,0.3c-2,0-3-1.1-3-3.2v-6.1h-1.7v-1.6h1.7v-2.4c0.6-0.2,1.3-0.5,2-0.9v3.3
		h2.8v1.6h-2.8v5.9c0,0.6,0.1,1.1,0.3,1.3c0.2,0.3,0.6,0.4,1.2,0.4c0.5,0,1-0.1,1.4-0.2L115.8,51.3z"/>
	<path class="st1" d="M119.6,51.4h-2v-9.1c-0.6-0.1-1-0.2-1.4-0.2v-1.3h3.4V51.4z M119.3,36.5c0.3,0.3,0.4,0.6,0.4,0.9
		c0,0.4-0.1,0.6-0.4,0.9c-0.3,0.2-0.6,0.4-0.9,0.4s-0.7-0.1-0.9-0.4s-0.4-0.5-0.4-0.9c0-0.3,0.1-0.7,0.4-0.9s0.6-0.4,0.9-0.4
		S119,36.2,119.3,36.5z"/>
	<path class="st1" d="M128.1,37.5c-0.6-0.1-1.1-0.2-1.6-0.2c-0.6,0-1.1,0.2-1.3,0.5s-0.4,0.8-0.4,1.5v1.4h2.4v1.6h-2.4v9h-2v-9h-1.3
		v-1.6h1.3V39c0-1.1,0.3-1.9,0.9-2.4s1.4-0.8,2.4-0.8c0.8,0,1.5,0.1,2.1,0.2v1.5H128.1z"/>
	<path class="st1" d="M134.6,51.3c-0.7,0.2-1.5,0.3-2.3,0.3c-2,0-3-1.1-3-3.2v-6.1h-1.7v-1.6h1.7v-2.4c0.6-0.2,1.3-0.5,2-0.9v3.3
		h2.8v1.6h-2.8v5.9c0,0.6,0.1,1.1,0.3,1.3c0.2,0.3,0.6,0.4,1.2,0.4c0.5,0,1-0.1,1.4-0.2L134.6,51.3z"/>
	<path class="st1" d="M144.9,51.4h-2v-1.5c-0.7,1.1-1.8,1.7-3.4,1.7c-1.1,0-2-0.3-2.5-0.9s-0.9-1.5-0.9-2.6v-7.3h2v6.9
		c0,0.8,0.2,1.4,0.5,1.7c0.3,0.4,0.8,0.5,1.5,0.5c0.8,0,1.4-0.3,1.9-0.9c0.5-0.6,0.8-1.3,0.8-2.1v-6.2h2L144.9,51.4L144.9,51.4z"/>
	<path class="st1" d="M156.7,51.4h-2v-6.8c0-1.5-0.7-2.3-2-2.3c-0.7,0-1.4,0.3-1.9,0.9c-0.5,0.6-0.8,1.3-0.8,2.1v6.2h-2V40.7h2v1.5
		c0.7-1.1,1.8-1.7,3.3-1.7c1.1,0,1.9,0.3,2.5,0.9c0.6,0.6,0.9,1.5,0.9,2.6V51.4z"/>
	<path class="st1" d="M168.5,51.4c0,1.4-0.4,2.5-1.1,3.3c-0.8,0.8-2,1.2-3.6,1.2c-1.1,0-2.2-0.1-3.3-0.4l0.3-1.6
		c0.9,0.2,1.8,0.3,2.6,0.3c1,0,1.8-0.2,2.3-0.7c0.5-0.4,0.8-1.1,0.8-2v-1.6c-0.7,1-1.7,1.6-3,1.6s-2.3-0.4-3.1-1.3
		c-0.8-0.9-1.1-2.2-1.1-4.1c0-1.7,0.4-3.1,1.2-4c0.8-1,1.9-1.5,3.1-1.5c1.3,0,2.2,0.4,2.9,1.1v-0.9h2L168.5,51.4L168.5,51.4z
		 M166.5,46.5v-3.2c-0.7-0.7-1.4-1-2.3-1c-0.8,0-1.5,0.3-2,1s-0.7,1.6-0.7,2.8c0,2.5,0.8,3.7,2.5,3.7c0.8,0,1.4-0.3,1.8-0.9
		C166.2,48.3,166.5,47.5,166.5,46.5z"/>
	<path class="st1" d="M185.5,51.4h-2V50c-0.7,1.1-1.7,1.6-3.1,1.6c-1.3,0-2.3-0.5-3.1-1.4s-1.1-2.3-1.1-4.1s0.4-3.1,1.3-4.1
		s1.9-1.5,3.2-1.5c1.2,0,2.2,0.3,2.8,1v-5.6h2L185.5,51.4L185.5,51.4z M183.5,46.5v-3.3c-0.7-0.7-1.4-1-2.3-1c-0.8,0-1.5,0.3-2,1
		s-0.7,1.6-0.7,2.9c0,2.5,0.8,3.8,2.5,3.8c0.8,0,1.4-0.3,1.9-0.9S183.5,47.6,183.5,46.5z"/>
	<path class="st1" d="M197.1,45.5c0,0.4,0,0.8,0,1.2h-6.8c0.2,2.2,1.2,3.3,3.2,3.3c0.9,0,1.7-0.1,2.5-0.3l0.4,1.6
		c-0.9,0.3-1.9,0.4-3.2,0.4c-1.6,0-2.8-0.5-3.7-1.5s-1.3-2.3-1.3-4.1c0-1.7,0.4-3,1.2-4.1c0.8-1,2-1.5,3.5-1.5
		c1.4,0,2.5,0.4,3.2,1.3C196.8,42.6,197.1,43.8,197.1,45.5z M195,45.2v-0.5c0-1.8-0.7-2.8-2.2-2.8c-1.6,0-2.4,1.1-2.5,3.2L195,45.2
		L195,45.2z"/>
	<path class="st1" d="M205.4,42.7c-0.2,0-0.5-0.1-0.7-0.1c-0.9,0-1.7,0.3-2.2,0.9c-0.5,0.6-0.8,1.3-0.8,2.1v5.8h-2V40.7h2v2
		c0.3-0.6,0.7-1.1,1.2-1.5s1.1-0.6,1.8-0.6c0.3,0,0.5,0,0.8,0.1v2H205.4z"/>
</g>
<g>
	<path class="st1" d="M103.6,162.1h-5.2v-1c0.4-0.6,1-1.5,1.9-2.6c0.3-0.4,0.9-1.1,1.6-2h-3.4v-1h4.9v1c-0.7,0.9-1.4,1.6-1.9,2.3
		c-0.8,1-1.4,1.7-1.8,2.3h3.8L103.6,162.1L103.6,162.1z"/>
	<path class="st1" d="M110,162.1h-1.2v-0.9c-0.4,0.7-1.1,1.1-2.1,1.1c-0.7,0-1.2-0.2-1.6-0.6c-0.4-0.4-0.5-0.9-0.5-1.6v-4.5h1.3v4.3
		c0,0.5,0.1,0.8,0.3,1.1s0.5,0.3,0.9,0.3c0.5,0,0.9-0.2,1.2-0.5c0.3-0.4,0.5-0.8,0.5-1.3v-3.8h1.3v6.4H110z"/>
	<path class="st1" d="M115.2,156.8c-0.1,0-0.3,0-0.5,0c-0.6,0-1,0.2-1.4,0.6c-0.3,0.4-0.5,0.8-0.5,1.3v3.6h-1.3v-6.6h1.2v1.2
		c0.2-0.4,0.4-0.7,0.8-0.9c0.3-0.2,0.7-0.4,1.1-0.4c0.2,0,0.3,0,0.5,0v1.2H115.2z"/>
	<path class="st1" d="M124.6,154.2h-3.8v2.6h3.2v1.1h-3.2v4.3h-1.3v-9h5.1C124.6,153.2,124.6,154.2,124.6,154.2z"/>
	<path class="st1" d="M130.5,158.9c0,1-0.3,1.8-0.8,2.5c-0.5,0.6-1.3,1-2.2,1c-0.9,0-1.7-0.3-2.2-1c-0.5-0.6-0.8-1.5-0.8-2.5
		s0.3-1.9,0.8-2.5s1.2-0.9,2.2-0.9s1.7,0.3,2.2,0.9S130.5,157.8,130.5,158.9z M126.8,153.5c0.1,0.1,0.2,0.3,0.2,0.5
		s-0.1,0.4-0.2,0.5s-0.3,0.2-0.6,0.2c-0.2,0-0.4-0.1-0.5-0.2c-0.1-0.1-0.2-0.3-0.2-0.5s0.1-0.4,0.2-0.5s0.3-0.2,0.5-0.2
		C126.5,153.3,126.7,153.3,126.8,153.5z M129.2,158.9c0-0.7-0.1-1.3-0.4-1.8c-0.3-0.4-0.7-0.7-1.2-0.7c-0.6,0-1,0.2-1.2,0.7
		c-0.3,0.4-0.4,1-0.4,1.8c0,0.7,0.1,1.3,0.4,1.8c0.3,0.4,0.7,0.7,1.2,0.7C128.6,161.3,129.2,160.5,129.2,158.9z M129.4,153.5
		c0.1,0.1,0.2,0.3,0.2,0.5s-0.1,0.4-0.2,0.5s-0.3,0.2-0.6,0.2c-0.2,0-0.4-0.1-0.5-0.2c-0.1-0.1-0.2-0.3-0.2-0.5s0.1-0.4,0.2-0.5
		c0.1-0.1,0.3-0.2,0.5-0.2C129.1,153.3,129.3,153.3,129.4,153.5z"/>
	<path class="st1" d="M135.4,156.8c-0.1,0-0.3,0-0.5,0c-0.6,0-1,0.2-1.4,0.6c-0.3,0.4-0.5,0.8-0.5,1.3v3.6h-1.3v-6.6h1.2v1.2
		c0.2-0.4,0.4-0.7,0.8-0.9c0.3-0.2,0.7-0.4,1.1-0.4c0.2,0,0.3,0,0.5,0L135.4,156.8L135.4,156.8z"/>
	<path class="st1" d="M141.4,162.1h-1.2v-0.8c-0.4,0.6-1.1,1-1.9,1c-0.8,0-1.4-0.3-1.9-0.8c-0.5-0.6-0.7-1.4-0.7-2.5
		s0.3-1.9,0.8-2.5s1.2-0.9,2-0.9s1.3,0.2,1.7,0.6v-3.5h1.3v9.4H141.4z M140.1,159.2v-2c-0.4-0.4-0.9-0.6-1.4-0.6s-0.9,0.2-1.2,0.6
		s-0.5,1-0.5,1.8c0,1.6,0.5,2.3,1.5,2.3c0.5,0,0.9-0.2,1.2-0.6C140,160.3,140.1,159.8,140.1,159.2z"/>
	<path class="st1" d="M148.3,158.5c0,0.2,0,0.5,0,0.8H144c0.1,1.4,0.8,2.1,2,2.1c0.5,0,1.1-0.1,1.6-0.2l0.2,1
		c-0.5,0.2-1.2,0.2-2,0.2c-1,0-1.8-0.3-2.3-0.9c-0.6-0.6-0.8-1.5-0.8-2.5s0.3-1.9,0.8-2.5s1.2-0.9,2.2-0.9c0.9,0,1.5,0.3,2,0.8
		C148,156.7,148.3,157.5,148.3,158.5z M146.9,158.3V158c0-1.1-0.5-1.7-1.4-1.7c-1,0-1.5,0.7-1.6,2H146.9z"/>
	<path class="st1" d="M153.1,156.8c-0.1,0-0.3,0-0.5,0c-0.6,0-1,0.2-1.4,0.6c-0.3,0.4-0.5,0.8-0.5,1.3v3.6h-1.3v-6.6h1.2v1.2
		c0.2-0.4,0.4-0.7,0.8-0.9c0.3-0.2,0.7-0.4,1.1-0.4c0.2,0,0.3,0,0.5,0L153.1,156.8L153.1,156.8z"/>
	<path class="st1" d="M159.2,162.1H158v-0.9c-0.4,0.7-1.1,1.1-2.1,1.1c-0.7,0-1.2-0.2-1.6-0.6c-0.4-0.4-0.5-0.9-0.5-1.6v-4.5h1.3
		v4.3c0,0.5,0.1,0.8,0.3,1.1c0.2,0.2,0.5,0.3,0.9,0.3c0.5,0,0.9-0.2,1.2-0.5s0.5-0.8,0.5-1.3v-3.8h1.3L159.2,162.1L159.2,162.1z"/>
	<path class="st1" d="M166.2,162.1h-1.3v-4.2c0-1-0.4-1.4-1.3-1.4c-0.5,0-0.8,0.2-1.2,0.5c-0.3,0.4-0.5,0.8-0.5,1.3v3.8h-1.3v-6.6
		h1.2v0.9c0.4-0.7,1.1-1.1,2.1-1.1c0.7,0,1.2,0.2,1.6,0.6c0.4,0.4,0.6,0.9,0.6,1.6L166.2,162.1L166.2,162.1z"/>
	<path class="st1" d="M173.2,162.2c0,0.9-0.2,1.6-0.7,2c-0.5,0.5-1.2,0.7-2.2,0.7c-0.7,0-1.4-0.1-2-0.2l0.2-1
		c0.6,0.1,1.1,0.2,1.6,0.2c0.7,0,1.1-0.1,1.4-0.4c0.3-0.3,0.5-0.7,0.5-1.3v-1c-0.4,0.6-1,1-1.9,1c-0.8,0-1.4-0.3-1.9-0.8
		s-0.7-1.4-0.7-2.5s0.3-1.9,0.8-2.5s1.2-0.9,1.9-0.9c0.8,0,1.4,0.2,1.8,0.7v-0.6h1.2L173.2,162.2L173.2,162.2z M171.9,159.1v-2
		c-0.4-0.4-0.9-0.6-1.4-0.6s-0.9,0.2-1.2,0.6s-0.5,1-0.5,1.7c0,1.5,0.5,2.3,1.5,2.3c0.5,0,0.9-0.2,1.1-0.6S171.9,159.7,171.9,159.1z
		"/>
	<path class="st1" d="M183.4,155.6c-0.7,2.4-1.5,4.6-2.5,6.6h-1.3c-0.8-1.8-1.7-4-2.5-6.6h1.3c0.5,1.9,1.1,3.6,1.8,5.2
		c0.7-1.7,1.3-3.4,1.8-5.2H183.4z"/>
	<path class="st1" d="M189.7,158.9c0,1-0.3,1.8-0.8,2.5s-1.3,1-2.2,1s-1.7-0.3-2.2-1c-0.5-0.6-0.8-1.5-0.8-2.5s0.3-1.9,0.8-2.5
		s1.2-0.9,2.2-0.9s1.7,0.3,2.2,0.9S189.7,157.8,189.7,158.9z M188.3,158.9c0-0.7-0.1-1.3-0.4-1.8c-0.3-0.4-0.7-0.7-1.2-0.7
		c-0.6,0-1,0.2-1.2,0.7s-0.4,1-0.4,1.8c0,0.7,0.1,1.3,0.4,1.8s0.7,0.7,1.2,0.7C187.8,161.3,188.3,160.5,188.3,158.9z"/>
	<path class="st1" d="M196.4,162.1h-1.3v-4.2c0-1-0.4-1.4-1.3-1.4c-0.5,0-0.8,0.2-1.2,0.5c-0.3,0.4-0.5,0.8-0.5,1.3v3.8h-1.3v-6.6
		h1.2v0.9c0.4-0.7,1.1-1.1,2.1-1.1c0.7,0,1.2,0.2,1.6,0.6c0.4,0.4,0.6,0.9,0.6,1.6L196.4,162.1L196.4,162.1z"/>
</g>
<g>
	<path class="st1" d="M105.9,176.8h-1.6c-1.2-1.7-2.5-3.1-3.8-4.3v4.3h-1.3v-9h1.3v3.8l3.5-3.8h1.6l-3.9,4.2
		c0.8,0.6,1.5,1.3,2.3,2.2C104.6,175.1,105.3,176,105.9,176.8z"/>
	<path class="st1" d="M111.9,176.8h-1.2v-0.9c-0.4,0.7-1.1,1.1-2.1,1.1c-0.7,0-1.2-0.2-1.6-0.6c-0.4-0.4-0.5-0.9-0.5-1.6v-4.5h1.3
		v4.3c0,0.5,0.1,0.8,0.3,1.1s0.5,0.3,0.9,0.3c0.5,0,0.9-0.2,1.2-0.5c0.3-0.4,0.5-0.8,0.5-1.3v-3.8h1.3v6.4H111.9z"/>
	<path class="st1" d="M118.9,176.8h-1.3v-4.2c0-1-0.4-1.4-1.3-1.4c-0.5,0-0.8,0.2-1.2,0.5c-0.3,0.4-0.5,0.8-0.5,1.3v3.8h-1.3v-6.6
		h1.2v0.9c0.4-0.7,1.1-1.1,2.1-1.1c0.7,0,1.2,0.2,1.6,0.6s0.6,0.9,0.6,1.6v4.6H118.9z"/>
	<path class="st1" d="M125,175c0,0.7-0.2,1.1-0.7,1.5c-0.5,0.3-1.1,0.5-2,0.5s-1.7-0.2-2.3-0.5l0.3-0.9c0.7,0.3,1.3,0.4,1.9,0.4
		c1,0,1.5-0.3,1.5-0.9c0-0.1,0-0.2,0-0.2c0-0.1-0.1-0.1-0.1-0.2c0-0.1-0.1-0.1-0.2-0.2s-0.1-0.1-0.2-0.1s-0.1-0.1-0.3-0.1
		c-0.1,0-0.2-0.1-0.3-0.1s-0.2-0.1-0.3-0.1c-0.1,0-0.3-0.1-0.3-0.1c-0.6-0.2-1.1-0.4-1.4-0.7s-0.5-0.6-0.5-1.2
		c0-0.6,0.2-1.1,0.7-1.4c0.4-0.3,1-0.5,1.8-0.5c0.7,0,1.4,0.1,2,0.3v1c-0.6-0.2-1.2-0.3-1.9-0.3c-0.8,0-1.3,0.3-1.3,0.8
		c0,0.2,0.1,0.4,0.3,0.6c0.2,0.1,0.6,0.3,1.1,0.5h0.1c0.7,0.2,1.2,0.5,1.5,0.7C124.8,174,125,174.4,125,175z"/>
	<path class="st1" d="M129.6,176.8c-0.5,0.1-0.9,0.2-1.4,0.2c-1.2,0-1.8-0.6-1.8-2v-3.8h-1v-1h1v-1.5c0.4-0.1,0.8-0.3,1.3-0.6v2h1.7
		v1h-1.7v3.6c0,0.4,0.1,0.7,0.2,0.8c0.1,0.2,0.4,0.3,0.7,0.3s0.6,0,0.9-0.1L129.6,176.8z"/>
	<path class="st1" d="M136.7,173.8h-3.2v-1.3h3.2V173.8z"/>
	<path class="st1" d="M148.3,176.8h-1.6c-1.2-1.7-2.5-3.1-3.8-4.3v4.3h-1.3v-9h1.3v3.8l3.5-3.8h1.6l-3.9,4.2
		c0.8,0.6,1.5,1.3,2.3,2.2C147.1,175.1,147.8,176,148.3,176.8z"/>
	<path class="st1" d="M154.3,176.8h-1.2v-0.9c-0.4,0.7-1.1,1.1-2.1,1.1c-0.7,0-1.2-0.2-1.6-0.6c-0.4-0.4-0.5-0.9-0.5-1.6v-4.5h1.3
		v4.3c0,0.5,0.1,0.8,0.3,1.1c0.2,0.2,0.5,0.3,0.9,0.3c0.5,0,0.9-0.2,1.2-0.5s0.5-0.8,0.5-1.3v-3.8h1.3L154.3,176.8L154.3,176.8z"/>
	<path class="st1" d="M157.3,176.8H156v-8.6c-0.2,0-0.5-0.1-0.9-0.1v-0.8h2.1L157.3,176.8L157.3,176.8z"/>
	<path class="st1" d="M162.4,176.8c-0.5,0.1-0.9,0.2-1.4,0.2c-1.2,0-1.8-0.6-1.8-2v-3.8h-1v-1h1v-1.5c0.4-0.1,0.8-0.3,1.3-0.6v2h1.7
		v1h-1.7v3.6c0,0.4,0.1,0.7,0.2,0.8c0.1,0.2,0.4,0.3,0.7,0.3s0.6,0,0.9-0.1L162.4,176.8z"/>
	<path class="st1" d="M168.4,176.8h-1.2v-0.9c-0.4,0.7-1.1,1.1-2.1,1.1c-0.7,0-1.2-0.2-1.6-0.6c-0.4-0.4-0.5-0.9-0.5-1.6v-4.5h1.3
		v4.3c0,0.5,0.1,0.8,0.3,1.1c0.2,0.2,0.5,0.3,0.9,0.3c0.5,0,0.9-0.2,1.2-0.5s0.5-0.8,0.5-1.3v-3.8h1.3L168.4,176.8L168.4,176.8z"/>
	<path class="st1" d="M173.6,171.5c-0.1,0-0.3,0-0.5,0c-0.6,0-1,0.2-1.4,0.6c-0.3,0.4-0.5,0.8-0.5,1.3v3.6H170v-6.6h1.2v1.2
		c0.2-0.4,0.4-0.7,0.8-0.9c0.3-0.2,0.7-0.4,1.1-0.4c0.2,0,0.3,0,0.5,0V171.5z"/>
	<path class="st1" d="M180.6,173.8h-3.2v-1.3h3.2V173.8z"/>
	<path class="st1" d="M191.2,169c0.7,0.8,1.1,1.9,1.1,3.4s-0.4,2.6-1.1,3.4c-0.7,0.8-1.7,1.1-3,1.1h-2.7v-9h2.7
		C189.5,167.8,190.5,168.2,191.2,169z M190.2,174.9c0.5-0.6,0.7-1.4,0.7-2.6s-0.2-2-0.7-2.6s-1.1-0.9-2-0.9h-1.4v6.9h1.4
		C189,175.8,189.7,175.5,190.2,174.9z"/>
	<path class="st1" d="M198.9,173.2c0,0.2,0,0.5,0,0.8h-4.2c0.1,1.4,0.8,2.1,2,2.1c0.5,0,1.1-0.1,1.6-0.2l0.2,1
		c-0.5,0.2-1.2,0.2-2,0.2c-1,0-1.8-0.3-2.3-0.9s-0.8-1.5-0.8-2.5s0.3-1.9,0.8-2.5s1.2-0.9,2.2-0.9c0.9,0,1.5,0.3,2,0.8
		S198.9,172.2,198.9,173.2z M197.5,173v-0.3c0-1.1-0.5-1.7-1.4-1.7c-1,0-1.5,0.7-1.6,2H197.5z"/>
	<path class="st1" d="M205.5,176.8h-1.3v-4.2c0-1-0.4-1.4-1.3-1.4c-0.5,0-0.8,0.2-1.2,0.5c-0.3,0.4-0.5,0.8-0.5,1.3v3.8h-1.3v-6.6
		h1.2v0.9c0.4-0.7,1.1-1.1,2.1-1.1c0.7,0,1.2,0.2,1.6,0.6c0.4,0.4,0.6,0.9,0.6,1.6L205.5,176.8L205.5,176.8z"/>
	<path class="st1" d="M212.6,176.8H211c-0.9-1.3-1.8-2.4-2.7-3.2v3.2H207v-9.6h1.3v5.5l2.5-2.5h1.5l-2.8,2.8
		C210.5,174,211.6,175.2,212.6,176.8z"/>
	<path class="st1" d="M222.2,176.8h-1.3v-4.3c0-0.5-0.1-0.8-0.3-1s-0.5-0.3-0.8-0.3c-0.4,0-0.8,0.2-1.1,0.5s-0.4,0.8-0.4,1.3v3.9
		H217v-4.3c0-0.5-0.1-0.8-0.3-1s-0.5-0.3-0.8-0.3c-0.4,0-0.8,0.2-1.1,0.5s-0.4,0.8-0.4,1.3v3.9h-1.3v-6.6h1.2v0.9
		c0.4-0.7,1.1-1,1.9-1c0.9,0,1.5,0.4,1.8,1.1c0.5-0.7,1.2-1.1,2.1-1.1c0.6,0,1.1,0.2,1.5,0.5s0.5,0.9,0.5,1.5v4.5H222.2z"/>
	<path class="st1" d="M228.4,176.8h-1.2v-0.6c-0.2,0.2-0.4,0.3-0.8,0.5c-0.3,0.1-0.7,0.2-1.1,0.2c-0.6,0-1.1-0.2-1.5-0.5
		s-0.6-0.8-0.6-1.5c0-1,0.5-1.6,1.4-2c0.5-0.2,1.1-0.3,1.9-0.3c0,0,0.1,0,0.3,0s0.3,0,0.3,0v-0.4c0-0.4-0.1-0.7-0.3-0.9
		s-0.6-0.3-1.2-0.3c-0.6,0-1.2,0.1-1.8,0.4v-1c0.7-0.2,1.4-0.3,2.1-0.3c0.9,0,1.5,0.2,1.9,0.5s0.6,0.9,0.6,1.7L228.4,176.8
		L228.4,176.8z M227.2,175.4v-1.8h-0.5c-0.8,0-1.3,0.1-1.7,0.3c-0.3,0.2-0.5,0.5-0.5,1c0,0.3,0.1,0.6,0.3,0.8s0.5,0.3,0.9,0.3
		C226.3,176,226.8,175.8,227.2,175.4z"/>
	<path class="st1" d="M231.3,176.8H230v-8.6c-0.2,0-0.5-0.1-0.9-0.1v-0.8h2.1L231.3,176.8L231.3,176.8z"/>
	<path class="st1" d="M238.7,173.5c0,1.1-0.2,2-0.7,2.6s-1.2,0.9-2.1,0.9c-0.7,0-1.2-0.2-1.7-0.5v3h-1.3v-9.2h1.2v1
		c0.4-0.7,1-1.1,2-1.1c0.8,0,1.4,0.3,1.9,0.9C238.5,171.6,238.7,172.4,238.7,173.5z M237.3,173.5c0-1.5-0.5-2.3-1.5-2.3
		c-0.5,0-0.9,0.2-1.2,0.7s-0.4,1-0.4,1.8v1.7c0.4,0.4,0.9,0.6,1.4,0.6c0.8,0,1.3-0.4,1.6-1.1C237.3,174.4,237.3,174,237.3,173.5z"/>
	<path class="st1" d="M243.3,168.3c-0.3-0.1-0.7-0.1-1-0.1c-0.4,0-0.7,0.1-0.8,0.3c-0.2,0.2-0.2,0.5-0.2,0.9v0.9h1.5v1h-1.5v5.6H240
		v-5.6h-0.8v-1h0.8v-1.1c0-0.7,0.2-1.2,0.5-1.5c0.4-0.3,0.8-0.5,1.5-0.5c0.5,0,0.9,0,1.3,0.1V168.3z"/>
	<path class="st1" d="M245.1,176.8h-1.3v-8.6c-0.2,0-0.5-0.1-0.9-0.1v-0.8h2.1L245.1,176.8L245.1,176.8z"/>
	<path class="st1" d="M252,173.2c0,0.2,0,0.5,0,0.8h-4.2c0.1,1.4,0.8,2.1,2,2.1c0.5,0,1.1-0.1,1.6-0.2l0.2,1c-0.5,0.2-1.2,0.2-2,0.2
		c-1,0-1.8-0.3-2.3-0.9s-0.8-1.5-0.8-2.5s0.3-1.9,0.8-2.5s1.2-0.9,2.2-0.9c0.9,0,1.5,0.3,2,0.8S252,172.2,252,173.2z M250.7,173
		v-0.3c0-1.1-0.5-1.7-1.4-1.7c-1,0-1.5,0.7-1.6,2H250.7z"/>
	<path class="st1" d="M258.6,176.9c0,0.9-0.2,1.6-0.7,2c-0.5,0.5-1.2,0.7-2.2,0.7c-0.7,0-1.4-0.1-2-0.2l0.2-1
		c0.6,0.1,1.1,0.2,1.6,0.2c0.7,0,1.1-0.1,1.4-0.4c0.3-0.3,0.5-0.7,0.5-1.3v-1c-0.4,0.6-1,1-1.9,1c-0.8,0-1.4-0.3-1.9-0.8
		s-0.7-1.4-0.7-2.5s0.3-1.9,0.8-2.5s1.2-0.9,1.9-0.9c0.8,0,1.4,0.2,1.8,0.7v-0.6h1.2V176.9z M257.4,173.8v-2
		c-0.4-0.4-0.9-0.6-1.4-0.6s-0.9,0.2-1.2,0.6s-0.5,1-0.5,1.7c0,1.5,0.5,2.3,1.5,2.3c0.5,0,0.9-0.2,1.1-0.6S257.4,174.4,257.4,173.8z
		"/>
	<path class="st1" d="M265.5,173.2c0,0.2,0,0.5,0,0.8h-4.2c0.1,1.4,0.8,2.1,2,2.1c0.5,0,1.1-0.1,1.6-0.2l0.2,1
		c-0.5,0.2-1.2,0.2-2,0.2c-1,0-1.8-0.3-2.3-0.9s-0.8-1.5-0.8-2.5s0.3-1.9,0.8-2.5s1.2-0.9,2.2-0.9c0.9,0,1.5,0.3,2,0.8
		S265.5,172.2,265.5,173.2z M264.2,173v-0.3c0-1.1-0.5-1.7-1.4-1.7c-1,0-1.5,0.7-1.6,2H264.2z"/>
</g>
<g>
	<path class="st1" d="M115.4,87.5c0,2.4-0.8,4.3-2.5,5.7c-1.7,1.3-4,2-7,2c-3.3,0-6.1-0.6-8.4-1.7l1.1-3.1c0.6,0.3,1.6,0.6,2.9,1
		s2.7,0.5,4,0.5c3.9,0,5.8-1.5,5.8-4.4c0-0.5-0.1-1-0.3-1.5c-0.2-0.5-0.5-0.8-0.7-1.1c-0.3-0.3-0.7-0.6-1.3-0.9
		c-0.6-0.3-1.1-0.5-1.4-0.7c-0.3-0.1-0.9-0.4-1.7-0.7c-0.3-0.1-0.5-0.2-0.6-0.2c-0.7-0.3-1.1-0.4-1.3-0.5c-0.2-0.1-0.6-0.3-1.3-0.6
		c-0.6-0.3-1.1-0.5-1.4-0.8c-0.3-0.2-0.6-0.5-1.1-0.9s-0.8-0.8-1-1.2c-0.2-0.4-0.4-0.9-0.6-1.5s-0.3-1.2-0.3-1.9
		c0-2.3,0.8-4.1,2.4-5.4s3.8-2,6.6-2c2.1,0,4.3,0.3,6.6,1V72c-2.1-0.8-4.3-1.2-6.6-1.2c-1.7,0-3,0.3-3.9,1s-1.4,1.7-1.4,2.9
		c0,0.4,0.1,0.8,0.2,1.1c0.1,0.3,0.3,0.6,0.6,1c0.3,0.3,0.6,0.5,0.8,0.7c0.2,0.2,0.6,0.4,1.3,0.7c0.6,0.3,1.1,0.5,1.4,0.6
		s0.8,0.3,1.7,0.6c0.9,0.4,1.7,0.7,2.3,0.9c0.6,0.2,1.2,0.6,2,1.1c0.7,0.5,1.3,0.9,1.7,1.5c0.4,0.5,0.8,1.2,1,1.9
		C115.2,85.6,115.4,86.5,115.4,87.5z"/>
	<path class="st1" d="M136.8,84.8c0,3.3-0.7,5.8-2.2,7.6c-1.4,1.8-3.5,2.7-6.2,2.7c-2,0-3.6-0.5-4.9-1.6v8.9h-3.7v-27h3.6l0.1,2.8
		c1.1-2.1,3-3.2,5.8-3.2c2.4,0,4.2,0.8,5.6,2.5C136.1,79.2,136.8,81.6,136.8,84.8z M132.8,84.8c0-4.5-1.5-6.7-4.5-6.7
		c-1.5,0-2.6,0.7-3.5,2c-0.8,1.3-1.2,3.1-1.2,5.2v5c1.2,1.2,2.6,1.8,4.1,1.8c2.3,0,3.9-1.1,4.6-3.4
		C132.6,87.6,132.8,86.3,132.8,84.8z"/>
	<path class="st1" d="M155.6,94.7h-3.5l-0.1-1.6c-0.5,0.5-1.3,1-2.3,1.4s-2.1,0.6-3.3,0.6c-1.8,0-3.2-0.5-4.3-1.4s-1.7-2.4-1.7-4.4
		c0-2.9,1.3-4.8,4-5.8c1.4-0.5,3.2-0.8,5.5-0.9c0.1,0,0.4,0,1,0s0.9,0,1,0v-1c0-1.3-0.3-2.2-1-2.8c-0.7-0.6-1.8-0.9-3.5-0.9
		c-1.6,0-3.4,0.4-5.4,1.1v-3c2.1-0.6,4.1-0.9,6.1-0.9c2.6,0,4.5,0.5,5.7,1.5s1.8,2.6,1.8,4.9V94.7z M151.9,90.4v-5.2h-1.4
		c-2.2,0-3.8,0.3-4.9,0.9c-1,0.6-1.5,1.6-1.5,3c0,0.9,0.3,1.7,0.8,2.3c0.5,0.6,1.4,0.9,2.5,0.9C149.3,92.2,150.8,91.6,151.9,90.4z"
		/>
	<path class="st1" d="M172,78.9c-0.4-0.1-0.8-0.1-1.3-0.1c-1.7,0-3,0.6-4,1.7s-1.5,2.4-1.5,3.8v10.5h-3.7V75.4h3.6L165,79
		c0.6-1.1,1.3-2.1,2.3-2.8c0.9-0.7,2-1,3.2-1c0.5,0,1,0,1.5,0.1V78.9z"/>
	<path class="st1" d="M191.5,94.7h-4.7c-2.6-3.8-5.3-7-7.9-9.5v9.5h-3.7V66.6h3.7v16.2l7.2-7.5h4.5l-8.1,8.4
		C185.4,86.2,188.4,89.9,191.5,94.7z"/>
	<path class="st1" d="M208.1,94.7h-3.5l-0.1-1.6c-0.5,0.5-1.3,1-2.3,1.4s-2.1,0.6-3.3,0.6c-1.8,0-3.2-0.5-4.3-1.4s-1.7-2.4-1.7-4.4
		c0-2.9,1.3-4.8,4-5.8c1.4-0.5,3.2-0.8,5.5-0.9c0.1,0,0.4,0,1,0s0.9,0,1,0v-1c0-1.3-0.3-2.2-1-2.8c-0.7-0.6-1.8-0.9-3.5-0.9
		c-1.6,0-3.4,0.4-5.4,1.1v-3c2.1-0.6,4.1-0.9,6.1-0.9c2.6,0,4.5,0.5,5.7,1.5s1.8,2.6,1.8,4.9V94.7z M204.4,90.4v-5.2H203
		c-2.2,0-3.8,0.3-4.9,0.9s-1.5,1.6-1.5,3c0,0.9,0.3,1.7,0.8,2.3c0.5,0.6,1.4,0.9,2.5,0.9C201.8,92.2,203.3,91.6,204.4,90.4z"/>
	<path class="st1" d="M227.1,89.2c0,1.9-0.7,3.4-2.1,4.4c-1.4,1-3.3,1.5-5.7,1.5c-2.7,0-5-0.4-6.9-1.3l1-2.8c2,0.8,3.8,1.1,5.7,1.1
		c2.9,0,4.3-0.9,4.3-2.6c0-0.3,0-0.5-0.1-0.7s-0.2-0.4-0.3-0.5c-0.1-0.2-0.3-0.3-0.5-0.5s-0.4-0.3-0.6-0.4c-0.2-0.1-0.4-0.2-0.8-0.3
		c-0.3-0.1-0.6-0.2-0.8-0.3c-0.2-0.1-0.5-0.2-0.9-0.3c-0.4-0.1-0.8-0.2-1-0.3c-1.8-0.6-3.2-1.3-4.1-2.1c-0.9-0.8-1.4-1.9-1.4-3.4
		c0-1.8,0.6-3.2,1.9-4.2c1.3-1,3-1.5,5.2-1.5c2.1,0,4.1,0.3,5.8,0.8v3.1c-1.8-0.6-3.6-0.9-5.5-0.9c-2.5,0-3.7,0.8-3.7,2.4
		c0,0.7,0.3,1.3,1,1.6s1.8,0.8,3.4,1.3c0.1,0,0.2,0.1,0.3,0.1c2,0.6,3.5,1.3,4.4,2.1C226.6,86.3,227.1,87.6,227.1,89.2z"/>
	<path class="st1" d="M244.7,89.2c0,1.9-0.7,3.4-2.1,4.4c-1.4,1-3.3,1.5-5.7,1.5c-2.7,0-5-0.4-6.9-1.3l1-2.8c2,0.8,3.8,1.1,5.7,1.1
		c2.9,0,4.3-0.9,4.3-2.6c0-0.3,0-0.5-0.1-0.7s-0.2-0.4-0.3-0.5c-0.1-0.2-0.3-0.3-0.5-0.5s-0.4-0.3-0.6-0.4c-0.2-0.1-0.4-0.2-0.8-0.3
		c-0.3-0.1-0.6-0.2-0.8-0.3c-0.2-0.1-0.5-0.2-0.9-0.3c-0.4-0.1-0.8-0.2-1-0.3c-1.8-0.6-3.2-1.3-4.1-2.1c-0.9-0.8-1.4-1.9-1.4-3.4
		c0-1.8,0.6-3.2,1.9-4.2c1.3-1,3-1.5,5.2-1.5c2.1,0,4.1,0.3,5.8,0.8v3.1c-1.8-0.6-3.6-0.9-5.5-0.9c-2.5,0-3.7,0.8-3.7,2.4
		c0,0.7,0.3,1.3,1,1.6s1.8,0.8,3.4,1.3c0.1,0,0.2,0.1,0.3,0.1c2,0.6,3.5,1.3,4.4,2.1C244.2,86.3,244.7,87.6,244.7,89.2z"/>
	<path class="st1" d="M264.8,83.9c0,0.6,0,1.4-0.1,2.3h-12.3c0.3,4,2.3,6,5.8,6c1.6,0,3.1-0.2,4.6-0.6l0.7,2.8
		c-1.6,0.5-3.5,0.7-5.9,0.7c-2.9,0-5.2-0.9-6.8-2.7c-1.6-1.8-2.4-4.3-2.4-7.4s0.7-5.5,2.2-7.4c1.5-1.8,3.6-2.8,6.3-2.8
		c2.6,0,4.5,0.8,5.8,2.3C264.2,78.8,264.8,81,264.8,83.9z M260.9,83.5v-0.9c0-3.3-1.3-5-4-5c-2.8,0-4.4,2-4.6,5.9H260.9z"/>
</g>
<g>
	<path class="st1" d="M117.8,127.4c0,2.3-0.8,4.2-2.3,5.7c-1.6,1.5-3.9,2.2-6.9,2.2h-8.8v-26.5h8.4c2.7,0,4.7,0.6,5.9,1.9
		c1.2,1.2,1.9,2.8,1.9,4.6c0,1.4-0.3,2.5-0.9,3.5s-1.5,1.6-2.5,2.1C116.1,121.7,117.8,123.9,117.8,127.4z M110.8,118.6
		c0.9-0.7,1.3-1.7,1.3-3c0-1.2-0.4-2.2-1.1-2.8c-0.7-0.6-2-0.9-3.8-0.9h-3.6v7.8h3.2C108.6,119.7,109.9,119.4,110.8,118.6z
		 M113.7,127.4c0-1.6-0.5-2.8-1.6-3.5c-1-0.7-2.7-1.1-4.9-1.1h-3.7v9.4h4.1C111.7,132.2,113.7,130.6,113.7,127.4z"/>
	<path class="st1" d="M136.8,135.3h-3.5l-0.1-1.6c-0.5,0.5-1.3,1-2.3,1.4s-2.1,0.6-3.3,0.6c-1.8,0-3.2-0.5-4.3-1.4
		c-1.1-0.9-1.7-2.4-1.7-4.4c0-2.9,1.3-4.8,4-5.8c1.4-0.5,3.2-0.8,5.5-0.9c0.1,0,0.4,0,1,0s0.9,0,1,0v-1c0-1.3-0.3-2.2-1-2.8
		c-0.7-0.6-1.8-0.9-3.5-0.9c-1.6,0-3.4,0.4-5.4,1.1v-3c2.1-0.6,4.1-0.9,6.1-0.9c2.6,0,4.5,0.5,5.7,1.5s1.8,2.6,1.8,4.9L136.8,135.3
		L136.8,135.3z M133.1,131v-5.2h-1.4c-2.2,0-3.8,0.3-4.9,0.9c-1,0.6-1.5,1.6-1.5,3c0,0.9,0.3,1.7,0.8,2.3s1.4,0.9,2.5,0.9
		C130.5,132.8,132,132.2,133.1,131z"/>
	<path class="st1" d="M169,135.3h-3.7v-12.5c0-1.4-0.3-2.4-0.8-3.1c-0.5-0.6-1.3-1-2.5-1s-2.3,0.5-3.2,1.5s-1.3,2.2-1.3,3.7v11.3
		h-3.7v-12.5c0-1.4-0.3-2.4-0.8-3.1c-0.5-0.6-1.3-1-2.5-1s-2.3,0.5-3.1,1.5s-1.3,2.2-1.3,3.7v11.3h-3.7V116h3.6l0.1,2.6
		c1.2-2,3.1-2.9,5.6-2.9c2.8,0,4.5,1.1,5.3,3.2c1.5-2.1,3.5-3.2,6-3.2c1.9,0,3.3,0.5,4.4,1.6c1,1.1,1.5,2.6,1.5,4.5L169,135.3
		L169,135.3z"/>
	<path class="st1" d="M191.7,125.4c0,3.3-0.7,5.8-2.2,7.6c-1.4,1.8-3.4,2.7-6,2.7c-2.2,0-3.9-0.7-5.1-2l-0.1,1.6h-3.6v-28.1h3.7
		v11.1c0.4-0.7,1.1-1.4,2.1-1.9s2.1-0.8,3.5-0.8c2.4,0,4.3,0.8,5.6,2.5C191.1,119.8,191.7,122.2,191.7,125.4z M187.8,125.4
		c0-4.5-1.5-6.7-4.5-6.7c-1.5,0-2.7,0.6-3.5,1.8c-0.8,1.2-1.2,2.9-1.2,5v4.9c1,1.5,2.5,2.3,4.3,2.3c1.7,0,2.9-0.6,3.7-1.9
		C187.4,129.5,187.8,127.7,187.8,125.4z"/>
	<path class="st1" d="M212.3,124.5c0,0.6,0,1.4-0.1,2.3h-12.3c0.3,4,2.3,6,5.8,6c1.6,0,3.1-0.2,4.6-0.6l0.7,2.8
		c-1.6,0.5-3.5,0.7-5.9,0.7c-2.9,0-5.2-0.9-6.8-2.7s-2.4-4.3-2.4-7.4s0.7-5.5,2.2-7.4c1.5-1.8,3.6-2.8,6.3-2.8
		c2.6,0,4.5,0.8,5.8,2.3C211.6,119.4,212.3,121.6,212.3,124.5z M208.4,124.1v-0.9c0-3.3-1.3-5-4-5c-2.8,0-4.4,2-4.6,5.9H208.4z"/>
	<path class="st1" d="M227.6,119.5c-0.4-0.1-0.8-0.1-1.3-0.1c-1.7,0-3,0.6-4,1.7s-1.5,2.4-1.5,3.8v10.5h-3.7V116h3.6l0.1,3.7
		c0.6-1.1,1.3-2.1,2.3-2.8c0.9-0.7,2-1,3.2-1c0.5,0,1,0,1.5,0.1v3.5H227.6z"/>
	<path class="st1" d="M246.4,135.3c0,2.6-0.7,4.6-2.1,6c-1.4,1.4-3.6,2.1-6.5,2.1c-2,0-4-0.2-6-0.7l0.6-2.8c1.6,0.4,3.2,0.6,4.7,0.6
		c1.9,0,3.3-0.4,4.2-1.2s1.4-2,1.4-3.7v-3c-1.2,1.9-3.1,2.8-5.5,2.8c-2.3,0-4.2-0.8-5.6-2.4s-2.1-4.1-2.1-7.4c0-3.1,0.8-5.6,2.3-7.4
		s3.4-2.7,5.7-2.7s4.1,0.7,5.3,2l0.1-1.6h3.6L246.4,135.3L246.4,135.3z M242.7,126.4v-5.8c-1.2-1.2-2.6-1.8-4.2-1.8
		c-1.5,0-2.7,0.6-3.6,1.8c-0.9,1.2-1.4,2.9-1.4,5.1c0,4.5,1.5,6.8,4.5,6.8c1.4,0,2.5-0.6,3.3-1.7
		C242.2,129.7,242.7,128.2,242.7,126.4z"/>
</g>
</svg>
