<?xml version="1.0" encoding="UTF-8" standalone="no"?>
<svg xmlns:dc="http://purl.org/dc/elements/1.1/" xmlns:cc="http://creativecommons.org/ns#" xmlns:rdf="http://www.w3.org/1999/02/22-rdf-syntax-ns#" xmlns:svg="http://www.w3.org/2000/svg" xmlns="http://www.w3.org/2000/svg" viewBox="0 0 217.62695 139.34961" height="139.34961" width="217.62695" xml:space="preserve" version="1.1" id="svg2"><metadata id="metadata8"><rdf:RDF><cc:Work rdf:about=""><dc:format>image/svg+xml</dc:format><dc:type rdf:resource="http://purl.org/dc/dcmitype/StillImage"/><dc:title/></cc:Work></rdf:RDF></metadata><defs id="defs6"><clipPath id="clipPath18" clipPathUnits="userSpaceOnUse"><path id="path20" d="M 0,1114.8 0,0 l 1741.01,0 0,1114.8 -1741.01,0 z"/></clipPath></defs><g transform="matrix(1.25,0,0,-1.25,-147,592.34961)" id="g10"><path id="path22" transform="matrix(0.8,0,0,-0.8,0,792)" d="m 227.0918,397.65039 c -14.19863,0 -25.83203,11.63303 -25.83203,25.83203 0,14.19863 11.6334,25.77539 25.83203,25.77539 14.19875,0 25.77539,-11.57676 25.77539,-25.77539 0,-14.199 -11.57664,-25.83203 -25.77539,-25.83203 z m 54.22656,0 c -14.19863,0 -25.83008,11.63303 -25.83008,25.83203 0,14.19863 11.63145,25.77539 25.83008,25.77539 14.19875,0 25.77734,-11.57676 25.77734,-25.77539 0,-14.199 -11.57859,-25.83203 -25.77734,-25.83203 z m -62.14453,7.75391 6.16992,0 18.07617,18.07812 -18.02148,18.01953 -6.28125,0 18.07617,-18.01953 -18.01953,-18.07812 z m 64.00195,0.0547 6.28125,0 -18.07617,18.07618 18.07617,18.02148 -6.22656,0 -18.02149,-18.02148 17.9668,-18.07618 z m -136.0332,47.96485 0,48.31445 8.45117,0 0,-11.48047 2.32422,-2.39453 11.62109,13.875 10.70508,0 -16.90234,-19.50976 15.2832,-15.63477 -11.19727,0 -11.83398,12.88867 0,-26.05859 -8.45117,0 z m 163.04297,0 0,48.31445 8.45117,0 0,-11.48047 2.32422,-2.39453 11.62109,13.875 10.70508,0 -16.9043,-19.50976 15.28321,-15.63477 -11.19727,0 -11.83203,12.88867 0,-26.05859 -8.45117,0 z m -54.43946,2.74609 0,10.42383 -5.91601,0 0,7.25391 5.91601,0 0,16.83203 c 0,7.25487 4.22514,11.62109 11.19727,11.62109 2.0425,0 3.87433,-0.35106 5.56445,-1.05469 l 0,-6.97265 c -1.12662,0.49262 -2.39504,0.77343 -4.01367,0.77344 -3.10012,0 -4.29687,-0.77443 -4.29687,-3.87305 l 0,-17.32617 8.31054,0 0,-7.25391 -8.31054,0 0,-10.42383 -8.45118,0 z m 92.11719,0 0,10.42383 -5.91406,0 0,7.25391 5.91406,0 0,16.83203 c 0,7.25487 4.22672,11.62109 11.19922,11.62109 2.0425,0 3.87445,-0.35106 5.56445,-1.05469 l 0,-6.97265 c -1.1275,0.49262 -2.39562,0.77343 -4.01562,0.77344 -3.09875,0 -4.29492,-0.77443 -4.29492,-3.87305 l 0,-17.32617 8.31054,0 0,-7.25391 -8.31054,0 0,-10.42383 -8.45313,0 z m -115.71289,9.85938 c -8.94387,0 -15.8457,3.734 -16.12695,3.875 l 0,31.83398 8.45117,0 0,-27.60937 c 1.90137,-0.352 4.15578,-0.63282 6.55078,-0.63282 7.67625,0 8.31055,3.30908 8.31055,6.40821 l 0,21.83398 8.38086,0 0,-21.1289 c 0,-9.15475 -5.77641,-14.58008 -15.56641,-14.58008 z m 57.25781,0 c -4.225,0 -7.81789,0.77528 -10.77539,1.97265 l 0,6.83203 c 2.60625,-1.05612 6.05821,-1.75976 10.28321,-1.75976 5.49375,0 7.46484,2.81539 7.46484,6.61914 -1.90125,-0.28275 -4.01352,-0.49219 -6.19727,-0.49219 -14.085,0 -15.14062,8.45027 -15.14062,11.05664 0,5.84625 3.94281,12.04297 15.07031,12.04297 10.91625,0 14.79102,-6.12691 14.79102,-11.83203 l 0,-9.50781 c 0,-9.64888 -5.49485,-14.93164 -15.4961,-14.93164 z m -93.81054,0.0723 c -10.70513,0 -16.6211,6.40874 -16.6211,18.09961 0,11.6915 5.91597,18.09961 16.6211,18.09961 10.70512,0 16.62304,-6.40811 16.62304,-18.09961 0,-11.69087 -5.91792,-18.09961 -16.62304,-18.09961 z m 0,6.97266 c 5,0 8.16992,1.82958 8.16992,11.12695 0,9.29638 -3.16992,11.12891 -8.16992,11.12891 -5,0 -8.16797,-1.83253 -8.16797,-11.12891 0,-9.29737 3.16797,-11.12695 8.16797,-11.12695 z m 95.7832,11.54883 c 1.90125,0 3.59352,0.21245 5.07226,0.42383 l 0,4.43554 c 0,3.24025 -1.69265,5.35352 -6.41015,5.35352 -4.4375,0 -6.6211,-1.97214 -6.62109,-5.63477 0,-2.88712 2.25398,-4.57812 7.95898,-4.57812 z m -56.03711,24.81445 0,21.53125 2.25,0 0,-21.53125 -2.25,0 z m 105.31055,0 0,21.53125 2.25,0 0,-4.75 1.9375,-2.09375 5.96875,6.84375 3,0 -7.5,-8.4375 6.65625,-7.15625 -3.0625,0 -7,7.65625 0,-13.59375 -2.25,0 z M 147,510.125 l 0,20.84375 6.53125,0 c 6.5,0 9.78125,-3.5 9.78125,-10.4375 0,-6.90625 -3.28125,-10.40625 -9.78125,-10.40625 l -6.53125,0 z m 55.15625,0 0,20.84375 2.25,0 0,-7 2.28125,-2.5 8.15625,9.5 2.96875,0 -9.65625,-11.09375 8.9375,-9.75 -3.03125,0 -9.65625,10.75 0,-10.75 -2.25,0 z m 116.5293,0 0,2.46875 2.5,0 0,-2.46875 -2.5,0 z m -76.0293,0.84375 0,4.40625 -2.71875,0 0,2.0625 2.71875,0 0,9.375 c 0,4 2.9375,4.40625 4.21875,4.40625 0.78125,0 1.46875,-0.15625 2.0625,-0.375 l 0,-2.125 c -0.46875,0.21875 -1.03125,0.375 -1.78125,0.375 -1.65625,0 -2.25,-0.59375 -2.25,-2.15625 l 0,-9.5 4.03125,0 0,-2.0625 -4.03125,0 0,-4.40625 -2.25,0 z m 113.56055,0 0,4.40625 -2.71875,0 0,2.0625 2.71875,0 0,9.375 c 0,4 2.9375,4.40625 4.21875,4.40625 0.78125,0 1.46875,-0.15625 2.0625,-0.375 l 0,-2.125 c -0.46875,0.21875 -1.03125,0.375 -1.78125,0.375 -1.65625,0 -2.25,-0.59375 -2.25,-2.15625 l 0,-9.5 4.03125,0 0,-2.0625 -4.03125,0 0,-4.40625 -2.25,0 z m -206.9668,1.25 4.125,0 c 5.3125,0 7.6875,2.5625 7.6875,8.3125 0,5.75 -2.375,8.3125 -7.6875,8.3125 l -4.125,0 0,-16.625 z m 22.4375,2.875 c -1.9375,0 -3.53125,0.40625 -4.6875,0.8125 l 0,2.1875 c 0.59375,-0.21875 2.3125,-0.75 4.5625,-0.75 2.8125,0 4.5625,0.9375 4.5625,3.875 0,0 -1.09375,-0.15625 -2.5,-0.15625 -1.4375,0 -8.15625,-0.0312 -8.15625,5.125 0,4.40625 4.5,5.03125 6.53125,5.03125 2.03125,0 6.40625,-0.625 6.40625,-4.9375 l 0,-4.6875 c 0,-4.25 -2.34375,-6.5 -6.71875,-6.5 z m 14.6875,0 c -4.0625,0 -5.53125,2.34375 -5.53125,4.53125 0,5.46875 8.375,3.0625 8.375,7.25 0,1.78125 -1.9375,2.15625 -3.5625,2.15625 -1.625,0 -3.25,-0.53125 -4.625,-1.375 l 0,2.375 c 1.125,0.625 2.65625,1.1875 4.71875,1.1875 3.5625,0 5.71875,-1.625 5.71875,-4.34375 0,-6.125 -8.375,-4.1875 -8.375,-7.25 0,-1.96875 1.9375,-2.375 3.53125,-2.375 1.625,0 2.90625,0.5625 3.75,1.0625 l 0,-2.25 c -1.03125,-0.5 -2.375,-0.96875 -4,-0.96875 z m 96.875,0 c -5.9375,0 -6.40625,3.78125 -6.40625,4.9375 l 0,16.71875 2.25,0 0,-6.125 c 1.25,0.375 2.53125,0.59375 3.875,0.59375 3.25,0 7.125,-1.34375 7.125,-7.84375 0,-7.1875 -4.28125,-8.28125 -6.84375,-8.28125 z m 24.9668,0 c -3.34375,0 -7.3125,1.40625 -7.3125,8.0625 0,6.65625 3.96875,8.0625 7.3125,8.0625 3.34375,0 7.34375,-1.40625 7.34375,-8.0625 0,-6.65625 -4,-8.0625 -7.34375,-8.0625 z m 22.3125,0 c -7.09375,0 -6.84375,6.625 -6.84375,8.28125 0,6.5 3.875,7.84375 7.125,7.84375 2.21875,0 4.0625,-0.375 5.5625,-1.09375 l 0,-2.3125 c -1.3125,0.78125 -3.0625,1.15625 -5.34375,1.15625 -3.21875,0 -4.78125,-1.34375 -5.0625,-4.46875 l 11.375,0 c 0,0 0.0625,-0.5 0.0625,-1.09375 0,-0.59375 0.21875,-8.3125 -6.875,-8.3125 z M 275.5,515.125 c -3.75,0 -6.75,1.15625 -7.5625,1.5 l 0,14.34375 2.25,0 0,-12.875 c 1.28125,-0.34375 3.15625,-0.75 5.3125,-0.8125 l 0,-2.15625 z m 25.0293,0 c -3.75,0 -6.75,1.15625 -7.5625,1.5 l 0,14.34375 2.25,0 0,-12.875 c 1.28125,-0.34375 3.15625,-0.75 5.3125,-0.8125 l 0,-2.15625 z m -82.06055,0.25 0,9.03125 c 0,4.34375 2.375,6.8125 6.53125,6.8125 4.15625,0 6.53125,-2.46875 6.53125,-6.8125 l 0,-9.03125 -2.25,0 0,9.15625 c 0,3.15625 -1.375,4.59375 -4.28125,4.59375 -2.9375,0 -4.28125,-1.4375 -4.28125,-4.59375 l 0,-9.15625 -2.25,0 z m 32.9375,0 0,9.03125 c 0,4.34375 2.375,6.8125 6.53125,6.8125 4.15625,0 6.53125,-2.46875 6.53125,-6.8125 l 0,-9.03125 -2.25,0 0,9.15625 c 0,3.15625 -1.375,4.59375 -4.28125,4.59375 -2.9375,0 -4.28125,-1.4375 -4.28125,-4.59375 l 0,-9.15625 -2.25,0 z m 67.4043,0 0,16.375 c 0,2.03125 -0.46875,3.09375 -3.1875,3.15625 l 0,2.09375 c 3.65625,0 5.4375,-1.6875 5.4375,-5.125 l 0,-16.5 -2.25,0 z M 283.25,517.15625 c 1.96875,0 4.59375,0.65625 4.59375,6.1875 0,4.0625 -1.4375,5.78125 -4.875,5.78125 -1.34375,0 -2.65625,-0.25 -3.875,-0.78125 l 0,-8.40625 c 0,-1.84375 1.40625,-2.78125 4.15625,-2.78125 z m 24.9668,0 c 3.5625,0 5.09375,1.8125 5.09375,6 0,4.1875 -1.53125,6 -5.09375,6 -3.53125,0 -5.0625,-1.8125 -5.0625,-6 0,-4.1875 1.53125,-6 5.0625,-6 z m 22.3125,0.0625 c 4.3125,0 4.5625,4.53125 4.5625,5.28125 l -9.125,0 c 0.21875,-3.84375 1.5,-5.28125 4.5625,-5.28125 z m -157.1543,5.875 c 1.75,0 2.78125,0.1875 2.78125,0.1875 l 0,3 c 0,2.375 -2.21875,2.84375 -4.15625,2.84375 -1.9375,0 -4.28125,-0.46875 -4.28125,-2.9375 0,-2.875 3.78125,-3.09375 5.65625,-3.09375 z" style="fill:#231f20;fill-opacity:1;fill-rule:nonzero;stroke:none"/></g></svg>