<?xml version="1.0" encoding="utf-8"?>
<!-- Generator: Adobe Illustrator 24.0.1, SVG Export Plug-In . SVG Version: 6.00 Build 0)  -->
<svg version="1.1"
	 id="svg2" xmlns:cc="http://creativecommons.org/ns#" xmlns:dc="http://purl.org/dc/elements/1.1/" xmlns:inkscape="http://www.inkscape.org/namespaces/inkscape" xmlns:rdf="http://www.w3.org/1999/02/22-rdf-syntax-ns#" xmlns:sodipodi="http://sodipodi.sourceforge.net/DTD/sodipodi-0.dtd" xmlns:svg="http://www.w3.org/2000/svg"
	 xmlns="http://www.w3.org/2000/svg" xmlns:xlink="http://www.w3.org/1999/xlink" x="0px" y="0px" viewBox="0 0 582 101.4"
	 style="enable-background:new 0 0 582 101.4;" xml:space="preserve">
<style type="text/css">
	.st0{fill:#1D4D99;}
</style>
<g id="Backspace">
	<path id="E" class="st0" d="M547.3,6.1c-1.3-0.5-1.9-1.8-1.4-3.1c0.5-1.3,1.8-1.9,3.1-1.4c1.3,0.5,1.9,1.8,1.4,3.1
		C549.9,5.9,548.5,6.5,547.3,6.1 M554.8,96.7c0.5-1.2,1.8-1.9,3.1-1.4c1.2,0.5,1.9,1.8,1.4,3.1c-0.5,1.3-1.8,1.9-3.1,1.4
		C554.9,99.4,554.3,98,554.8,96.7 M582,23.3v-8.9h-33.3V7.6c1.3-0.2,2.4-1.1,2.9-2.4c0.7-2-0.3-4.2-2.3-4.9c-2-0.7-4.2,0.3-4.9,2.3
		c-0.7,2,0.3,4.2,2.3,4.9c0.2,0.1,0.4,0.1,0.6,0.2v7.3V15v13.3v55.1v0.3c0,1.4,0.7,2.5,1.6,4.1l5.1,7.3c-0.3,0.3-0.5,0.7-0.6,1.1
		c-0.7,2,0.3,4.2,2.3,4.9c2,0.7,4.2-0.3,4.9-2.3c0.7-2-0.3-4.2-2.3-4.9c-1.2-0.4-2.4-0.2-3.3,0.4l-5-7.4c-0.4-0.7-0.7-1.3-0.9-1.9
		h33V76h-29.4V52.8h26.8v-8.9h-26.8V23.3C552.6,23.3,582,23.3,582,23.3z"/>
	<path id="_x34_" class="st0" d="M547.4,91.6c-0.2,0-0.4,0-0.6,0.1l-3-4.6c-0.6-0.9-1.2-2.3-1.2-3.2v-0.4V19.2v-3.9
		c0,0-0.2-0.9-0.7-0.9c-0.4,0-0.6,0.6-0.6,0.9c0,0.1,0,0.6,0,0.6v3.4v64.7c0,1.4,0.6,2.9,1.5,4.2l2.8,4.4c-0.4,0.4-0.6,1-0.6,1.5
		c0,1.3,1.1,2.4,2.4,2.4c1.3,0,2.4-1.1,2.4-2.4C549.8,92.7,548.7,91.6,547.4,91.6"/>
	<path id="C2" class="st0" d="M534.2,26c-4.4-2.6-9.3-3.9-14.6-3.9c-4,0-7.7,0.7-11,2c-3.4,1.3-6.3,3.3-8.6,5.8
		c-2.4,2.5-4.2,5.4-5.5,8.8c-1.3,3.4-1.9,7.1-1.9,11c0,4,0.7,7.8,2,11.2c1.3,3.4,3.3,6.3,5.7,8.8c2.5,2.5,5.3,4.3,8.5,5.7
		c3.2,1.3,6.7,2,10.3,2c2.6,0,5.4-0.3,8.4-1c3-0.6,5.3-1.5,7-2.5l0.6,9.8c-2.4,1-4.9,1.7-7.7,2c-2.8,0.3-5.6,0.5-8.3,0.5
		c-5.5,0-10.6-0.9-15.2-2.6c-4.6-1.7-8.5-4.2-11.8-7.4c-3.3-3.2-5.8-7.1-7.6-11.7c-1.8-4.5-2.6-9.6-2.6-15.1
		c0-5.3,0.9-10.2,2.7-14.7c1.8-4.5,4.4-8.3,7.8-11.5c3.4-3.2,7.3-5.7,11.9-7.4c4.6-1.7,9.5-2.6,14.9-2.6c6,0,11.3,1,15.9,3L534.2,26
		z"/>
	<path id="A2" class="st0" d="M436.2,58.9l14.1-35l14.1,35H436.2z M451.2,3c0.5-1.3,1.8-1.9,3.1-1.4c1.3,0.5,1.9,1.8,1.4,3.1
		c-0.4,1-1.3,1.6-2.3,1.6c-0.2,0-0.5,0-0.7-0.1c-0.2-0.1-0.4-0.2-0.6-0.3C451.2,5.2,450.8,4,451.2,3 M455.9,14.4h-6
		c1.1-2.6,2.1-4.9,2.9-6.8c1.8,0.3,3.6-0.7,4.2-2.4c0.7-2-0.3-4.2-2.3-4.9c-2-0.7-4.2,0.3-4.9,2.3c-0.6,1.8,0.1,3.7,1.6,4.6
		c-8.2,19.5-33.2,78.6-33.2,78.8c-0.1,0.3-0.1,1.2-0.1,1.2l0,1.1c0,1.4,0.7,3,1.7,4l4.5,4.4c1,0.9,2.6,1.6,4,1.6h20.3
		c0.3,1,1.2,1.7,2.3,1.7c1.3,0,2.4-1.1,2.4-2.4c0-1.3-1.1-2.4-2.4-2.4c-1.1,0-2,0.7-2.3,1.7h-20.4c-0.9,0-2.4-0.6-3-1.2l-4.5-4.4
		c-0.6-0.6-1.3-2.2-1.2-3.1c0,0-0.1-1.3,0.1-1.9c0,0,0.2-0.5,0.5-1.2h5.6l7.2-17.8h34.6l7.2,17.8h11
		C485.7,84.9,455.9,14.4,455.9,14.4z"/>
	<path id="_x33_" class="st0" d="M410,98.4c-0.5,1.3-1.8,1.9-3.1,1.4c-1.2-0.5-1.9-1.8-1.4-3.1c0.5-1.2,1.8-1.9,3.1-1.4
		C409.8,95.7,410.5,97.1,410,98.4 M442.6,12.3c-1.3,0-2.4,1.1-2.4,2.4c0,0.8,0.4,1.5,1,2l-32.8,77.2c-1.8-0.3-3.6,0.7-4.3,2.4
		c-0.7,2,0.3,4.2,2.3,4.9c2,0.7,4.2-0.3,4.9-2.3c0.6-1.7-0.1-3.6-1.6-4.6l32.9-77.2c0,0,0,0,0,0c1.3,0,2.4-1.1,2.4-2.4
		C445,13.4,443.9,12.3,442.6,12.3"/>
	<path id="P" class="st0" d="M413,41.2c-0.8,1.6-2,2.9-3.3,3.9c-1.4,1-2.9,1.7-4.6,2.1c-1.6,0.4-3.3,0.7-5,0.7h-10V23.3h8.6
		c1.7,0,3.4,0.2,5.3,0.7c1.8,0.5,3.5,1.2,5.1,2.1c1.5,0.9,2.8,2.2,3.8,3.8c1,1.6,1.5,3.4,1.5,5.5C414.2,37.6,413.8,39.5,413,41.2
		 M378,4.6c-0.5-1.2,0.2-2.6,1.4-3.1c1.3-0.5,2.6,0.2,3.1,1.4c0.5,1.3-0.2,2.6-1.4,3.1C379.8,6.5,378.4,5.9,378,4.6 M363.8,99.8
		c-1.3,0.5-2.6-0.2-3.1-1.4c-0.5-1.2,0.2-2.6,1.4-3.1c1.2-0.5,2.6,0.2,3.1,1.4C365.7,98,365.1,99.4,363.8,99.8 M422.9,25.5
		c-1.4-2.7-3.2-4.9-5.7-6.5c-2.4-1.6-5.2-2.8-8.3-3.5c-3.1-0.7-6.6-1.1-10.5-1.1h-17.6V7.6c0.2,0,0.4-0.1,0.6-0.2
		c2-0.7,3-2.9,2.3-4.9c-0.7-2-2.9-3-4.9-2.3s-3,2.9-2.3,4.9c0.5,1.3,1.6,2.2,2.9,2.4V16v0.2v13.3v55.1v0.3c0,0.9-0.4,2.1-1.2,3.4
		c0,0-3.7,5.8-4.1,6.3c-0.4,0.6-1.1,1.2-1.1,1.2c-0.5,0.5-2.8,1.4-3.5,1.4l-2.9,0c0-0.3-0.1-0.6-0.2-0.9c-0.7-2-2.9-3-4.9-2.3
		c-2,0.7-3,2.9-2.3,4.9c0.7,2,2.9,3,4.9,2.3c1.3-0.5,2.1-1.5,2.4-2.7l3,0c1.2,0,2.7-0.6,3.7-1.2c1.4-0.7,2.2-2.2,3-3.5
		c0.8-1.2,2.7-4.2,2.9-4.5c1-1.6,1.5-2.9,1.6-4.3h9.2V56.7h9.9c3.4,0,6.5-0.4,9.5-1.2c3-0.8,5.6-2,7.9-3.7c2.3-1.7,4.2-3.9,5.5-6.6
		c1.3-2.7,2-6,2-9.8C425,31.6,424.3,28.3,422.9,25.5"/>
	<path id="S" class="st0" d="M368.4,25c-2.8-1.1-5.1-1.8-6.9-2.3c-1.8-0.4-3.9-0.7-6.4-0.7c-1.5,0-2.9,0.2-4.4,0.5
		c-1.4,0.3-2.8,0.8-4,1.5c-1.2,0.7-2.2,1.7-2.9,2.9c-0.7,1.2-1.1,2.7-1.1,4.5c0,2.6,1,4.7,2.9,6.3c2,1.6,5,3.4,9.2,5.4
		c2.9,1.3,5.3,2.6,7.1,3.6c1.9,1.1,3.6,2.4,5.4,4.1c1.7,1.7,3.1,3.6,4.1,6c1,2.3,1.6,5.1,1.6,8.2c0,3.6-0.7,6.8-2,9.5
		c-1.3,2.7-3.2,4.9-5.5,6.6c-2.4,1.7-5.1,2.9-8.1,3.7c-3.1,0.8-6.5,1.2-10.2,1.2c-2.2,0-4.5-0.3-6.8-0.8c-2.3-0.5-4.9-1.2-7.7-2.2
		l1-9.4c2.2,0.9,4.6,1.7,7.2,2.4c2.7,0.7,5.1,1.1,7.4,1.1c1.5,0,3.1-0.2,4.8-0.7c1.6-0.4,3.1-1.1,4.5-2.1c1.4-0.9,2.5-2.2,3.3-3.6
		c0.8-1.5,1.3-3.2,1.3-5.2c0-1.8-0.4-3.3-1.1-4.6c-0.7-1.3-1.7-2.5-3-3.7c-1.7-1.3-4.8-3.1-9.2-5.2c-2.8-1.3-5-2.5-6.8-3.5
		c-1.8-1-3.4-2.2-5.1-3.7c-1.6-1.5-2.9-3.3-3.8-5.4c-0.9-2.1-1.4-4.5-1.4-7.4c0-6.1,2.1-10.8,6.4-14.2c4.2-3.4,9.7-5.1,16.3-5.1
		c2.4,0,5,0.2,7.6,0.6c2.6,0.4,5.1,1,7.5,1.9L368.4,25z"/>
	<path id="K2" class="st0" d="M278,95.2c1.3,0.5,1.9,1.8,1.4,3.1c-0.5,1.3-1.8,1.9-3.1,1.4c-1.3-0.5-1.9-1.8-1.4-3.1
		C275.3,95.4,276.7,94.8,278,95.2 M320.4,6.1c-1.3-0.5-1.9-1.8-1.4-3.1c0.5-1.3,1.8-1.9,3.1-1.4c1.3,0.5,1.9,1.8,1.4,3.1
		C323,5.9,321.6,6.6,320.4,6.1 M293.3,47.7l33.2-33.4h-10.1l4.2-4.3c0.6-0.6,1-1.5,1.3-2.5c1.3-0.2,2.5-1.1,2.9-2.4
		c0.7-2-0.3-4.2-2.3-4.9c-2-0.7-4.2,0.3-4.9,2.3c-0.7,2,0.3,4.2,2.3,4.9c0.2,0.1,0.4,0.1,0.5,0.1c-0.2,0.6-0.5,1.2-0.8,1.5L277.8,52
		c-0.8,0.9-1.4,2.2-1.4,3.4v38.4c-1.3,0.2-2.4,1.1-2.9,2.4c-0.7,2,0.3,4.2,2.3,4.9c2,0.7,4.2-0.3,4.9-2.3c0.7-2-0.3-4.2-2.3-4.9
		c-0.2-0.1-0.4-0.1-0.6-0.2v-8.9h5.1V50.4l31.4,34.6h14.8C329.1,84.9,293.3,47.7,293.3,47.7z"/>
	<path id="K1" class="st0" d="M312,7.7c-1.4,0-2.5,1.1-2.5,2.5c0,0.6,0.2,1.1,0.5,1.5l-27.7,28.1V14.4h-10.1v35.7l-0.7,0.7
		c-0.8,0.8-1.3,2.2-1.4,3.3v30.2c0,0,0.2,0.6,0.6,0.6c0.6,0,0.7-0.6,0.7-0.6V54.1c0-0.7,0.5-2,1-2.5L311,12.5c0.3,0.1,0.6,0.2,1,0.2
		c1.4,0,2.5-1.1,2.5-2.5C314.5,8.8,313.4,7.7,312,7.7"/>
	<path id="C2_1_" class="st0" d="M263.8,26c-4.4-2.6-9.3-3.9-14.6-3.9c-4,0-7.7,0.7-11,2c-3.4,1.3-6.3,3.3-8.6,5.8
		c-2.4,2.5-4.2,5.4-5.5,8.8c-1.3,3.4-1.9,7.1-1.9,11c0,4,0.7,7.8,2,11.2c1.3,3.4,3.3,6.3,5.7,8.8c2.5,2.5,5.3,4.3,8.5,5.7
		c3.2,1.3,6.7,2,10.3,2c2.6,0,5.4-0.3,8.4-1c3-0.6,5.3-1.5,7-2.5l0.6,9.8c-2.4,1-4.9,1.7-7.7,2c-2.8,0.3-5.6,0.5-8.3,0.5
		c-5.5,0-10.6-0.9-15.2-2.6c-4.6-1.7-8.5-4.2-11.8-7.4c-3.3-3.2-5.8-7.1-7.6-11.7c-1.8-4.5-2.6-9.6-2.6-15.1
		c0-5.3,0.9-10.2,2.7-14.7c1.8-4.5,4.4-8.3,7.8-11.5c3.4-3.2,7.3-5.7,11.9-7.4c4.6-1.7,9.5-2.6,14.9-2.6c6,0,11.3,1,15.9,3L263.8,26
		z"/>
	<path id="_x32_" class="st0" d="M249.8,4.6c-0.5,1.3-1.8,1.9-3.1,1.4c-1.3-0.5-1.9-1.8-1.4-3.1c0.5-1.3,1.8-1.9,3.1-1.4
		C249.6,2,250.2,3.4,249.8,4.6 M248.8,0.3c-2-0.7-4.2,0.3-4.9,2.3c-0.1,0.2-0.1,0.3-0.1,0.5h-48.4c-1.4,0-3,0.7-4,1.6l-2.9,3.5
		c-1,1-1.7,2.7-1.7,4.1c0,0-0.1,0.6,0,1.1c0,0.5,0.2,1.4,0.2,1.4L220.6,97c-0.6,0.4-1,1.1-1,1.9c0,1.3,1.1,2.4,2.4,2.4
		c1.3,0,2.4-1.1,2.4-2.4c0-1.3-1.1-2.4-2.4-2.4c0,0-0.1,0-0.1,0c-5.7-13.8-33.4-81.4-33.6-82.1c-0.3-0.8-0.2-2.1-0.2-2.1
		c0-0.9,0.7-2.7,1.4-3.3l2.9-3.5c0.6-0.6,2.1-1.3,3-1.2h48.4c0.2,1.3,1.1,2.5,2.5,3c2,0.7,4.2-0.3,4.9-2.3
		C251.8,3.2,250.8,1,248.8,0.3"/>
	<path id="A1" class="st0" d="M165.7,58.9l14.1-35l14.1,35H165.7z M177.6,6.2c-0.2,0.1-0.5,0.1-0.7,0.1c-1,0-2-0.6-2.3-1.6
		c-0.5-1.2,0.2-2.6,1.4-3.1c1.3-0.5,2.6,0.2,3.1,1.4c0.4,1,0,2.2-0.9,2.8C178,6,177.8,6.1,177.6,6.2 M212.5,89.7c-0.1,0-0.1,0-0.2,0
		L178.7,7.1c1.6-0.9,2.3-2.8,1.7-4.6c-0.7-2-2.9-3-4.9-2.3c-2,0.7-3,2.9-2.3,4.9c0.6,1.8,2.4,2.7,4.2,2.4l2.8,6.8h-5.3l-30.1,70.6
		h10.6l7.2-17.8H197l7.2,17.8h4.6l2.2,5.3c-0.5,0.4-0.9,1.1-0.9,1.9c0,1.3,1.1,2.4,2.4,2.4s2.4-1.1,2.4-2.4
		C214.9,90.8,213.8,89.7,212.5,89.7"/>
	<path id="B" class="st0" d="M132.8,70.9c-0.9,1.5-2.2,2.7-3.7,3.5c-1.6,0.8-3.4,1.4-5.4,1.7c-2,0.3-4.3,0.5-6.8,0.5h-7.6V52.8h6.6
		c2.6,0,4.9,0.2,6.9,0.5c2.1,0.3,3.9,0.9,5.7,1.8c1.7,0.9,3.1,2.2,4.1,3.8c1,1.7,1.6,3.8,1.6,6.4C134.2,67.5,133.7,69.4,132.8,70.9
		 M109.3,22.7h10.6c1.6,0,3.2,0.2,4.7,0.5c1.5,0.3,2.9,0.9,4.1,1.7c1.2,0.8,2.3,1.9,3,3.2c0.8,1.4,1.2,3.1,1.2,5.1
		c0,2.5-0.5,4.5-1.4,6.1c-0.9,1.6-2.2,2.7-3.8,3.4c-1.7,0.7-3.5,1.2-5.5,1.5c-2,0.2-4.5,0.4-7.4,0.4h-5.6V22.7z M115.9,92.7
		c1.3,0.5,1.9,1.8,1.4,3.1c-0.5,1.3-1.8,1.9-3.1,1.4c-1.3-0.5-1.9-1.8-1.4-3.1c0-0.1,0.1-0.1,0.1-0.2c0.2-0.4,0.5-0.8,0.9-1
		C114.4,92.5,115.2,92.4,115.9,92.7 M102.4,6c-1.3-0.5-1.9-1.8-1.4-3.1c0.5-1.3,1.8-1.9,3.1-1.4c1.3,0.5,1.9,1.8,1.4,3.1
		C105.1,5.8,103.7,6.5,102.4,6 M140.4,54.3c-3-3-7-4.8-11.9-5.2v-0.2c4.7-1.1,8.3-3.1,10.8-5.8c2.5-2.7,3.7-6.4,3.7-11
		c0-6.2-2.2-10.7-6.5-13.5c-4.3-2.8-10.4-4.2-18.3-4.2H104V7.5c1.3-0.3,2.4-1.1,2.9-2.4c0.7-2-0.3-4.2-2.3-4.9
		c-2-0.7-4.2,0.3-4.9,2.3c-0.7,2,0.3,4.2,2.3,4.9c0.2,0.1,0.5,0.1,0.7,0.2v73.8c0,1.4,0.7,3,1.6,3.9l7.6,7.6
		c-0.1,0.2-0.3,0.5-0.4,0.7c-0.7,2,0.3,4.2,2.3,4.9c2,0.7,4.2-0.3,4.9-2.3c0.7-2-0.3-4.2-2.3-4.9c-1.3-0.5-2.6-0.2-3.6,0.6l-6.9-6.9
		H118c3.8,0,7.4-0.3,10.6-0.9c3.2-0.6,6-1.6,8.5-3c2.5-1.4,4.4-3.4,5.8-5.8c1.4-2.5,2.1-5.5,2.1-9.2
		C144.9,61.3,143.4,57.3,140.4,54.3"/>
	<path id="_x31_" class="st0" d="M106.5,96.7v-0.2c0-0.2,0-0.7-0.1-0.9c0,0-0.6-2-1.3-3.1c-0.2-0.2-0.3-0.4-0.5-0.6l-5.1-5.1
		c-0.1-0.1-0.4-0.6-0.6-0.8c0,0-0.2-0.4-0.4-0.8c-0.2-0.5-0.4-1-0.4-1.2c-0.1-0.4-0.1-1-0.1-1.2l0-67.5c0-0.2-0.3-0.9-0.7-0.9
		s-0.7,0.7-0.7,0.9v67.6c0,0.2,0,0.7,0.1,1c0.1,0.4,0.3,1.1,0.6,1.8c0.2,0.5,0.5,1,0.7,1.4c0.1,0.2,0.3,0.4,0.5,0.6l5.2,5.2
		c0.1,0.1,0.2,0.2,0.5,0.6c0.3,0.5,1,2.3,1,2.3c0.1,0.2,0.1,0.5,0.1,0.8v0.2c-1,0.3-1.7,1.2-1.7,2.3c0,1.3,1.1,2.4,2.4,2.4
		c1.3,0,2.4-1.1,2.4-2.4C108.2,97.9,107.5,97,106.5,96.7"/>
</g>
<g id="Icon">
	<path id="path86" class="st0" d="M5.8,9c0.5-1.3,1.8-1.9,3.1-1.4c1.3,0.5,1.9,1.8,1.4,3.1c-0.5,1.3-1.8,1.9-3.1,1.4
		C6,11.6,5.3,10.3,5.8,9 M83.8,87c-1.2,0-2.1,0.8-2.4,1.8l-62.9,0.1c-0.7,0-2.6,0-3.6-0.9c-0.7-0.7-4.9-6.8-4.9-6.8
		c-0.7-1.3-1.2-2.4-1.2-3.4v-0.3V26.7v-8.2v-0.2v-4.7c1.3-0.2,2.4-1.1,2.9-2.4c0.1-0.2,0.2-0.5,0.2-0.7h53.3c0.8,0,1.7-0.3,2.5-0.7
		c0.4,0.4,1,0.6,1.5,0.6c1.3,0,2.4-1.1,2.4-2.4c0-1.3-1.1-2.4-2.4-2.4c-1.3,0-2.4,1.1-2.4,2.4c0,0.2,0,0.5,0.1,0.7
		c-0.6,0.3-1.3,0.5-1.8,0.5l-53.3,0c-0.3-1.2-1.1-2.3-2.4-2.8c-2-0.7-4.2,0.3-4.9,2.3c-0.7,2,0.3,4.2,2.3,4.9
		c0.2,0.1,0.4,0.1,0.6,0.2v4.7v0.2v8.2v50.8v0.3c0,1.4,0.7,3,1.7,4.4c0.2,0.3,0.4,0.6,0.5,0.8c0.8,1.2,1.5,2.1,2.3,3.3
		c0.8,1.2,1.7,2.5,3,3.2c1,0.5,2.4,0.6,3.6,0.6l62.8,0c0.3,1.1,1.3,1.9,2.4,1.9c1.4,0,2.5-1.1,2.5-2.5C86.3,88.1,85.2,87,83.8,87"/>
	<path id="path82" class="st0" d="M81.9,25c-0.4,1.1-1.4,1.8-2.5,1.6c-0.1,0-0.4-0.1-0.5-0.1c-0.1-0.1-0.3-0.1-0.4-0.2L59.8,45.9
		l-2.2,2.3c0.2,0.4,0.3,0.9,0.2,1.4c-0.1,0.5-0.3,1-0.6,1.4c-0.9,1-2.5,1-3.4,0.1c-1-0.9-1-2.5-0.1-3.4c0.8-0.8,2-1.1,3-0.5l2.2-2.2
		l18.6-19.5c-0.3-0.6-0.4-1.3-0.2-2c0.5-1.3,1.9-1.9,3.2-1.5c0,0,0,0,0.1,0C81.8,22.4,82.4,23.8,81.9,25 M72.9,76.9
		c-0.2,0.1-0.4,0.2-0.6,0.2c-0.2,0-0.4-0.1-0.6-0.3L47,50.7L22.2,76.8c-0.2,0.2-0.4,0.3-0.6,0.3c-0.2,0-0.4-0.1-0.6-0.2
		c-0.3-0.3-0.3-0.8,0-1.1l24.9-26.2L21,23.2c-0.3-0.3-0.3-0.8,0-1.1c0.3-0.3,0.8-0.3,1.1,0L47,48.3l24.8-26.2c0.3-0.3,0.8-0.3,1.1,0
		c0.3,0.3,0.3,0.8,0,1.1L48.1,49.5L73,75.7C73.3,76.1,73.3,76.6,72.9,76.9 M17.1,73.7C17.1,73.7,17.1,73.7,17.1,73.7
		c0,0.2,0,0.3,0,0.5c0,0,0,0.1,0,0.1c0,0.2-0.1,0.3-0.1,0.5c-0.5,1.3-1.9,1.9-3.2,1.5c-1.3-0.5-1.9-1.9-1.5-3.2
		c0.2-0.5,0.5-0.9,1-1.2c0.1-0.1,0.3-0.2,0.5-0.2c0,0,0.1,0,0.1,0c0.1,0,0.3-0.1,0.4-0.1c0,0,0.1,0,0.1,0c0.1,0,0.3,0,0.4,0
		c0,0,0.1,0,0.1,0c0.2,0,0.3,0.1,0.5,0.1c0.1,0,0.3,0.1,0.4,0.2l18.4-19.2l2.2-2.3c-0.4-0.9-0.3-1.9,0.4-2.7c0.9-1,2.4-1,3.4-0.1
		c1,0.9,1,2.4,0.1,3.4c-0.8,0.8-1.9,1-2.9,0.5l-2.1,2.2L16.9,72.9C17,73.1,17.1,73.4,17.1,73.7 M81,20.5c-0.2-0.1-0.3-0.1-0.5-0.1
		v-1.6c0-2.4-1.9-4.4-4.4-4.4H17.7c-2.4,0-4.4,2-4.4,4.4v51.6c-1,0.4-1.9,1.2-2.3,2.3c-0.7,2,0.3,4.3,2.3,5c0.4,0.2,0.9,0.2,1.3,0.2
		c0.6,0.8,4.3,5.9,4.7,6.3c0.5,0.5,1.3,0.7,2.4,0.7h54.4c2.4,0,4.4-2,4.4-4.4V27.9c1.2-0.3,2.3-1.2,2.8-2.5C84,23.5,83,21.2,81,20.5
		"/>
	<path id="path78" class="st0" d="M71.6,93.7L13,93.7c-0.7,0-2.4,0-3.3-0.7c-0.9-0.7-1-0.9-1.4-1.4C7.9,91.2,4.4,86,4.4,86
		c-0.7-1.3-1.2-2.4-1.2-3.4v-0.3V50.7v-8.2v-0.2v-3.1C4.3,39,5,38,5,36.9c0-1.4-1.1-2.5-2.5-2.5c-1.4,0-2.5,1.1-2.5,2.5
		C0,38,0.8,39,1.8,39.3v3.1v0.2v8.2v31.7v0.3c0,1.4,0.7,3,1.7,4.4c0.2,0.3,0.4,0.6,0.5,0.8c0.8,1.2,1.5,2.1,2.3,3.3
		c0.8,1.2,1.7,2.5,3,3.2c1,0.6,2.4,0.6,3.6,0.6l58.6,0c0,0,1.1,0,1.1-0.7C72.7,93.6,71.6,93.7,71.6,93.7"/>
</g>
</svg>
