<?xml version="1.0" encoding="utf-8"?>
<svg version="1.1" xmlns="http://www.w3.org/2000/svg">
<symbol id="rss" viewBox="0 0 100 100">
<circle cx="13" cy="87" r="13"/>
<path d="M0,55V35c43.3,0,65,21.7,65,65H45C45,70,30,55,0,55z"/>
<path d="M0,20V0c66.7,0,100,33.3,100,100H80C80,46.7,53.3,20,0,20z"/>
</symbol>
<symbol id="cal" viewBox="0 0 100 100">
<circle cx="74" cy="76" r="8"/><circle cx="74" cy="52" r="8"/>
<circle cx="50" cy="76" r="8"/><circle cx="50" cy="52" r="8"/>
<circle cx="26" cy="76" r="8"/><circle cx="26" cy="52" r="8"/>
<path d="M100,19c0-4.2-3.8-8-8-8h-6v9c0,4.5-5,8-10,8s-10-3.5-10-8v-9H34v9c0,4.5-5,8-10,8s-10-3.5-10-8v-9H8c-4.2,0-8,3.8-8,8v73c0,4.2,3.8,8,8,8h84c4.2,0,8-3.8,8-8V19z M91.3,84.6c0,3.2-2.6,5.8-5.8,5.8H14.4c-3.2,0-5.8-2.6-5.8-5.8V38.5h82.7V84.6z"/>
<path d="M19,3.5v16c0,1.9,2,3.5,5,3.5s5-1.6,5-3.5v-16C29,1.6,27,0,24,0S19,1.6,19,3.5z"/>
<path d="M71,3.5v16c0,1.9,2,3.5,5,3.5s5-1.6,5-3.5v-16C81,1.6,79,0,76,0S71,1.6,71,3.5z"/>
</symbol>
<symbol id="insta" viewBox="0 0 100 100">
<circle cx="76.7" cy="23.3" r="6"/>
<path d="M50,33.3c22.9,1.4,20.9,32.8,0,33.4C27.1,65.3,29.1,33.9,50,33.3 M50,24.3C14.2,26.6,17.9,75,50,75.7C85.8,73.4,82.1,25,50,24.3L50,24.3z"/>
<path d="M71,9c11,0,20,9,20,20v42c0,11-9,20-20,20H29C18,91,9,82,9,71V29C9,18,18,9,29,9H71 M71,0H29C13,0,0,13,0,29v42c0,16,13,29,29,29h42c16,0,29-13,29-29V29C100,13,87,0,71,0L71,0z"/>
</symbol>
<symbol id="fb" viewBox="0 0 100 100">
<path d="M81.2,0c9.7-0.3,19,8.5,18.8,18.8v62.5c0.3,9.7-8.5,19-18.8,18.8H69V61.3h13l2-15.1H69v-9.6c0.1-4.8,1.7-7.3,7.5-7.3l7.9-0.1V15.7c-16.6-2.5-31,0.9-31.1,19.3v11.1h-13v15.1h13V100H18.8C10.7,100,0,90.6,0,81.2V18.8C-0.3,9,8.5-0.3,18.8,0H81.2z"/>
</symbol>
<symbol id="fb2" viewBox="0 0 100 100">
<path d="M66.3,100.1V54.5h15.3l2.4-17.8H66.3V25.4c0.1-5.6,2-8.6,8.8-8.6l9.3-0.1V0.9C64.9-2.1,47.9,1.9,47.8,23.5v13.1H32.5v17.8h15.3V100L66.3,100.1z"/>
</symbol>
<symbol id="place" viewBox="0 0 100 100">
<path d="M16.7,33.4c0,4.7,0.7,8.6,2.1,11.6l23.8,50.4c2.7,5.9,11.8,6.3,14.9,0L81.2,45c1.4-3,2.1-6.9,2.1-11.6C83.3-11.1,16.7-11.1,16.7,33.4z M50,49.7c-9.2,0-16.7-7.5-16.7-16.7S40.8,16.3,50,16.3S66.7,23.8,66.7,33S59.2,49.7,50,49.7z"/>
</symbol>
<symbol id="time" viewBox="0 0 100 100">
<path d="M50,0C22.4,0,0,22.4,0,50s22.4,50,50,50s50-22.4,50-50S77.6,0,50,0z M50,85.4c-19.6,0-35.4-15.9-35.4-35.4S30.4,14.6,50,14.6S85.4,30.4,85.4,50S69.6,85.4,50,85.4z"/>
<rect x="33.3" y="50" width="25" height="8.3"/>
<rect x="50" y="25" width="8.3" height="25"/>
</symbol>
<symbol id="link" viewBox="0 0 100 100">
<path d="M43,25c2.3,2.3,2.3,7.7,0,10l-8,8c-2.3,2.3-7.7,2.3-10,0L13,31c-2.3-2.3-2.3-6.7,0-9l9-9c2.3-2.3,6.7-2.3,9,0L43,25z M38,5c-6.8-6.8-17.2-6.3-24,0.5L5.5,14C-1.3,20.8-1.8,31.2,5,38l13,13c6.8,6.8,17.2,6.8,24,0l9-9c6.8-6.8,6.8-17.2,0-24L38,5z"/>
<path d="M86,68c2.3,2.3,2.3,7.7,0,10l-8,8c-2.3,2.3-7.7,2.3-10,0L56,74c-2.3-2.3-2.3-6.7,0-9l9-9c2.3-2.3,6.7-2.3,9,0L86,68z M81,48c-6.8-6.8-17.2-6.3-24,0.5L48.5,57c-6.8,6.8-7.3,17.2-0.5,24l13,13c6.8,6.8,17.2,6.8,24,0l9-9c6.8-6.8,6.8-17.2,0-24L81,48z"/>
<path d="M59,67L33,41c-2-2-2-5,0-7l1-1c2-2,5-2,7,0l26,26c2,2,2,5,0,7l-1,1C64,69,61,69,59,67z"/>
</symbol>
</svg>
