<?xml version="1.0" encoding="utf-8"?>
<svg version="1.1" xmlns="http://www.w3.org/2000/svg" xmlns:xlink="http://www.w3.org/1999/xlink" viewBox="0 0 100 100">
<path fill="#F39" d="M66.5,50.1c-1.2-23-32.9-21.2-33.3,0C34.3,73,66.1,71.3,66.5,50.1z M75.5,50.1c-1.6,35.1-50.6,33.1-51.3,0C25.8,15,74.8,17,75.5,50.1z M82.5,23.4c-0.4,8.2-11.8,7.6-12,0C70.9,15.2,82.3,15.7,82.5,23.4z M49.8,9.1c-39-1-41.7,3-41,40.4c-0.3,31-1.3,42.5,31.4,41.7c44-0.1,52,3.7,50.6-40C91.8,11.1,88.5,8.3,49.8,9.1z M99.8,50.1c1.5,43.2-7.6,51-47.3,50C11.3,101.5-0.6,95.3-0.1,60C-1.4,10.6,1.4-1.2,47.1,0.1C93.9-1.5,101,6.7,99.8,50.1z"/></svg>