<?xml version="1.0" encoding="utf-8"?>
<svg version="1.1" xmlns="http://www.w3.org/2000/svg" xmlns:xlink="http://www.w3.org/1999/xlink" viewBox="0 0 100 100">
<path fill="#F39" d="M26.9,86.8c-0.7,18.5-26.9,17.9-27.4,0C0.2,68.3,26.4,68.8,26.9,86.8z M63.4,95.6c-0.3,5.5-4,5-9.4,4.9c-5.2,0-8.4,0.7-9.3-4.1C42.9,74.7,25.1,57,3.6,55.2c-5.2-1-4-4.7-4.1-9.6c-0.1-5.2-0.4-8.8,4.9-9.1C36.2,39.1,61,64.5,63.4,95.6zM100,95.7c-0.4,5.5-4.2,4.8-9.8,4.8c-5.3,0-8.8,0.7-9.6-4.3c-2.5-42-35.7-74.4-76.9-77c-5.4-0.9-4.1-4.9-4.3-10C-0.6,4-1.1,0.4,4.3,0C55.9,2.5,97.6,44.6,100,95.7z"/></svg>